<?xml version="1.0" encoding="UTF-8"?>
<!DOCTYPE svg PUBLIC "-//W3C//DTD SVG 1.1//EN" 
"http://www.w3.org/Graphics/SVG/1.1/DTD/svg11.dtd">

<svg width="100%" height="100%" version="1.1"
xmlns="http://www.w3.org/2000/svg">
<path d="M 38.33036795412893 48.3280029296875 L 38.74523535525198 47.50386047363281 L 39.00160589968557 46.61750793457031 L 39.09074393069143 45.699127197265625 L 39.00961294924612 44.780029296875 L 38.76097861086721 43.8914794921875 L 38.353305728787134 43.06373596191406 L 37.80047980105276 42.32499694824219 L 37.12132254397268 41.70042419433594 L 36.33896628176565 41.21128845214844 L 35.480049045437525 40.87422180175781 L 34.573825748318384 40.70072937011719 L 33.6511496618926 40.69671630859375 L 32.7434462622344 40.8623046875 L 31.881626041287134 41.191864013671875 L 31.09503546511526 41.674163818359375 L 30.410461337917994 42.29280090332031 L 17.834520252102564 55.9677734375 L 11.67598906313772 74.63508605957031 L 13.760097415798853 94.18125915527344 L 23.716222675198267 111.1303482055664 L 36.7767829016387 120.35211944580078 L 36.7767829016387 137.76174926757812 L 36.86191550051565 138.6804962158203 L 37.114421756619166 139.56795501708984 L 37.525695712917994 140.39391326904297 L 38.08173743044729 141.1302261352539 L 38.76360693728323 141.75183868408203 L 39.54809180056448 142.23756408691406 L 40.40846625124807 142.5708770751953 L 41.31544104372854 142.74041748046875 L 42.23812475954885 142.74041748046875 L 43.145095737332056 142.5708770751953 L 44.005474002712916 142.23756408691406 L 44.7899550512969 141.75183868408203 L 45.4718283728301 141.1302261352539 L 46.027866275662134 140.39391326904297 L 46.43914404665823 139.56795501708984 L 46.69164648806448 138.6804962158203 L 46.7767829016387 137.76174926757812 L 46.7767829016387 115.17137908935547 L 31.246154697292994 104.20555114746094 L 23.475038440579127 90.97618103027344 L 21.84831801211233 75.71969604492188 L 26.655273349636744 61.14918518066406 L 37.77112189089651 49.0618896484375 z" fill="rgb(88%, 43%, 83%)" style="stroke:none;"/>
<path d="M 38.33036795412893 48.3280029296875 L 38.74523535525198 47.50386047363281 L 39.00160589968557 46.61750793457031 L 39.09074393069143 45.699127197265625 L 39.00961294924612 44.780029296875 L 38.76097861086721 43.8914794921875 L 38.353305728787134 43.06373596191406 L 37.80047980105276 42.32499694824219 L 37.12132254397268 41.70042419433594 L 36.33896628176565 41.21128845214844 L 35.480049045437525 40.87422180175781 L 34.573825748318384 40.70072937011719 L 33.6511496618926 40.69671630859375 L 32.7434462622344 40.8623046875 L 31.881626041287134 41.191864013671875 L 31.09503546511526 41.674163818359375 L 30.410461337917994 42.29280090332031 L 17.834520252102564 55.9677734375 L 11.67598906313772 74.63508605957031 L 13.760097415798853 94.18125915527344 L 23.716222675198267 111.1303482055664 L 36.7767829016387 120.35211944580078 L 36.7767829016387 137.76174926757812 L 36.86191550051565 138.6804962158203 L 37.114421756619166 139.56795501708984 L 37.525695712917994 140.39391326904297 L 38.08173743044729 141.1302261352539 L 38.76360693728323 141.75183868408203 L 39.54809180056448 142.23756408691406 L 40.40846625124807 142.5708770751953 L 41.31544104372854 142.74041748046875 L 42.23812475954885 142.74041748046875 L 43.145095737332056 142.5708770751953 L 44.005474002712916 142.23756408691406 L 44.7899550512969 141.75183868408203 L 45.4718283728301 141.1302261352539 L 46.027866275662134 140.39391326904297 L 46.43914404665823 139.56795501708984 L 46.69164648806448 138.6804962158203 L 46.7767829016387 137.76174926757812 L 46.7767829016387 115.17137908935547 L 31.246154697292994 104.20555114746094 L 23.475038440579127 90.97618103027344 L 21.84831801211233 75.71969604492188 L 26.655273349636744 61.14918518066406 L 37.77112189089651 49.0618896484375 z" style="fill:none; stroke:rgb(43%, 84%, 43%); stroke-width:1.0;"/>
<path d="M 83.86924734866018 105.97076416015625 L 83.63747397219534 106.8638687133789 L 83.57375326907034 107.78434753417969 L 83.68025961672659 108.70086669921875 L 83.95336142336721 109.58220672607422 L 84.38375845705862 110.39835357666016 L 84.95679465090628 111.12152862548828 L 85.65295401369924 111.72708892822266 L 86.44853201662893 112.19441986083984 L 87.31643667971487 112.50760650634766 L 88.227111728543 112.65599060058594 L 89.14954367434378 112.63450622558594 L 90.05232229983206 112.44388580322266 L 90.90470877444143 112.09063720703125 L 91.67766562258596 111.5867691040039 L 92.34487906252737 110.94945526123047 L 92.88362112795706 110.20038604736328 L 102.2934950903594 94.18118286132812 L 104.37756338869924 74.63496398925781 L 98.21896353518362 55.96763610839844 L 87.86089316164846 44.704437255859375 L 93.61703482424612 31.69775390625 L 93.91098776614065 30.823150634765625 L 94.03923788821096 29.909423828125 L 93.99740591799612 28.987686157226562 L 93.78691092287893 28.089340209960938 L 93.4149321631133 27.244949340820312 L 92.89413443362112 26.483306884765625 L 92.242248447293 25.830322265625 L 91.48147574221487 25.3082275390625 L 90.63772574221487 24.934829711914062 L 89.73973074709768 24.722824096679688 L 88.81806937014456 24.679428100585938 L 87.90412894045706 24.806137084960938 L 87.02902975832815 25.098617553710938 L 86.2225722387969 25.546920776367188 L 85.5122222021758 26.135772705078125 L 84.92216482912893 26.845123291015625 L 84.47250357424612 27.65081787109375 L 76.06435385500784 46.65003967285156 L 89.39822378908987 61.14906311035156 L 94.2052382544219 75.71958923339844 L 92.57854452883596 90.97611999511719 L 84.26117697512503 105.13545989990234 z" fill="rgb(88%, 43%, 83%)" style="stroke:none;"/>
<path d="M 83.86924734866018 105.97076416015625 L 83.63747397219534 106.8638687133789 L 83.57375326907034 107.78434753417969 L 83.68025961672659 108.70086669921875 L 83.95336142336721 109.58220672607422 L 84.38375845705862 110.39835357666016 L 84.95679465090628 111.12152862548828 L 85.65295401369924 111.72708892822266 L 86.44853201662893 112.19441986083984 L 87.31643667971487 112.50760650634766 L 88.227111728543 112.65599060058594 L 89.14954367434378 112.63450622558594 L 90.05232229983206 112.44388580322266 L 90.90470877444143 112.09063720703125 L 91.67766562258596 111.5867691040039 L 92.34487906252737 110.94945526123047 L 92.88362112795706 110.20038604736328 L 102.2934950903594 94.18118286132812 L 104.37756338869924 74.63496398925781 L 98.21896353518362 55.96763610839844 L 87.86089316164846 44.704437255859375 L 93.61703482424612 31.69775390625 L 93.91098776614065 30.823150634765625 L 94.03923788821096 29.909423828125 L 93.99740591799612 28.987686157226562 L 93.78691092287893 28.089340209960938 L 93.4149321631133 27.244949340820312 L 92.89413443362112 26.483306884765625 L 92.242248447293 25.830322265625 L 91.48147574221487 25.3082275390625 L 90.63772574221487 24.934829711914062 L 89.73973074709768 24.722824096679688 L 88.81806937014456 24.679428100585938 L 87.90412894045706 24.806137084960938 L 87.02902975832815 25.098617553710938 L 86.2225722387969 25.546920776367188 L 85.5122222021758 26.135772705078125 L 84.92216482912893 26.845123291015625 L 84.47250357424612 27.65081787109375 L 76.06435385500784 46.65003967285156 L 89.39822378908987 61.14906311035156 L 94.2052382544219 75.71958923339844 L 92.57854452883596 90.97611999511719 L 84.26117697512503 105.13545989990234 z" style="fill:none; stroke:rgb(43%, 84%, 43%); stroke-width:1.0;"/>
<path d="M 85.08152762209768 32.722686767578125 L 85.7091445044219 33.399017333984375 L 86.45036307131643 33.948516845703125 L 87.2799223974883 34.35246276855469 L 88.16958609377737 34.59709167480469 L 89.0890502051055 34.67408752441406 L 90.00700369631643 34.58082580566406 L 90.89219656741018 34.320465087890625 L 91.71447745119924 33.90190124511719 L 92.4458388403594 33.33935546875 L 93.06138602053518 32.652008056640625 L 93.54014578616018 31.863250732421875 L 93.86582937991018 30.999954223632812 L 94.02732840334768 30.091522216796875 L 94.01915732180471 29.168869018554688 L 93.8415907934844 28.263442993164062 L 93.5006712988555 27.406051635742188 L 84.48355093752737 9.692153930664062 L 62.730117709988306 5.0 L 45.35725775515432 18.907257080078125 L 45.220439823025416 35.50700378417969 L 32.132881076687525 41.076629638671875 L 31.3208388403594 41.51472473144531 L 30.603122623318384 42.09458923339844 L 30.004177005642603 42.79644775390625 L 29.544395358914088 43.596405029296875 L 29.239437015408228 44.46723937988281 L 29.09968176638479 45.37928771972656 L 29.129897983425806 46.30146789550781 L 29.329048068875025 47.20240783691406 L 29.69035330569143 48.05140686035156 L 30.201511295193384 48.81956481933594 L 30.845115573757838 49.480712890625 L 31.59924689089651 50.01234436035156 L 32.43822470461721 50.39634704589844 L 33.333476932400416 50.619659423828125 L 34.25452032839651 50.67466735839844 L 35.16998663699026 50.55949401855469 L 36.04870215212698 50.27806091308594 L 55.16608801638479 42.142333984375 L 55.31773749148245 23.743209838867188 L 65.26845541750784 15.777496337890625 L 77.72824850832815 18.465042114257812 L 84.58886709963674 31.942535400390625 z" fill="rgb(73%, 54%, 45%)" style="stroke:none;"/>
<path d="M 85.08152762209768 32.722686767578125 L 85.7091445044219 33.399017333984375 L 86.45036307131643 33.948516845703125 L 87.2799223974883 34.35246276855469 L 88.16958609377737 34.59709167480469 L 89.0890502051055 34.67408752441406 L 90.00700369631643 34.58082580566406 L 90.89219656741018 34.320465087890625 L 91.71447745119924 33.90190124511719 L 92.4458388403594 33.33935546875 L 93.06138602053518 32.652008056640625 L 93.54014578616018 31.863250732421875 L 93.86582937991018 30.999954223632812 L 94.02732840334768 30.091522216796875 L 94.01915732180471 29.168869018554688 L 93.8415907934844 28.263442993164062 L 93.5006712988555 27.406051635742188 L 84.48355093752737 9.692153930664062 L 62.730117709988306 5.0 L 45.35725775515432 18.907257080078125 L 45.220439823025416 35.50700378417969 L 32.132881076687525 41.076629638671875 L 31.3208388403594 41.51472473144531 L 30.603122623318384 42.09458923339844 L 30.004177005642603 42.79644775390625 L 29.544395358914088 43.596405029296875 L 29.239437015408228 44.46723937988281 L 29.09968176638479 45.37928771972656 L 29.129897983425806 46.30146789550781 L 29.329048068875025 47.20240783691406 L 29.69035330569143 48.05140686035156 L 30.201511295193384 48.81956481933594 L 30.845115573757838 49.480712890625 L 31.59924689089651 50.01234436035156 L 32.43822470461721 50.39634704589844 L 33.333476932400416 50.619659423828125 L 34.25452032839651 50.67466735839844 L 35.16998663699026 50.55949401855469 L 36.04870215212698 50.27806091308594 L 55.16608801638479 42.142333984375 L 55.31773749148245 23.743209838867188 L 65.26845541750784 15.777496337890625 L 77.72824850832815 18.465042114257812 L 84.58886709963674 31.942535400390625 z" style="fill:none; stroke:rgb(43%, 84%, 43%); stroke-width:1.0;"/>
<line x1="29.276781988574555" y1="197.76174926757812" x2="36.776781988574555" y2="197.76174926757812" stroke="rgb(35%, 35%, 35%)" stroke-width="1.0" />
<line x1="41.776781988574555" y1="192.76174926757812" x2="41.776781988574555" y2="182.76174926757812" stroke="rgb(35%, 35%, 35%)" stroke-width="1.0" />
<line x1="41.776781988574555" y1="172.76174926757812" x2="41.776781988574555" y2="162.76174926757812" stroke="rgb(35%, 35%, 35%)" stroke-width="1.0" />
<line x1="41.776781988574555" y1="152.76174926757812" x2="41.776781988574555" y2="142.76174926757812" stroke="rgb(35%, 35%, 35%)" stroke-width="1.0" />
<line x1="41.776781988574555" y1="132.76174926757812" x2="41.776781988574555" y2="122.76174926757812" stroke="rgb(35%, 35%, 35%)" stroke-width="1.0" />
<line x1="37.69231830391479" y1="114.87780120828587" x2="31.565651844008784" y2="110.55189964296231" stroke="rgb(35%, 35%, 35%)" stroke-width="1.0" />
<line x1="24.948720083268917" y1="103.35673302696998" x2="21.150035991456498" y2="96.88993587270446" stroke="rgb(35%, 35%, 35%)" stroke-width="1.0" />
<line x1="18.08744844384888" y1="87.60689940442441" x2="17.29227300915254" y2="80.149207918994" stroke="rgb(35%, 35%, 35%)" stroke-width="1.0" />
<line x1="18.328654695036484" y1="70.42911936181804" x2="20.678395283149015" y2="63.30674718448961" stroke="rgb(35%, 35%, 35%)" stroke-width="1.0" />
<line x1="25.629444729341984" y1="54.8781459992673" x2="30.70624307637813" y2="49.35767638089814" stroke="rgb(35%, 35%, 35%)" stroke-width="1.0" />
<line x1="38.69150695264336" y1="43.71943468826095" x2="45.59254759287886" y2="40.78258189221836" stroke="rgb(35%, 35%, 35%)" stroke-width="1.0" />
<line x1="50.23447334487244" y1="33.82484056985763" x2="50.296288886371215" y2="26.325059557181504" stroke="rgb(35%, 35%, 35%)" stroke-width="1.0" />
<line x1="54.24085960918994" y1="18.20052518553686" x2="60.09592836338332" y2="13.51344653429399" stroke="rgb(35%, 35%, 35%)" stroke-width="1.0" />
<line x1="68.88688288379574" y1="11.442983889522395" x2="76.21830878289204" y2="13.02435376571458" stroke="rgb(35%, 35%, 35%)" stroke-width="1.0" />
<line x1="83.37414558580078" y1="18.53449864525186" x2="86.77652606942057" y2="25.218385496774033" stroke="rgb(35%, 35%, 35%)" stroke-width="1.0" />
<line x1="87.02130305182102" y1="34.24655148839386" x2="83.98608979244035" y2="41.1049781935026" stroke="rgb(35%, 35%, 35%)" stroke-width="1.0" />
<line x1="85.3471867498681" y1="49.357558043146526" x2="90.42403097361682" y2="54.878033813203785" stroke="rgb(35%, 35%, 35%)" stroke-width="1.0" />
<line x1="95.37510952433219" y1="63.30661682956202" x2="97.72488312665651" y2="70.42901558404213" stroke="rgb(35%, 35%, 35%)" stroke-width="1.0" />
<line x1="98.76129029271492" y1="80.14910049442943" x2="97.96612743947821" y2="87.60682910553027" stroke="rgb(35%, 35%, 35%)" stroke-width="1.0" />
<line x1="94.90355646701973" y1="96.8898700683641" x2="91.10486286156869" y2="103.35670290151401" stroke="rgb(35%, 35%, 35%)" stroke-width="1.0" />
<line x1="84.4879380381175" y1="110.55187464093704" x2="78.36124440839173" y2="114.87779941692169" stroke="rgb(35%, 35%, 35%)" stroke-width="1.0" />
<line x1="74.27678198857456" y1="122.76174926757812" x2="74.27678198857456" y2="132.76174926757812" stroke="rgb(35%, 35%, 35%)" stroke-width="1.0" />
<line x1="74.27678198857456" y1="142.76174926757812" x2="74.27678198857456" y2="152.76174926757812" stroke="rgb(35%, 35%, 35%)" stroke-width="1.0" />
<line x1="74.27678198857456" y1="162.76174926757812" x2="74.27678198857456" y2="172.76174926757812" stroke="rgb(35%, 35%, 35%)" stroke-width="1.0" />
<line x1="74.27678198857456" y1="182.76174926757812" x2="74.27678198857456" y2="192.76174926757812" stroke="rgb(35%, 35%, 35%)" stroke-width="1.0" />
<line x1="79.27678198857456" y1="197.76174926757812" x2="86.77678198857456" y2="197.76174926757812" stroke="rgb(35%, 35%, 35%)" stroke-width="1.0" />
<line x1="46.776781988574555" y1="197.76174926757812" x2="69.27678198857456" y2="197.76174926757812" stroke="rgb(0%, 0%, 100%)" stroke-width="1.0" />
<circle cx="58.026781988574555" cy="197.76174926757812" r="2.75" stroke="none" stroke-width="1.0" fill="rgb(100%, 100%, 100%)"/>
<circle cx="58.026781988574555" cy="197.76174926757812" r="2.75" stroke="rgb(0%, 0%, 100%)" stroke-width="1.0" fill="none"/>
<line x1="46.776781988574555" y1="176.51174926757812" x2="69.27678198857456" y2="176.51174926757812" stroke="rgb(0%, 0%, 100%)" stroke-width="1.0" />
<line x1="46.776781988574555" y1="179.01174926757812" x2="69.27678198857456" y2="179.01174926757812" stroke="rgb(0%, 0%, 100%)" stroke-width="1.0" />
<line x1="46.776781988574555" y1="157.76174926757812" x2="69.27678198857456" y2="157.76174926757812" stroke="rgb(0%, 0%, 100%)" stroke-width="1.0" />
<line x1="46.776781988574555" y1="136.51174926757812" x2="69.27678198857456" y2="136.51174926757812" stroke="rgb(0%, 0%, 100%)" stroke-width="1.0" />
<line x1="46.776781988574555" y1="139.01174926757812" x2="69.27678198857456" y2="139.01174926757812" stroke="rgb(0%, 0%, 100%)" stroke-width="1.0" />
<line x1="46.776781988574555" y1="116.51174926757812" x2="69.27678198857456" y2="116.51174926757812" stroke="rgb(0%, 0%, 100%)" stroke-width="1.0" />
<line x1="46.776781988574555" y1="119.01174926757812" x2="69.27678198857456" y2="119.01174926757812" stroke="rgb(0%, 0%, 100%)" stroke-width="1.0" />
<line x1="55.34441753184692" y1="38.65701380620479" x2="77.33859036131287" y2="43.401100815059266" stroke="rgb(0%, 0%, 100%)" stroke-width="1.0" />
<line x1="54.81729675308532" y1="41.10081078725656" x2="76.81146958255127" y2="45.84489779611104" stroke="rgb(0%, 0%, 100%)" stroke-width="1.0" />
<circle cx="24.276781988574555" cy="197.76174926757812" r="5.0" stroke="none" stroke-width="1.0" fill="rgb(94%, 94%, 94%)"/>
<circle cx="24.276781988574555" cy="197.76174926757812" r="5.0" stroke="rgb(35%, 35%, 35%)" stroke-width="1.0" fill="none"/>
<text x="24.276781988574555" y="200.76174926757812" text-anchor="middle" font-family="Verdana" font-size="7.5" fill="rgb(0%, 0%, 0%)" >U</text>
<circle cx="41.776781988574555" cy="197.76174926757812" r="5.0" stroke="none" stroke-width="1.0" fill="rgb(94%, 94%, 94%)"/>
<circle cx="41.776781988574555" cy="197.76174926757812" r="5.0" stroke="rgb(35%, 35%, 35%)" stroke-width="1.0" fill="none"/>
<text x="41.776781988574555" y="200.76174926757812" text-anchor="middle" font-family="Verdana" font-size="7.5" fill="rgb(0%, 0%, 0%)" >G</text>
<circle cx="41.776781988574555" cy="177.76174926757812" r="5.0" stroke="none" stroke-width="1.0" fill="rgb(94%, 94%, 94%)"/>
<circle cx="41.776781988574555" cy="177.76174926757812" r="5.0" stroke="rgb(35%, 35%, 35%)" stroke-width="1.0" fill="none"/>
<text x="41.776781988574555" y="180.76174926757812" text-anchor="middle" font-family="Verdana" font-size="7.5" fill="rgb(0%, 0%, 0%)" >C</text>
<circle cx="41.776781988574555" cy="157.76174926757812" r="5.0" stroke="none" stroke-width="1.0" fill="rgb(94%, 94%, 94%)"/>
<circle cx="41.776781988574555" cy="157.76174926757812" r="5.0" stroke="rgb(35%, 35%, 35%)" stroke-width="1.0" fill="none"/>
<text x="41.776781988574555" y="160.76174926757812" text-anchor="middle" font-family="Verdana" font-size="7.5" fill="rgb(0%, 0%, 0%)" >U</text>
<circle cx="41.776781988574555" cy="137.76174926757812" r="5.0" stroke="none" stroke-width="1.0" fill="rgb(94%, 94%, 94%)"/>
<circle cx="41.776781988574555" cy="137.76174926757812" r="5.0" stroke="rgb(35%, 35%, 35%)" stroke-width="1.0" fill="none"/>
<text x="41.776781988574555" y="140.76174926757812" text-anchor="middle" font-family="Verdana" font-size="7.5" fill="rgb(0%, 0%, 0%)" >C</text>
<circle cx="41.776781988574555" cy="117.76174926757812" r="5.0" stroke="none" stroke-width="1.0" fill="rgb(94%, 94%, 94%)"/>
<circle cx="41.776781988574555" cy="117.76174926757812" r="5.0" stroke="rgb(35%, 35%, 35%)" stroke-width="1.0" fill="none"/>
<text x="41.776781988574555" y="120.76174926757812" text-anchor="middle" font-family="Verdana" font-size="7.5" fill="rgb(0%, 0%, 0%)" >C</text>
<circle cx="27.481188159349017" cy="107.66795158367006" r="5.0" stroke="none" stroke-width="1.0" fill="rgb(94%, 94%, 94%)"/>
<circle cx="27.481188159349017" cy="107.66795158367006" r="5.0" stroke="rgb(35%, 35%, 35%)" stroke-width="1.0" fill="none"/>
<text x="27.481188159349017" y="110.66795158367006" text-anchor="middle" font-family="Verdana" font-size="7.5" fill="rgb(0%, 0%, 0%)" >U</text>
<circle cx="18.617567915376398" cy="92.57871731600437" r="5.0" stroke="none" stroke-width="1.0" fill="rgb(94%, 94%, 94%)"/>
<circle cx="18.617567915376398" cy="92.57871731600437" r="5.0" stroke="rgb(35%, 35%, 35%)" stroke-width="1.0" fill="none"/>
<text x="18.617567915376398" y="95.57871731600437" text-anchor="middle" font-family="Verdana" font-size="7.5" fill="rgb(0%, 0%, 0%)" >A</text>
<circle cx="16.762153537625025" cy="75.17739000741403" r="5.0" stroke="none" stroke-width="1.0" fill="rgb(94%, 94%, 94%)"/>
<circle cx="16.762153537625025" cy="75.17739000741403" r="5.0" stroke="rgb(35%, 35%, 35%)" stroke-width="1.0" fill="none"/>
<text x="16.762153537625025" y="78.17739000741403" text-anchor="middle" font-family="Verdana" font-size="7.5" fill="rgb(0%, 0%, 0%)" >G</text>
<circle cx="22.244896440560474" cy="58.558476538893615" r="5.0" stroke="none" stroke-width="1.0" fill="rgb(94%, 94%, 94%)"/>
<circle cx="22.244896440560474" cy="58.558476538893615" r="5.0" stroke="rgb(35%, 35%, 35%)" stroke-width="1.0" fill="none"/>
<text x="22.244896440560474" y="61.558476538893615" text-anchor="middle" font-family="Verdana" font-size="7.5" fill="rgb(0%, 0%, 0%)" >U</text>
<circle cx="34.09079136515964" cy="45.67734584127183" r="5.0" stroke="none" stroke-width="1.0" fill="rgb(94%, 94%, 94%)"/>
<circle cx="34.09079136515964" cy="45.67734584127183" r="5.0" stroke="rgb(35%, 35%, 35%)" stroke-width="1.0" fill="none"/>
<text x="34.09079136515964" y="48.67734584127183" text-anchor="middle" font-family="Verdana" font-size="7.5" fill="rgb(0%, 0%, 0%)" >A</text>
<circle cx="50.19326318036258" cy="38.82467073920748" r="5.0" stroke="none" stroke-width="1.0" fill="rgb(94%, 94%, 94%)"/>
<circle cx="50.19326318036258" cy="38.82467073920748" r="5.0" stroke="rgb(35%, 35%, 35%)" stroke-width="1.0" fill="none"/>
<text x="50.19326318036258" y="41.82467073920748" text-anchor="middle" font-family="Verdana" font-size="7.5" fill="rgb(0%, 0%, 0%)" >C</text>
<circle cx="50.33749905088108" cy="21.325229387831655" r="5.0" stroke="none" stroke-width="1.0" fill="rgb(94%, 94%, 94%)"/>
<circle cx="50.33749905088108" cy="21.325229387831655" r="5.0" stroke="rgb(35%, 35%, 35%)" stroke-width="1.0" fill="none"/>
<text x="50.33749905088108" y="24.325229387831655" text-anchor="middle" font-family="Verdana" font-size="7.5" fill="rgb(0%, 0%, 0%)" >G</text>
<circle cx="63.999288921692184" cy="10.388742331999197" r="5.0" stroke="none" stroke-width="1.0" fill="rgb(94%, 94%, 94%)"/>
<circle cx="63.999288921692184" cy="10.388742331999197" r="5.0" stroke="rgb(35%, 35%, 35%)" stroke-width="1.0" fill="none"/>
<text x="63.999288921692184" y="13.388742331999197" text-anchor="middle" font-family="Verdana" font-size="7.5" fill="rgb(0%, 0%, 0%)" >U</text>
<circle cx="81.10590274499559" cy="14.078595323237778" r="5.0" stroke="none" stroke-width="1.0" fill="rgb(94%, 94%, 94%)"/>
<circle cx="81.10590274499559" cy="14.078595323237778" r="5.0" stroke="rgb(35%, 35%, 35%)" stroke-width="1.0" fill="none"/>
<text x="81.10590274499559" y="17.078595323237778" text-anchor="middle" font-family="Verdana" font-size="7.5" fill="rgb(0%, 0%, 0%)" >A</text>
<circle cx="89.04476891022576" cy="29.674288818788114" r="5.0" stroke="none" stroke-width="1.0" fill="rgb(94%, 94%, 94%)"/>
<circle cx="89.04476891022576" cy="29.674288818788114" r="5.0" stroke="rgb(35%, 35%, 35%)" stroke-width="1.0" fill="none"/>
<text x="89.04476891022576" y="32.67428881878811" text-anchor="middle" font-family="Verdana" font-size="7.5" fill="rgb(0%, 0%, 0%)" >A</text>
<circle cx="81.96262393403562" cy="45.67724086310835" r="5.0" stroke="none" stroke-width="1.0" fill="rgb(94%, 94%, 94%)"/>
<circle cx="81.96262393403562" cy="45.67724086310835" r="5.0" stroke="rgb(35%, 35%, 35%)" stroke-width="1.0" fill="none"/>
<text x="81.96262393403562" y="48.67724086310835" text-anchor="middle" font-family="Verdana" font-size="7.5" fill="rgb(0%, 0%, 0%)" >G</text>
<circle cx="93.8085937894493" cy="58.55835099324196" r="5.0" stroke="none" stroke-width="1.0" fill="rgb(94%, 94%, 94%)"/>
<circle cx="93.8085937894493" cy="58.55835099324196" r="5.0" stroke="rgb(35%, 35%, 35%)" stroke-width="1.0" fill="none"/>
<text x="93.8085937894493" y="61.55835099324196" text-anchor="middle" font-family="Verdana" font-size="7.5" fill="rgb(0%, 0%, 0%)" >G</text>
<circle cx="99.29139886153939" cy="75.17728142036219" r="5.0" stroke="none" stroke-width="1.0" fill="rgb(94%, 94%, 94%)"/>
<circle cx="99.29139886153939" cy="75.17728142036219" r="5.0" stroke="rgb(35%, 35%, 35%)" stroke-width="1.0" fill="none"/>
<text x="99.29139886153939" y="78.17728142036219" text-anchor="middle" font-family="Verdana" font-size="7.5" fill="rgb(0%, 0%, 0%)" >A</text>
<circle cx="97.43601887065374" cy="92.57864817959751" r="5.0" stroke="none" stroke-width="1.0" fill="rgb(94%, 94%, 94%)"/>
<circle cx="97.43601887065374" cy="92.57864817959751" r="5.0" stroke="rgb(35%, 35%, 35%)" stroke-width="1.0" fill="none"/>
<text x="97.43601887065374" y="95.57864817959751" text-anchor="middle" font-family="Verdana" font-size="7.5" fill="rgb(0%, 0%, 0%)" >C</text>
<circle cx="88.57240045793468" cy="107.66792479028061" r="5.0" stroke="none" stroke-width="1.0" fill="rgb(94%, 94%, 94%)"/>
<circle cx="88.57240045793468" cy="107.66792479028061" r="5.0" stroke="rgb(35%, 35%, 35%)" stroke-width="1.0" fill="none"/>
<text x="88.57240045793468" y="110.66792479028061" text-anchor="middle" font-family="Verdana" font-size="7.5" fill="rgb(0%, 0%, 0%)" >C</text>
<circle cx="74.27678198857456" cy="117.76174926757812" r="5.0" stroke="none" stroke-width="1.0" fill="rgb(94%, 94%, 94%)"/>
<circle cx="74.27678198857456" cy="117.76174926757812" r="5.0" stroke="rgb(35%, 35%, 35%)" stroke-width="1.0" fill="none"/>
<text x="74.27678198857456" y="120.76174926757812" text-anchor="middle" font-family="Verdana" font-size="7.5" fill="rgb(0%, 0%, 0%)" >G</text>
<circle cx="74.27678198857456" cy="137.76174926757812" r="5.0" stroke="none" stroke-width="1.0" fill="rgb(94%, 94%, 94%)"/>
<circle cx="74.27678198857456" cy="137.76174926757812" r="5.0" stroke="rgb(35%, 35%, 35%)" stroke-width="1.0" fill="none"/>
<text x="74.27678198857456" y="140.76174926757812" text-anchor="middle" font-family="Verdana" font-size="7.5" fill="rgb(0%, 0%, 0%)" >G</text>
<circle cx="74.27678198857456" cy="157.76174926757812" r="5.0" stroke="none" stroke-width="1.0" fill="rgb(94%, 94%, 94%)"/>
<circle cx="74.27678198857456" cy="157.76174926757812" r="5.0" stroke="rgb(35%, 35%, 35%)" stroke-width="1.0" fill="none"/>
<text x="74.27678198857456" y="160.76174926757812" text-anchor="middle" font-family="Verdana" font-size="7.5" fill="rgb(0%, 0%, 0%)" >A</text>
<circle cx="74.27678198857456" cy="177.76174926757812" r="5.0" stroke="none" stroke-width="1.0" fill="rgb(94%, 94%, 94%)"/>
<circle cx="74.27678198857456" cy="177.76174926757812" r="5.0" stroke="rgb(35%, 35%, 35%)" stroke-width="1.0" fill="none"/>
<text x="74.27678198857456" y="180.76174926757812" text-anchor="middle" font-family="Verdana" font-size="7.5" fill="rgb(0%, 0%, 0%)" >G</text>
<circle cx="74.27678198857456" cy="197.76174926757812" r="5.0" stroke="none" stroke-width="1.0" fill="rgb(94%, 94%, 94%)"/>
<circle cx="74.27678198857456" cy="197.76174926757812" r="5.0" stroke="rgb(35%, 35%, 35%)" stroke-width="1.0" fill="none"/>
<text x="74.27678198857456" y="200.76174926757812" text-anchor="middle" font-family="Verdana" font-size="7.5" fill="rgb(0%, 0%, 0%)" >U</text>
<circle cx="91.77678198857456" cy="197.76174926757812" r="5.0" stroke="none" stroke-width="1.0" fill="rgb(94%, 94%, 94%)"/>
<circle cx="91.77678198857456" cy="197.76174926757812" r="5.0" stroke="rgb(35%, 35%, 35%)" stroke-width="1.0" fill="none"/>
<text x="91.77678198857456" y="200.76174926757812" text-anchor="middle" font-family="Verdana" font-size="7.5" fill="rgb(0%, 0%, 0%)" >G</text>
<line x1="24.276781988574555" y1="205.26174926757812" x2="24.276781988574555" y2="210.26174926757812" stroke="rgb(25%, 25%, 25%)" stroke-width="1.0" />
<text x="24.276781988574555" y="220.76174926757812" text-anchor="middle" font-family="Verdana" font-size="7.5" fill="rgb(25%, 25%, 25%)" >1</text>
<line x1="15.778060275350295" y1="54.75978860589231" x2="11.466836165210179" y2="52.22732998389145" stroke="rgb(25%, 25%, 25%)" stroke-width="1.0" />
<text x="5.0" y="51.42864205089012" text-anchor="middle" font-family="Verdana" font-size="7.5" fill="rgb(25%, 25%, 25%)" >10</text>
<line x1="104.55842380849272" y1="94.92840303945992" x2="109.30669376705202" y2="96.4949062793682" stroke="rgb(25%, 25%, 25%)" stroke-width="1.0" />
<text x="116.42909870489099" y="101.84466113923061" text-anchor="middle" font-family="Verdana" font-size="7.5" fill="rgb(25%, 25%, 25%)" >20</text>
<line x1="91.77678198857456" y1="205.26174926757812" x2="91.77678198857456" y2="210.26174926757812" stroke="rgb(25%, 25%, 25%)" stroke-width="1.0" />
<text x="91.77678198857456" y="220.76174926757812" text-anchor="middle" font-family="Verdana" font-size="7.5" fill="rgb(25%, 25%, 25%)" >27</text>
<text x="57.424189268399616" y="81.91288436986218" text-anchor="middle" font-family="Verdana" font-size="6.0" fill="rgb(0%, 0%, 0%)" >139</text>
<text x="69.44055779036547" y="29.06146124402874" text-anchor="middle" font-family="Verdana" font-size="6.0" fill="rgb(0%, 0%, 0%)" >33</text>
</svg>
