<?xml version="1.0" encoding="UTF-8"?>
<!DOCTYPE svg PUBLIC "-//W3C//DTD SVG 1.1//EN" 
"http://www.w3.org/Graphics/SVG/1.1/DTD/svg11.dtd">

<svg width="100%" height="100%" version="1.1"
xmlns="http://www.w3.org/2000/svg">
<path d="M 32.417118072509766 79.2437744140625 L 32.5234489440918 78.32723999023438 L 32.45956039428711 77.40676879882812 L 32.22761917114258 76.51370239257812 L 31.835533142089844 75.67848205566406 L 31.296646118164062 74.92951965332031 L 30.629314422607422 74.29232788085938 L 29.85626220703125 73.78860473632812 L 29.003814697265625 73.43550109863281 L 28.100997924804688 73.24505615234375 L 27.17856216430664 73.22373962402344 L 26.267913818359375 73.37229919433594 L 25.400066375732422 73.68563842773438 L 24.604576110839844 74.15312194824219 L 23.908527374267578 74.75881958007812 L 23.335628509521484 75.48210144042969 L 22.905384063720703 76.29832458496094 L 15.411384582519531 94.39044952392578 L 22.5 111.57826232910156 L 22.5 130.58767700195312 L 22.585132598876953 131.5064239501953 L 22.83763885498047 132.39388275146484 L 23.248912811279297 133.21984100341797 L 23.804954528808594 133.9561538696289 L 24.486827850341797 134.57776641845703 L 25.27130889892578 135.06349182128906 L 26.131683349609375 135.3968048095703 L 27.038658142089844 135.56634521484375 L 27.961341857910156 135.56634521484375 L 28.868316650390625 135.3968048095703 L 29.72869110107422 135.06349182128906 L 30.513172149658203 134.57776641845703 L 31.195045471191406 133.9561538696289 L 31.751087188720703 133.21984100341797 L 32.16236114501953 132.39388275146484 L 32.41486740112305 131.5064239501953 L 32.5 130.58767700195312 L 32.5 109.59709167480469 L 26.231876373291016 94.39872741699219 L 32.14418029785156 80.12516784667969 z" fill="rgb(76%, 83%, 80%)" style="stroke:none;"/>
<path d="M 32.417118072509766 79.2437744140625 L 32.5234489440918 78.32723999023438 L 32.45956039428711 77.40676879882812 L 32.22761917114258 76.51370239257812 L 31.835533142089844 75.67848205566406 L 31.296646118164062 74.92951965332031 L 30.629314422607422 74.29232788085938 L 29.85626220703125 73.78860473632812 L 29.003814697265625 73.43550109863281 L 28.100997924804688 73.24505615234375 L 27.17856216430664 73.22373962402344 L 26.267913818359375 73.37229919433594 L 25.400066375732422 73.68563842773438 L 24.604576110839844 74.15312194824219 L 23.908527374267578 74.75881958007812 L 23.335628509521484 75.48210144042969 L 22.905384063720703 76.29832458496094 L 15.411384582519531 94.39044952392578 L 22.5 111.57826232910156 L 22.5 130.58767700195312 L 22.585132598876953 131.5064239501953 L 22.83763885498047 132.39388275146484 L 23.248912811279297 133.21984100341797 L 23.804954528808594 133.9561538696289 L 24.486827850341797 134.57776641845703 L 25.27130889892578 135.06349182128906 L 26.131683349609375 135.3968048095703 L 27.038658142089844 135.56634521484375 L 27.961341857910156 135.56634521484375 L 28.868316650390625 135.3968048095703 L 29.72869110107422 135.06349182128906 L 30.513172149658203 134.57776641845703 L 31.195045471191406 133.9561538696289 L 31.751087188720703 133.21984100341797 L 32.16236114501953 132.39388275146484 L 32.41486740112305 131.5064239501953 L 32.5 130.58767700195312 L 32.5 109.59709167480469 L 26.231876373291016 94.39872741699219 L 32.14418029785156 80.12516784667969 z" style="fill:none; stroke:rgb(43%, 84%, 43%); stroke-width:1.0;"/>
<path d="M 65.455810546875 89.61654663085938 L 64.58576202392578 89.92373657226562 L 63.78697204589844 90.38555908203125 L 63.086647033691406 90.98629760742188 L 62.508628845214844 91.70549774169922 L 62.072608947753906 92.5186538696289 L 61.793426513671875 93.39808654785156 L 61.68059539794922 94.31385040283203 L 61.737953186035156 95.23474884033203 L 61.96355438232422 96.12942504882812 L 62.349708557128906 96.96741485595703 L 62.883262634277344 97.72018432617188 L 63.546058654785156 98.36209869384766 L 64.31552124023438 98.87128448486328 L 65.16544342041016 99.23042297363281 L 66.06687927246094 99.4272689819336 L 66.98914337158203 99.45512390136719 L 84.4552993774414 98.36721801757812 L 85.36697387695312 98.22513580322266 L 86.23702239990234 97.91795349121094 L 87.03581237792969 97.45612335205078 L 87.73613739013672 96.85538482666016 L 88.31415557861328 96.13619232177734 L 88.75017547607422 95.32302856445312 L 89.02935791015625 94.44359588623047 L 89.1421890258789 93.52783966064453 L 89.08483123779297 92.60694122314453 L 88.8592300415039 91.7122573852539 L 88.47307586669922 90.874267578125 L 87.93952178955078 90.12149810791016 L 87.27672576904297 89.4795913696289 L 86.50726318359375 88.97039794921875 L 85.65734100341797 88.61126708984375 L 84.75590515136719 88.41441345214844 L 83.8336410522461 88.38655853271484 L 66.36748504638672 89.4744644165039 z" fill="rgb(76%, 83%, 80%)" style="stroke:none;"/>
<path d="M 65.455810546875 89.61654663085938 L 64.58576202392578 89.92373657226562 L 63.78697204589844 90.38555908203125 L 63.086647033691406 90.98629760742188 L 62.508628845214844 91.70549774169922 L 62.072608947753906 92.5186538696289 L 61.793426513671875 93.39808654785156 L 61.68059539794922 94.31385040283203 L 61.737953186035156 95.23474884033203 L 61.96355438232422 96.12942504882812 L 62.349708557128906 96.96741485595703 L 62.883262634277344 97.72018432617188 L 63.546058654785156 98.36209869384766 L 64.31552124023438 98.87128448486328 L 65.16544342041016 99.23042297363281 L 66.06687927246094 99.4272689819336 L 66.98914337158203 99.45512390136719 L 84.4552993774414 98.36721801757812 L 85.36697387695312 98.22513580322266 L 86.23702239990234 97.91795349121094 L 87.03581237792969 97.45612335205078 L 87.73613739013672 96.85538482666016 L 88.31415557861328 96.13619232177734 L 88.75017547607422 95.32302856445312 L 89.02935791015625 94.44359588623047 L 89.1421890258789 93.52783966064453 L 89.08483123779297 92.60694122314453 L 88.8592300415039 91.7122573852539 L 88.47307586669922 90.874267578125 L 87.93952178955078 90.12149810791016 L 87.27672576904297 89.4795913696289 L 86.50726318359375 88.97039794921875 L 85.65734100341797 88.61126708984375 L 84.75590515136719 88.41441345214844 L 83.8336410522461 88.38655853271484 L 66.36748504638672 89.4744644165039 z" style="fill:none; stroke:rgb(43%, 84%, 43%); stroke-width:1.0;"/>
<path d="M 59.73596954345703 42.19061279296875 L 60.06407928466797 41.3282470703125 L 60.22814178466797 40.420257568359375 L 60.222564697265625 39.49760437011719 L 60.04754638671875 38.59165954589844 L 59.70904541015625 37.73332214355469 L 59.21858215332031 36.9517822265625 L 58.592872619628906 36.273681640625 L 57.85321044921875 35.72209167480469 L 57.02478790283203 35.31581115722656 L 56.13581848144531 35.06867980957031 L 55.216575622558594 34.98908996582031 L 54.29835510253906 35.07977294921875 L 53.412437438964844 35.33763122558594 L 52.58898162841797 35.75389099121094 L 51.85603332519531 36.31437683105469 L 51.238555908203125 36.99998474121094 L 39.887413024902344 52.22163391113281 L 38.90066909790039 68.06387329101562 L 25.604297637939453 73.59527587890625 L 24.78872299194336 74.02677917480469 L 24.066322326660156 74.60078430175781 L 23.46169662475586 75.29776000976562 L 22.995433807373047 76.09396362304688 L 22.683414459228516 76.9622802734375 L 22.536258697509766 77.87315368652344 L 22.558982849121094 78.79556274414062 L 22.750812530517578 79.69808959960938 L 23.105213165283203 80.54998779296875 L 23.610118865966797 81.32228088378906 L 24.248329162597656 81.98863220214844 L 24.998119354248047 82.5263671875 L 25.83395004272461 82.91717529296875 L 26.727359771728516 83.14775085449219 L 27.647926330566406 83.21023559570312 L 28.56429672241211 83.10249328613281 L 29.445270538330078 82.82820129394531 L 48.494022369384766 74.90376281738281 L 49.68305206298828 55.81378173828125 L 59.254981994628906 42.97802734375 z" fill="rgb(58%, 67%, 80%)" style="stroke:none;"/>
<path d="M 59.73596954345703 42.19061279296875 L 60.06407928466797 41.3282470703125 L 60.22814178466797 40.420257568359375 L 60.222564697265625 39.49760437011719 L 60.04754638671875 38.59165954589844 L 59.70904541015625 37.73332214355469 L 59.21858215332031 36.9517822265625 L 58.592872619628906 36.273681640625 L 57.85321044921875 35.72209167480469 L 57.02478790283203 35.31581115722656 L 56.13581848144531 35.06867980957031 L 55.216575622558594 34.98908996582031 L 54.29835510253906 35.07977294921875 L 53.412437438964844 35.33763122558594 L 52.58898162841797 35.75389099121094 L 51.85603332519531 36.31437683105469 L 51.238555908203125 36.99998474121094 L 39.887413024902344 52.22163391113281 L 38.90066909790039 68.06387329101562 L 25.604297637939453 73.59527587890625 L 24.78872299194336 74.02677917480469 L 24.066322326660156 74.60078430175781 L 23.46169662475586 75.29776000976562 L 22.995433807373047 76.09396362304688 L 22.683414459228516 76.9622802734375 L 22.536258697509766 77.87315368652344 L 22.558982849121094 78.79556274414062 L 22.750812530517578 79.69808959960938 L 23.105213165283203 80.54998779296875 L 23.610118865966797 81.32228088378906 L 24.248329162597656 81.98863220214844 L 24.998119354248047 82.5263671875 L 25.83395004272461 82.91717529296875 L 26.727359771728516 83.14775085449219 L 27.647926330566406 83.21023559570312 L 28.56429672241211 83.10249328613281 L 29.445270538330078 82.82820129394531 L 48.494022369384766 74.90376281738281 L 49.68305206298828 55.81378173828125 L 59.254981994628906 42.97802734375 z" style="fill:none; stroke:rgb(43%, 84%, 43%); stroke-width:1.0;"/>
<path d="M 80.46983337402344 89.98616790771484 L 79.90935516357422 90.71910858154297 L 79.49309539794922 91.54256439208984 L 79.23523712158203 92.42848205566406 L 79.14456176757812 93.3467025756836 L 79.2241439819336 94.26594543457031 L 79.4712905883789 95.15491485595703 L 79.87757110595703 95.98333740234375 L 80.42915344238281 96.7229995727539 L 81.10726165771484 97.34870910644531 L 81.8887939453125 97.83917236328125 L 82.74713897705078 98.17767333984375 L 83.653076171875 98.3526840209961 L 84.57574462890625 98.3582534790039 L 85.48371887207031 98.1941909790039 L 86.3460922241211 97.86608123779297 L 87.13349914550781 97.38510131835938 L 102.35516357421875 86.03388977050781 L 109.4049072265625 66.80947875976562 L 105.69305419921875 50.744903564453125 L 115.35980224609375 39.27555847167969 L 115.88681030273438 38.5181884765625 L 116.26567077636719 37.6768798828125 L 116.48348999023438 36.7802734375 L 116.53285217285156 35.85890197753906 L 116.41206359863281 34.94416809082031 L 116.12525939941406 34.06718444824219 L 115.68218994140625 33.257843017578125 L 115.09794616699219 32.543701171875 L 114.39242553710938 31.949066162109375 L 113.58966064453125 31.494186401367188 L 112.71697998046875 31.194564819335938 L 111.8041000366211 31.060409545898438 L 110.88211822509766 31.096267700195312 L 109.982421875 31.300949096679688 L 109.13565063476562 31.667449951171875 L 108.37063598632812 32.18330383300781 L 107.71344757080078 32.83094787597656 L 94.82398986816406 48.123931884765625 L 98.9915771484375 66.160888671875 L 93.99121856689453 79.79670715332031 L 81.15544128417969 89.36868286132812 z" fill="rgb(58%, 67%, 80%)" style="stroke:none;"/>
<path d="M 80.46983337402344 89.98616790771484 L 79.90935516357422 90.71910858154297 L 79.49309539794922 91.54256439208984 L 79.23523712158203 92.42848205566406 L 79.14456176757812 93.3467025756836 L 79.2241439819336 94.26594543457031 L 79.4712905883789 95.15491485595703 L 79.87757110595703 95.98333740234375 L 80.42915344238281 96.7229995727539 L 81.10726165771484 97.34870910644531 L 81.8887939453125 97.83917236328125 L 82.74713897705078 98.17767333984375 L 83.653076171875 98.3526840209961 L 84.57574462890625 98.3582534790039 L 85.48371887207031 98.1941909790039 L 86.3460922241211 97.86608123779297 L 87.13349914550781 97.38510131835938 L 102.35516357421875 86.03388977050781 L 109.4049072265625 66.80947875976562 L 105.69305419921875 50.744903564453125 L 115.35980224609375 39.27555847167969 L 115.88681030273438 38.5181884765625 L 116.26567077636719 37.6768798828125 L 116.48348999023438 36.7802734375 L 116.53285217285156 35.85890197753906 L 116.41206359863281 34.94416809082031 L 116.12525939941406 34.06718444824219 L 115.68218994140625 33.257843017578125 L 115.09794616699219 32.543701171875 L 114.39242553710938 31.949066162109375 L 113.58966064453125 31.494186401367188 L 112.71697998046875 31.194564819335938 L 111.8041000366211 31.060409545898438 L 110.88211822509766 31.096267700195312 L 109.982421875 31.300949096679688 L 109.13565063476562 31.667449951171875 L 108.37063598632812 32.18330383300781 L 107.71344757080078 32.83094787597656 L 94.82398986816406 48.123931884765625 L 98.9915771484375 66.160888671875 L 93.99121856689453 79.79670715332031 L 81.15544128417969 89.36868286132812 z" style="fill:none; stroke:rgb(43%, 84%, 43%); stroke-width:1.0;"/>
<path d="M 106.87857818603516 37.87054443359375 L 107.29181671142578 38.695526123046875 L 107.849609375 39.430511474609375 L 108.532958984375 40.05049133300781 L 109.31858825683594 40.53436279296875 L 110.17975616455078 40.86561584472656 L 111.0871353149414 41.03300476074219 L 112.00981140136719 41.03080749511719 L 112.9163818359375 40.85911560058594 L 113.77595520019531 40.52375793457031 L 114.55928039550781 40.036163330078125 L 115.23966979980469 39.412933349609375 L 115.79396057128906 38.67529296875 L 116.20327758789062 37.848358154296875 L 116.45365905761719 36.960296630859375 L 116.53660583496094 36.041351318359375 L 116.44929504394531 35.12281799316406 L 112.75044250488281 15.593124389648438 L 93.17970275878906 5.0 L 72.60871887207031 13.488998413085938 L 67.60792541503906 30.13043212890625 L 53.52531433105469 35.29469299316406 L 52.692047119140625 35.69093322753906 L 51.945777893066406 36.233551025390625 L 51.311920166015625 36.904052734375 L 50.81205749511719 37.679595947265625 L 50.463218688964844 38.53379821777344 L 50.27727508544922 39.43756103515625 L 50.26055908203125 40.36009216308594 L 50.41365051269531 41.269989013671875 L 50.7313232421875 42.136260986328125 L 51.2027587890625 42.929412841796875 L 51.811920166015625 43.62242126464844 L 52.53804016113281 44.19171142578125 L 53.356407165527344 44.61787414550781 L 54.23915100097656 44.88641357421875 L 55.15620422363281 44.98817443847656 L 56.07634735107422 44.919708251953125 L 56.968231201171875 44.683319091796875 L 75.74573516845703 37.79737854003906 L 80.81759643554688 20.919464111328125 L 92.60011291503906 16.05718994140625 L 103.8097152709961 22.124649047851562 L 106.62396240234375 36.98368835449219 z" fill="rgb(50%, 76%, 66%)" style="stroke:none;"/>
<path d="M 106.87857818603516 37.87054443359375 L 107.29181671142578 38.695526123046875 L 107.849609375 39.430511474609375 L 108.532958984375 40.05049133300781 L 109.31858825683594 40.53436279296875 L 110.17975616455078 40.86561584472656 L 111.0871353149414 41.03300476074219 L 112.00981140136719 41.03080749511719 L 112.9163818359375 40.85911560058594 L 113.77595520019531 40.52375793457031 L 114.55928039550781 40.036163330078125 L 115.23966979980469 39.412933349609375 L 115.79396057128906 38.67529296875 L 116.20327758789062 37.848358154296875 L 116.45365905761719 36.960296630859375 L 116.53660583496094 36.041351318359375 L 116.44929504394531 35.12281799316406 L 112.75044250488281 15.593124389648438 L 93.17970275878906 5.0 L 72.60871887207031 13.488998413085938 L 67.60792541503906 30.13043212890625 L 53.52531433105469 35.29469299316406 L 52.692047119140625 35.69093322753906 L 51.945777893066406 36.233551025390625 L 51.311920166015625 36.904052734375 L 50.81205749511719 37.679595947265625 L 50.463218688964844 38.53379821777344 L 50.27727508544922 39.43756103515625 L 50.26055908203125 40.36009216308594 L 50.41365051269531 41.269989013671875 L 50.7313232421875 42.136260986328125 L 51.2027587890625 42.929412841796875 L 51.811920166015625 43.62242126464844 L 52.53804016113281 44.19171142578125 L 53.356407165527344 44.61787414550781 L 54.23915100097656 44.88641357421875 L 55.15620422363281 44.98817443847656 L 56.07634735107422 44.919708251953125 L 56.968231201171875 44.683319091796875 L 75.74573516845703 37.79737854003906 L 80.81759643554688 20.919464111328125 L 92.60011291503906 16.05718994140625 L 103.8097152709961 22.124649047851562 L 106.62396240234375 36.98368835449219 z" style="fill:none; stroke:rgb(43%, 84%, 43%); stroke-width:1.0;"/>
<line x1="15.0" y1="190.58767700195312" x2="22.5" y2="190.58767700195312" stroke="rgb(35%, 35%, 35%)" stroke-width="1.0" />
<line x1="27.5" y1="185.58767700195312" x2="27.5" y2="175.58767700195312" stroke="rgb(35%, 35%, 35%)" stroke-width="1.0" />
<line x1="27.5" y1="165.58767700195312" x2="27.5" y2="155.58767700195312" stroke="rgb(35%, 35%, 35%)" stroke-width="1.0" />
<line x1="27.5" y1="145.58767700195312" x2="27.5" y2="135.58767700195312" stroke="rgb(35%, 35%, 35%)" stroke-width="1.0" />
<line x1="27.5" y1="125.58767700195314" x2="27.5" y2="115.58767700195314" stroke="rgb(35%, 35%, 35%)" stroke-width="1.0" />
<line x1="25.593657204145437" y1="105.96535538347035" x2="22.72797236194196" y2="99.01691094489408" stroke="rgb(35%, 35%, 35%)" stroke-width="1.0" />
<line x1="22.735046727912845" y1="89.77519166385486" x2="25.61136601811542" y2="82.83114262373243" stroke="rgb(35%, 35%, 35%)" stroke-width="1.0" />
<line x1="32.141246059410115" y1="76.29125791813652" x2="39.0808834252909" y2="73.4043109215869" stroke="rgb(35%, 35%, 35%)" stroke-width="1.0" />
<line x1="44.00817213549226" y1="66.49349450034504" x2="44.47440825166646" y2="59.00804265664584" stroke="rgb(35%, 35%, 35%)" stroke-width="1.0" />
<line x1="47.77425211614108" y1="50.00950031080288" x2="52.257753876417155" y2="43.99721477317536" stroke="rgb(35%, 35%, 35%)" stroke-width="1.0" />
<line x1="59.941084739771696" y1="38.26754107181475" x2="66.98251426520672" y2="35.68536453666147" stroke="rgb(35%, 35%, 35%)" stroke-width="1.0" />
<line x1="73.11577577696657" y1="29.17543570863978" x2="75.27420909151071" y2="21.992699320191832" stroke="rgb(35%, 35%, 35%)" stroke-width="1.0" />
<line x1="81.33507585787123" y1="15.296910271559824" x2="88.26798604002451" y2="12.43591519895594" stroke="rgb(35%, 35%, 35%)" stroke-width="1.0" />
<line x1="97.28708781726672" y1="12.908673144526887" x2="103.88289480535087" y2="16.478808516639305" stroke="rgb(35%, 35%, 35%)" stroke-width="1.0" />
<line x1="109.21051890320024" y1="23.771552747405167" x2="110.60618616491485" y2="31.140585878952777" stroke="rgb(35%, 35%, 35%)" stroke-width="1.0" />
<line x1="108.31431730563335" y1="39.87643352387022" x2="103.48083036361189" y2="45.61123433824696" stroke="rgb(35%, 35%, 35%)" stroke-width="1.0" />
<line x1="101.38415649988583" y1="54.30606369877415" x2="103.07260960044876" y2="61.61353426848564" stroke="rgb(35%, 35%, 35%)" stroke-width="1.0" />
<line x1="102.47680115482481" y1="71.179500337467" x2="99.89463538582595" y2="78.22097887122754" stroke="rgb(35%, 35%, 35%)" stroke-width="1.0" />
<line x1="94.16498502396006" y1="85.90432457915645" x2="88.15267525016004" y2="90.38786460728929" stroke="rgb(35%, 35%, 35%)" stroke-width="1.0" />
<line x1="79.15413957973041" y1="93.68772071396802" x2="71.66864584788593" y2="94.15396484585332" stroke="rgb(35%, 35%, 35%)" stroke-width="1.0" />
<line x1="64.7648995314975" y1="99.08419192966662" x2="61.91341716182545" y2="105.9682793393967" stroke="rgb(35%, 35%, 35%)" stroke-width="1.0" />
<line x1="60.0" y1="115.58767700195314" x2="60.0" y2="125.58767700195314" stroke="rgb(35%, 35%, 35%)" stroke-width="1.0" />
<line x1="60.0" y1="135.58767700195312" x2="60.0" y2="145.58767700195312" stroke="rgb(35%, 35%, 35%)" stroke-width="1.0" />
<line x1="60.0" y1="155.58767700195312" x2="60.0" y2="165.58767700195312" stroke="rgb(35%, 35%, 35%)" stroke-width="1.0" />
<line x1="60.0" y1="175.58767700195312" x2="60.0" y2="185.58767700195312" stroke="rgb(35%, 35%, 35%)" stroke-width="1.0" />
<line x1="65.0" y1="190.58767700195312" x2="72.5" y2="190.58767700195312" stroke="rgb(35%, 35%, 35%)" stroke-width="1.0" />
<line x1="32.5" y1="190.58767700195312" x2="55.0" y2="190.58767700195312" stroke="rgb(0%, 0%, 100%)" stroke-width="1.0" />
<circle cx="43.75" cy="190.58767700195312" r="2.75" stroke="none" stroke-width="1.0" fill="rgb(100%, 100%, 100%)"/>
<circle cx="43.75" cy="190.58767700195312" r="2.75" stroke="rgb(0%, 0%, 100%)" stroke-width="1.0" fill="none"/>
<line x1="32.5" y1="169.33767700195312" x2="55.0" y2="169.33767700195312" stroke="rgb(0%, 0%, 100%)" stroke-width="1.0" />
<line x1="32.5" y1="171.83767700195312" x2="55.0" y2="171.83767700195312" stroke="rgb(0%, 0%, 100%)" stroke-width="1.0" />
<line x1="32.5" y1="150.58767700195312" x2="55.0" y2="150.58767700195312" stroke="rgb(0%, 0%, 100%)" stroke-width="1.0" />
<line x1="32.5" y1="129.33767700195312" x2="55.0" y2="129.33767700195312" stroke="rgb(0%, 0%, 100%)" stroke-width="1.0" />
<line x1="32.5" y1="131.83767700195312" x2="55.0" y2="131.83767700195312" stroke="rgb(0%, 0%, 100%)" stroke-width="1.0" />
<line x1="32.5" y1="109.33767700195314" x2="55.0" y2="109.33767700195314" stroke="rgb(0%, 0%, 100%)" stroke-width="1.0" />
<line x1="32.5" y1="111.83767700195314" x2="55.0" y2="111.83767700195314" stroke="rgb(0%, 0%, 100%)" stroke-width="1.0" />
<line x1="48.11676368717607" y1="74.13547430799696" x2="64.0266662638734" y2="90.04537688469425" stroke="rgb(0%, 0%, 100%)" stroke-width="1.0" />
<line x1="46.3489967342097" y1="75.90324126096334" x2="62.25889931090704" y2="91.81314383766063" stroke="rgb(0%, 0%, 100%)" stroke-width="1.0" />
<line x1="76.66903051282358" y1="35.24468677958535" x2="96.45635713145634" y2="45.95504182914115" stroke="rgb(0%, 0%, 100%)" stroke-width="1.0" />
<line x1="75.47899106287295" y1="37.443278626100124" x2="95.26631768150571" y2="48.153633675655925" stroke="rgb(0%, 0%, 100%)" stroke-width="1.0" />
<circle cx="10.0" cy="190.58767700195312" r="5.0" stroke="none" stroke-width="1.0" fill="rgb(94%, 94%, 94%)"/>
<circle cx="10.0" cy="190.58767700195312" r="5.0" stroke="rgb(35%, 35%, 35%)" stroke-width="1.0" fill="none"/>
<text x="10.0" y="193.58767700195312" text-anchor="middle" font-family="Verdana" font-size="7.5" fill="rgb(0%, 0%, 0%)" >U</text>
<circle cx="27.5" cy="190.58767700195312" r="5.0" stroke="none" stroke-width="1.0" fill="rgb(94%, 94%, 94%)"/>
<circle cx="27.5" cy="190.58767700195312" r="5.0" stroke="rgb(35%, 35%, 35%)" stroke-width="1.0" fill="none"/>
<text x="27.5" y="193.58767700195312" text-anchor="middle" font-family="Verdana" font-size="7.5" fill="rgb(0%, 0%, 0%)" >G</text>
<circle cx="27.5" cy="170.58767700195312" r="5.0" stroke="none" stroke-width="1.0" fill="rgb(94%, 94%, 94%)"/>
<circle cx="27.5" cy="170.58767700195312" r="5.0" stroke="rgb(35%, 35%, 35%)" stroke-width="1.0" fill="none"/>
<text x="27.5" y="173.58767700195312" text-anchor="middle" font-family="Verdana" font-size="7.5" fill="rgb(0%, 0%, 0%)" >C</text>
<circle cx="27.5" cy="150.58767700195312" r="5.0" stroke="none" stroke-width="1.0" fill="rgb(94%, 94%, 94%)"/>
<circle cx="27.5" cy="150.58767700195312" r="5.0" stroke="rgb(35%, 35%, 35%)" stroke-width="1.0" fill="none"/>
<text x="27.5" y="153.58767700195312" text-anchor="middle" font-family="Verdana" font-size="7.5" fill="rgb(0%, 0%, 0%)" >U</text>
<circle cx="27.5" cy="130.58767700195312" r="5.0" stroke="none" stroke-width="1.0" fill="rgb(94%, 94%, 94%)"/>
<circle cx="27.5" cy="130.58767700195312" r="5.0" stroke="rgb(35%, 35%, 35%)" stroke-width="1.0" fill="none"/>
<text x="27.5" y="133.58767700195312" text-anchor="middle" font-family="Verdana" font-size="7.5" fill="rgb(0%, 0%, 0%)" >C</text>
<circle cx="27.5" cy="110.58767700195314" r="5.0" stroke="none" stroke-width="1.0" fill="rgb(94%, 94%, 94%)"/>
<circle cx="27.5" cy="110.58767700195314" r="5.0" stroke="rgb(35%, 35%, 35%)" stroke-width="1.0" fill="none"/>
<text x="27.5" y="113.58767700195314" text-anchor="middle" font-family="Verdana" font-size="7.5" fill="rgb(0%, 0%, 0%)" >C</text>
<circle cx="20.821629566087395" cy="94.39458932641129" r="5.0" stroke="none" stroke-width="1.0" fill="rgb(94%, 94%, 94%)"/>
<circle cx="20.821629566087395" cy="94.39458932641129" r="5.0" stroke="rgb(35%, 35%, 35%)" stroke-width="1.0" fill="none"/>
<text x="20.821629566087395" y="97.39458932641129" text-anchor="middle" font-family="Verdana" font-size="7.5" fill="rgb(0%, 0%, 0%)" >U</text>
<circle cx="27.52478317994087" cy="78.21174496117601" r="5.0" stroke="none" stroke-width="1.0" fill="rgb(94%, 94%, 94%)"/>
<circle cx="27.52478317994087" cy="78.21174496117601" r="5.0" stroke="rgb(35%, 35%, 35%)" stroke-width="1.0" fill="none"/>
<text x="27.52478317994087" y="81.21174496117601" text-anchor="middle" font-family="Verdana" font-size="7.5" fill="rgb(0%, 0%, 0%)" >A</text>
<circle cx="43.697346304760146" cy="71.48382387854741" r="5.0" stroke="none" stroke-width="1.0" fill="rgb(94%, 94%, 94%)"/>
<circle cx="43.697346304760146" cy="71.48382387854741" r="5.0" stroke="rgb(35%, 35%, 35%)" stroke-width="1.0" fill="none"/>
<text x="43.697346304760146" y="74.48382387854741" text-anchor="middle" font-family="Verdana" font-size="7.5" fill="rgb(0%, 0%, 0%)" >G</text>
<circle cx="44.785234082398574" cy="54.017713278443466" r="5.0" stroke="none" stroke-width="1.0" fill="rgb(94%, 94%, 94%)"/>
<circle cx="44.785234082398574" cy="54.017713278443466" r="5.0" stroke="rgb(35%, 35%, 35%)" stroke-width="1.0" fill="none"/>
<text x="44.785234082398574" y="57.017713278443466" text-anchor="middle" font-family="Verdana" font-size="7.5" fill="rgb(0%, 0%, 0%)" >U</text>
<circle cx="55.246771910159666" cy="39.98900180553477" r="5.0" stroke="none" stroke-width="1.0" fill="rgb(94%, 94%, 94%)"/>
<circle cx="55.246771910159666" cy="39.98900180553477" r="5.0" stroke="rgb(35%, 35%, 35%)" stroke-width="1.0" fill="none"/>
<text x="55.246771910159666" y="42.98900180553477" text-anchor="middle" font-family="Verdana" font-size="7.5" fill="rgb(0%, 0%, 0%)" >A</text>
<circle cx="71.67682709481875" cy="33.963903802941445" r="5.0" stroke="none" stroke-width="1.0" fill="rgb(94%, 94%, 94%)"/>
<circle cx="71.67682709481875" cy="33.963903802941445" r="5.0" stroke="rgb(35%, 35%, 35%)" stroke-width="1.0" fill="none"/>
<text x="71.67682709481875" y="36.963903802941445" text-anchor="middle" font-family="Verdana" font-size="7.5" fill="rgb(0%, 0%, 0%)" >C</text>
<circle cx="76.71315777365854" cy="17.20423122589017" r="5.0" stroke="none" stroke-width="1.0" fill="rgb(94%, 94%, 94%)"/>
<circle cx="76.71315777365854" cy="17.20423122589017" r="5.0" stroke="rgb(35%, 35%, 35%)" stroke-width="1.0" fill="none"/>
<text x="76.71315777365854" y="20.20423122589017" text-anchor="middle" font-family="Verdana" font-size="7.5" fill="rgb(0%, 0%, 0%)" >G</text>
<circle cx="92.8899041242372" cy="10.528594244625594" r="5.0" stroke="none" stroke-width="1.0" fill="rgb(94%, 94%, 94%)"/>
<circle cx="92.8899041242372" cy="10.528594244625594" r="5.0" stroke="rgb(35%, 35%, 35%)" stroke-width="1.0" fill="none"/>
<text x="92.8899041242372" y="13.528594244625594" text-anchor="middle" font-family="Verdana" font-size="7.5" fill="rgb(0%, 0%, 0%)" >U</text>
<circle cx="108.28007849838039" cy="18.858887416540597" r="5.0" stroke="none" stroke-width="1.0" fill="rgb(94%, 94%, 94%)"/>
<circle cx="108.28007849838039" cy="18.858887416540597" r="5.0" stroke="rgb(35%, 35%, 35%)" stroke-width="1.0" fill="none"/>
<text x="108.28007849838039" y="21.858887416540597" text-anchor="middle" font-family="Verdana" font-size="7.5" fill="rgb(0%, 0%, 0%)" >A</text>
<circle cx="111.5366265697347" cy="36.05325120981735" r="5.0" stroke="none" stroke-width="1.0" fill="rgb(94%, 94%, 94%)"/>
<circle cx="111.5366265697347" cy="36.05325120981735" r="5.0" stroke="rgb(35%, 35%, 35%)" stroke-width="1.0" fill="none"/>
<text x="111.5366265697347" y="39.05325120981735" text-anchor="middle" font-family="Verdana" font-size="7.5" fill="rgb(0%, 0%, 0%)" >A</text>
<circle cx="100.25852109951055" cy="49.43441665229983" r="5.0" stroke="none" stroke-width="1.0" fill="rgb(94%, 94%, 94%)"/>
<circle cx="100.25852109951055" cy="49.43441665229983" r="5.0" stroke="rgb(35%, 35%, 35%)" stroke-width="1.0" fill="none"/>
<text x="100.25852109951055" y="52.43441665229983" text-anchor="middle" font-family="Verdana" font-size="7.5" fill="rgb(0%, 0%, 0%)" >G</text>
<circle cx="104.19824500082404" cy="66.48518131495996" r="5.0" stroke="none" stroke-width="1.0" fill="rgb(94%, 94%, 94%)"/>
<circle cx="104.19824500082404" cy="66.48518131495996" r="5.0" stroke="rgb(35%, 35%, 35%)" stroke-width="1.0" fill="none"/>
<text x="104.19824500082404" y="69.48518131495996" text-anchor="middle" font-family="Verdana" font-size="7.5" fill="rgb(0%, 0%, 0%)" >G</text>
<circle cx="98.17319153982672" cy="82.91529789373459" r="5.0" stroke="none" stroke-width="1.0" fill="rgb(94%, 94%, 94%)"/>
<circle cx="98.17319153982672" cy="82.91529789373459" r="5.0" stroke="rgb(35%, 35%, 35%)" stroke-width="1.0" fill="none"/>
<text x="98.17319153982672" y="85.91529789373459" text-anchor="middle" font-family="Verdana" font-size="7.5" fill="rgb(0%, 0%, 0%)" >A</text>
<circle cx="84.14446873429338" cy="93.37689129271116" r="5.0" stroke="none" stroke-width="1.0" fill="rgb(94%, 94%, 94%)"/>
<circle cx="84.14446873429338" cy="93.37689129271116" r="5.0" stroke="rgb(35%, 35%, 35%)" stroke-width="1.0" fill="none"/>
<text x="84.14446873429338" y="96.37689129271116" text-anchor="middle" font-family="Verdana" font-size="7.5" fill="rgb(0%, 0%, 0%)" >C</text>
<circle cx="66.67831669332296" cy="94.46479426711018" r="5.0" stroke="none" stroke-width="1.0" fill="rgb(94%, 94%, 94%)"/>
<circle cx="66.67831669332296" cy="94.46479426711018" r="5.0" stroke="rgb(35%, 35%, 35%)" stroke-width="1.0" fill="none"/>
<text x="66.67831669332296" y="97.46479426711018" text-anchor="middle" font-family="Verdana" font-size="7.5" fill="rgb(0%, 0%, 0%)" >C</text>
<circle cx="60.0" cy="110.58767700195314" r="5.0" stroke="none" stroke-width="1.0" fill="rgb(94%, 94%, 94%)"/>
<circle cx="60.0" cy="110.58767700195314" r="5.0" stroke="rgb(35%, 35%, 35%)" stroke-width="1.0" fill="none"/>
<text x="60.0" y="113.58767700195314" text-anchor="middle" font-family="Verdana" font-size="7.5" fill="rgb(0%, 0%, 0%)" >G</text>
<circle cx="60.0" cy="130.58767700195312" r="5.0" stroke="none" stroke-width="1.0" fill="rgb(94%, 94%, 94%)"/>
<circle cx="60.0" cy="130.58767700195312" r="5.0" stroke="rgb(35%, 35%, 35%)" stroke-width="1.0" fill="none"/>
<text x="60.0" y="133.58767700195312" text-anchor="middle" font-family="Verdana" font-size="7.5" fill="rgb(0%, 0%, 0%)" >G</text>
<circle cx="60.0" cy="150.58767700195312" r="5.0" stroke="none" stroke-width="1.0" fill="rgb(94%, 94%, 94%)"/>
<circle cx="60.0" cy="150.58767700195312" r="5.0" stroke="rgb(35%, 35%, 35%)" stroke-width="1.0" fill="none"/>
<text x="60.0" y="153.58767700195312" text-anchor="middle" font-family="Verdana" font-size="7.5" fill="rgb(0%, 0%, 0%)" >A</text>
<circle cx="60.0" cy="170.58767700195312" r="5.0" stroke="none" stroke-width="1.0" fill="rgb(94%, 94%, 94%)"/>
<circle cx="60.0" cy="170.58767700195312" r="5.0" stroke="rgb(35%, 35%, 35%)" stroke-width="1.0" fill="none"/>
<text x="60.0" y="173.58767700195312" text-anchor="middle" font-family="Verdana" font-size="7.5" fill="rgb(0%, 0%, 0%)" >G</text>
<circle cx="60.0" cy="190.58767700195312" r="5.0" stroke="none" stroke-width="1.0" fill="rgb(94%, 94%, 94%)"/>
<circle cx="60.0" cy="190.58767700195312" r="5.0" stroke="rgb(35%, 35%, 35%)" stroke-width="1.0" fill="none"/>
<text x="60.0" y="193.58767700195312" text-anchor="middle" font-family="Verdana" font-size="7.5" fill="rgb(0%, 0%, 0%)" >U</text>
<circle cx="77.5" cy="190.58767700195312" r="5.0" stroke="none" stroke-width="1.0" fill="rgb(94%, 94%, 94%)"/>
<circle cx="77.5" cy="190.58767700195312" r="5.0" stroke="rgb(35%, 35%, 35%)" stroke-width="1.0" fill="none"/>
<text x="77.5" y="193.58767700195312" text-anchor="middle" font-family="Verdana" font-size="7.5" fill="rgb(0%, 0%, 0%)" >G</text>
<line x1="10.0" y1="198.08767700195312" x2="10.0" y2="203.08767700195312" stroke="rgb(25%, 25%, 25%)" stroke-width="1.0" />
<text x="10.0" y="213.58767700195312" text-anchor="middle" font-family="Verdana" font-size="7.5" fill="rgb(25%, 25%, 25%)" >1</text>
<line x1="37.74375740649924" y1="51.43554244312571" x2="33.04943962256635" y2="49.714095219580514" stroke="rgb(25%, 25%, 25%)" stroke-width="1.0" />
<text x="26.007962946667014" y="50.13192438426276" text-anchor="middle" font-family="Verdana" font-size="7.5" fill="rgb(25%, 25%, 25%)" >10</text>
<line x1="86.72664970224497" y1="100.41836425287714" x2="88.44810368087936" y2="105.11267955965445" stroke="rgb(25%, 25%, 25%)" stroke-width="1.0" />
<text x="91.03028464883094" y="115.15415251982043" text-anchor="middle" font-family="Verdana" font-size="7.5" fill="rgb(25%, 25%, 25%)" >20</text>
<line x1="77.5" y1="198.08767700195312" x2="77.5" y2="203.08767700195312" stroke="rgb(25%, 25%, 25%)" stroke-width="1.0" />
<text x="77.5" y="213.58767700195312" text-anchor="middle" font-family="Verdana" font-size="7.5" fill="rgb(25%, 25%, 25%)" >27</text>
<text x="41.03701262401856" y="95.68838440619187" text-anchor="middle" font-family="Verdana" font-size="6.0" fill="rgb(0%, 0%, 0%)" >481</text>
<text x="74.31765805110163" y="67.52566935403146" text-anchor="middle" font-family="Verdana" font-size="6.0" fill="rgb(0%, 0%, 0%)" >677</text>
<text x="93.55918586005667" y="30.07388075868584" text-anchor="middle" font-family="Verdana" font-size="6.0" fill="rgb(0%, 0%, 0%)" >123</text>
</svg>
