<?xml version="1.0" encoding="UTF-8"?>
<!DOCTYPE svg PUBLIC "-//W3C//DTD SVG 1.1//EN" 
"http://www.w3.org/Graphics/SVG/1.1/DTD/svg11.dtd">

<svg width="100%" height="100%" version="1.1"
xmlns="http://www.w3.org/2000/svg">
<path d="M 26.759353637695312 89.96421813964844 L 26.665740966796875 89.04629516601562 L 26.405059814453125 88.16120910644531 L 25.986175537109375 87.33908081054688 L 25.423362731933594 86.60792541503906 L 24.735782623291016 85.99264526367188 L 23.946853637695312 85.51417541503906 L 23.08343505859375 85.18881225585938 L 22.174938201904297 85.02764892578125 L 21.25229263305664 85.03616333007812 L 20.346923828125 85.21406555175781 L 19.48965835571289 85.55531311035156 L 18.709693908691406 86.04826354980469 L 18.033588409423828 86.67613220214844 L 17.48436737060547 87.41755676269531 L 17.080734252929688 88.24726867675781 L 16.836429595947266 89.13702392578125 L 13.459802627563477 108.17140197753906 L 22.5 123.71746063232422 L 22.5 142.36936950683594 L 22.585132598876953 143.28811645507812 L 22.83763885498047 144.17557525634766 L 23.248912811279297 145.00153350830078 L 23.804954528808594 145.73784637451172 L 24.486827850341797 146.35945892333984 L 25.27130889892578 146.84518432617188 L 26.131683349609375 147.17849731445312 L 27.038658142089844 147.34803771972656 L 27.961341857910156 147.34803771972656 L 28.868316650390625 147.17849731445312 L 29.72869110107422 146.84518432617188 L 30.513172149658203 146.35945892333984 L 31.195045471191406 145.73784637451172 L 31.751087188720703 145.00153350830078 L 32.16236114501953 144.17557525634766 L 32.41486740112305 143.28811645507812 L 32.5 142.36936950683594 L 32.5 121.02127838134766 L 23.945926666259766 106.3111801147461 L 26.682701110839844 90.88371276855469 z" fill="rgb(50%, 58%, 63%)" style="stroke:none;"/>
<path d="M 26.759353637695312 89.96421813964844 L 26.665740966796875 89.04629516601562 L 26.405059814453125 88.16120910644531 L 25.986175537109375 87.33908081054688 L 25.423362731933594 86.60792541503906 L 24.735782623291016 85.99264526367188 L 23.946853637695312 85.51417541503906 L 23.08343505859375 85.18881225585938 L 22.174938201904297 85.02764892578125 L 21.25229263305664 85.03616333007812 L 20.346923828125 85.21406555175781 L 19.48965835571289 85.55531311035156 L 18.709693908691406 86.04826354980469 L 18.033588409423828 86.67613220214844 L 17.48436737060547 87.41755676269531 L 17.080734252929688 88.24726867675781 L 16.836429595947266 89.13702392578125 L 13.459802627563477 108.17140197753906 L 22.5 123.71746063232422 L 22.5 142.36936950683594 L 22.585132598876953 143.28811645507812 L 22.83763885498047 144.17557525634766 L 23.248912811279297 145.00153350830078 L 23.804954528808594 145.73784637451172 L 24.486827850341797 146.35945892333984 L 25.27130889892578 146.84518432617188 L 26.131683349609375 147.17849731445312 L 27.038658142089844 147.34803771972656 L 27.961341857910156 147.34803771972656 L 28.868316650390625 147.17849731445312 L 29.72869110107422 146.84518432617188 L 30.513172149658203 146.35945892333984 L 31.195045471191406 145.73784637451172 L 31.751087188720703 145.00153350830078 L 32.16236114501953 144.17557525634766 L 32.41486740112305 143.28811645507812 L 32.5 142.36936950683594 L 32.5 121.02127838134766 L 23.945926666259766 106.3111801147461 L 26.682701110839844 90.88371276855469 z" style="fill:none; stroke:rgb(43%, 84%, 43%); stroke-width:1.0;"/>
<path d="M 64.11831665039062 109.00435638427734 L 64.5219497680664 109.83406829833984 L 65.07117462158203 110.57548522949219 L 65.74728393554688 111.20335388183594 L 66.52725219726562 111.69630432128906 L 67.38451385498047 112.03753662109375 L 68.28988647460938 112.21544647216797 L 69.21253204345703 112.22396087646484 L 70.12102508544922 112.06278991699219 L 70.98444366455078 111.73743438720703 L 71.77337646484375 111.25895690917969 L 72.46095275878906 110.64366912841797 L 73.02376556396484 109.91251373291016 L 73.44264221191406 109.09039306640625 L 73.70332336425781 108.2052993774414 L 73.79692840576172 107.2873764038086 L 73.72027587890625 106.36788177490234 L 70.89898681640625 90.46427917480469 L 77.31464385986328 72.95048522949219 L 77.55072784423828 72.05851745605469 L 77.61888885498047 71.13835144042969 L 77.51680755615234 70.22132873535156 L 77.24797058105469 69.33868408203125 L 76.82151794433594 68.52046203613281 L 76.2519760131836 67.79454040527344 L 75.55874633789062 67.18562316894531 L 74.76543426513672 66.71446228027344 L 73.89905548095703 66.39707946777344 L 72.98910522460938 66.24430847167969 L 72.06657409667969 66.26133728027344 L 71.16288757324219 66.44760131835938 L 70.30880737304688 66.79673767089844 L 69.53343200683594 67.29685974121094 L 68.86315155029297 67.93095397949219 L 68.32079315185547 68.67739868164062 L 67.92483520507812 69.51080322265625 L 60.58177185058594 89.5562744140625 L 63.87400817871094 108.1146011352539 z" fill="rgb(50%, 58%, 63%)" style="stroke:none;"/>
<path d="M 64.11831665039062 109.00435638427734 L 64.5219497680664 109.83406829833984 L 65.07117462158203 110.57548522949219 L 65.74728393554688 111.20335388183594 L 66.52725219726562 111.69630432128906 L 67.38451385498047 112.03753662109375 L 68.28988647460938 112.21544647216797 L 69.21253204345703 112.22396087646484 L 70.12102508544922 112.06278991699219 L 70.98444366455078 111.73743438720703 L 71.77337646484375 111.25895690917969 L 72.46095275878906 110.64366912841797 L 73.02376556396484 109.91251373291016 L 73.44264221191406 109.09039306640625 L 73.70332336425781 108.2052993774414 L 73.79692840576172 107.2873764038086 L 73.72027587890625 106.36788177490234 L 70.89898681640625 90.46427917480469 L 77.31464385986328 72.95048522949219 L 77.55072784423828 72.05851745605469 L 77.61888885498047 71.13835144042969 L 77.51680755615234 70.22132873535156 L 77.24797058105469 69.33868408203125 L 76.82151794433594 68.52046203613281 L 76.2519760131836 67.79454040527344 L 75.55874633789062 67.18562316894531 L 74.76543426513672 66.71446228027344 L 73.89905548095703 66.39707946777344 L 72.98910522460938 66.24430847167969 L 72.06657409667969 66.26133728027344 L 71.16288757324219 66.44760131835938 L 70.30880737304688 66.79673767089844 L 69.53343200683594 67.29685974121094 L 68.86315155029297 67.93095397949219 L 68.32079315185547 68.67739868164062 L 67.92483520507812 69.51080322265625 L 60.58177185058594 89.5562744140625 L 63.87400817871094 108.1146011352539 z" style="fill:none; stroke:rgb(43%, 84%, 43%); stroke-width:1.0;"/>
<path d="M 83.30807495117188 61.40794372558594 L 83.09963989257812 62.3067626953125 L 83.0599136352539 63.22859191894531 L 83.19024658203125 64.14202880859375 L 83.4862060546875 65.01596069335938 L 83.93770599365234 65.82063293457031 L 84.52938079833984 66.52862548828125 L 85.24107360839844 67.11585998535156 L 86.04855346679688 67.56231689453125 L 86.92431640625 67.85279846191406 L 87.83854675292969 67.9774169921875 L 88.7601089477539 67.93191528320312 L 89.6576156616211 67.71784973144531 L 90.5005111694336 67.342529296875 L 91.26008605957031 66.81869506835938 L 91.91047668457031 66.16423034667969 L 92.42953491210938 65.40138244628906 L 101.61248779296875 48.792755126953125 L 100.18497467041016 28.386184692382812 L 87.89071655273438 12.036361694335938 L 68.6824951171875 5.0 L 48.736080169677734 9.539413452148438 L 34.46455001831055 24.195098876953125 L 30.456432342529297 44.255035400390625 L 36.751895904541016 60.12275695800781 L 30.528579711914062 77.11148071289062 L 30.292499542236328 78.00344848632812 L 30.22433853149414 78.92361450195312 L 30.326416015625 79.84062194824219 L 30.595260620117188 80.72328186035156 L 31.021709442138672 81.54150390625 L 31.59124755859375 82.26742553710938 L 32.28447723388672 82.8763427734375 L 33.07779312133789 83.34750366210938 L 33.944175720214844 83.66488647460938 L 34.854122161865234 83.81765747070312 L 35.776649475097656 83.80062866210938 L 36.680335998535156 83.61436462402344 L 37.53441619873047 83.26522827148438 L 38.30979919433594 82.76510620117188 L 38.980079650878906 82.13101196289062 L 39.52243423461914 81.38455200195312 L 39.918392181396484 80.55116271972656 L 47.45379638671875 59.980621337890625 L 40.84186935424805 43.31526184082031 L 43.69145584106445 29.053573608398438 L 53.837860107421875 18.634048461914062 L 68.01884460449219 15.406723022460938 L 81.67500305175781 20.409255981445312 L 90.41566467285156 32.033233642578125 L 91.43055725097656 46.54136657714844 L 83.6781234741211 60.562713623046875 z" fill="rgb(44%, 68%, 94%)" style="stroke:none;"/>
<path d="M 83.30807495117188 61.40794372558594 L 83.09963989257812 62.3067626953125 L 83.0599136352539 63.22859191894531 L 83.19024658203125 64.14202880859375 L 83.4862060546875 65.01596069335938 L 83.93770599365234 65.82063293457031 L 84.52938079833984 66.52862548828125 L 85.24107360839844 67.11585998535156 L 86.04855346679688 67.56231689453125 L 86.92431640625 67.85279846191406 L 87.83854675292969 67.9774169921875 L 88.7601089477539 67.93191528320312 L 89.6576156616211 67.71784973144531 L 90.5005111694336 67.342529296875 L 91.26008605957031 66.81869506835938 L 91.91047668457031 66.16423034667969 L 92.42953491210938 65.40138244628906 L 101.61248779296875 48.792755126953125 L 100.18497467041016 28.386184692382812 L 87.89071655273438 12.036361694335938 L 68.6824951171875 5.0 L 48.736080169677734 9.539413452148438 L 34.46455001831055 24.195098876953125 L 30.456432342529297 44.255035400390625 L 36.751895904541016 60.12275695800781 L 30.528579711914062 77.11148071289062 L 30.292499542236328 78.00344848632812 L 30.22433853149414 78.92361450195312 L 30.326416015625 79.84062194824219 L 30.595260620117188 80.72328186035156 L 31.021709442138672 81.54150390625 L 31.59124755859375 82.26742553710938 L 32.28447723388672 82.8763427734375 L 33.07779312133789 83.34750366210938 L 33.944175720214844 83.66488647460938 L 34.854122161865234 83.81765747070312 L 35.776649475097656 83.80062866210938 L 36.680335998535156 83.61436462402344 L 37.53441619873047 83.26522827148438 L 38.30979919433594 82.76510620117188 L 38.980079650878906 82.13101196289062 L 39.52243423461914 81.38455200195312 L 39.918392181396484 80.55116271972656 L 47.45379638671875 59.980621337890625 L 40.84186935424805 43.31526184082031 L 43.69145584106445 29.053573608398438 L 53.837860107421875 18.634048461914062 L 68.01884460449219 15.406723022460938 L 81.67500305175781 20.409255981445312 L 90.41566467285156 32.033233642578125 L 91.43055725097656 46.54136657714844 L 83.6781234741211 60.562713623046875 z" style="fill:none; stroke:rgb(43%, 84%, 43%); stroke-width:1.0;"/>
<line x1="15.0" y1="202.36936950683594" x2="22.5" y2="202.36936950683594" stroke="rgb(35%, 35%, 35%)" stroke-width="1.0" />
<line x1="27.5" y1="197.36936950683594" x2="27.5" y2="187.36936950683594" stroke="rgb(35%, 35%, 35%)" stroke-width="1.0" />
<line x1="27.5" y1="177.36936950683594" x2="27.5" y2="167.36936950683594" stroke="rgb(35%, 35%, 35%)" stroke-width="1.0" />
<line x1="27.5" y1="157.36936950683594" x2="27.5" y2="147.36936950683594" stroke="rgb(35%, 35%, 35%)" stroke-width="1.0" />
<line x1="27.5" y1="137.36936950683594" x2="27.5" y2="127.36936950683594" stroke="rgb(35%, 35%, 35%)" stroke-width="1.0" />
<line x1="24.98652579920123" y1="118.047049823851" x2="21.2163391730534" y2="111.56361273205725" stroke="rgb(35%, 35%, 35%)" stroke-width="1.0" />
<line x1="19.57621068346802" y1="102.31815713090946" x2="20.88622067655801" y2="94.93350158462732" stroke="rgb(35%, 35%, 35%)" stroke-width="1.0" />
<line x1="25.606411397374657" y1="86.81634258074789" x2="31.376641146882605" y2="82.02533930824595" stroke="rgb(35%, 35%, 35%)" stroke-width="1.0" />
<line x1="36.9433260124251" y1="74.13640931504727" x2="40.38300572430359" y2="64.74659550008312" stroke="rgb(35%, 35%, 35%)" stroke-width="1.0" />
<line x1="40.25893432734396" y1="55.404109514044876" x2="37.49306208427886" y2="48.43272737696026" stroke="rgb(35%, 35%, 35%)" stroke-width="1.0" />
<line x1="36.628821741830265" y1="38.88206305468077" x2="38.09833095725091" y2="31.5274209266085" stroke="rgb(35%, 35%, 35%)" stroke-width="1.0" />
<line x1="42.566275083413466" y1="23.04216455736028" x2="47.798695053950524" y2="17.668897448966533" stroke="rgb(35%, 35%, 35%)" stroke-width="1.0" />
<line x1="56.16230819053524" y1="12.977194595212296" x2="63.47533225362325" y2="11.31289377537351" stroke="rgb(35%, 35%, 35%)" stroke-width="1.0" />
<line x1="73.04557908197776" y1="11.923201903083395" x2="80.08795310012225" y2="14.502966689800246" stroke="rgb(35%, 35%, 35%)" stroke-width="1.0" />
<line x1="87.7878462812345" y1="20.21906197992962" x2="92.29533443282457" y2="26.213456755842856" stroke="rgb(35%, 35%, 35%)" stroke-width="1.0" />
<line x1="95.64923522351897" y1="35.19752319886061" x2="96.17260801406582" y2="42.67925422104631" stroke="rgb(35%, 35%, 35%)" stroke-width="1.0" />
<line x1="94.10218369687331" y1="52.04277084212174" x2="90.47316840792155" y2="58.60634198889659" stroke="rgb(35%, 35%, 35%)" stroke-width="1.0" />
<line x1="83.64409349726628" y1="65.33878851531153" x2="77.02947655527484" y2="68.873906742039" stroke="rgb(35%, 35%, 35%)" stroke-width="1.0" />
<line x1="70.89990062293707" y1="75.9255545636882" x2="67.46022091105857" y2="85.31536837865235" stroke="rgb(35%, 35%, 35%)" stroke-width="1.0" />
<line x1="66.61374194185404" y1="94.93340851219301" x2="67.92378327195614" y2="102.31810835128087" stroke="rgb(35%, 35%, 35%)" stroke-width="1.0" />
<line x1="66.28367439906489" y1="111.56356384290987" x2="62.51346975962596" y2="118.04704724126552" stroke="rgb(35%, 35%, 35%)" stroke-width="1.0" />
<line x1="60.0" y1="127.36936950683594" x2="60.0" y2="137.36936950683594" stroke="rgb(35%, 35%, 35%)" stroke-width="1.0" />
<line x1="60.0" y1="147.36936950683594" x2="60.0" y2="157.36936950683594" stroke="rgb(35%, 35%, 35%)" stroke-width="1.0" />
<line x1="60.0" y1="167.36936950683594" x2="60.0" y2="177.36936950683594" stroke="rgb(35%, 35%, 35%)" stroke-width="1.0" />
<line x1="60.0" y1="187.36936950683594" x2="60.0" y2="197.36936950683594" stroke="rgb(35%, 35%, 35%)" stroke-width="1.0" />
<line x1="65.0" y1="202.36936950683594" x2="72.5" y2="202.36936950683594" stroke="rgb(35%, 35%, 35%)" stroke-width="1.0" />
<line x1="32.5" y1="202.36936950683594" x2="55.0" y2="202.36936950683594" stroke="rgb(0%, 0%, 100%)" stroke-width="1.0" />
<circle cx="43.75" cy="202.36936950683594" r="2.75" stroke="none" stroke-width="1.0" fill="rgb(100%, 100%, 100%)"/>
<circle cx="43.75" cy="202.36936950683594" r="2.75" stroke="rgb(0%, 0%, 100%)" stroke-width="1.0" fill="none"/>
<line x1="32.5" y1="181.11936950683594" x2="55.0" y2="181.11936950683594" stroke="rgb(0%, 0%, 100%)" stroke-width="1.0" />
<line x1="32.5" y1="183.61936950683594" x2="55.0" y2="183.61936950683594" stroke="rgb(0%, 0%, 100%)" stroke-width="1.0" />
<line x1="32.5" y1="162.36936950683594" x2="55.0" y2="162.36936950683594" stroke="rgb(0%, 0%, 100%)" stroke-width="1.0" />
<line x1="32.5" y1="141.11936950683594" x2="55.0" y2="141.11936950683594" stroke="rgb(0%, 0%, 100%)" stroke-width="1.0" />
<line x1="32.5" y1="143.61936950683594" x2="55.0" y2="143.61936950683594" stroke="rgb(0%, 0%, 100%)" stroke-width="1.0" />
<line x1="32.5" y1="121.11936950683594" x2="55.0" y2="121.11936950683594" stroke="rgb(0%, 0%, 100%)" stroke-width="1.0" />
<line x1="32.5" y1="123.61936950683594" x2="55.0" y2="123.61936950683594" stroke="rgb(0%, 0%, 100%)" stroke-width="1.0" />
<line x1="40.34835302795275" y1="79.3774293515981" x2="61.475434111622064" y2="87.11670870332466" stroke="rgb(0%, 0%, 100%)" stroke-width="1.0" />
<line x1="39.48843309998312" y1="81.72488280533912" x2="60.61551418365244" y2="89.46416215706569" stroke="rgb(0%, 0%, 100%)" stroke-width="1.0" />
<line x1="46.7977524877249" y1="61.771528448540295" x2="67.92483357139423" y2="69.51080780026686" stroke="rgb(0%, 0%, 100%)" stroke-width="1.0" />
<circle cx="10.0" cy="202.36936950683594" r="5.0" stroke="none" stroke-width="1.0" fill="rgb(94%, 94%, 94%)"/>
<circle cx="10.0" cy="202.36936950683594" r="5.0" stroke="rgb(35%, 35%, 35%)" stroke-width="1.0" fill="none"/>
<text x="10.0" y="205.36936950683594" text-anchor="middle" font-family="Verdana" font-size="7.5" fill="rgb(0%, 0%, 0%)" >U</text>
<circle cx="27.5" cy="202.36936950683594" r="5.0" stroke="none" stroke-width="1.0" fill="rgb(94%, 94%, 94%)"/>
<circle cx="27.5" cy="202.36936950683594" r="5.0" stroke="rgb(35%, 35%, 35%)" stroke-width="1.0" fill="none"/>
<text x="27.5" y="205.36936950683594" text-anchor="middle" font-family="Verdana" font-size="7.5" fill="rgb(0%, 0%, 0%)" >G</text>
<circle cx="27.5" cy="182.36936950683594" r="5.0" stroke="none" stroke-width="1.0" fill="rgb(94%, 94%, 94%)"/>
<circle cx="27.5" cy="182.36936950683594" r="5.0" stroke="rgb(35%, 35%, 35%)" stroke-width="1.0" fill="none"/>
<text x="27.5" y="185.36936950683594" text-anchor="middle" font-family="Verdana" font-size="7.5" fill="rgb(0%, 0%, 0%)" >C</text>
<circle cx="27.5" cy="162.36936950683594" r="5.0" stroke="none" stroke-width="1.0" fill="rgb(94%, 94%, 94%)"/>
<circle cx="27.5" cy="162.36936950683594" r="5.0" stroke="rgb(35%, 35%, 35%)" stroke-width="1.0" fill="none"/>
<text x="27.5" y="165.36936950683594" text-anchor="middle" font-family="Verdana" font-size="7.5" fill="rgb(0%, 0%, 0%)" >U</text>
<circle cx="27.5" cy="142.36936950683594" r="5.0" stroke="none" stroke-width="1.0" fill="rgb(94%, 94%, 94%)"/>
<circle cx="27.5" cy="142.36936950683594" r="5.0" stroke="rgb(35%, 35%, 35%)" stroke-width="1.0" fill="none"/>
<text x="27.5" y="145.36936950683594" text-anchor="middle" font-family="Verdana" font-size="7.5" fill="rgb(0%, 0%, 0%)" >C</text>
<circle cx="27.5" cy="122.36936950683594" r="5.0" stroke="none" stroke-width="1.0" fill="rgb(94%, 94%, 94%)"/>
<circle cx="27.5" cy="122.36936950683594" r="5.0" stroke="rgb(35%, 35%, 35%)" stroke-width="1.0" fill="none"/>
<text x="27.5" y="125.36936950683594" text-anchor="middle" font-family="Verdana" font-size="7.5" fill="rgb(0%, 0%, 0%)" >C</text>
<circle cx="18.70286497225463" cy="107.24129304907231" r="5.0" stroke="none" stroke-width="1.0" fill="rgb(94%, 94%, 94%)"/>
<circle cx="18.70286497225463" cy="107.24129304907231" r="5.0" stroke="rgb(35%, 35%, 35%)" stroke-width="1.0" fill="none"/>
<text x="18.70286497225463" y="110.24129304907231" text-anchor="middle" font-family="Verdana" font-size="7.5" fill="rgb(0%, 0%, 0%)" >U</text>
<circle cx="21.7595663877714" cy="90.01036566646448" r="5.0" stroke="none" stroke-width="1.0" fill="rgb(94%, 94%, 94%)"/>
<circle cx="21.7595663877714" cy="90.01036566646448" r="5.0" stroke="rgb(35%, 35%, 35%)" stroke-width="1.0" fill="none"/>
<text x="21.7595663877714" y="93.01036566646448" text-anchor="middle" font-family="Verdana" font-size="7.5" fill="rgb(0%, 0%, 0%)" >A</text>
<circle cx="35.22348615648586" cy="78.83131622252935" r="5.0" stroke="none" stroke-width="1.0" fill="rgb(94%, 94%, 94%)"/>
<circle cx="35.22348615648586" cy="78.83131622252935" r="5.0" stroke="rgb(35%, 35%, 35%)" stroke-width="1.0" fill="none"/>
<text x="35.22348615648586" y="81.83131622252935" text-anchor="middle" font-family="Verdana" font-size="7.5" fill="rgb(0%, 0%, 0%)" >G</text>
<circle cx="42.10284558024283" cy="60.05168859260104" r="5.0" stroke="none" stroke-width="1.0" fill="rgb(94%, 94%, 94%)"/>
<circle cx="42.10284558024283" cy="60.05168859260104" r="5.0" stroke="rgb(35%, 35%, 35%)" stroke-width="1.0" fill="none"/>
<text x="42.10284558024283" y="63.05168859260104" text-anchor="middle" font-family="Verdana" font-size="7.5" fill="rgb(0%, 0%, 0%)" >U</text>
<circle cx="35.64915083137999" cy="43.785148298404096" r="5.0" stroke="none" stroke-width="1.0" fill="rgb(94%, 94%, 94%)"/>
<circle cx="35.64915083137999" cy="43.785148298404096" r="5.0" stroke="rgb(35%, 35%, 35%)" stroke-width="1.0" fill="none"/>
<text x="35.64915083137999" y="46.785148298404096" text-anchor="middle" font-family="Verdana" font-size="7.5" fill="rgb(0%, 0%, 0%)" >A</text>
<circle cx="39.07800186770118" cy="26.624335682885174" r="5.0" stroke="none" stroke-width="1.0" fill="rgb(94%, 94%, 94%)"/>
<circle cx="39.07800186770118" cy="26.624335682885174" r="5.0" stroke="rgb(35%, 35%, 35%)" stroke-width="1.0" fill="none"/>
<text x="39.07800186770118" y="29.624335682885174" text-anchor="middle" font-family="Verdana" font-size="7.5" fill="rgb(0%, 0%, 0%)" >C</text>
<circle cx="51.28696826966281" cy="14.086726323441638" r="5.0" stroke="none" stroke-width="1.0" fill="rgb(94%, 94%, 94%)"/>
<circle cx="51.28696826966281" cy="14.086726323441638" r="5.0" stroke="rgb(35%, 35%, 35%)" stroke-width="1.0" fill="none"/>
<text x="51.28696826966281" y="17.08672632344164" text-anchor="middle" font-family="Verdana" font-size="7.5" fill="rgb(0%, 0%, 0%)" >G</text>
<circle cx="68.35067217449568" cy="10.203362047144168" r="5.0" stroke="none" stroke-width="1.0" fill="rgb(94%, 94%, 94%)"/>
<circle cx="68.35067217449568" cy="10.203362047144168" r="5.0" stroke="rgb(35%, 35%, 35%)" stroke-width="1.0" fill="none"/>
<text x="68.35067217449568" y="13.203362047144168" text-anchor="middle" font-family="Verdana" font-size="7.5" fill="rgb(0%, 0%, 0%)" >U</text>
<circle cx="84.78286000760433" cy="16.222806545739473" r="5.0" stroke="none" stroke-width="1.0" fill="rgb(94%, 94%, 94%)"/>
<circle cx="84.78286000760433" cy="16.222806545739473" r="5.0" stroke="rgb(35%, 35%, 35%)" stroke-width="1.0" fill="none"/>
<text x="84.78286000760433" y="19.222806545739473" text-anchor="middle" font-family="Verdana" font-size="7.5" fill="rgb(0%, 0%, 0%)" >A</text>
<circle cx="95.30032070645474" cy="30.209712190033002" r="5.0" stroke="none" stroke-width="1.0" fill="rgb(94%, 94%, 94%)"/>
<circle cx="95.30032070645474" cy="30.209712190033002" r="5.0" stroke="rgb(35%, 35%, 35%)" stroke-width="1.0" fill="none"/>
<text x="95.30032070645474" y="33.209712190033" text-anchor="middle" font-family="Verdana" font-size="7.5" fill="rgb(0%, 0%, 0%)" >A</text>
<circle cx="96.52152253113005" cy="47.66706522987391" r="5.0" stroke="none" stroke-width="1.0" fill="rgb(94%, 94%, 94%)"/>
<circle cx="96.52152253113005" cy="47.66706522987391" r="5.0" stroke="rgb(35%, 35%, 35%)" stroke-width="1.0" fill="none"/>
<text x="96.52152253113005" y="50.66706522987391" text-anchor="middle" font-family="Verdana" font-size="7.5" fill="rgb(0%, 0%, 0%)" >G</text>
<circle cx="88.05382957366481" cy="62.982047601144416" r="5.0" stroke="none" stroke-width="1.0" fill="rgb(94%, 94%, 94%)"/>
<circle cx="88.05382957366481" cy="62.982047601144416" r="5.0" stroke="rgb(35%, 35%, 35%)" stroke-width="1.0" fill="none"/>
<text x="88.05382957366481" y="65.98204760114442" text-anchor="middle" font-family="Verdana" font-size="7.5" fill="rgb(0%, 0%, 0%)" >G</text>
<circle cx="72.61974047887631" cy="71.23064765620612" r="5.0" stroke="none" stroke-width="1.0" fill="rgb(94%, 94%, 94%)"/>
<circle cx="72.61974047887631" cy="71.23064765620612" r="5.0" stroke="rgb(35%, 35%, 35%)" stroke-width="1.0" fill="none"/>
<text x="72.61974047887631" y="74.23064765620612" text-anchor="middle" font-family="Verdana" font-size="7.5" fill="rgb(0%, 0%, 0%)" >A</text>
<circle cx="65.74038105511933" cy="90.01027528613443" r="5.0" stroke="none" stroke-width="1.0" fill="rgb(94%, 94%, 94%)"/>
<circle cx="65.74038105511933" cy="90.01027528613443" r="5.0" stroke="rgb(35%, 35%, 35%)" stroke-width="1.0" fill="none"/>
<text x="65.74038105511933" y="93.01027528613443" text-anchor="middle" font-family="Verdana" font-size="7.5" fill="rgb(0%, 0%, 0%)" >C</text>
<circle cx="68.79714415869086" cy="107.24124157733945" r="5.0" stroke="none" stroke-width="1.0" fill="rgb(94%, 94%, 94%)"/>
<circle cx="68.79714415869086" cy="107.24124157733945" r="5.0" stroke="rgb(35%, 35%, 35%)" stroke-width="1.0" fill="none"/>
<text x="68.79714415869086" y="110.24124157733945" text-anchor="middle" font-family="Verdana" font-size="7.5" fill="rgb(0%, 0%, 0%)" >C</text>
<circle cx="60.0" cy="122.36936950683594" r="5.0" stroke="none" stroke-width="1.0" fill="rgb(94%, 94%, 94%)"/>
<circle cx="60.0" cy="122.36936950683594" r="5.0" stroke="rgb(35%, 35%, 35%)" stroke-width="1.0" fill="none"/>
<text x="60.0" y="125.36936950683594" text-anchor="middle" font-family="Verdana" font-size="7.5" fill="rgb(0%, 0%, 0%)" >G</text>
<circle cx="60.0" cy="142.36936950683594" r="5.0" stroke="none" stroke-width="1.0" fill="rgb(94%, 94%, 94%)"/>
<circle cx="60.0" cy="142.36936950683594" r="5.0" stroke="rgb(35%, 35%, 35%)" stroke-width="1.0" fill="none"/>
<text x="60.0" y="145.36936950683594" text-anchor="middle" font-family="Verdana" font-size="7.5" fill="rgb(0%, 0%, 0%)" >G</text>
<circle cx="60.0" cy="162.36936950683594" r="5.0" stroke="none" stroke-width="1.0" fill="rgb(94%, 94%, 94%)"/>
<circle cx="60.0" cy="162.36936950683594" r="5.0" stroke="rgb(35%, 35%, 35%)" stroke-width="1.0" fill="none"/>
<text x="60.0" y="165.36936950683594" text-anchor="middle" font-family="Verdana" font-size="7.5" fill="rgb(0%, 0%, 0%)" >A</text>
<circle cx="60.0" cy="182.36936950683594" r="5.0" stroke="none" stroke-width="1.0" fill="rgb(94%, 94%, 94%)"/>
<circle cx="60.0" cy="182.36936950683594" r="5.0" stroke="rgb(35%, 35%, 35%)" stroke-width="1.0" fill="none"/>
<text x="60.0" y="185.36936950683594" text-anchor="middle" font-family="Verdana" font-size="7.5" fill="rgb(0%, 0%, 0%)" >G</text>
<circle cx="60.0" cy="202.36936950683594" r="5.0" stroke="none" stroke-width="1.0" fill="rgb(94%, 94%, 94%)"/>
<circle cx="60.0" cy="202.36936950683594" r="5.0" stroke="rgb(35%, 35%, 35%)" stroke-width="1.0" fill="none"/>
<text x="60.0" y="205.36936950683594" text-anchor="middle" font-family="Verdana" font-size="7.5" fill="rgb(0%, 0%, 0%)" >U</text>
<circle cx="77.5" cy="202.36936950683594" r="5.0" stroke="none" stroke-width="1.0" fill="rgb(94%, 94%, 94%)"/>
<circle cx="77.5" cy="202.36936950683594" r="5.0" stroke="rgb(35%, 35%, 35%)" stroke-width="1.0" fill="none"/>
<text x="77.5" y="205.36936950683594" text-anchor="middle" font-family="Verdana" font-size="7.5" fill="rgb(0%, 0%, 0%)" >G</text>
<line x1="10.0" y1="209.86936950683594" x2="10.0" y2="214.86936950683594" stroke="rgb(25%, 25%, 25%)" stroke-width="1.0" />
<text x="10.0" y="225.36936950683594" text-anchor="middle" font-family="Verdana" font-size="7.5" fill="rgb(25%, 25%, 25%)" >1</text>
<line x1="35.78606000891284" y1="56.0083953747108" x2="31.574869628026185" y2="53.31286656278397" stroke="rgb(25%, 25%, 25%)" stroke-width="1.0" />
<text x="25.258084056696198" y="52.2695733448937" text-anchor="middle" font-family="Verdana" font-size="7.5" fill="rgb(25%, 25%, 25%)" >10</text>
<line x1="72.98179709929256" y1="91.96268243506381" x2="77.80940779540805" y2="93.26428720101671" stroke="rgb(25%, 25%, 25%)" stroke-width="1.0" />
<text x="85.05082383958128" y="98.21669434994607" text-anchor="middle" font-family="Verdana" font-size="7.5" fill="rgb(25%, 25%, 25%)" >20</text>
<line x1="77.5" y1="209.86936950683594" x2="77.5" y2="214.86936950683594" stroke="rgb(25%, 25%, 25%)" stroke-width="1.0" />
<text x="77.5" y="225.36936950683594" text-anchor="middle" font-family="Verdana" font-size="7.5" fill="rgb(25%, 25%, 25%)" >27</text>
<text x="42.53192039004601" y="104.98189011645884" text-anchor="middle" font-family="Verdana" font-size="6.0" fill="rgb(0%, 0%, 0%)" >259</text>
<text x="67.37459120212127" y="40.70635401674732" text-anchor="middle" font-family="Verdana" font-size="6.0" fill="rgb(0%, 0%, 0%)" >55</text>
</svg>
