<?xml version="1.0" encoding="UTF-8"?>
<!DOCTYPE svg PUBLIC "-//W3C//DTD SVG 1.1//EN" 
"http://www.w3.org/Graphics/SVG/1.1/DTD/svg11.dtd">

<svg width="100%" height="100%" version="1.1"
xmlns="http://www.w3.org/2000/svg">
<path d="M 129.5206298828125 131.228515625 L 128.6582489013672 130.90040588378906 L 127.75027465820312 130.73634338378906 L 126.82760620117188 130.74191284179688 L 125.92166137695312 130.91693115234375 L 125.06332397460938 131.25543212890625 L 124.28178405761719 131.7458953857422 L 123.60368347167969 132.37161254882812 L 123.05209350585938 133.1112823486328 L 122.64581298828125 133.939697265625 L 122.398681640625 134.82867431640625 L 122.319091796875 135.74790954589844 L 122.40977478027344 136.66612243652344 L 122.66763305664062 137.5520477294922 L 123.08389282226562 138.37550354003906 L 123.64437866210938 139.1084442138672 L 124.32998657226562 139.72592163085938 L 139.55165100097656 151.0770721435547 L 156.6155242919922 152.13990783691406 L 169.42042541503906 164.94480895996094 L 170.13027954101562 165.5342559814453 L 170.9363555908203 165.98324584960938 L 171.81121826171875 166.27645874023438 L 172.7250518798828 166.4039306640625 L 173.64674377441406 166.361328125 L 174.544921875 166.1500701904297 L 175.3889923095703 165.7773895263672 L 176.1501922607422 165.2559356689453 L 176.80262756347656 164.60350036621094 L 177.32408142089844 163.84230041503906 L 177.69676208496094 162.99822998046875 L 177.90802001953125 162.1000518798828 L 177.95062255859375 161.17835998535156 L 177.82315063476562 160.2645263671875 L 177.52993774414062 159.38966369628906 L 177.08094787597656 158.58358764648438 L 176.4915008544922 157.8737335205078 L 161.0121307373047 142.3943634033203 L 143.14378356933594 141.28143310546875 L 130.3080291748047 131.70950317382812 z" fill="rgb(53%, 82%, 67%)" style="stroke:none;"/>
<path d="M 129.5206298828125 131.228515625 L 128.6582489013672 130.90040588378906 L 127.75027465820312 130.73634338378906 L 126.82760620117188 130.74191284179688 L 125.92166137695312 130.91693115234375 L 125.06332397460938 131.25543212890625 L 124.28178405761719 131.7458953857422 L 123.60368347167969 132.37161254882812 L 123.05209350585938 133.1112823486328 L 122.64581298828125 133.939697265625 L 122.398681640625 134.82867431640625 L 122.319091796875 135.74790954589844 L 122.40977478027344 136.66612243652344 L 122.66763305664062 137.5520477294922 L 123.08389282226562 138.37550354003906 L 123.64437866210938 139.1084442138672 L 124.32998657226562 139.72592163085938 L 139.55165100097656 151.0770721435547 L 156.6155242919922 152.13990783691406 L 169.42042541503906 164.94480895996094 L 170.13027954101562 165.5342559814453 L 170.9363555908203 165.98324584960938 L 171.81121826171875 166.27645874023438 L 172.7250518798828 166.4039306640625 L 173.64674377441406 166.361328125 L 174.544921875 166.1500701904297 L 175.3889923095703 165.7773895263672 L 176.1501922607422 165.2559356689453 L 176.80262756347656 164.60350036621094 L 177.32408142089844 163.84230041503906 L 177.69676208496094 162.99822998046875 L 177.90802001953125 162.1000518798828 L 177.95062255859375 161.17835998535156 L 177.82315063476562 160.2645263671875 L 177.52993774414062 159.38966369628906 L 177.08094787597656 158.58358764648438 L 176.4915008544922 157.8737335205078 L 161.0121307373047 142.3943634033203 L 143.14378356933594 141.28143310546875 L 130.3080291748047 131.70950317382812 z" style="fill:none; stroke:rgb(43%, 84%, 43%); stroke-width:1.0;"/>
<path d="M 177.316162109375 110.49465942382812 L 178.0491180419922 111.05513000488281 L 178.87257385253906 111.47138977050781 L 179.75848388671875 111.729248046875 L 180.6767120361328 111.81993103027344 L 181.595947265625 111.74034118652344 L 182.48492431640625 111.49319458007812 L 183.31333923339844 111.0869140625 L 184.05300903320312 110.53532409667969 L 184.6787109375 109.85722351074219 L 185.16917419433594 109.07568359375 L 185.50767517089844 108.21734619140625 L 185.6826934814453 107.3114013671875 L 185.68826293945312 106.38874816894531 L 185.52420043945312 105.48075866699219 L 185.1960906982422 104.61839294433594 L 184.71510314941406 103.83099365234375 L 173.3638916015625 88.60931396484375 L 154.1394805908203 81.5595703125 L 137.4813690185547 85.4085693359375 L 121.55577087402344 76.78846740722656 L 120.70726013183594 76.42599487304688 L 119.80659484863281 76.22561645507812 L 118.88444519042969 76.19413757324219 L 117.97222900390625 76.3326416015625 L 117.10098266601562 76.63641357421875 L 116.30038452148438 77.0950927734375 L 115.59770202636719 77.69308471679688 L 115.01686096191406 78.41000366210938 L 114.57765197753906 79.221435546875 L 114.29502868652344 80.09977722167969 L 114.1785888671875 81.01507568359375 L 114.23234558105469 81.93620300292969 L 114.45442199707031 82.83175659179688 L 114.8372802734375 83.6712646484375 L 115.36788940429688 84.42611694335938 L 116.02815246582031 85.07061767578125 L 116.79560852050781 85.58282470703125 L 136.04747009277344 96.00335693359375 L 153.4908905029297 91.972900390625 L 167.126708984375 96.9732666015625 L 176.6986846923828 109.80903625488281 z" fill="rgb(53%, 82%, 67%)" style="stroke:none;"/>
<path d="M 177.316162109375 110.49465942382812 L 178.0491180419922 111.05513000488281 L 178.87257385253906 111.47138977050781 L 179.75848388671875 111.729248046875 L 180.6767120361328 111.81993103027344 L 181.595947265625 111.74034118652344 L 182.48492431640625 111.49319458007812 L 183.31333923339844 111.0869140625 L 184.05300903320312 110.53532409667969 L 184.6787109375 109.85722351074219 L 185.16917419433594 109.07568359375 L 185.50767517089844 108.21734619140625 L 185.6826934814453 107.3114013671875 L 185.68826293945312 106.38874816894531 L 185.52420043945312 105.48075866699219 L 185.1960906982422 104.61839294433594 L 184.71510314941406 103.83099365234375 L 173.3638916015625 88.60931396484375 L 154.1394805908203 81.5595703125 L 137.4813690185547 85.4085693359375 L 121.55577087402344 76.78846740722656 L 120.70726013183594 76.42599487304688 L 119.80659484863281 76.22561645507812 L 118.88444519042969 76.19413757324219 L 117.97222900390625 76.3326416015625 L 117.10098266601562 76.63641357421875 L 116.30038452148438 77.0950927734375 L 115.59770202636719 77.69308471679688 L 115.01686096191406 78.41000366210938 L 114.57765197753906 79.221435546875 L 114.29502868652344 80.09977722167969 L 114.1785888671875 81.01507568359375 L 114.23234558105469 81.93620300292969 L 114.45442199707031 82.83175659179688 L 114.8372802734375 83.6712646484375 L 115.36788940429688 84.42611694335938 L 116.02815246582031 85.07061767578125 L 116.79560852050781 85.58282470703125 L 136.04747009277344 96.00335693359375 L 153.4908905029297 91.972900390625 L 167.126708984375 96.9732666015625 L 176.6986846923828 109.80903625488281 z" style="fill:none; stroke:rgb(43%, 84%, 43%); stroke-width:1.0;"/>
<path d="M 57.69264221191406 86.28672790527344 L 56.83026885986328 85.9586181640625 L 55.92228698730469 85.7945556640625 L 54.99962615966797 85.80014038085938 L 54.09368896484375 85.97515869140625 L 53.23534393310547 86.31365966796875 L 52.45381164550781 86.80410766601562 L 51.77570343017578 87.42982482910156 L 51.22412109375 88.16949462890625 L 50.817840576171875 88.99790954589844 L 50.570701599121094 89.88688659667969 L 50.491119384765625 90.80612182617188 L 50.58180236816406 91.72434997558594 L 50.83966064453125 92.61026000976562 L 51.25592041015625 93.4337158203125 L 51.81639862060547 94.16665649414062 L 52.50200653076172 94.78413391113281 L 67.55674743652344 106.01081848144531 L 84.94627380371094 105.29910278320312 L 101.3250961303711 114.16452026367188 L 102.17359924316406 114.52699279785156 L 103.07426452636719 114.72737121582031 L 103.99640655517578 114.75885009765625 L 104.90863800048828 114.62034606933594 L 105.7798843383789 114.31657409667969 L 106.58047485351562 113.85789489746094 L 107.28315734863281 113.25990295410156 L 107.8639907836914 112.54298400878906 L 108.30320739746094 111.73155212402344 L 108.5858383178711 110.85321044921875 L 108.70226287841797 109.93791198730469 L 108.64852142333984 109.01678466796875 L 108.42643737792969 108.12123107910156 L 108.0435791015625 107.28172302246094 L 107.51297760009766 106.52687072753906 L 106.85270690917969 105.88236999511719 L 106.08525085449219 105.37016296386719 L 87.28660583496094 95.1949462890625 L 70.69157409667969 95.8741455078125 L 58.48004913330078 86.76771545410156 z" fill="rgb(70%, 92%, 51%)" style="stroke:none;"/>
<path d="M 57.69264221191406 86.28672790527344 L 56.83026885986328 85.9586181640625 L 55.92228698730469 85.7945556640625 L 54.99962615966797 85.80014038085938 L 54.09368896484375 85.97515869140625 L 53.23534393310547 86.31365966796875 L 52.45381164550781 86.80410766601562 L 51.77570343017578 87.42982482910156 L 51.22412109375 88.16949462890625 L 50.817840576171875 88.99790954589844 L 50.570701599121094 89.88688659667969 L 50.491119384765625 90.80612182617188 L 50.58180236816406 91.72434997558594 L 50.83966064453125 92.61026000976562 L 51.25592041015625 93.4337158203125 L 51.81639862060547 94.16665649414062 L 52.50200653076172 94.78413391113281 L 67.55674743652344 106.01081848144531 L 84.94627380371094 105.29910278320312 L 101.3250961303711 114.16452026367188 L 102.17359924316406 114.52699279785156 L 103.07426452636719 114.72737121582031 L 103.99640655517578 114.75885009765625 L 104.90863800048828 114.62034606933594 L 105.7798843383789 114.31657409667969 L 106.58047485351562 113.85789489746094 L 107.28315734863281 113.25990295410156 L 107.8639907836914 112.54298400878906 L 108.30320739746094 111.73155212402344 L 108.5858383178711 110.85321044921875 L 108.70226287841797 109.93791198730469 L 108.64852142333984 109.01678466796875 L 108.42643737792969 108.12123107910156 L 108.0435791015625 107.28172302246094 L 107.51297760009766 106.52687072753906 L 106.85270690917969 105.88236999511719 L 106.08525085449219 105.37016296386719 L 87.28660583496094 95.1949462890625 L 70.69157409667969 95.8741455078125 L 58.48004913330078 86.76771545410156 z" style="fill:none; stroke:rgb(43%, 84%, 43%); stroke-width:1.0;"/>
<path d="M 91.40077209472656 61.22760009765625 L 92.32345581054688 61.22479248046875 L 93.22990417480469 61.052459716796875 L 94.08926391601562 60.716552734375 L 94.87226104736328 60.228424072265625 L 95.55223083496094 59.604736328125 L 96.10602569580078 58.866729736328125 L 96.51478576660156 58.039520263671875 L 96.76457977294922 57.15130615234375 L 96.84691619873047 56.2322998046875 L 96.75897979736328 55.313812255859375 L 96.50376892089844 54.4271240234375 L 96.08998107910156 53.6024169921875 L 95.53170013427734 52.8677978515625 L 94.84793090820312 52.248291015625 L 94.06197357177734 51.76495361328125 L 93.2005844116211 51.43426513671875 L 76.90286254882812 46.850830078125 L 63.68470764160156 33.632659912109375 L 62.974853515625 33.043212890625 L 62.16877746582031 32.59423828125 L 61.293922424316406 32.300994873046875 L 60.380088806152344 32.17352294921875 L 59.45838928222656 32.216156005859375 L 58.560211181640625 32.427398681640625 L 57.716148376464844 32.800079345703125 L 56.95494079589844 33.321533203125 L 56.30250549316406 33.973968505859375 L 55.78105926513672 34.73516845703125 L 55.40837097167969 35.579254150390625 L 55.197120666503906 36.4774169921875 L 55.154510498046875 37.39910888671875 L 55.281982421875 38.312957763671875 L 55.57520294189453 39.18780517578125 L 56.02418518066406 39.993865966796875 L 56.61363983154297 40.7037353515625 L 71.67975616455078 55.76983642578125 L 90.4932861328125 61.060821533203125 z" fill="rgb(70%, 92%, 51%)" style="stroke:none;"/>
<path d="M 91.40077209472656 61.22760009765625 L 92.32345581054688 61.22479248046875 L 93.22990417480469 61.052459716796875 L 94.08926391601562 60.716552734375 L 94.87226104736328 60.228424072265625 L 95.55223083496094 59.604736328125 L 96.10602569580078 58.866729736328125 L 96.51478576660156 58.039520263671875 L 96.76457977294922 57.15130615234375 L 96.84691619873047 56.2322998046875 L 96.75897979736328 55.313812255859375 L 96.50376892089844 54.4271240234375 L 96.08998107910156 53.6024169921875 L 95.53170013427734 52.8677978515625 L 94.84793090820312 52.248291015625 L 94.06197357177734 51.76495361328125 L 93.2005844116211 51.43426513671875 L 76.90286254882812 46.850830078125 L 63.68470764160156 33.632659912109375 L 62.974853515625 33.043212890625 L 62.16877746582031 32.59423828125 L 61.293922424316406 32.300994873046875 L 60.380088806152344 32.17352294921875 L 59.45838928222656 32.216156005859375 L 58.560211181640625 32.427398681640625 L 57.716148376464844 32.800079345703125 L 56.95494079589844 33.321533203125 L 56.30250549316406 33.973968505859375 L 55.78105926513672 34.73516845703125 L 55.40837097167969 35.579254150390625 L 55.197120666503906 36.4774169921875 L 55.154510498046875 37.39910888671875 L 55.281982421875 38.312957763671875 L 55.57520294189453 39.18780517578125 L 56.02418518066406 39.993865966796875 L 56.61363983154297 40.7037353515625 L 71.67975616455078 55.76983642578125 L 90.4932861328125 61.060821533203125 z" style="fill:none; stroke:rgb(43%, 84%, 43%); stroke-width:1.0;"/>
<path d="M 53.64234924316406 24.77996826171875 L 54.512840270996094 25.08587646484375 L 55.42472839355469 25.22662353515625 L 56.346946716308594 25.197418212890625 L 57.24810028076172 24.999237060546875 L 58.097496032714844 24.63885498046875 L 58.86620330810547 24.1285400390625 L 59.52806091308594 23.48565673828125 L 60.060508728027344 22.73211669921875 L 60.4454345703125 21.8935546875 L 60.669715881347656 20.99853515625 L 60.72572326660156 20.07757568359375 L 60.611549377441406 19.161956787109375 L 60.331077575683594 18.282958984375 L 59.89385986328125 17.470428466796875 L 59.314788818359375 16.7520751953125 L 58.61357879638672 16.152374267578125 L 42.83023452758789 5.0 L 21.755062103271484 6.798492431640625 L 6.798498153686523 21.75506591796875 L 5.0 42.830230712890625 L 17.206050872802734 60.104766845703125 L 34.592159271240234 64.64419555664062 L 47.774803161621094 77.82684326171875 L 48.48465347290039 78.41629028320312 L 49.290733337402344 78.86526489257812 L 50.16558074951172 79.15849304199219 L 51.07942199707031 79.28596496582031 L 52.001121520996094 79.24336242675781 L 52.8992919921875 79.0321044921875 L 53.74336242675781 78.65940856933594 L 54.50457000732422 78.13796997070312 L 55.157005310058594 77.48553466796875 L 55.67845153808594 76.72431945800781 L 56.05113983154297 75.88026428222656 L 56.26239013671875 74.98208618164062 L 56.30500030517578 74.06039428710938 L 56.177528381347656 73.14654541015625 L 55.884307861328125 72.27169799804688 L 55.435325622558594 71.46560668945312 L 54.84587097167969 70.75576782226562 L 39.74424362182617 55.654144287109375 L 23.265655517578125 51.3516845703125 L 15.2742919921875 40.04193115234375 L 16.4517765045166 26.243927001953125 L 26.243915557861328 16.4517822265625 L 40.04194259643555 15.2742919921875 L 52.84288024902344 24.3193359375 z" fill="rgb(97%, 55%, 86%)" style="stroke:none;"/>
<path d="M 53.64234924316406 24.77996826171875 L 54.512840270996094 25.08587646484375 L 55.42472839355469 25.22662353515625 L 56.346946716308594 25.197418212890625 L 57.24810028076172 24.999237060546875 L 58.097496032714844 24.63885498046875 L 58.86620330810547 24.1285400390625 L 59.52806091308594 23.48565673828125 L 60.060508728027344 22.73211669921875 L 60.4454345703125 21.8935546875 L 60.669715881347656 20.99853515625 L 60.72572326660156 20.07757568359375 L 60.611549377441406 19.161956787109375 L 60.331077575683594 18.282958984375 L 59.89385986328125 17.470428466796875 L 59.314788818359375 16.7520751953125 L 58.61357879638672 16.152374267578125 L 42.83023452758789 5.0 L 21.755062103271484 6.798492431640625 L 6.798498153686523 21.75506591796875 L 5.0 42.830230712890625 L 17.206050872802734 60.104766845703125 L 34.592159271240234 64.64419555664062 L 47.774803161621094 77.82684326171875 L 48.48465347290039 78.41629028320312 L 49.290733337402344 78.86526489257812 L 50.16558074951172 79.15849304199219 L 51.07942199707031 79.28596496582031 L 52.001121520996094 79.24336242675781 L 52.8992919921875 79.0321044921875 L 53.74336242675781 78.65940856933594 L 54.50457000732422 78.13796997070312 L 55.157005310058594 77.48553466796875 L 55.67845153808594 76.72431945800781 L 56.05113983154297 75.88026428222656 L 56.26239013671875 74.98208618164062 L 56.30500030517578 74.06039428710938 L 56.177528381347656 73.14654541015625 L 55.884307861328125 72.27169799804688 L 55.435325622558594 71.46560668945312 L 54.84587097167969 70.75576782226562 L 39.74424362182617 55.654144287109375 L 23.265655517578125 51.3516845703125 L 15.2742919921875 40.04193115234375 L 16.4517765045166 26.243927001953125 L 26.243915557861328 16.4517822265625 L 40.04194259643555 15.2742919921875 L 52.84288024902344 24.3193359375 z" style="fill:none; stroke:rgb(43%, 84%, 43%); stroke-width:1.0;"/>
<path d="M 406.7763366699219 292.0782928466797 L 407.5823974609375 292.5272750854492 L 408.457275390625 292.82049560546875 L 409.37109375 292.94797134399414 L 410.29278564453125 292.90535736083984 L 411.19097900390625 292.69410705566406 L 412.0350341796875 292.32141494750977 L 412.7962341308594 291.7999725341797 L 413.44866943359375 291.1475372314453 L 413.9701232910156 290.38632583618164 L 414.3428039550781 289.54226303100586 L 414.5540771484375 288.6440849304199 L 414.5966796875 287.72238540649414 L 414.4692077636719 286.8085517883301 L 414.1759948730469 285.93370056152344 L 413.72698974609375 285.1276206970215 L 413.1375427246094 284.4177703857422 L 399.6014709472656 270.8816909790039 L 382.2991943359375 268.2584991455078 L 369.3187561035156 255.27806854248047 L 368.6089172363281 254.68861389160156 L 367.8028259277344 254.23963165283203 L 366.927978515625 253.9464111328125 L 366.0141296386719 253.81893920898438 L 365.0924377441406 253.8615493774414 L 364.19427490234375 254.0727996826172 L 363.3501892089844 254.44549560546875 L 362.5889892578125 254.96693420410156 L 361.9365539550781 255.61936950683594 L 361.41510009765625 256.3805847167969 L 361.04241943359375 257.22464752197266 L 360.8311767578125 258.1228256225586 L 360.78857421875 259.0445251464844 L 360.9160461425781 259.95835876464844 L 361.2092590332031 260.8332061767578 L 361.6582336425781 261.63928985595703 L 362.2476806640625 262.34913635253906 L 377.5515441894531 277.65298080444336 L 394.85382080078125 280.2761764526367 L 406.06646728515625 291.4888381958008 z" fill="rgb(83%, 60%, 70%)" style="stroke:none;"/>
<path d="M 406.7763366699219 292.0782928466797 L 407.5823974609375 292.5272750854492 L 408.457275390625 292.82049560546875 L 409.37109375 292.94797134399414 L 410.29278564453125 292.90535736083984 L 411.19097900390625 292.69410705566406 L 412.0350341796875 292.32141494750977 L 412.7962341308594 291.7999725341797 L 413.44866943359375 291.1475372314453 L 413.9701232910156 290.38632583618164 L 414.3428039550781 289.54226303100586 L 414.5540771484375 288.6440849304199 L 414.5966796875 287.72238540649414 L 414.4692077636719 286.8085517883301 L 414.1759948730469 285.93370056152344 L 413.72698974609375 285.1276206970215 L 413.1375427246094 284.4177703857422 L 399.6014709472656 270.8816909790039 L 382.2991943359375 268.2584991455078 L 369.3187561035156 255.27806854248047 L 368.6089172363281 254.68861389160156 L 367.8028259277344 254.23963165283203 L 366.927978515625 253.9464111328125 L 366.0141296386719 253.81893920898438 L 365.0924377441406 253.8615493774414 L 364.19427490234375 254.0727996826172 L 363.3501892089844 254.44549560546875 L 362.5889892578125 254.96693420410156 L 361.9365539550781 255.61936950683594 L 361.41510009765625 256.3805847167969 L 361.04241943359375 257.22464752197266 L 360.8311767578125 258.1228256225586 L 360.78857421875 259.0445251464844 L 360.9160461425781 259.95835876464844 L 361.2092590332031 260.8332061767578 L 361.6582336425781 261.63928985595703 L 362.2476806640625 262.34913635253906 L 377.5515441894531 277.65298080444336 L 394.85382080078125 280.2761764526367 L 406.06646728515625 291.4888381958008 z" style="fill:none; stroke:rgb(43%, 84%, 43%); stroke-width:1.0;"/>
<path d="M 362.3932800292969 309.11400604248047 L 361.5871887207031 308.66502380371094 L 360.71234130859375 308.3718032836914 L 359.7984924316406 308.244327545166 L 358.8768005371094 308.2869396209717 L 357.9786376953125 308.49818992614746 L 357.1345520019531 308.8708801269531 L 356.37335205078125 309.3923225402832 L 355.7209167480469 310.0447578430176 L 355.199462890625 310.8059711456299 L 354.8267822265625 311.6500358581543 L 354.61553955078125 312.54821014404297 L 354.5729064941406 313.46990966796875 L 354.70037841796875 314.38374519348145 L 354.9936218261719 315.2585973739624 L 355.4425964355469 316.0646743774414 L 356.03204345703125 316.77452659606934 L 369.568115234375 330.3106062412262 L 386.87042236328125 332.93379974365234 L 399.850830078125 345.9142265319824 L 400.5606994628906 346.503680229187 L 401.36676025390625 346.95266246795654 L 402.2416076660156 347.2458839416504 L 403.15545654296875 347.37335777282715 L 404.0771484375 347.3307456970215 L 404.975341796875 347.11949634552 L 405.81939697265625 346.74680519104004 L 406.5805969238281 346.22536277770996 L 407.2330322265625 345.5729274749756 L 407.7544860839844 344.8117151260376 L 408.1271667480469 343.9676504135132 L 408.33843994140625 343.0694751739502 L 408.38104248046875 342.1477756500244 L 408.2535705566406 341.2339401245117 L 407.9603271484375 340.35908794403076 L 407.5113525390625 339.55301094055176 L 406.9219055175781 338.843159198761 L 391.6180725097656 323.53931522369385 L 374.3157653808594 320.9161214828491 L 363.1031188964844 309.70345878601074 z" fill="rgb(83%, 60%, 70%)" style="stroke:none;"/>
<path d="M 362.3932800292969 309.11400604248047 L 361.5871887207031 308.66502380371094 L 360.71234130859375 308.3718032836914 L 359.7984924316406 308.244327545166 L 358.8768005371094 308.2869396209717 L 357.9786376953125 308.49818992614746 L 357.1345520019531 308.8708801269531 L 356.37335205078125 309.3923225402832 L 355.7209167480469 310.0447578430176 L 355.199462890625 310.8059711456299 L 354.8267822265625 311.6500358581543 L 354.61553955078125 312.54821014404297 L 354.5729064941406 313.46990966796875 L 354.70037841796875 314.38374519348145 L 354.9936218261719 315.2585973739624 L 355.4425964355469 316.0646743774414 L 356.03204345703125 316.77452659606934 L 369.568115234375 330.3106062412262 L 386.87042236328125 332.93379974365234 L 399.850830078125 345.9142265319824 L 400.5606994628906 346.503680229187 L 401.36676025390625 346.95266246795654 L 402.2416076660156 347.2458839416504 L 403.15545654296875 347.37335777282715 L 404.0771484375 347.3307456970215 L 404.975341796875 347.11949634552 L 405.81939697265625 346.74680519104004 L 406.5805969238281 346.22536277770996 L 407.2330322265625 345.5729274749756 L 407.7544860839844 344.8117151260376 L 408.1271667480469 343.9676504135132 L 408.33843994140625 343.0694751739502 L 408.38104248046875 342.1477756500244 L 408.2535705566406 341.2339401245117 L 407.9603271484375 340.35908794403076 L 407.5113525390625 339.55301094055176 L 406.9219055175781 338.843159198761 L 391.6180725097656 323.53931522369385 L 374.3157653808594 320.9161214828491 L 363.1031188964844 309.70345878601074 z" style="fill:none; stroke:rgb(43%, 84%, 43%); stroke-width:1.0;"/>
<path d="M 438.1774597167969 383.05118560791016 L 437.3069763183594 382.74527740478516 L 436.39508056640625 382.6045341491699 L 435.4728698730469 382.6337432861328 L 434.57171630859375 382.83191299438477 L 433.7223205566406 383.1922950744629 L 432.95361328125 383.7026138305664 L 432.291748046875 384.34549713134766 L 431.7593078613281 385.09904861450195 L 431.3743896484375 385.93760681152344 L 431.15008544921875 386.83261489868164 L 431.0940856933594 387.7535972595215 L 431.2082824707031 388.669189453125 L 431.4887390136719 389.54821395874023 L 431.92596435546875 390.3607292175293 L 432.5050354003906 391.07907485961914 L 433.20623779296875 391.6787872314453 L 448.9895935058594 402.83116149902344 L 470.06475830078125 401.0326690673828 L 485.0213317871094 386.0761032104492 L 486.81982421875 365.0009307861328 L 474.61376953125 347.72638511657715 L 457.2276611328125 343.18696784973145 L 444.0450134277344 330.00432443618774 L 443.3351745605469 329.41487085819244 L 442.5290832519531 328.9658889770508 L 441.65423583984375 328.6726679801941 L 440.7403869628906 328.5451934337616 L 439.8186950683594 328.587806224823 L 438.9205322265625 328.7990550994873 L 438.0764465332031 329.1717463731766 L 437.31524658203125 329.6931884288788 L 436.6628112792969 330.34562426805496 L 436.141357421875 331.1068358980119 L 435.7686767578125 331.9509012103081 L 435.55743408203125 332.8490765094757 L 435.5148010253906 333.77077555656433 L 435.6423034667969 334.684611082077 L 435.9355163574219 335.55946350097656 L 436.3844909667969 336.36554050445557 L 436.97393798828125 337.07539224624634 L 452.0755615234375 352.1770191192627 L 468.5541687011719 356.47948837280273 L 476.5455322265625 367.78922271728516 L 475.3680419921875 381.5872497558594 L 465.5758972167969 391.37938690185547 L 451.7778625488281 392.5568733215332 L 438.9769287109375 383.51183700561523 z" fill="rgb(47%, 49%, 98%)" style="stroke:none;"/>
<path d="M 438.1774597167969 383.05118560791016 L 437.3069763183594 382.74527740478516 L 436.39508056640625 382.6045341491699 L 435.4728698730469 382.6337432861328 L 434.57171630859375 382.83191299438477 L 433.7223205566406 383.1922950744629 L 432.95361328125 383.7026138305664 L 432.291748046875 384.34549713134766 L 431.7593078613281 385.09904861450195 L 431.3743896484375 385.93760681152344 L 431.15008544921875 386.83261489868164 L 431.0940856933594 387.7535972595215 L 431.2082824707031 388.669189453125 L 431.4887390136719 389.54821395874023 L 431.92596435546875 390.3607292175293 L 432.5050354003906 391.07907485961914 L 433.20623779296875 391.6787872314453 L 448.9895935058594 402.83116149902344 L 470.06475830078125 401.0326690673828 L 485.0213317871094 386.0761032104492 L 486.81982421875 365.0009307861328 L 474.61376953125 347.72638511657715 L 457.2276611328125 343.18696784973145 L 444.0450134277344 330.00432443618774 L 443.3351745605469 329.41487085819244 L 442.5290832519531 328.9658889770508 L 441.65423583984375 328.6726679801941 L 440.7403869628906 328.5451934337616 L 439.8186950683594 328.587806224823 L 438.9205322265625 328.7990550994873 L 438.0764465332031 329.1717463731766 L 437.31524658203125 329.6931884288788 L 436.6628112792969 330.34562426805496 L 436.141357421875 331.1068358980119 L 435.7686767578125 331.9509012103081 L 435.55743408203125 332.8490765094757 L 435.5148010253906 333.77077555656433 L 435.6423034667969 334.684611082077 L 435.9355163574219 335.55946350097656 L 436.3844909667969 336.36554050445557 L 436.97393798828125 337.07539224624634 L 452.0755615234375 352.1770191192627 L 468.5541687011719 356.47948837280273 L 476.5455322265625 367.78922271728516 L 475.3680419921875 381.5872497558594 L 465.5758972167969 391.37938690185547 L 451.7778625488281 392.5568733215332 L 438.9769287109375 383.51183700561523 z" style="fill:none; stroke:rgb(43%, 84%, 43%); stroke-width:1.0;"/>
<line x1="235.3010363424711" y1="346.92359364265315" x2="235.3010363424711" y2="336.92359364265315" stroke="rgb(35%, 35%, 35%)" stroke-width="1.0" />
<line x1="235.3010363424711" y1="326.92359364265315" x2="235.3010363424711" y2="316.92359364265315" stroke="rgb(35%, 35%, 35%)" stroke-width="1.0" />
<line x1="235.3010363424711" y1="306.92359364265315" x2="235.3010363424711" y2="296.92359364265315" stroke="rgb(35%, 35%, 35%)" stroke-width="1.0" />
<line x1="235.3010363424711" y1="286.92359364265315" x2="235.3010363424711" y2="276.92359364265315" stroke="rgb(35%, 35%, 35%)" stroke-width="1.0" />
<line x1="235.3010363424711" y1="266.92359364265315" x2="235.3010363424711" y2="256.92359364265315" stroke="rgb(35%, 35%, 35%)" stroke-width="1.0" />
<line x1="231.42327501783808" y1="248.76717682778533" x2="224.55311865604406" y2="243.17501288427857" stroke="rgb(35%, 35%, 35%)" stroke-width="1.0" />
<line x1="218.7619401695856" y1="235.39919840685428" x2="215.37197519067476" y2="227.21509897879793" stroke="rgb(35%, 35%, 35%)" stroke-width="1.0" />
<line x1="213.96862562327598" y1="217.62178625372627" x2="214.8723027285519" y2="208.8095950565293" stroke="rgb(35%, 35%, 35%)" stroke-width="1.0" />
<line x1="211.8468364170458" y1="200.30014608808136" x2="204.77576860518033" y2="193.2290782762159" stroke="rgb(35%, 35%, 35%)" stroke-width="1.0" />
<line x1="197.70470079331486" y1="186.1580104643504" x2="190.63363298144938" y2="179.08694265248494" stroke="rgb(35%, 35%, 35%)" stroke-width="1.0" />
<line x1="183.5625651695839" y1="172.01587484061946" x2="176.49149735771843" y2="164.94480702875398" stroke="rgb(35%, 35%, 35%)" stroke-width="1.0" />
<line x1="169.42042954585295" y1="157.8737392168885" x2="162.34936173398748" y2="150.80267140502303" stroke="rgb(35%, 35%, 35%)" stroke-width="1.0" />
<line x1="153.82349844985237" y1="146.95631166835818" x2="146.33804660615317" y2="146.49007555218395" stroke="rgb(35%, 35%, 35%)" stroke-width="1.0" />
<line x1="137.33950426031024" y1="143.19023168770934" x2="131.32721872268266" y2="138.70672992743323" stroke="rgb(35%, 35%, 35%)" stroke-width="1.0" />
<line x1="125.59754502132208" y1="131.0233990640786" x2="123.0153684861688" y2="123.98196953864363" stroke="rgb(35%, 35%, 35%)" stroke-width="1.0" />
<line x1="116.89672405941928" y1="116.90757780913026" x2="108.10235667336026" y2="112.14742000932762" stroke="rgb(35%, 35%, 35%)" stroke-width="1.0" />
<line x1="99.30798928730125" y1="107.38726220952503" x2="90.51362190124225" y2="102.62710440972239" stroke="rgb(35%, 35%, 35%)" stroke-width="1.0" />
<line x1="81.12062059288212" y1="100.45149153230966" x2="74.11998079367783" y2="100.73800979314967" stroke="rgb(35%, 35%, 35%)" stroke-width="1.0" />
<line x1="65.11595021070663" y1="97.95345778189574" x2="59.499240917948654" y2="93.7649464672823" stroke="rgb(35%, 35%, 35%)" stroke-width="1.0" />
<line x1="54.261882938128124" y1="85.92936237714139" x2="52.53948189112934" y2="79.13786880464238" stroke="rgb(35%, 35%, 35%)" stroke-width="1.0" />
<line x1="47.77480297301665" y1="70.75576884231123" x2="40.70373516115117" y2="63.68470103044581" stroke="rgb(35%, 35%, 35%)" stroke-width="1.0" />
<line x1="32.33038073659738" y1="58.88603901160877" x2="25.073673406379655" y2="56.99135296432053" stroke="rgb(35%, 35%, 35%)" stroke-width="1.0" />
<line x1="17.350504065977553" y1="51.64475057371516" x2="13.022494817874797" y2="45.519558948748625" stroke="rgb(35%, 35%, 35%)" stroke-width="1.0" />
<line x1="10.562286941742077" y1="36.45419194073577" x2="11.199996299662057" y2="28.981376991264142" stroke="rgb(35%, 35%, 35%)" stroke-width="1.0" />
<line x1="15.160671151243122" y1="20.463950355019676" x2="20.463954874287907" y2="15.160666631974834" stroke="rgb(35%, 35%, 35%)" stroke-width="1.0" />
<line x1="28.981381510532415" y1="11.199991780393816" x2="36.4541964600039" y2="10.5622824224738" stroke="rgb(35%, 35%, 35%)" stroke-width="1.0" />
<line x1="45.51956346801679" y1="13.022490298606556" x2="51.6447550929834" y2="17.350499546709386" stroke="rgb(35%, 35%, 35%)" stroke-width="1.0" />
<line x1="56.99135748358876" y1="25.073668887111523" x2="58.886043530877004" y2="32.33037621732916" stroke="rgb(35%, 35%, 35%)" stroke-width="1.0" />
<line x1="63.68470554971398" y1="40.703730641883" x2="70.7557733615794" y2="47.77479845374842" stroke="rgb(35%, 35%, 35%)" stroke-width="1.0" />
<line x1="79.10458440091006" y1="52.66398048128025" x2="87.0336605197721" y2="54.89389135008099" stroke="rgb(35%, 35%, 35%)" stroke-width="1.0" />
<line x1="94.51738484125241" y1="60.47467938131905" x2="98.9165038694889" y2="67.43819159549031" stroke="rgb(35%, 35%, 35%)" stroke-width="1.0" />
<line x1="105.9841347506008" y1="74.04541040503062" x2="114.77850213665982" y2="78.80556820483326" stroke="rgb(35%, 35%, 35%)" stroke-width="1.0" />
<line x1="123.57286952271883" y1="83.56572600463585" x2="132.36723690877776" y2="88.32588380443849" stroke="rgb(35%, 35%, 35%)" stroke-width="1.0" />
<line x1="141.6360676482816" y1="89.58032730396451" x2="148.94353821799314" y2="87.89187420340158" stroke="rgb(35%, 35%, 35%)" stroke-width="1.0" />
<line x1="158.50950428697448" y1="88.4876826490256" x2="165.55098282073502" y2="91.06984841802443" stroke="rgb(35%, 35%, 35%)" stroke-width="1.0" />
<line x1="173.23432852866387" y1="96.79949877989037" x2="177.7178685567967" y2="102.81180855369053" stroke="rgb(35%, 35%, 35%)" stroke-width="1.0" />
<line x1="181.0177246634754" y1="111.81034422412017" x2="181.48396879536068" y2="119.29583795596454" stroke="rgb(35%, 35%, 35%)" stroke-width="1.0" />
<line x1="185.3303321225503" y1="127.82170101646022" x2="192.40139993441576" y2="134.8927688283257" stroke="rgb(35%, 35%, 35%)" stroke-width="1.0" />
<line x1="199.47246774628124" y1="141.96383664019118" x2="206.54353555814671" y2="149.03490445205665" stroke="rgb(35%, 35%, 35%)" stroke-width="1.0" />
<line x1="213.6146033700122" y1="156.10597226392213" x2="220.68567118187767" y2="163.1770400757876" stroke="rgb(35%, 35%, 35%)" stroke-width="1.0" />
<line x1="227.75673899374314" y1="170.24810788765308" x2="234.8278068056086" y2="177.31917569951855" stroke="rgb(35%, 35%, 35%)" stroke-width="1.0" />
<line x1="243.31854074228744" y1="180.1868827901064" x2="249.73781002235728" y2="179.32173907571539" stroke="rgb(35%, 35%, 35%)" stroke-width="1.0" />
<line x1="259.47355354582675" y1="180.11897332195826" x2="265.666562061016" y2="182.0169030539011" stroke="rgb(35%, 35%, 35%)" stroke-width="1.0" />
<line x1="274.17725132368383" y1="186.81153053395317" x2="279.0095103652187" y2="191.12485457604677" stroke="rgb(35%, 35%, 35%)" stroke-width="1.0" />
<line x1="284.73608391113873" y1="199.03855407889176" x2="287.3223785940333" y2="204.97712053468143" stroke="rgb(35%, 35%, 35%)" stroke-width="1.0" />
<line x1="294.17466906094637" y1="210.7531418381334" x2="303.88639444282137" y2="213.13691827627588" stroke="rgb(35%, 35%, 35%)" stroke-width="1.0" />
<line x1="313.7366957049759" y1="214.5645677269789" x2="322.1988953286842" y2="214.9640237573518" stroke="rgb(35%, 35%, 35%)" stroke-width="1.0" />
<line x1="329.98291549552516" y1="219.3492710440699" x2="334.70937193145664" y2="226.37984692026475" stroke="rgb(35%, 35%, 35%)" stroke-width="1.0" />
<line x1="341.0344874330134" y1="234.06486688128382" x2="348.1055552448788" y2="241.1359346931493" stroke="rgb(35%, 35%, 35%)" stroke-width="1.0" />
<line x1="355.17662305674435" y1="248.20700250501477" x2="362.24769086860977" y2="255.27807031688025" stroke="rgb(35%, 35%, 35%)" stroke-width="1.0" />
<line x1="369.3187586804753" y1="262.3491381287457" x2="376.3898264923408" y2="269.4202059406112" stroke="rgb(35%, 35%, 35%)" stroke-width="1.0" />
<line x1="384.86886868188043" y1="273.7052235687888" x2="392.2841345913478" y2="274.82944968037293" stroke="rgb(35%, 35%, 35%)" stroke-width="1.0" />
<line x1="400.7631767808874" y1="279.1144673085505" x2="406.0664801315396" y2="284.4177706592027" stroke="rgb(35%, 35%, 35%)" stroke-width="1.0" />
<line x1="410.3514977597172" y1="292.8968128487423" x2="411.4757238713013" y2="300.3120787582097" stroke="rgb(35%, 35%, 35%)" stroke-width="1.0" />
<line x1="415.76074149947885" y1="308.7911209477493" x2="422.8318093113444" y2="315.8621887596148" stroke="rgb(35%, 35%, 35%)" stroke-width="1.0" />
<line x1="429.9028771232098" y1="322.93325657148023" x2="436.97394493507534" y2="330.00432438334576" stroke="rgb(35%, 35%, 35%)" stroke-width="1.0" />
<line x1="444.04501274694076" y1="337.0753921952112" x2="451.1160805588063" y2="344.1464600070767" stroke="rgb(35%, 35%, 35%)" stroke-width="1.0" />
<line x1="459.48943498336007" y1="348.94512202591363" x2="466.74614231357776" y2="350.8398080732019" stroke="rgb(35%, 35%, 35%)" stroke-width="1.0" />
<line x1="474.46931165397984" y1="356.18641046380725" x2="478.7973209020827" y2="362.31160208877384" stroke="rgb(35%, 35%, 35%)" stroke-width="1.0" />
<line x1="481.2575287782154" y1="371.3769690967867" x2="480.61981942029536" y2="378.8497840462582" stroke="rgb(35%, 35%, 35%)" stroke-width="1.0" />
<line x1="476.65914456871434" y1="387.36721068250273" x2="471.3558608456695" y2="392.6704944055475" stroke="rgb(35%, 35%, 35%)" stroke-width="1.0" />
<line x1="462.83843420942503" y1="396.6311692571286" x2="455.3656192599535" y2="397.2688786150486" stroke="rgb(35%, 35%, 35%)" stroke-width="1.0" />
<line x1="446.30025225194066" y1="394.80867073891585" x2="440.175060626974" y2="390.4806614908131" stroke="rgb(35%, 35%, 35%)" stroke-width="1.0" />
<line x1="434.8284582363687" y1="382.75749215041094" x2="432.9337721890804" y2="375.50078482019325" stroke="rgb(35%, 35%, 35%)" stroke-width="1.0" />
<line x1="428.1351101702435" y1="367.12743039563946" x2="421.06404235837795" y2="360.056362583774" stroke="rgb(35%, 35%, 35%)" stroke-width="1.0" />
<line x1="413.9929745465125" y1="352.9852947719085" x2="406.921906734647" y2="345.91422696004304" stroke="rgb(35%, 35%, 35%)" stroke-width="1.0" />
<line x1="399.8508389227816" y1="338.84315914817756" x2="392.77977111091604" y2="331.7720913363121" stroke="rgb(35%, 35%, 35%)" stroke-width="1.0" />
<line x1="384.30072892137645" y1="327.48707370813446" x2="376.8854630119091" y2="326.3628475965504" stroke="rgb(35%, 35%, 35%)" stroke-width="1.0" />
<line x1="368.40642082236945" y1="322.0778299683728" x2="363.1031174717173" y2="316.77452661772065" stroke="rgb(35%, 35%, 35%)" stroke-width="1.0" />
<line x1="358.8180998435397" y1="308.295484428181" x2="357.6938737319556" y2="300.8802185187136" stroke="rgb(35%, 35%, 35%)" stroke-width="1.0" />
<line x1="353.408856103778" y1="292.401176329174" x2="346.3377882919125" y2="285.33010851730853" stroke="rgb(35%, 35%, 35%)" stroke-width="1.0" />
<line x1="339.26672048004707" y1="278.25904070544306" x2="332.19565266818154" y2="271.1879728935776" stroke="rgb(35%, 35%, 35%)" stroke-width="1.0" />
<line x1="325.1245848563161" y1="264.1169050817121" x2="318.0535170444506" y2="257.04583726984663" stroke="rgb(35%, 35%, 35%)" stroke-width="1.0" />
<line x1="310.1617171930231" y1="251.05613405188132" x2="305.35124965529053" y2="248.34608329847373" stroke="rgb(35%, 35%, 35%)" stroke-width="1.0" />
<line x1="296.1391210188582" y1="244.70002576736988" x2="286.4273956369832" y2="242.3162493292274" stroke="rgb(35%, 35%, 35%)" stroke-width="1.0" />
<line x1="277.63710534502434" y1="244.20985611944099" x2="271.7354639434924" y2="248.8380986333683" stroke="rgb(35%, 35%, 35%)" stroke-width="1.0" />
<line x1="267.8010363424711" y1="256.92359364265315" x2="267.8010363424711" y2="266.92359364265315" stroke="rgb(35%, 35%, 35%)" stroke-width="1.0" />
<line x1="267.8010363424711" y1="276.92359364265315" x2="267.8010363424711" y2="286.92359364265315" stroke="rgb(35%, 35%, 35%)" stroke-width="1.0" />
<line x1="267.8010363424711" y1="296.92359364265315" x2="267.8010363424711" y2="306.92359364265315" stroke="rgb(35%, 35%, 35%)" stroke-width="1.0" />
<line x1="267.8010363424711" y1="316.92359364265315" x2="267.8010363424711" y2="326.92359364265315" stroke="rgb(35%, 35%, 35%)" stroke-width="1.0" />
<line x1="267.8010363424711" y1="336.92359364265315" x2="267.8010363424711" y2="346.92359364265315" stroke="rgb(35%, 35%, 35%)" stroke-width="1.0" />
<line x1="272.8010363424711" y1="351.92359364265315" x2="280.3010363424711" y2="351.92359364265315" stroke="rgb(35%, 35%, 35%)" stroke-width="1.0" />
<line x1="240.3010363424711" y1="350.67359364265315" x2="262.8010363424711" y2="350.67359364265315" stroke="rgb(0%, 0%, 100%)" stroke-width="1.0" />
<line x1="240.3010363424711" y1="353.17359364265315" x2="262.8010363424711" y2="353.17359364265315" stroke="rgb(0%, 0%, 100%)" stroke-width="1.0" />
<line x1="240.3010363424711" y1="330.67359364265315" x2="262.8010363424711" y2="330.67359364265315" stroke="rgb(0%, 0%, 100%)" stroke-width="1.0" />
<line x1="240.3010363424711" y1="333.17359364265315" x2="262.8010363424711" y2="333.17359364265315" stroke="rgb(0%, 0%, 100%)" stroke-width="1.0" />
<line x1="240.3010363424711" y1="310.67359364265315" x2="262.8010363424711" y2="310.67359364265315" stroke="rgb(0%, 0%, 100%)" stroke-width="1.0" />
<line x1="240.3010363424711" y1="313.17359364265315" x2="262.8010363424711" y2="313.17359364265315" stroke="rgb(0%, 0%, 100%)" stroke-width="1.0" />
<line x1="240.3010363424711" y1="291.92359364265315" x2="262.8010363424711" y2="291.92359364265315" stroke="rgb(0%, 0%, 100%)" stroke-width="1.0" />
<line x1="240.3010363424711" y1="270.67359364265315" x2="262.8010363424711" y2="270.67359364265315" stroke="rgb(0%, 0%, 100%)" stroke-width="1.0" />
<line x1="240.3010363424711" y1="273.17359364265315" x2="262.8010363424711" y2="273.17359364265315" stroke="rgb(0%, 0%, 100%)" stroke-width="1.0" />
<line x1="240.3010363424711" y1="251.92359364265317" x2="262.8010363424711" y2="251.92359364265317" stroke="rgb(0%, 0%, 100%)" stroke-width="1.0" />
<line x1="218.0340207524281" y1="199.41626261159817" x2="233.9439233291254" y2="183.50636003490084" stroke="rgb(0%, 0%, 100%)" stroke-width="1.0" />
<line x1="219.80178770539447" y1="201.18402956456455" x2="235.71169028209178" y2="185.27412698786722" stroke="rgb(0%, 0%, 100%)" stroke-width="1.0" />
<line x1="203.89188512869714" y1="185.27412698786722" x2="219.80178770539447" y2="169.3642244111699" stroke="rgb(0%, 0%, 100%)" stroke-width="1.0" />
<line x1="205.65965208166352" y1="187.0418939408336" x2="221.56955465836086" y2="171.13199136413627" stroke="rgb(0%, 0%, 100%)" stroke-width="1.0" />
<line x1="189.7497495049662" y1="171.13199136413627" x2="205.65965208166352" y2="155.22208878743893" stroke="rgb(0%, 0%, 100%)" stroke-width="1.0" />
<line x1="191.51751645793257" y1="172.89975831710265" x2="207.4274190346299" y2="156.98985574040532" stroke="rgb(0%, 0%, 100%)" stroke-width="1.0" />
<line x1="176.49149735771843" y1="157.8737392168885" x2="192.40139993441576" y2="141.96383664019118" stroke="rgb(0%, 0%, 100%)" stroke-width="1.0" />
<line x1="162.34936173398748" y1="143.73160359315756" x2="178.2592643106848" y2="127.82170101646022" stroke="rgb(0%, 0%, 100%)" stroke-width="1.0" />
<circle cx="170.30431302233615" cy="135.77665230480886" r="2.75" stroke="none" stroke-width="1.0" fill="rgb(100%, 100%, 100%)"/>
<circle cx="170.30431302233615" cy="135.77665230480886" r="2.75" stroke="rgb(0%, 0%, 100%)" stroke-width="1.0" fill="none"/>
<line x1="122.57469072909268" y1="114.29545329102672" x2="133.2850457786486" y2="94.50812667239393" stroke="rgb(0%, 0%, 100%)" stroke-width="1.0" />
<line x1="124.77328257560745" y1="115.48549274097735" x2="135.48363762516337" y2="95.69816612234456" stroke="rgb(0%, 0%, 100%)" stroke-width="1.0" />
<line x1="106.08525188023208" y1="105.37015741639686" x2="116.795606929788" y2="85.58283079776407" stroke="rgb(0%, 0%, 100%)" stroke-width="1.0" />
<line x1="88.49651710811405" y1="95.84984181679158" x2="99.20687215766999" y2="76.06251519815879" stroke="rgb(0%, 0%, 100%)" stroke-width="1.0" />
<circle cx="93.85169463289202" cy="85.95617850747522" r="2.75" stroke="none" stroke-width="1.0" fill="rgb(100%, 100%, 100%)"/>
<circle cx="93.85169463289202" cy="85.95617850747522" r="2.75" stroke="rgb(0%, 0%, 100%)" stroke-width="1.0" fill="none"/>
<line x1="53.96198730839893" y1="69.87188536582806" x2="69.87188988509621" y2="53.961982789130786" stroke="rgb(0%, 0%, 100%)" stroke-width="1.0" />
<line x1="55.729754261365315" y1="71.63965231879439" x2="71.63965683806259" y2="55.72974974209711" stroke="rgb(0%, 0%, 100%)" stroke-width="1.0" />
<line x1="39.81985168466799" y1="55.72974974209711" x2="55.729754261365315" y2="39.819847165399835" stroke="rgb(0%, 0%, 100%)" stroke-width="1.0" />
<line x1="41.58761863763436" y1="57.49751669506344" x2="57.4975212143317" y2="41.58761411836616" stroke="rgb(0%, 0%, 100%)" stroke-width="1.0" />
<line x1="288.12691815093757" y1="214.41711630999964" x2="282.7634211651169" y2="236.2684984192186" stroke="rgb(0%, 0%, 100%)" stroke-width="1.0" />
<line x1="308.76433458742207" y1="219.4826412410525" x2="303.4008376016014" y2="241.33402335027142" stroke="rgb(0%, 0%, 100%)" stroke-width="1.0" />
<line x1="306.3364032419533" y1="218.88669713151688" x2="300.9729062561326" y2="240.7380792407358" stroke="rgb(0%, 0%, 100%)" stroke-width="1.0" />
<line x1="334.8473030976311" y1="234.94875035776698" x2="318.93740052093375" y2="250.85865293446432" stroke="rgb(0%, 0%, 100%)" stroke-width="1.0" />
<line x1="333.07953614466476" y1="233.18098340480066" x2="317.1696335679674" y2="249.090885981498" stroke="rgb(0%, 0%, 100%)" stroke-width="1.0" />
<line x1="348.98943872136203" y1="249.09088598149793" x2="333.0795361446647" y2="265.00078855819527" stroke="rgb(0%, 0%, 100%)" stroke-width="1.0" />
<line x1="347.2216717683957" y1="247.3231190285316" x2="331.3117691916984" y2="263.23302160522894" stroke="rgb(0%, 0%, 100%)" stroke-width="1.0" />
<line x1="362.2476908686098" y1="262.3491381287457" x2="346.3377882919125" y2="278.25904070544306" stroke="rgb(0%, 0%, 100%)" stroke-width="1.0" />
<line x1="376.38982649234083" y1="276.4912737524767" x2="360.47992391564344" y2="292.401176329174" stroke="rgb(0%, 0%, 100%)" stroke-width="1.0" />
<circle cx="368.43487520399214" cy="284.4462250408253" r="2.75" stroke="none" stroke-width="1.0" fill="rgb(100%, 100%, 100%)"/>
<circle cx="368.43487520399214" cy="284.4462250408253" r="2.75" stroke="rgb(0%, 0%, 100%)" stroke-width="1.0" fill="none"/>
<line x1="409.57355716409654" y1="309.6750044242325" x2="393.66365458739926" y2="325.5849070009298" stroke="rgb(0%, 0%, 100%)" stroke-width="1.0" />
<line x1="407.8057902111302" y1="307.9072374712661" x2="391.89588763443294" y2="323.81714004796345" stroke="rgb(0%, 0%, 100%)" stroke-width="1.0" />
<line x1="422.83180931134433" y1="322.93325657148023" x2="406.92190673464705" y2="338.84315914817756" stroke="rgb(0%, 0%, 100%)" stroke-width="1.0" />
<line x1="437.85782841155844" y1="337.9592756716944" x2="421.94792583486117" y2="353.8691782483917" stroke="rgb(0%, 0%, 100%)" stroke-width="1.0" />
<line x1="436.0900614585921" y1="336.191508718728" x2="420.18015888189484" y2="352.10141129542535" stroke="rgb(0%, 0%, 100%)" stroke-width="1.0" />
<line x1="451.9999640352894" y1="352.10141129542535" x2="436.0900614585921" y2="368.0113138721226" stroke="rgb(0%, 0%, 100%)" stroke-width="1.0" />
<line x1="450.23219708232307" y1="350.33364434245897" x2="434.3222945056258" y2="366.2435469191563" stroke="rgb(0%, 0%, 100%)" stroke-width="1.0" />
<circle cx="235.3010363424711" cy="351.92359364265315" r="5.0" stroke="none" stroke-width="1.0" fill="rgb(94%, 94%, 94%)"/>
<circle cx="235.3010363424711" cy="351.92359364265315" r="5.0" stroke="rgb(35%, 35%, 35%)" stroke-width="1.0" fill="none"/>
<text x="235.3010363424711" y="354.92359364265315" text-anchor="middle" font-family="Verdana" font-size="7.5" fill="rgb(0%, 0%, 0%)" >G</text>
<circle cx="235.3010363424711" cy="331.92359364265315" r="5.0" stroke="none" stroke-width="1.0" fill="rgb(94%, 94%, 94%)"/>
<circle cx="235.3010363424711" cy="331.92359364265315" r="5.0" stroke="rgb(35%, 35%, 35%)" stroke-width="1.0" fill="none"/>
<text x="235.3010363424711" y="334.92359364265315" text-anchor="middle" font-family="Verdana" font-size="7.5" fill="rgb(0%, 0%, 0%)" >C</text>
<circle cx="235.3010363424711" cy="311.92359364265315" r="5.0" stroke="none" stroke-width="1.0" fill="rgb(94%, 94%, 94%)"/>
<circle cx="235.3010363424711" cy="311.92359364265315" r="5.0" stroke="rgb(35%, 35%, 35%)" stroke-width="1.0" fill="none"/>
<text x="235.3010363424711" y="314.92359364265315" text-anchor="middle" font-family="Verdana" font-size="7.5" fill="rgb(0%, 0%, 0%)" >G</text>
<circle cx="235.3010363424711" cy="291.92359364265315" r="5.0" stroke="none" stroke-width="1.0" fill="rgb(94%, 94%, 94%)"/>
<circle cx="235.3010363424711" cy="291.92359364265315" r="5.0" stroke="rgb(35%, 35%, 35%)" stroke-width="1.0" fill="none"/>
<text x="235.3010363424711" y="294.92359364265315" text-anchor="middle" font-family="Verdana" font-size="7.5" fill="rgb(0%, 0%, 0%)" >A</text>
<circle cx="235.3010363424711" cy="271.92359364265315" r="5.0" stroke="none" stroke-width="1.0" fill="rgb(94%, 94%, 94%)"/>
<circle cx="235.3010363424711" cy="271.92359364265315" r="5.0" stroke="rgb(35%, 35%, 35%)" stroke-width="1.0" fill="none"/>
<text x="235.3010363424711" y="274.92359364265315" text-anchor="middle" font-family="Verdana" font-size="7.5" fill="rgb(0%, 0%, 0%)" >C</text>
<circle cx="235.3010363424711" cy="251.92359364265317" r="5.0" stroke="none" stroke-width="1.0" fill="rgb(94%, 94%, 94%)"/>
<circle cx="235.3010363424711" cy="251.92359364265317" r="5.0" stroke="rgb(35%, 35%, 35%)" stroke-width="1.0" fill="none"/>
<text x="235.3010363424711" y="254.92359364265317" text-anchor="middle" font-family="Verdana" font-size="7.5" fill="rgb(0%, 0%, 0%)" >U</text>
<circle cx="220.67535733141105" cy="240.01859606941073" r="5.0" stroke="none" stroke-width="1.0" fill="rgb(94%, 94%, 94%)"/>
<circle cx="220.67535733141105" cy="240.01859606941073" r="5.0" stroke="rgb(35%, 35%, 35%)" stroke-width="1.0" fill="none"/>
<text x="220.67535733141105" y="243.01859606941073" text-anchor="middle" font-family="Verdana" font-size="7.5" fill="rgb(0%, 0%, 0%)" >C</text>
<circle cx="213.45855802884932" cy="222.59570131624147" r="5.0" stroke="none" stroke-width="1.0" fill="rgb(94%, 94%, 94%)"/>
<circle cx="213.45855802884932" cy="222.59570131624147" r="5.0" stroke="rgb(35%, 35%, 35%)" stroke-width="1.0" fill="none"/>
<text x="213.45855802884932" y="225.59570131624147" text-anchor="middle" font-family="Verdana" font-size="7.5" fill="rgb(0%, 0%, 0%)" >G</text>
<circle cx="215.38237032297855" cy="203.8356799940141" r="5.0" stroke="none" stroke-width="1.0" fill="rgb(94%, 94%, 94%)"/>
<circle cx="215.38237032297855" cy="203.8356799940141" r="5.0" stroke="rgb(35%, 35%, 35%)" stroke-width="1.0" fill="none"/>
<text x="215.38237032297855" y="206.8356799940141" text-anchor="middle" font-family="Verdana" font-size="7.5" fill="rgb(0%, 0%, 0%)" >G</text>
<circle cx="201.2402346992476" cy="189.69354437028315" r="5.0" stroke="none" stroke-width="1.0" fill="rgb(94%, 94%, 94%)"/>
<circle cx="201.2402346992476" cy="189.69354437028315" r="5.0" stroke="rgb(35%, 35%, 35%)" stroke-width="1.0" fill="none"/>
<text x="201.2402346992476" y="192.69354437028315" text-anchor="middle" font-family="Verdana" font-size="7.5" fill="rgb(0%, 0%, 0%)" >G</text>
<circle cx="187.09809907551664" cy="175.5514087465522" r="5.0" stroke="none" stroke-width="1.0" fill="rgb(94%, 94%, 94%)"/>
<circle cx="187.09809907551664" cy="175.5514087465522" r="5.0" stroke="rgb(35%, 35%, 35%)" stroke-width="1.0" fill="none"/>
<text x="187.09809907551664" y="178.5514087465522" text-anchor="middle" font-family="Verdana" font-size="7.5" fill="rgb(0%, 0%, 0%)" >G</text>
<circle cx="172.9559634517857" cy="161.40927312282125" r="5.0" stroke="none" stroke-width="1.0" fill="rgb(94%, 94%, 94%)"/>
<circle cx="172.9559634517857" cy="161.40927312282125" r="5.0" stroke="rgb(35%, 35%, 35%)" stroke-width="1.0" fill="none"/>
<text x="172.9559634517857" y="164.40927312282125" text-anchor="middle" font-family="Verdana" font-size="7.5" fill="rgb(0%, 0%, 0%)" >U</text>
<circle cx="158.81382782805474" cy="147.26713749909027" r="5.0" stroke="none" stroke-width="1.0" fill="rgb(94%, 94%, 94%)"/>
<circle cx="158.81382782805474" cy="147.26713749909027" r="5.0" stroke="rgb(35%, 35%, 35%)" stroke-width="1.0" fill="none"/>
<text x="158.81382782805474" y="150.26713749909027" text-anchor="middle" font-family="Verdana" font-size="7.5" fill="rgb(0%, 0%, 0%)" >G</text>
<circle cx="141.3477172279508" cy="146.1792497214518" r="5.0" stroke="none" stroke-width="1.0" fill="rgb(94%, 94%, 94%)"/>
<circle cx="141.3477172279508" cy="146.1792497214518" r="5.0" stroke="rgb(35%, 35%, 35%)" stroke-width="1.0" fill="none"/>
<text x="141.3477172279508" y="149.1792497214518" text-anchor="middle" font-family="Verdana" font-size="7.5" fill="rgb(0%, 0%, 0%)" >C</text>
<circle cx="127.3190057550421" cy="135.71771189369065" r="5.0" stroke="none" stroke-width="1.0" fill="rgb(94%, 94%, 94%)"/>
<circle cx="127.3190057550421" cy="135.71771189369065" r="5.0" stroke="rgb(35%, 35%, 35%)" stroke-width="1.0" fill="none"/>
<text x="127.3190057550421" y="138.71771189369065" text-anchor="middle" font-family="Verdana" font-size="7.5" fill="rgb(0%, 0%, 0%)" >C</text>
<circle cx="121.29390775244877" cy="119.28765670903158" r="5.0" stroke="none" stroke-width="1.0" fill="rgb(94%, 94%, 94%)"/>
<circle cx="121.29390775244877" cy="119.28765670903158" r="5.0" stroke="rgb(35%, 35%, 35%)" stroke-width="1.0" fill="none"/>
<text x="121.29390775244877" y="122.28765670903158" text-anchor="middle" font-family="Verdana" font-size="7.5" fill="rgb(0%, 0%, 0%)" >C</text>
<circle cx="103.70517298033076" cy="109.7673411094263" r="5.0" stroke="none" stroke-width="1.0" fill="rgb(94%, 94%, 94%)"/>
<circle cx="103.70517298033076" cy="109.7673411094263" r="5.0" stroke="rgb(35%, 35%, 35%)" stroke-width="1.0" fill="none"/>
<text x="103.70517298033076" y="112.7673411094263" text-anchor="middle" font-family="Verdana" font-size="7.5" fill="rgb(0%, 0%, 0%)" >U</text>
<circle cx="86.11643820821274" cy="100.24702550982113" r="5.0" stroke="none" stroke-width="1.0" fill="rgb(94%, 94%, 94%)"/>
<circle cx="86.11643820821274" cy="100.24702550982113" r="5.0" stroke="rgb(35%, 35%, 35%)" stroke-width="1.0" fill="none"/>
<text x="86.11643820821274" y="103.24702550982113" text-anchor="middle" font-family="Verdana" font-size="7.5" fill="rgb(0%, 0%, 0%)" >U</text>
<circle cx="69.1241631783472" cy="100.9424758156382" r="5.0" stroke="none" stroke-width="1.0" fill="rgb(94%, 94%, 94%)"/>
<circle cx="69.1241631783472" cy="100.9424758156382" r="5.0" stroke="rgb(35%, 35%, 35%)" stroke-width="1.0" fill="none"/>
<text x="69.1241631783472" y="103.9424758156382" text-anchor="middle" font-family="Verdana" font-size="7.5" fill="rgb(0%, 0%, 0%)" >C</text>
<circle cx="55.49102795030808" cy="90.77592843353978" r="5.0" stroke="none" stroke-width="1.0" fill="rgb(94%, 94%, 94%)"/>
<circle cx="55.49102795030808" cy="90.77592843353978" r="5.0" stroke="rgb(35%, 35%, 35%)" stroke-width="1.0" fill="none"/>
<text x="55.49102795030808" y="93.77592843353978" text-anchor="middle" font-family="Verdana" font-size="7.5" fill="rgb(0%, 0%, 0%)" >U</text>
<circle cx="51.310336878949386" cy="74.291302748244" r="5.0" stroke="none" stroke-width="1.0" fill="rgb(94%, 94%, 94%)"/>
<circle cx="51.310336878949386" cy="74.291302748244" r="5.0" stroke="rgb(35%, 35%, 35%)" stroke-width="1.0" fill="none"/>
<text x="51.310336878949386" y="77.291302748244" text-anchor="middle" font-family="Verdana" font-size="7.5" fill="rgb(0%, 0%, 0%)" >G</text>
<circle cx="37.168201255218435" cy="60.14916712451304" r="5.0" stroke="none" stroke-width="1.0" fill="rgb(94%, 94%, 94%)"/>
<circle cx="37.168201255218435" cy="60.14916712451304" r="5.0" stroke="rgb(35%, 35%, 35%)" stroke-width="1.0" fill="none"/>
<text x="37.168201255218435" y="63.14916712451304" text-anchor="middle" font-family="Verdana" font-size="7.5" fill="rgb(0%, 0%, 0%)" >C</text>
<circle cx="20.235852887758597" cy="55.72822485141626" r="5.0" stroke="none" stroke-width="1.0" fill="rgb(94%, 94%, 94%)"/>
<circle cx="20.235852887758597" cy="55.72822485141626" r="5.0" stroke="rgb(35%, 35%, 35%)" stroke-width="1.0" fill="none"/>
<text x="20.235852887758597" y="58.72822485141626" text-anchor="middle" font-family="Verdana" font-size="7.5" fill="rgb(0%, 0%, 0%)" >G</text>
<circle cx="10.13714599609375" cy="41.436084671047524" r="5.0" stroke="none" stroke-width="1.0" fill="rgb(94%, 94%, 94%)"/>
<circle cx="10.13714599609375" cy="41.436084671047524" r="5.0" stroke="rgb(35%, 35%, 35%)" stroke-width="1.0" fill="none"/>
<text x="10.13714599609375" y="44.436084671047524" text-anchor="middle" font-family="Verdana" font-size="7.5" fill="rgb(0%, 0%, 0%)" >U</text>
<circle cx="11.625137245310384" cy="23.999484260952386" r="5.0" stroke="none" stroke-width="1.0" fill="rgb(94%, 94%, 94%)"/>
<circle cx="11.625137245310384" cy="23.999484260952386" r="5.0" stroke="rgb(35%, 35%, 35%)" stroke-width="1.0" fill="none"/>
<text x="11.625137245310384" y="26.999484260952386" text-anchor="middle" font-family="Verdana" font-size="7.5" fill="rgb(0%, 0%, 0%)" >G</text>
<circle cx="23.999488780220645" cy="11.625132726042125" r="5.0" stroke="none" stroke-width="1.0" fill="rgb(94%, 94%, 94%)"/>
<circle cx="23.999488780220645" cy="11.625132726042125" r="5.0" stroke="rgb(35%, 35%, 35%)" stroke-width="1.0" fill="none"/>
<text x="23.999488780220645" y="14.625132726042125" text-anchor="middle" font-family="Verdana" font-size="7.5" fill="rgb(0%, 0%, 0%)" >A</text>
<circle cx="41.43608919031567" cy="10.13714147682549" r="5.0" stroke="none" stroke-width="1.0" fill="rgb(94%, 94%, 94%)"/>
<circle cx="41.43608919031567" cy="10.13714147682549" r="5.0" stroke="rgb(35%, 35%, 35%)" stroke-width="1.0" fill="none"/>
<text x="41.43608919031567" y="13.13714147682549" text-anchor="middle" font-family="Verdana" font-size="7.5" fill="rgb(0%, 0%, 0%)" >A</text>
<circle cx="55.72822937068452" cy="20.23584836849045" r="5.0" stroke="none" stroke-width="1.0" fill="rgb(94%, 94%, 94%)"/>
<circle cx="55.72822937068452" cy="20.23584836849045" r="5.0" stroke="rgb(35%, 35%, 35%)" stroke-width="1.0" fill="none"/>
<text x="55.72822937068452" y="23.23584836849045" text-anchor="middle" font-family="Verdana" font-size="7.5" fill="rgb(0%, 0%, 0%)" >G</text>
<circle cx="60.149171643781244" cy="37.16819673595023" r="5.0" stroke="none" stroke-width="1.0" fill="rgb(94%, 94%, 94%)"/>
<circle cx="60.149171643781244" cy="37.16819673595023" r="5.0" stroke="rgb(35%, 35%, 35%)" stroke-width="1.0" fill="none"/>
<text x="60.149171643781244" y="40.16819673595023" text-anchor="middle" font-family="Verdana" font-size="7.5" fill="rgb(0%, 0%, 0%)" >G</text>
<circle cx="74.29130726751214" cy="51.31033235968118" r="5.0" stroke="none" stroke-width="1.0" fill="rgb(94%, 94%, 94%)"/>
<circle cx="74.29130726751214" cy="51.31033235968118" r="5.0" stroke="rgb(35%, 35%, 35%)" stroke-width="1.0" fill="none"/>
<text x="74.29130726751214" y="54.31033235968118" text-anchor="middle" font-family="Verdana" font-size="7.5" fill="rgb(0%, 0%, 0%)" >C</text>
<circle cx="91.84693765317002" cy="56.24753947168006" r="5.0" stroke="none" stroke-width="1.0" fill="rgb(94%, 94%, 94%)"/>
<circle cx="91.84693765317002" cy="56.24753947168006" r="5.0" stroke="rgb(35%, 35%, 35%)" stroke-width="1.0" fill="none"/>
<text x="91.84693765317002" y="59.24753947168006" text-anchor="middle" font-family="Verdana" font-size="7.5" fill="rgb(0%, 0%, 0%)" >U</text>
<circle cx="101.5869510575713" cy="71.6653315051293" r="5.0" stroke="none" stroke-width="1.0" fill="rgb(94%, 94%, 94%)"/>
<circle cx="101.5869510575713" cy="71.6653315051293" r="5.0" stroke="rgb(35%, 35%, 35%)" stroke-width="1.0" fill="none"/>
<text x="101.5869510575713" y="74.6653315051293" text-anchor="middle" font-family="Verdana" font-size="7.5" fill="rgb(0%, 0%, 0%)" >G</text>
<circle cx="119.17568582968931" cy="81.18564710473458" r="5.0" stroke="none" stroke-width="1.0" fill="rgb(94%, 94%, 94%)"/>
<circle cx="119.17568582968931" cy="81.18564710473458" r="5.0" stroke="rgb(35%, 35%, 35%)" stroke-width="1.0" fill="none"/>
<text x="119.17568582968931" y="84.18564710473458" text-anchor="middle" font-family="Verdana" font-size="7.5" fill="rgb(0%, 0%, 0%)" >A</text>
<circle cx="136.76442060180727" cy="90.70596270433975" r="5.0" stroke="none" stroke-width="1.0" fill="rgb(94%, 94%, 94%)"/>
<circle cx="136.76442060180727" cy="90.70596270433975" r="5.0" stroke="rgb(35%, 35%, 35%)" stroke-width="1.0" fill="none"/>
<text x="136.76442060180727" y="93.70596270433975" text-anchor="middle" font-family="Verdana" font-size="7.5" fill="rgb(0%, 0%, 0%)" >G</text>
<circle cx="153.81518526446746" cy="86.76623880302634" r="5.0" stroke="none" stroke-width="1.0" fill="rgb(94%, 94%, 94%)"/>
<circle cx="153.81518526446746" cy="86.76623880302634" r="5.0" stroke="rgb(35%, 35%, 35%)" stroke-width="1.0" fill="none"/>
<text x="153.81518526446746" y="89.76623880302634" text-anchor="middle" font-family="Verdana" font-size="7.5" fill="rgb(0%, 0%, 0%)" >A</text>
<circle cx="170.24530184324203" cy="92.7912922640237" r="5.0" stroke="none" stroke-width="1.0" fill="rgb(94%, 94%, 94%)"/>
<circle cx="170.24530184324203" cy="92.7912922640237" r="5.0" stroke="rgb(35%, 35%, 35%)" stroke-width="1.0" fill="none"/>
<text x="170.24530184324203" y="95.7912922640237" text-anchor="middle" font-family="Verdana" font-size="7.5" fill="rgb(0%, 0%, 0%)" >A</text>
<circle cx="180.70689524221854" cy="106.82001506955714" r="5.0" stroke="none" stroke-width="1.0" fill="rgb(94%, 94%, 94%)"/>
<circle cx="180.70689524221854" cy="106.82001506955714" r="5.0" stroke="rgb(35%, 35%, 35%)" stroke-width="1.0" fill="none"/>
<text x="180.70689524221854" y="109.82001506955714" text-anchor="middle" font-family="Verdana" font-size="7.5" fill="rgb(0%, 0%, 0%)" >A</text>
<circle cx="181.79479821661755" cy="124.28616711052746" r="5.0" stroke="none" stroke-width="1.0" fill="rgb(94%, 94%, 94%)"/>
<circle cx="181.79479821661755" cy="124.28616711052746" r="5.0" stroke="rgb(35%, 35%, 35%)" stroke-width="1.0" fill="none"/>
<text x="181.79479821661755" y="127.28616711052746" text-anchor="middle" font-family="Verdana" font-size="7.5" fill="rgb(0%, 0%, 0%)" >U</text>
<circle cx="195.9369338403485" cy="138.4283027342584" r="5.0" stroke="none" stroke-width="1.0" fill="rgb(94%, 94%, 94%)"/>
<circle cx="195.9369338403485" cy="138.4283027342584" r="5.0" stroke="rgb(35%, 35%, 35%)" stroke-width="1.0" fill="none"/>
<text x="195.9369338403485" y="141.4283027342584" text-anchor="middle" font-family="Verdana" font-size="7.5" fill="rgb(0%, 0%, 0%)" >A</text>
<circle cx="210.07906946407945" cy="152.5704383579894" r="5.0" stroke="none" stroke-width="1.0" fill="rgb(94%, 94%, 94%)"/>
<circle cx="210.07906946407945" cy="152.5704383579894" r="5.0" stroke="rgb(35%, 35%, 35%)" stroke-width="1.0" fill="none"/>
<text x="210.07906946407945" y="155.5704383579894" text-anchor="middle" font-family="Verdana" font-size="7.5" fill="rgb(0%, 0%, 0%)" >C</text>
<circle cx="224.2212050878104" cy="166.71257398172034" r="5.0" stroke="none" stroke-width="1.0" fill="rgb(94%, 94%, 94%)"/>
<circle cx="224.2212050878104" cy="166.71257398172034" r="5.0" stroke="rgb(35%, 35%, 35%)" stroke-width="1.0" fill="none"/>
<text x="224.2212050878104" y="169.71257398172034" text-anchor="middle" font-family="Verdana" font-size="7.5" fill="rgb(0%, 0%, 0%)" >C</text>
<circle cx="238.36334071154133" cy="180.8547096054513" r="5.0" stroke="none" stroke-width="1.0" fill="rgb(94%, 94%, 94%)"/>
<circle cx="238.36334071154133" cy="180.8547096054513" r="5.0" stroke="rgb(35%, 35%, 35%)" stroke-width="1.0" fill="none"/>
<text x="238.36334071154133" y="183.8547096054513" text-anchor="middle" font-family="Verdana" font-size="7.5" fill="rgb(0%, 0%, 0%)" >C</text>
<circle cx="254.69301005310342" cy="178.6539122603705" r="5.0" stroke="none" stroke-width="1.0" fill="rgb(94%, 94%, 94%)"/>
<circle cx="254.69301005310342" cy="178.6539122603705" r="5.0" stroke="rgb(35%, 35%, 35%)" stroke-width="1.0" fill="none"/>
<text x="254.69301005310342" y="181.6539122603705" text-anchor="middle" font-family="Verdana" font-size="7.5" fill="rgb(0%, 0%, 0%)" >G</text>
<circle cx="270.44710555373933" cy="183.48196411548886" r="5.0" stroke="none" stroke-width="1.0" fill="rgb(94%, 94%, 94%)"/>
<circle cx="270.44710555373933" cy="183.48196411548886" r="5.0" stroke="rgb(35%, 35%, 35%)" stroke-width="1.0" fill="none"/>
<text x="270.44710555373933" y="186.48196411548886" text-anchor="middle" font-family="Verdana" font-size="7.5" fill="rgb(0%, 0%, 0%)" >U</text>
<circle cx="282.7396561351632" cy="194.45442099451108" r="5.0" stroke="none" stroke-width="1.0" fill="rgb(94%, 94%, 94%)"/>
<circle cx="282.7396561351632" cy="194.45442099451108" r="5.0" stroke="rgb(35%, 35%, 35%)" stroke-width="1.0" fill="none"/>
<text x="282.7396561351632" y="197.45442099451108" text-anchor="middle" font-family="Verdana" font-size="7.5" fill="rgb(0%, 0%, 0%)" >A</text>
<circle cx="289.3188063700088" cy="209.56125361906211" r="5.0" stroke="none" stroke-width="1.0" fill="rgb(94%, 94%, 94%)"/>
<circle cx="289.3188063700088" cy="209.56125361906211" r="5.0" stroke="rgb(35%, 35%, 35%)" stroke-width="1.0" fill="none"/>
<text x="289.3188063700088" y="212.56125361906211" text-anchor="middle" font-family="Verdana" font-size="7.5" fill="rgb(0%, 0%, 0%)" >U</text>
<circle cx="308.7422571337589" cy="214.32880649534715" r="5.0" stroke="none" stroke-width="1.0" fill="rgb(94%, 94%, 94%)"/>
<circle cx="308.7422571337589" cy="214.32880649534715" r="5.0" stroke="rgb(35%, 35%, 35%)" stroke-width="1.0" fill="none"/>
<text x="308.7422571337589" y="217.32880649534715" text-anchor="middle" font-family="Verdana" font-size="7.5" fill="rgb(0%, 0%, 0%)" >C</text>
<circle cx="327.1933338999012" cy="215.19978498898357" r="5.0" stroke="none" stroke-width="1.0" fill="rgb(94%, 94%, 94%)"/>
<circle cx="327.1933338999012" cy="215.19978498898357" r="5.0" stroke="rgb(35%, 35%, 35%)" stroke-width="1.0" fill="none"/>
<text x="327.1933338999012" y="218.19978498898357" text-anchor="middle" font-family="Verdana" font-size="7.5" fill="rgb(0%, 0%, 0%)" >A</text>
<circle cx="337.49895352708063" cy="230.52933297535108" r="5.0" stroke="none" stroke-width="1.0" fill="rgb(94%, 94%, 94%)"/>
<circle cx="337.49895352708063" cy="230.52933297535108" r="5.0" stroke="rgb(35%, 35%, 35%)" stroke-width="1.0" fill="none"/>
<text x="337.49895352708063" y="233.52933297535108" text-anchor="middle" font-family="Verdana" font-size="7.5" fill="rgb(0%, 0%, 0%)" >C</text>
<circle cx="351.6410891508116" cy="244.67146859908203" r="5.0" stroke="none" stroke-width="1.0" fill="rgb(94%, 94%, 94%)"/>
<circle cx="351.6410891508116" cy="244.67146859908203" r="5.0" stroke="rgb(35%, 35%, 35%)" stroke-width="1.0" fill="none"/>
<text x="351.6410891508116" y="247.67146859908203" text-anchor="middle" font-family="Verdana" font-size="7.5" fill="rgb(0%, 0%, 0%)" >C</text>
<circle cx="365.78322477454253" cy="258.81360422281296" r="5.0" stroke="none" stroke-width="1.0" fill="rgb(94%, 94%, 94%)"/>
<circle cx="365.78322477454253" cy="258.81360422281296" r="5.0" stroke="rgb(35%, 35%, 35%)" stroke-width="1.0" fill="none"/>
<text x="365.78322477454253" y="261.81360422281296" text-anchor="middle" font-family="Verdana" font-size="7.5" fill="rgb(0%, 0%, 0%)" >U</text>
<circle cx="379.92536039827354" cy="272.9557398465439" r="5.0" stroke="none" stroke-width="1.0" fill="rgb(94%, 94%, 94%)"/>
<circle cx="379.92536039827354" cy="272.9557398465439" r="5.0" stroke="rgb(35%, 35%, 35%)" stroke-width="1.0" fill="none"/>
<text x="379.92536039827354" y="275.9557398465439" text-anchor="middle" font-family="Verdana" font-size="7.5" fill="rgb(0%, 0%, 0%)" >G</text>
<circle cx="397.2276428749547" cy="275.57893340261774" r="5.0" stroke="none" stroke-width="1.0" fill="rgb(94%, 94%, 94%)"/>
<circle cx="397.2276428749547" cy="275.57893340261774" r="5.0" stroke="rgb(35%, 35%, 35%)" stroke-width="1.0" fill="none"/>
<text x="397.2276428749547" y="278.57893340261774" text-anchor="middle" font-family="Verdana" font-size="7.5" fill="rgb(0%, 0%, 0%)" >A</text>
<circle cx="409.6020140374723" cy="287.9533045651354" r="5.0" stroke="none" stroke-width="1.0" fill="rgb(94%, 94%, 94%)"/>
<circle cx="409.6020140374723" cy="287.9533045651354" r="5.0" stroke="rgb(35%, 35%, 35%)" stroke-width="1.0" fill="none"/>
<text x="409.6020140374723" y="290.9533045651354" text-anchor="middle" font-family="Verdana" font-size="7.5" fill="rgb(0%, 0%, 0%)" >U</text>
<circle cx="412.22520759354614" cy="305.25558704181657" r="5.0" stroke="none" stroke-width="1.0" fill="rgb(94%, 94%, 94%)"/>
<circle cx="412.22520759354614" cy="305.25558704181657" r="5.0" stroke="rgb(35%, 35%, 35%)" stroke-width="1.0" fill="none"/>
<text x="412.22520759354614" y="308.25558704181657" text-anchor="middle" font-family="Verdana" font-size="7.5" fill="rgb(0%, 0%, 0%)" >C</text>
<circle cx="426.3673432172771" cy="319.3977226655475" r="5.0" stroke="none" stroke-width="1.0" fill="rgb(94%, 94%, 94%)"/>
<circle cx="426.3673432172771" cy="319.3977226655475" r="5.0" stroke="rgb(35%, 35%, 35%)" stroke-width="1.0" fill="none"/>
<text x="426.3673432172771" y="322.3977226655475" text-anchor="middle" font-family="Verdana" font-size="7.5" fill="rgb(0%, 0%, 0%)" >U</text>
<circle cx="440.50947884100805" cy="333.53985828927847" r="5.0" stroke="none" stroke-width="1.0" fill="rgb(94%, 94%, 94%)"/>
<circle cx="440.50947884100805" cy="333.53985828927847" r="5.0" stroke="rgb(35%, 35%, 35%)" stroke-width="1.0" fill="none"/>
<text x="440.50947884100805" y="336.53985828927847" text-anchor="middle" font-family="Verdana" font-size="7.5" fill="rgb(0%, 0%, 0%)" >G</text>
<circle cx="454.651614464739" cy="347.6819939130094" r="5.0" stroke="none" stroke-width="1.0" fill="rgb(94%, 94%, 94%)"/>
<circle cx="454.651614464739" cy="347.6819939130094" r="5.0" stroke="rgb(35%, 35%, 35%)" stroke-width="1.0" fill="none"/>
<text x="454.651614464739" y="350.6819939130094" text-anchor="middle" font-family="Verdana" font-size="7.5" fill="rgb(0%, 0%, 0%)" >G</text>
<circle cx="471.58396283219884" cy="352.10293618610615" r="5.0" stroke="none" stroke-width="1.0" fill="rgb(94%, 94%, 94%)"/>
<circle cx="471.58396283219884" cy="352.10293618610615" r="5.0" stroke="rgb(35%, 35%, 35%)" stroke-width="1.0" fill="none"/>
<text x="471.58396283219884" y="355.10293618610615" text-anchor="middle" font-family="Verdana" font-size="7.5" fill="rgb(0%, 0%, 0%)" >A</text>
<circle cx="481.6826697238637" cy="366.39507636647494" r="5.0" stroke="none" stroke-width="1.0" fill="rgb(94%, 94%, 94%)"/>
<circle cx="481.6826697238637" cy="366.39507636647494" r="5.0" stroke="rgb(35%, 35%, 35%)" stroke-width="1.0" fill="none"/>
<text x="481.6826697238637" y="369.39507636647494" text-anchor="middle" font-family="Verdana" font-size="7.5" fill="rgb(0%, 0%, 0%)" >U</text>
<circle cx="480.19467847464705" cy="383.83167677657" r="5.0" stroke="none" stroke-width="1.0" fill="rgb(94%, 94%, 94%)"/>
<circle cx="480.19467847464705" cy="383.83167677657" r="5.0" stroke="rgb(35%, 35%, 35%)" stroke-width="1.0" fill="none"/>
<text x="480.19467847464705" y="386.83167677657" text-anchor="middle" font-family="Verdana" font-size="7.5" fill="rgb(0%, 0%, 0%)" >A</text>
<circle cx="467.8203269397368" cy="396.2060283114803" r="5.0" stroke="none" stroke-width="1.0" fill="rgb(94%, 94%, 94%)"/>
<circle cx="467.8203269397368" cy="396.2060283114803" r="5.0" stroke="rgb(35%, 35%, 35%)" stroke-width="1.0" fill="none"/>
<text x="467.8203269397368" y="399.2060283114803" text-anchor="middle" font-family="Verdana" font-size="7.5" fill="rgb(0%, 0%, 0%)" >A</text>
<circle cx="450.38372652964176" cy="397.6940195606969" r="5.0" stroke="none" stroke-width="1.0" fill="rgb(94%, 94%, 94%)"/>
<circle cx="450.38372652964176" cy="397.6940195606969" r="5.0" stroke="rgb(35%, 35%, 35%)" stroke-width="1.0" fill="none"/>
<text x="450.38372652964176" y="400.6940195606969" text-anchor="middle" font-family="Verdana" font-size="7.5" fill="rgb(0%, 0%, 0%)" >U</text>
<circle cx="436.0915863492729" cy="387.595312669032" r="5.0" stroke="none" stroke-width="1.0" fill="rgb(94%, 94%, 94%)"/>
<circle cx="436.0915863492729" cy="387.595312669032" r="5.0" stroke="rgb(35%, 35%, 35%)" stroke-width="1.0" fill="none"/>
<text x="436.0915863492729" y="390.595312669032" text-anchor="middle" font-family="Verdana" font-size="7.5" fill="rgb(0%, 0%, 0%)" >G</text>
<circle cx="431.6706440761762" cy="370.6629643015722" r="5.0" stroke="none" stroke-width="1.0" fill="rgb(94%, 94%, 94%)"/>
<circle cx="431.6706440761762" cy="370.6629643015722" r="5.0" stroke="rgb(35%, 35%, 35%)" stroke-width="1.0" fill="none"/>
<text x="431.6706440761762" y="373.6629643015722" text-anchor="middle" font-family="Verdana" font-size="7.5" fill="rgb(0%, 0%, 0%)" >C</text>
<circle cx="417.52850845244524" cy="356.5208286778412" r="5.0" stroke="none" stroke-width="1.0" fill="rgb(94%, 94%, 94%)"/>
<circle cx="417.52850845244524" cy="356.5208286778412" r="5.0" stroke="rgb(35%, 35%, 35%)" stroke-width="1.0" fill="none"/>
<text x="417.52850845244524" y="359.5208286778412" text-anchor="middle" font-family="Verdana" font-size="7.5" fill="rgb(0%, 0%, 0%)" >C</text>
<circle cx="403.3863728287143" cy="342.3786930541103" r="5.0" stroke="none" stroke-width="1.0" fill="rgb(94%, 94%, 94%)"/>
<circle cx="403.3863728287143" cy="342.3786930541103" r="5.0" stroke="rgb(35%, 35%, 35%)" stroke-width="1.0" fill="none"/>
<text x="403.3863728287143" y="345.3786930541103" text-anchor="middle" font-family="Verdana" font-size="7.5" fill="rgb(0%, 0%, 0%)" >A</text>
<circle cx="389.24423720498334" cy="328.2365574303793" r="5.0" stroke="none" stroke-width="1.0" fill="rgb(94%, 94%, 94%)"/>
<circle cx="389.24423720498334" cy="328.2365574303793" r="5.0" stroke="rgb(35%, 35%, 35%)" stroke-width="1.0" fill="none"/>
<text x="389.24423720498334" y="331.2365574303793" text-anchor="middle" font-family="Verdana" font-size="7.5" fill="rgb(0%, 0%, 0%)" >G</text>
<circle cx="371.9419547283022" cy="325.6133638743055" r="5.0" stroke="none" stroke-width="1.0" fill="rgb(94%, 94%, 94%)"/>
<circle cx="371.9419547283022" cy="325.6133638743055" r="5.0" stroke="rgb(35%, 35%, 35%)" stroke-width="1.0" fill="none"/>
<text x="371.9419547283022" y="328.6133638743055" text-anchor="middle" font-family="Verdana" font-size="7.5" fill="rgb(0%, 0%, 0%)" >C</text>
<circle cx="359.56758356578456" cy="313.2389927117879" r="5.0" stroke="none" stroke-width="1.0" fill="rgb(94%, 94%, 94%)"/>
<circle cx="359.56758356578456" cy="313.2389927117879" r="5.0" stroke="rgb(35%, 35%, 35%)" stroke-width="1.0" fill="none"/>
<text x="359.56758356578456" y="316.2389927117879" text-anchor="middle" font-family="Verdana" font-size="7.5" fill="rgb(0%, 0%, 0%)" >G</text>
<circle cx="356.94439000971073" cy="295.9367102351067" r="5.0" stroke="none" stroke-width="1.0" fill="rgb(94%, 94%, 94%)"/>
<circle cx="356.94439000971073" cy="295.9367102351067" r="5.0" stroke="rgb(35%, 35%, 35%)" stroke-width="1.0" fill="none"/>
<text x="356.94439000971073" y="298.9367102351067" text-anchor="middle" font-family="Verdana" font-size="7.5" fill="rgb(0%, 0%, 0%)" >U</text>
<circle cx="342.8022543859798" cy="281.79457461137577" r="5.0" stroke="none" stroke-width="1.0" fill="rgb(94%, 94%, 94%)"/>
<circle cx="342.8022543859798" cy="281.79457461137577" r="5.0" stroke="rgb(35%, 35%, 35%)" stroke-width="1.0" fill="none"/>
<text x="342.8022543859798" y="284.79457461137577" text-anchor="middle" font-family="Verdana" font-size="7.5" fill="rgb(0%, 0%, 0%)" >A</text>
<circle cx="328.6601187622488" cy="267.6524389876448" r="5.0" stroke="none" stroke-width="1.0" fill="rgb(94%, 94%, 94%)"/>
<circle cx="328.6601187622488" cy="267.6524389876448" r="5.0" stroke="rgb(35%, 35%, 35%)" stroke-width="1.0" fill="none"/>
<text x="328.6601187622488" y="270.6524389876448" text-anchor="middle" font-family="Verdana" font-size="7.5" fill="rgb(0%, 0%, 0%)" >G</text>
<circle cx="314.5179831385179" cy="253.5103033639139" r="5.0" stroke="none" stroke-width="1.0" fill="rgb(94%, 94%, 94%)"/>
<circle cx="314.5179831385179" cy="253.5103033639139" r="5.0" stroke="rgb(35%, 35%, 35%)" stroke-width="1.0" fill="none"/>
<text x="314.5179831385179" y="256.51030336391386" text-anchor="middle" font-family="Verdana" font-size="7.5" fill="rgb(0%, 0%, 0%)" >G</text>
<circle cx="300.99498370979575" cy="245.89191398644115" r="5.0" stroke="none" stroke-width="1.0" fill="rgb(94%, 94%, 94%)"/>
<circle cx="300.99498370979575" cy="245.89191398644115" r="5.0" stroke="rgb(35%, 35%, 35%)" stroke-width="1.0" fill="none"/>
<text x="300.99498370979575" y="248.89191398644115" text-anchor="middle" font-family="Verdana" font-size="7.5" fill="rgb(0%, 0%, 0%)" >G</text>
<circle cx="281.57153294604564" cy="241.12436111015612" r="5.0" stroke="none" stroke-width="1.0" fill="rgb(94%, 94%, 94%)"/>
<circle cx="281.57153294604564" cy="241.12436111015612" r="5.0" stroke="rgb(35%, 35%, 35%)" stroke-width="1.0" fill="none"/>
<text x="281.57153294604564" y="244.12436111015612" text-anchor="middle" font-family="Verdana" font-size="7.5" fill="rgb(0%, 0%, 0%)" >A</text>
<circle cx="267.8010363424711" cy="251.92359364265317" r="5.0" stroke="none" stroke-width="1.0" fill="rgb(94%, 94%, 94%)"/>
<circle cx="267.8010363424711" cy="251.92359364265317" r="5.0" stroke="rgb(35%, 35%, 35%)" stroke-width="1.0" fill="none"/>
<text x="267.8010363424711" y="254.92359364265317" text-anchor="middle" font-family="Verdana" font-size="7.5" fill="rgb(0%, 0%, 0%)" >A</text>
<circle cx="267.8010363424711" cy="271.92359364265315" r="5.0" stroke="none" stroke-width="1.0" fill="rgb(94%, 94%, 94%)"/>
<circle cx="267.8010363424711" cy="271.92359364265315" r="5.0" stroke="rgb(35%, 35%, 35%)" stroke-width="1.0" fill="none"/>
<text x="267.8010363424711" y="274.92359364265315" text-anchor="middle" font-family="Verdana" font-size="7.5" fill="rgb(0%, 0%, 0%)" >G</text>
<circle cx="267.8010363424711" cy="291.92359364265315" r="5.0" stroke="none" stroke-width="1.0" fill="rgb(94%, 94%, 94%)"/>
<circle cx="267.8010363424711" cy="291.92359364265315" r="5.0" stroke="rgb(35%, 35%, 35%)" stroke-width="1.0" fill="none"/>
<text x="267.8010363424711" y="294.92359364265315" text-anchor="middle" font-family="Verdana" font-size="7.5" fill="rgb(0%, 0%, 0%)" >U</text>
<circle cx="267.8010363424711" cy="311.92359364265315" r="5.0" stroke="none" stroke-width="1.0" fill="rgb(94%, 94%, 94%)"/>
<circle cx="267.8010363424711" cy="311.92359364265315" r="5.0" stroke="rgb(35%, 35%, 35%)" stroke-width="1.0" fill="none"/>
<text x="267.8010363424711" y="314.92359364265315" text-anchor="middle" font-family="Verdana" font-size="7.5" fill="rgb(0%, 0%, 0%)" >C</text>
<circle cx="267.8010363424711" cy="331.92359364265315" r="5.0" stroke="none" stroke-width="1.0" fill="rgb(94%, 94%, 94%)"/>
<circle cx="267.8010363424711" cy="331.92359364265315" r="5.0" stroke="rgb(35%, 35%, 35%)" stroke-width="1.0" fill="none"/>
<text x="267.8010363424711" y="334.92359364265315" text-anchor="middle" font-family="Verdana" font-size="7.5" fill="rgb(0%, 0%, 0%)" >G</text>
<circle cx="267.8010363424711" cy="351.92359364265315" r="5.0" stroke="none" stroke-width="1.0" fill="rgb(94%, 94%, 94%)"/>
<circle cx="267.8010363424711" cy="351.92359364265315" r="5.0" stroke="rgb(35%, 35%, 35%)" stroke-width="1.0" fill="none"/>
<text x="267.8010363424711" y="354.92359364265315" text-anchor="middle" font-family="Verdana" font-size="7.5" fill="rgb(0%, 0%, 0%)" >C</text>
<circle cx="285.3010363424711" cy="351.92359364265315" r="5.0" stroke="none" stroke-width="1.0" fill="rgb(94%, 94%, 94%)"/>
<circle cx="285.3010363424711" cy="351.92359364265315" r="5.0" stroke="rgb(35%, 35%, 35%)" stroke-width="1.0" fill="none"/>
<text x="285.3010363424711" y="354.92359364265315" text-anchor="middle" font-family="Verdana" font-size="7.5" fill="rgb(0%, 0%, 0%)" >A</text>
<line x1="235.3010363424711" y1="359.42359364265315" x2="235.3010363424711" y2="364.42359364265315" stroke="rgb(25%, 25%, 25%)" stroke-width="1.0" />
<text x="235.3010363424711" y="374.92359364265315" text-anchor="middle" font-family="Verdana" font-size="7.5" fill="rgb(25%, 25%, 25%)" >1</text>
<line x1="195.9369338403485" y1="194.99684522918227" x2="192.40139993441574" y2="198.53237913511498" stroke="rgb(25%, 25%, 25%)" stroke-width="1.0" />
<text x="187.09809907551664" y="206.8356799940141" text-anchor="middle" font-family="Verdana" font-size="7.5" fill="rgb(25%, 25%, 25%)" >10</text>
<line x1="49.25566323256383" y1="94.94368884372534" x2="45.098753420734326" y2="97.72219578384909" stroke="rgb(25%, 25%, 25%)" stroke-width="1.0" />
<text x="38.86338870299008" y="104.88995619403465" text-anchor="middle" font-family="Verdana" font-size="7.5" fill="rgb(25%, 25%, 25%)" >20</text>
<line x1="79.19754584444212" y1="45.63769425856418" x2="82.46837156239543" y2="41.8559355244862" stroke="rgb(25%, 25%, 25%)" stroke-width="1.0" />
<text x="87.37461013932543" y="39.183297423369254" text-anchor="middle" font-family="Verdana" font-size="7.5" fill="rgb(25%, 25%, 25%)" >30</text>
<line x1="215.38237032297855" y1="147.26713749909027" x2="218.9179042289113" y2="143.73160359315756" stroke="rgb(25%, 25%, 25%)" stroke-width="1.0" />
<text x="224.2212050878104" y="141.4283027342584" text-anchor="middle" font-family="Verdana" font-size="7.5" fill="rgb(25%, 25%, 25%)" >40</text>
<line x1="356.9443900097107" y1="239.3681677401829" x2="360.4799239156434" y2="235.83263383425017" stroke="rgb(25%, 25%, 25%)" stroke-width="1.0" />
<text x="365.7832247745425" y="233.52933297535105" text-anchor="middle" font-family="Verdana" font-size="7.5" fill="rgb(25%, 25%, 25%)" >50</text>
<line x1="488.92085835004985" y1="364.43073795068466" x2="493.74631743417393" y2="363.1211790068245" stroke="rgb(25%, 25%, 25%)" stroke-width="1.0" />
<text x="500.9845060603601" y="364.1568405910342" text-anchor="middle" font-family="Verdana" font-size="7.5" fill="rgb(25%, 25%, 25%)" >60</text>
<line x1="352.87380805835335" y1="316.6217976804661" x2="348.41129105339917" y2="318.87700099291817" stroke="rgb(25%, 25%, 25%)" stroke-width="1.0" />
<text x="341.7175155459679" y="325.2598059615963" text-anchor="middle" font-family="Verdana" font-size="7.5" fill="rgb(25%, 25%, 25%)" >70</text>
<line x1="275.3010363424711" y1="311.92359364265315" x2="280.3010363424711" y2="311.92359364265315" stroke="rgb(25%, 25%, 25%)" stroke-width="1.0" />
<text x="287.8010363424711" y="314.92359364265315" text-anchor="middle" font-family="Verdana" font-size="7.5" fill="rgb(25%, 25%, 25%)" >80</text>
<line x1="285.3010363424711" y1="359.42359364265315" x2="285.3010363424711" y2="364.42359364265315" stroke="rgb(25%, 25%, 25%)" stroke-width="1.0" />
<text x="285.3010363424711" y="374.92359364265315" text-anchor="middle" font-family="Verdana" font-size="7.5" fill="rgb(25%, 25%, 25%)" >83</text>
<text x="152.4556733035388" y="119.04682575274873" text-anchor="middle" font-family="Verdana" font-size="6.0" fill="rgb(0%, 0%, 0%)" >45</text>
<text x="75.68102317058157" y="80.3257051205334" text-anchor="middle" font-family="Verdana" font-size="6.0" fill="rgb(0%, 0%, 0%)" >111</text>
<text x="32.559914546172905" y="34.95991002690467" text-anchor="middle" font-family="Verdana" font-size="6.0" fill="rgb(0%, 0%, 0%)" >136</text>
<text x="384.5847988016284" y="302.9961486384616" text-anchor="middle" font-family="Verdana" font-size="6.0" fill="rgb(0%, 0%, 0%)" >44</text>
<text x="459.25990117378456" y="377.6712510106177" text-anchor="middle" font-family="Verdana" font-size="6.0" fill="rgb(0%, 0%, 0%)" >136</text>
</svg>
