<?xml version="1.0" encoding="UTF-8"?>
<!DOCTYPE svg PUBLIC "-//W3C//DTD SVG 1.1//EN" 
"http://www.w3.org/Graphics/SVG/1.1/DTD/svg11.dtd">

<svg width="100%" height="100%" version="1.1"
xmlns="http://www.w3.org/2000/svg">
<path d="M 111.89715194702148 51.0732486270488 L 110.97448348999023 51.07895541415817 L 110.06857681274414 51.25409579501755 L 109.21027755737305 51.59271884189255 L 108.42881393432617 52.08328891025192 L 107.75079727172852 52.7091128848613 L 107.19932174682617 53.448843719822236 L 106.79315567016602 54.27731967197067 L 106.54614639282227 55.16632724033005 L 106.4666862487793 56.08559298740036 L 106.55749893188477 57.0037906192363 L 106.81548690795898 57.88967013583786 L 107.23186111450195 58.713064911228486 L 107.79243850708008 59.44593692050583 L 108.47814559936523 60.06331515536911 L 109.2656135559082 60.54418826327927 L 110.12803268432617 60.872175934177704 L 129.39800643920898 66.2264239810527 L 130.30601119995117 66.39035678134567 L 131.22867965698242 66.38465762363083 L 132.13457870483398 66.20950961337692 L 132.9928855895996 65.87088656650192 L 133.77434921264648 65.38031649814255 L 134.45237350463867 64.75450778232224 L 135.00384140014648 64.01476168857224 L 135.41001510620117 63.1862857364238 L 135.65702438354492 62.29727816806442 L 135.73647689819336 61.37802767978317 L 135.64565658569336 60.459822418552704 L 135.38767623901367 59.57393527255661 L 134.97130966186523 58.750540497165986 L 134.41071701049805 58.01767611728317 L 133.72501754760742 57.40029025302536 L 132.93755722045898 56.919424774509736 L 132.07513046264648 56.5914371036113 L 112.80515670776367 51.2371890567363 z" fill="rgb(100%, 62%, 76%)" style="stroke:none;"/>
<path d="M 111.89715194702148 51.0732486270488 L 110.97448348999023 51.07895541415817 L 110.06857681274414 51.25409579501755 L 109.21027755737305 51.59271884189255 L 108.42881393432617 52.08328891025192 L 107.75079727172852 52.7091128848613 L 107.19932174682617 53.448843719822236 L 106.79315567016602 54.27731967197067 L 106.54614639282227 55.16632724033005 L 106.4666862487793 56.08559298740036 L 106.55749893188477 57.0037906192363 L 106.81548690795898 57.88967013583786 L 107.23186111450195 58.713064911228486 L 107.79243850708008 59.44593692050583 L 108.47814559936523 60.06331515536911 L 109.2656135559082 60.54418826327927 L 110.12803268432617 60.872175934177704 L 129.39800643920898 66.2264239810527 L 130.30601119995117 66.39035678134567 L 131.22867965698242 66.38465762363083 L 132.13457870483398 66.20950961337692 L 132.9928855895996 65.87088656650192 L 133.77434921264648 65.38031649814255 L 134.45237350463867 64.75450778232224 L 135.00384140014648 64.01476168857224 L 135.41001510620117 63.1862857364238 L 135.65702438354492 62.29727816806442 L 135.73647689819336 61.37802767978317 L 135.64565658569336 60.459822418552704 L 135.38767623901367 59.57393527255661 L 134.97130966186523 58.750540497165986 L 134.41071701049805 58.01767611728317 L 133.72501754760742 57.40029025302536 L 132.93755722045898 56.919424774509736 L 132.07513046264648 56.5914371036113 L 112.80515670776367 51.2371890567363 z" style="fill:none; stroke:rgb(43%, 84%, 43%); stroke-width:1.0;"/>
<path d="M 107.4447135925293 20.69325900302536 L 108.17045974731445 20.12349581943161 L 108.77915573120117 19.430060150486298 L 109.25006484985352 18.636603119236298 L 109.56715774536133 17.770117523533173 L 109.71963882446289 16.860113861423798 L 109.70231246948242 15.937597992283173 L 109.51576614379883 15.033972504001923 L 109.16635513305664 14.179999115330048 L 108.66597366333008 13.404776337009736 L 108.03167343139648 12.73470187411911 L 107.2850456237793 12.19258761630661 L 106.45151138305664 11.79689669833786 L 105.55946731567383 11.561102630955048 L 104.63927841186523 11.49324679599411 L 103.72229385375977 11.595618011814423 L 102.8397331237793 11.864737274509736 L 87.15370559692383 18.282889129978486 L 67.98112869262695 21.545935394626923 L 67.08968734741211 21.78401828036911 L 66.25717544555664 22.18184542880661 L 65.51193618774414 22.725867035251923 L 64.87934494018555 23.397558929783173 L 64.38095474243164 24.174063446384736 L 64.03373336791992 25.028921844822236 L 63.84950637817383 25.933020355564423 L 63.834537506103516 26.855582001072236 L 63.98934555053711 27.765188934665986 L 64.30865859985352 28.630865814548798 L 64.78159713745117 29.42311740146286 L 65.39206314086914 30.114981415134736 L 66.11926651000977 30.682898285251923 L 66.93844223022461 31.107519867283173 L 67.82168960571289 31.374380829197236 L 68.73893356323242 31.474402191501923 L 69.65893936157227 31.404181244236298 L 89.91933059692383 27.955984833103486 L 106.62662887573242 21.119971039158173 z" fill="rgb(100%, 62%, 76%)" style="stroke:none;"/>
<path d="M 107.4447135925293 20.69325900302536 L 108.17045974731445 20.12349581943161 L 108.77915573120117 19.430060150486298 L 109.25006484985352 18.636603119236298 L 109.56715774536133 17.770117523533173 L 109.71963882446289 16.860113861423798 L 109.70231246948242 15.937597992283173 L 109.51576614379883 15.033972504001923 L 109.16635513305664 14.179999115330048 L 108.66597366333008 13.404776337009736 L 108.03167343139648 12.73470187411911 L 107.2850456237793 12.19258761630661 L 106.45151138305664 11.79689669833786 L 105.55946731567383 11.561102630955048 L 104.63927841186523 11.49324679599411 L 103.72229385375977 11.595618011814423 L 102.8397331237793 11.864737274509736 L 87.15370559692383 18.282889129978486 L 67.98112869262695 21.545935394626923 L 67.08968734741211 21.78401828036911 L 66.25717544555664 22.18184542880661 L 65.51193618774414 22.725867035251923 L 64.87934494018555 23.397558929783173 L 64.38095474243164 24.174063446384736 L 64.03373336791992 25.028921844822236 L 63.84950637817383 25.933020355564423 L 63.834537506103516 26.855582001072236 L 63.98934555053711 27.765188934665986 L 64.30865859985352 28.630865814548798 L 64.78159713745117 29.42311740146286 L 65.39206314086914 30.114981415134736 L 66.11926651000977 30.682898285251923 L 66.93844223022461 31.107519867283173 L 67.82168960571289 31.374380829197236 L 68.73893356323242 31.474402191501923 L 69.65893936157227 31.404181244236298 L 89.91933059692383 27.955984833103486 L 106.62662887573242 21.119971039158173 z" style="fill:none; stroke:rgb(43%, 84%, 43%); stroke-width:1.0;"/>
<path d="M 72.54258346557617 53.82330966220505 L 71.7100715637207 54.221121551853486 L 70.9648323059082 54.76515841708786 L 70.33224105834961 55.43685031161911 L 69.8338508605957 56.21335482822067 L 69.48662948608398 57.06821322665817 L 69.30239486694336 57.97231173740036 L 69.28743362426758 58.89487338290817 L 69.44224166870117 59.80448031650192 L 69.76155471801758 60.670149566990204 L 70.23449325561523 61.4624087832988 L 70.8449592590332 62.15427279697067 L 71.57216262817383 62.72218203769333 L 72.39133834838867 63.14679599033005 L 73.27458572387695 63.41366458163864 L 74.19182968139648 63.51369357333786 L 75.11183547973633 63.443472626072236 L 94.82831954956055 60.08784365878708 L 95.71976089477539 59.84976840243942 L 96.55227279663086 59.45194125400192 L 97.29751205444336 58.90791964755661 L 97.93010330200195 58.2362124942363 L 98.42849349975586 57.4597232364238 L 98.77571487426758 56.6048648379863 L 98.9599494934082 55.70075106845505 L 98.97491073608398 54.778189422947236 L 98.82010269165039 53.86859774814255 L 98.50078964233398 53.002920868259736 L 98.02785110473633 52.21066928134567 L 97.41738510131836 51.5188052676738 L 96.69018173217773 50.95088839755661 L 95.87100601196289 50.52626681552536 L 94.98775863647461 50.2594058536113 L 94.07051467895508 50.15938449130661 L 93.15050888061523 50.229605438572236 L 73.43402481079102 53.58522677646286 z" fill="rgb(96%, 49%, 85%)" style="stroke:none;"/>
<path d="M 72.54258346557617 53.82330966220505 L 71.7100715637207 54.221121551853486 L 70.9648323059082 54.76515841708786 L 70.33224105834961 55.43685031161911 L 69.8338508605957 56.21335482822067 L 69.48662948608398 57.06821322665817 L 69.30239486694336 57.97231173740036 L 69.28743362426758 58.89487338290817 L 69.44224166870117 59.80448031650192 L 69.76155471801758 60.670149566990204 L 70.23449325561523 61.4624087832988 L 70.8449592590332 62.15427279697067 L 71.57216262817383 62.72218203769333 L 72.39133834838867 63.14679599033005 L 73.27458572387695 63.41366458163864 L 74.19182968139648 63.51369357333786 L 75.11183547973633 63.443472626072236 L 94.82831954956055 60.08784365878708 L 95.71976089477539 59.84976840243942 L 96.55227279663086 59.45194125400192 L 97.29751205444336 58.90791964755661 L 97.93010330200195 58.2362124942363 L 98.42849349975586 57.4597232364238 L 98.77571487426758 56.6048648379863 L 98.9599494934082 55.70075106845505 L 98.97491073608398 54.778189422947236 L 98.82010269165039 53.86859774814255 L 98.50078964233398 53.002920868259736 L 98.02785110473633 52.21066928134567 L 97.41738510131836 51.5188052676738 L 96.69018173217773 50.95088839755661 L 95.87100601196289 50.52626681552536 L 94.98775863647461 50.2594058536113 L 94.07051467895508 50.15938449130661 L 93.15050888061523 50.229605438572236 L 73.43402481079102 53.58522677646286 z" style="fill:none; stroke:rgb(43%, 84%, 43%); stroke-width:1.0;"/>
<path d="M 55.096134185791016 21.176520111423798 L 56.00385665893555 21.011053802830048 L 56.865726470947266 20.68160128818161 L 57.65237808227539 20.199408295017548 L 58.337032318115234 19.580862762790986 L 58.8963737487793 18.847052337986298 L 59.31135177612305 18.022955658298798 L 59.56783676147461 17.136633636814423 L 59.657100677490234 16.218268158298798 L 59.57608413696289 15.29915499911911 L 59.327571868896484 14.410574676853486 L 58.92000961303711 13.58278537021286 L 58.36727523803711 12.843970062595673 L 57.68819808959961 12.219305755955048 L 56.90591049194336 11.73006320224411 L 56.04703903198242 11.392889740330048 L 55.14083480834961 11.219275238376923 L 36.36986541748047 9.394873382908173 L 18.02587890625 17.897803070408173 L 6.512599945068359 34.51845431552536 L 5.0 54.68063998447067 L 13.904541015625 72.83306765781052 L 27.885276794433594 82.0690982364238 L 31.27550506591797 99.64167666659958 L 31.53314208984375 100.52766299472458 L 31.949188232421875 101.35122561679489 L 32.50947952270508 102.08431124911911 L 33.19493865966797 102.70196414218552 L 33.982215881347656 103.18314242587692 L 34.84450912475586 103.51147341952927 L 35.752445220947266 103.6757648013652 L 36.675113677978516 103.67042422519333 L 37.581092834472656 103.49564242587692 L 38.43952560424805 103.1573550723613 L 39.22118377685547 102.6670978091777 L 39.899444580078125 102.04154849277145 L 40.45121765136719 101.30203128085739 L 40.85770797729492 100.47370791659958 L 41.105072021484375 99.58480715976364 L 41.18489074707031 98.66557955966599 L 41.09444046020508 97.74733615146286 L 36.907310485839844 76.04418063388474 L 21.68511962890625 65.98801303134567 L 15.175376892089844 52.717520477634736 L 16.281177520751953 37.9777896426738 L 24.698055267333984 25.827124359470673 L 38.10858154296875 19.61098361240036 L 54.173458099365234 21.17238497958786 z" fill="rgb(96%, 49%, 85%)" style="stroke:none;"/>
<path d="M 55.096134185791016 21.176520111423798 L 56.00385665893555 21.011053802830048 L 56.865726470947266 20.68160128818161 L 57.65237808227539 20.199408295017548 L 58.337032318115234 19.580862762790986 L 58.8963737487793 18.847052337986298 L 59.31135177612305 18.022955658298798 L 59.56783676147461 17.136633636814423 L 59.657100677490234 16.218268158298798 L 59.57608413696289 15.29915499911911 L 59.327571868896484 14.410574676853486 L 58.92000961303711 13.58278537021286 L 58.36727523803711 12.843970062595673 L 57.68819808959961 12.219305755955048 L 56.90591049194336 11.73006320224411 L 56.04703903198242 11.392889740330048 L 55.14083480834961 11.219275238376923 L 36.36986541748047 9.394873382908173 L 18.02587890625 17.897803070408173 L 6.512599945068359 34.51845431552536 L 5.0 54.68063998447067 L 13.904541015625 72.83306765781052 L 27.885276794433594 82.0690982364238 L 31.27550506591797 99.64167666659958 L 31.53314208984375 100.52766299472458 L 31.949188232421875 101.35122561679489 L 32.50947952270508 102.08431124911911 L 33.19493865966797 102.70196414218552 L 33.982215881347656 103.18314242587692 L 34.84450912475586 103.51147341952927 L 35.752445220947266 103.6757648013652 L 36.675113677978516 103.67042422519333 L 37.581092834472656 103.49564242587692 L 38.43952560424805 103.1573550723613 L 39.22118377685547 102.6670978091777 L 39.899444580078125 102.04154849277145 L 40.45121765136719 101.30203128085739 L 40.85770797729492 100.47370791659958 L 41.105072021484375 99.58480715976364 L 41.18489074707031 98.66557955966599 L 41.09444046020508 97.74733615146286 L 36.907310485839844 76.04418063388474 L 21.68511962890625 65.98801303134567 L 15.175376892089844 52.717520477634736 L 16.281177520751953 37.9777896426738 L 24.698055267333984 25.827124359470673 L 38.10858154296875 19.61098361240036 L 54.173458099365234 21.17238497958786 z" style="fill:none; stroke:rgb(43%, 84%, 43%); stroke-width:1.0;"/>
<path d="M 70.93816757202148 111.38819766269333 L 71.52376937866211 112.10123324618942 L 72.23041915893555 112.69451785312302 L 73.03405380249023 113.14785647616989 L 73.90730667114258 113.4458072207988 L 74.82043838500977 113.5782306216777 L 75.74235916137695 113.54061007724411 L 76.64165878295898 113.33421969638474 L 77.48772811889648 112.96610903964645 L 78.25175857543945 112.44879031406052 L 78.90771102905273 111.79989505038864 L 79.43326950073242 111.04151797519333 L 79.81052017211914 110.19948458896286 L 80.02663040161133 109.30246615634567 L 80.0742301940918 108.38101077304489 L 79.95170974731445 107.46649813876755 L 79.66322708129883 106.5900714419902 L 72.90146255493164 91.04900241122849 L 69.2172966003418 71.9528644107402 L 68.95966720581055 71.0668780826152 L 68.54361343383789 70.24332308993942 L 67.98332595825195 69.5102374576152 L 67.29787063598633 68.8925845645488 L 66.51059341430664 68.41139865146286 L 65.64829635620117 68.08307528720505 L 64.74036026000977 67.91877627597458 L 63.817691802978516 67.92411685214645 L 62.91171646118164 68.09890628085739 L 62.053279876708984 68.43719363437302 L 61.27162551879883 68.92745089755661 L 60.59335708618164 69.55299258456833 L 60.04159164428711 70.29251742587692 L 59.63509750366211 71.1208331607402 L 59.38772964477539 72.00974154697067 L 59.307918548583984 72.92896914706833 L 59.39836502075195 73.84720492587692 L 63.291561126708984 94.02680850253708 L 70.49355697631836 110.57970309482224 z" fill="rgb(43%, 98%, 58%)" style="stroke:none;"/>
<path d="M 70.93816757202148 111.38819766269333 L 71.52376937866211 112.10123324618942 L 72.23041915893555 112.69451785312302 L 73.03405380249023 113.14785647616989 L 73.90730667114258 113.4458072207988 L 74.82043838500977 113.5782306216777 L 75.74235916137695 113.54061007724411 L 76.64165878295898 113.33421969638474 L 77.48772811889648 112.96610903964645 L 78.25175857543945 112.44879031406052 L 78.90771102905273 111.79989505038864 L 79.43326950073242 111.04151797519333 L 79.81052017211914 110.19948458896286 L 80.02663040161133 109.30246615634567 L 80.0742301940918 108.38101077304489 L 79.95170974731445 107.46649813876755 L 79.66322708129883 106.5900714419902 L 72.90146255493164 91.04900241122849 L 69.2172966003418 71.9528644107402 L 68.95966720581055 71.0668780826152 L 68.54361343383789 70.24332308993942 L 67.98332595825195 69.5102374576152 L 67.29787063598633 68.8925845645488 L 66.51059341430664 68.41139865146286 L 65.64829635620117 68.08307528720505 L 64.74036026000977 67.91877627597458 L 63.817691802978516 67.92411685214645 L 62.91171646118164 68.09890628085739 L 62.053279876708984 68.43719363437302 L 61.27162551879883 68.92745089755661 L 60.59335708618164 69.55299258456833 L 60.04159164428711 70.29251742587692 L 59.63509750366211 71.1208331607402 L 59.38772964477539 72.00974154697067 L 59.307918548583984 72.92896914706833 L 59.39836502075195 73.84720492587692 L 63.291561126708984 94.02680850253708 L 70.49355697631836 110.57970309482224 z" style="fill:none; stroke:rgb(43%, 84%, 43%); stroke-width:1.0;"/>
<path d="M 40.663455963134766 116.50791049228317 L 40.637454986572266 115.58559298740036 L 40.44242477416992 114.68376040683395 L 40.08500289916992 113.8331134341777 L 39.577362060546875 113.06263613925583 L 38.93678665161133 112.39855075107224 L 38.18509292602539 111.86347842441208 L 37.34788131713867 111.47563815341599 L 36.45365524291992 111.24823642001755 L 35.532875061035156 111.18902468906052 L 34.61688995361328 111.30001712070114 L 33.73689651489258 111.57742190585739 L 32.9228630065918 112.01180911288864 L 32.2025032043457 112.58837771640427 L 31.600357055664062 113.28749728427536 L 31.136924743652344 114.08534884677536 L 30.827987670898438 114.95477938876755 L 25.898937225341797 134.3378741763652 L 25.755020141601562 135.24926638827927 L 25.781017303466797 136.17158389316208 L 25.976051330566406 137.07342028842575 L 26.333473205566406 137.92406344638474 L 26.841114044189453 138.69454455600388 L 27.481689453125 139.35862994418747 L 28.233383178710938 139.89370227084763 L 29.070594787597656 140.28154254184372 L 29.96481704711914 140.5089404605449 L 30.885601043701172 140.56815219150192 L 31.80158233642578 140.45716357455856 L 32.681575775146484 140.17975497470505 L 33.49561309814453 139.7453677676738 L 34.21596908569336 139.16879916415817 L 34.818119049072266 138.46968341098435 L 35.281551361083984 137.67182803378708 L 35.59048843383789 136.80240130649216 L 40.519535064697266 117.41930270419724 z" fill="rgb(43%, 98%, 58%)" style="stroke:none;"/>
<path d="M 40.663455963134766 116.50791049228317 L 40.637454986572266 115.58559298740036 L 40.44242477416992 114.68376040683395 L 40.08500289916992 113.8331134341777 L 39.577362060546875 113.06263613925583 L 38.93678665161133 112.39855075107224 L 38.18509292602539 111.86347842441208 L 37.34788131713867 111.47563815341599 L 36.45365524291992 111.24823642001755 L 35.532875061035156 111.18902468906052 L 34.61688995361328 111.30001712070114 L 33.73689651489258 111.57742190585739 L 32.9228630065918 112.01180911288864 L 32.2025032043457 112.58837771640427 L 31.600357055664062 113.28749728427536 L 31.136924743652344 114.08534884677536 L 30.827987670898438 114.95477938876755 L 25.898937225341797 134.3378741763652 L 25.755020141601562 135.24926638827927 L 25.781017303466797 136.17158389316208 L 25.976051330566406 137.07342028842575 L 26.333473205566406 137.92406344638474 L 26.841114044189453 138.69454455600388 L 27.481689453125 139.35862994418747 L 28.233383178710938 139.89370227084763 L 29.070594787597656 140.28154254184372 L 29.96481704711914 140.5089404605449 L 30.885601043701172 140.56815219150192 L 31.80158233642578 140.45716357455856 L 32.681575775146484 140.17975497470505 L 33.49561309814453 139.7453677676738 L 34.21596908569336 139.16879916415817 L 34.818119049072266 138.46968341098435 L 35.281551361083984 137.67182803378708 L 35.59048843383789 136.80240130649216 L 40.519535064697266 117.41930270419724 z" style="fill:none; stroke:rgb(43%, 84%, 43%); stroke-width:1.0;"/>
<path d="M 15.183666229248047 186.7650051139415 L 14.805168151855469 185.92352807746536 L 14.278491973876953 185.16592788921005 L 13.621576309204102 184.51800346599228 L 12.856788635253906 184.0018193744243 L 12.010175704956055 183.6349535010875 L 11.110565185546875 183.42989897952683 L 10.188594818115234 183.39363885150559 L 9.275659561157227 183.52740764842636 L 8.402849197387695 183.82665038333542 L 7.599884033203125 184.28117633090622 L 6.894111633300781 184.8755073569835 L 6.309564590454102 185.58940446601517 L 5.866147994995117 186.3985562943042 L 5.578962326049805 187.2754084266842 L 5.457788467407227 188.190100672108 L 5.506752014160156 189.11148417220718 L 8.343618392944336 208.4723079227031 L 25.682632446289062 221.41200900302536 L 47.09665298461914 218.32705950961716 L 60.07815933227539 201.0193231128276 L 57.47310256958008 182.62201190219528 L 62.15896987915039 164.1952025912822 L 62.30289077758789 163.28381228671677 L 62.27688980102539 162.3614966891826 L 62.08185958862305 161.45966029391892 L 61.72443771362305 160.60901713595993 L 61.216793060302734 159.83853411899216 L 60.57622146606445 159.17444873080856 L 59.824527740478516 158.6393764041484 L 58.9873161315918 158.2515361331523 L 58.09309005737305 158.02413821445114 L 57.172306060791016 157.9649264834941 L 56.25632858276367 158.07591510043747 L 55.3763313293457 158.35332560763962 L 54.56229782104492 158.78771090732224 L 53.84193801879883 159.36427951083786 L 53.23978805541992 160.0633952640117 L 52.7763557434082 160.86125064120895 L 52.46742630004883 161.7306792758525 L 47.29519271850586 182.07006526218063 L 49.59718704223633 198.32710623965866 L 41.57793426513672 209.01886248813278 L 28.34954833984375 210.92457080112106 L 17.638473510742188 202.93114543185837 L 15.401100158691406 187.66170335040695 z" fill="rgb(95%, 59%, 48%)" style="stroke:none;"/>
<path d="M 15.183666229248047 186.7650051139415 L 14.805168151855469 185.92352807746536 L 14.278491973876953 185.16592788921005 L 13.621576309204102 184.51800346599228 L 12.856788635253906 184.0018193744243 L 12.010175704956055 183.6349535010875 L 11.110565185546875 183.42989897952683 L 10.188594818115234 183.39363885150559 L 9.275659561157227 183.52740764842636 L 8.402849197387695 183.82665038333542 L 7.599884033203125 184.28117633090622 L 6.894111633300781 184.8755073569835 L 6.309564590454102 185.58940446601517 L 5.866147994995117 186.3985562943042 L 5.578962326049805 187.2754084266842 L 5.457788467407227 188.190100672108 L 5.506752014160156 189.11148417220718 L 8.343618392944336 208.4723079227031 L 25.682632446289062 221.41200900302536 L 47.09665298461914 218.32705950961716 L 60.07815933227539 201.0193231128276 L 57.47310256958008 182.62201190219528 L 62.15896987915039 164.1952025912822 L 62.30289077758789 163.28381228671677 L 62.27688980102539 162.3614966891826 L 62.08185958862305 161.45966029391892 L 61.72443771362305 160.60901713595993 L 61.216793060302734 159.83853411899216 L 60.57622146606445 159.17444873080856 L 59.824527740478516 158.6393764041484 L 58.9873161315918 158.2515361331523 L 58.09309005737305 158.02413821445114 L 57.172306060791016 157.9649264834941 L 56.25632858276367 158.07591510043747 L 55.3763313293457 158.35332560763962 L 54.56229782104492 158.78771090732224 L 53.84193801879883 159.36427951083786 L 53.23978805541992 160.0633952640117 L 52.7763557434082 160.86125064120895 L 52.46742630004883 161.7306792758525 L 47.29519271850586 182.07006526218063 L 49.59718704223633 198.32710623965866 L 41.57793426513672 209.01886248813278 L 28.34954833984375 210.92457080112106 L 17.638473510742188 202.93114543185837 L 15.401100158691406 187.66170335040695 z" style="fill:none; stroke:rgb(43%, 84%, 43%); stroke-width:1.0;"/>
<path d="M 263.3312187194824 47.8980777286113 L 264.14228439331055 47.45815158115036 L 264.8586845397949 46.87668490634567 L 265.4560661315918 46.1734683536113 L 265.9140434265137 45.37247348056442 L 266.2170219421387 44.500967743259736 L 266.3547477722168 43.588614227634736 L 266.32246017456055 42.666495087009736 L 266.1212577819824 41.76601290927536 L 265.7580680847168 40.91782260165817 L 265.2451591491699 40.15082431064255 L 264.6000785827637 39.49111056552536 L 263.8447685241699 38.9611880801738 L 263.0049247741699 38.57906222568161 L 262.1091728210449 38.35776400790817 L 261.1879997253418 38.30483126865036 L 260.2728080749512 38.42206454501755 L 243.73221969604492 42.11739230380661 L 224.28393173217773 42.11739230380661 L 223.36518478393555 42.2025210879863 L 222.47773361206055 42.45503878818161 L 221.65177536010742 42.86630892978317 L 220.91546249389648 43.422354462009736 L 220.29384994506836 44.10422396884567 L 219.8081169128418 44.88869357333786 L 219.47480392456055 45.749075653415986 L 219.3052635192871 46.656058075290986 L 219.3052635192871 47.5787417911113 L 219.47480392456055 48.485708954197236 L 219.8081169128418 49.34609103427536 L 220.29384994506836 50.13056063876755 L 220.91546249389648 50.812430145603486 L 221.65177536010742 51.36847567783005 L 222.47773361206055 51.77976107822067 L 223.36518478393555 52.03226351962692 L 224.28393173217773 52.11739230380661 L 244.83567428588867 52.11739230380661 L 262.4531364440918 48.18147921786911 z" fill="rgb(78%, 63%, 91%)" style="stroke:none;"/>
<path d="M 263.3312187194824 47.8980777286113 L 264.14228439331055 47.45815158115036 L 264.8586845397949 46.87668490634567 L 265.4560661315918 46.1734683536113 L 265.9140434265137 45.37247348056442 L 266.2170219421387 44.500967743259736 L 266.3547477722168 43.588614227634736 L 266.32246017456055 42.666495087009736 L 266.1212577819824 41.76601290927536 L 265.7580680847168 40.91782260165817 L 265.2451591491699 40.15082431064255 L 264.6000785827637 39.49111056552536 L 263.8447685241699 38.9611880801738 L 263.0049247741699 38.57906222568161 L 262.1091728210449 38.35776400790817 L 261.1879997253418 38.30483126865036 L 260.2728080749512 38.42206454501755 L 243.73221969604492 42.11739230380661 L 224.28393173217773 42.11739230380661 L 223.36518478393555 42.2025210879863 L 222.47773361206055 42.45503878818161 L 221.65177536010742 42.86630892978317 L 220.91546249389648 43.422354462009736 L 220.29384994506836 44.10422396884567 L 219.8081169128418 44.88869357333786 L 219.47480392456055 45.749075653415986 L 219.3052635192871 46.656058075290986 L 219.3052635192871 47.5787417911113 L 219.47480392456055 48.485708954197236 L 219.8081169128418 49.34609103427536 L 220.29384994506836 50.13056063876755 L 220.91546249389648 50.812430145603486 L 221.65177536010742 51.36847567783005 L 222.47773361206055 51.77976107822067 L 223.36518478393555 52.03226351962692 L 224.28393173217773 52.11739230380661 L 244.83567428588867 52.11739230380661 L 262.4531364440918 48.18147921786911 z" style="fill:none; stroke:rgb(43%, 84%, 43%); stroke-width:1.0;"/>
<path d="M 262.6231803894043 78.5944659732402 L 261.7126274108887 78.44527316318161 L 260.7901725769043 78.46593356357224 L 259.8872489929199 78.6557452701152 L 259.0345268249512 79.00823855624802 L 258.2611198425293 79.51142001376755 L 257.5933647155762 80.14813876376755 L 257.0539360046387 80.89671969638474 L 256.6612663269043 81.73168063388474 L 256.4286918640137 82.62457156406052 L 256.3641471862793 83.54499697909958 L 256.4698295593262 84.46160769687302 L 256.7421684265137 85.34319186435349 L 257.17182540893555 86.15972781406052 L 257.74421310424805 86.8834064029277 L 258.4398307800293 87.48958468661911 L 259.2349967956543 87.95763278232224 L 277.3334159851074 96.4692447207988 L 278.2010307312012 96.7832095645488 L 279.1115837097168 96.93240237460739 L 280.03400802612305 96.91173434482224 L 280.93696212768555 96.7219302676738 L 281.7896537780762 96.36942935214645 L 282.5630912780762 95.86625552402145 L 283.2308464050293 95.22953677402145 L 283.7702751159668 94.48094821200974 L 284.1629447937012 93.64599490390427 L 284.3955192565918 92.75310397372849 L 284.4600639343262 91.83267855868942 L 284.3543815612793 90.91606784091599 L 284.0820426940918 90.03448367343552 L 283.6523857116699 89.21794772372849 L 283.0799980163574 88.4942691348613 L 282.3843803405762 87.88808322177536 L 281.5892143249512 87.42004275546677 L 263.49079513549805 78.90842318759567 z" fill="rgb(78%, 63%, 91%)" style="stroke:none;"/>
<path d="M 262.6231803894043 78.5944659732402 L 261.7126274108887 78.44527316318161 L 260.7901725769043 78.46593356357224 L 259.8872489929199 78.6557452701152 L 259.0345268249512 79.00823855624802 L 258.2611198425293 79.51142001376755 L 257.5933647155762 80.14813876376755 L 257.0539360046387 80.89671969638474 L 256.6612663269043 81.73168063388474 L 256.4286918640137 82.62457156406052 L 256.3641471862793 83.54499697909958 L 256.4698295593262 84.46160769687302 L 256.7421684265137 85.34319186435349 L 257.17182540893555 86.15972781406052 L 257.74421310424805 86.8834064029277 L 258.4398307800293 87.48958468661911 L 259.2349967956543 87.95763278232224 L 277.3334159851074 96.4692447207988 L 278.2010307312012 96.7832095645488 L 279.1115837097168 96.93240237460739 L 280.03400802612305 96.91173434482224 L 280.93696212768555 96.7219302676738 L 281.7896537780762 96.36942935214645 L 282.5630912780762 95.86625552402145 L 283.2308464050293 95.22953677402145 L 283.7702751159668 94.48094821200974 L 284.1629447937012 93.64599490390427 L 284.3955192565918 92.75310397372849 L 284.4600639343262 91.83267855868942 L 284.3543815612793 90.91606784091599 L 284.0820426940918 90.03448367343552 L 283.6523857116699 89.21794772372849 L 283.0799980163574 88.4942691348613 L 282.3843803405762 87.88808322177536 L 281.5892143249512 87.42004275546677 L 263.49079513549805 78.90842318759567 z" style="fill:none; stroke:rgb(43%, 84%, 43%); stroke-width:1.0;"/>
<path d="M 361.2325553894043 88.4476153873027 L 362.1431083679199 88.59680056796677 L 363.0655326843262 88.57614016757614 L 363.9684867858887 88.38632846103317 L 364.8211784362793 88.03383517490036 L 365.5946159362793 87.53066134677536 L 366.2623710632324 86.89394259677536 L 366.8017997741699 86.14535403476364 L 367.1944694519043 85.31040072665817 L 367.4270439147949 84.41750979648239 L 367.4915885925293 83.49708438144333 L 367.3859062194824 82.58047366366989 L 367.1135673522949 81.69888949618942 L 366.68391036987305 80.88235354648239 L 366.11152267456055 80.1586749576152 L 365.4159049987793 79.55248904452927 L 364.6207389831543 79.08444857822067 L 347.29792404174805 70.93759036288864 L 330.1307182312012 74.33418154941208 L 313.51899337768555 66.52175021396286 L 312.6513786315918 66.20778537021286 L 311.7408256530762 66.0586001895488 L 310.8183708190918 66.07926058993942 L 309.9154167175293 66.26907229648239 L 309.0627250671387 66.6215655826152 L 308.2893180847168 67.1247394107402 L 307.62153244018555 67.7614581607402 L 307.0821342468262 68.51004672275192 L 306.6894645690918 69.34500003085739 L 306.4568901062012 70.23789096103317 L 306.3923454284668 71.15831637607224 L 306.4980278015137 72.07492709384567 L 306.77033615112305 72.95651126132614 L 307.20002365112305 73.77304721103317 L 307.77241134643555 74.49672579990036 L 308.4680290222168 75.1029117129863 L 309.2631950378418 75.57095217929489 L 328.8483085632324 84.78175997958786 L 346.0155143737793 81.38516879306442 L 360.36494064331055 88.1336505435527 z" fill="rgb(46%, 91%, 44%)" style="stroke:none;"/>
<path d="M 361.2325553894043 88.4476153873027 L 362.1431083679199 88.59680056796677 L 363.0655326843262 88.57614016757614 L 363.9684867858887 88.38632846103317 L 364.8211784362793 88.03383517490036 L 365.5946159362793 87.53066134677536 L 366.2623710632324 86.89394259677536 L 366.8017997741699 86.14535403476364 L 367.1944694519043 85.31040072665817 L 367.4270439147949 84.41750979648239 L 367.4915885925293 83.49708438144333 L 367.3859062194824 82.58047366366989 L 367.1135673522949 81.69888949618942 L 366.68391036987305 80.88235354648239 L 366.11152267456055 80.1586749576152 L 365.4159049987793 79.55248904452927 L 364.6207389831543 79.08444857822067 L 347.29792404174805 70.93759036288864 L 330.1307182312012 74.33418154941208 L 313.51899337768555 66.52175021396286 L 312.6513786315918 66.20778537021286 L 311.7408256530762 66.0586001895488 L 310.8183708190918 66.07926058993942 L 309.9154167175293 66.26907229648239 L 309.0627250671387 66.6215655826152 L 308.2893180847168 67.1247394107402 L 307.62153244018555 67.7614581607402 L 307.0821342468262 68.51004672275192 L 306.6894645690918 69.34500003085739 L 306.4568901062012 70.23789096103317 L 306.3923454284668 71.15831637607224 L 306.4980278015137 72.07492709384567 L 306.77033615112305 72.95651126132614 L 307.20002365112305 73.77304721103317 L 307.77241134643555 74.49672579990036 L 308.4680290222168 75.1029117129863 L 309.2631950378418 75.57095217929489 L 328.8483085632324 84.78175997958786 L 346.0155143737793 81.38516879306442 L 360.36494064331055 88.1336505435527 z" style="fill:none; stroke:rgb(43%, 84%, 43%); stroke-width:1.0;"/>
<path d="M 325.2508354187012 119.51830172763474 L 324.34028244018555 119.36910891757614 L 323.4178276062012 119.38976931796677 L 322.5148735046387 119.57958102450974 L 321.66218185424805 119.93207431064255 L 320.8887748718262 120.43524813876755 L 320.2209892272949 121.07197451816208 L 319.68159103393555 121.82055545077927 L 319.2889213562012 122.65550875888474 L 319.05634689331055 123.54840350375778 L 318.9918022155762 124.46882891879685 L 319.09748458862305 125.38543963657028 L 319.3697929382324 126.26702380405075 L 319.7994804382324 127.08355975375778 L 320.3718681335449 127.80723834262497 L 321.0674858093262 128.41342044101364 L 321.8626518249512 128.8814647220195 L 339.1854362487793 137.02832293735153 L 356.3526420593262 133.63173556552536 L 372.9643669128418 141.4441745303691 L 373.83198165893555 141.75813555942185 L 374.7425346374512 141.90732455478317 L 375.66498947143555 141.88666415439255 L 376.56794357299805 141.69685244784958 L 377.4206352233887 141.34435916171677 L 378.19404220581055 140.84118533359177 L 378.8618278503418 140.2044627688945 L 379.4012260437012 139.45587802158005 L 379.79389572143555 138.62092471347458 L 380.0264701843262 137.72802996860153 L 380.09101486206055 136.80760836825974 L 379.9853324890137 135.8909976504863 L 379.7130241394043 135.00941348300583 L 379.2833366394043 134.1928775332988 L 378.7109489440918 133.46919512973435 L 378.01533126831055 132.86301303134567 L 377.22016525268555 132.39497256503708 L 357.63508224487305 123.18415713534958 L 340.46784591674805 126.58074069247849 L 326.1184501647949 119.8322589419902 z" fill="rgb(46%, 91%, 44%)" style="stroke:none;"/>
<path d="M 325.2508354187012 119.51830172763474 L 324.34028244018555 119.36910891757614 L 323.4178276062012 119.38976931796677 L 322.5148735046387 119.57958102450974 L 321.66218185424805 119.93207431064255 L 320.8887748718262 120.43524813876755 L 320.2209892272949 121.07197451816208 L 319.68159103393555 121.82055545077927 L 319.2889213562012 122.65550875888474 L 319.05634689331055 123.54840350375778 L 318.9918022155762 124.46882891879685 L 319.09748458862305 125.38543963657028 L 319.3697929382324 126.26702380405075 L 319.7994804382324 127.08355975375778 L 320.3718681335449 127.80723834262497 L 321.0674858093262 128.41342044101364 L 321.8626518249512 128.8814647220195 L 339.1854362487793 137.02832293735153 L 356.3526420593262 133.63173556552536 L 372.9643669128418 141.4441745303691 L 373.83198165893555 141.75813555942185 L 374.7425346374512 141.90732455478317 L 375.66498947143555 141.88666415439255 L 376.56794357299805 141.69685244784958 L 377.4206352233887 141.34435916171677 L 378.19404220581055 140.84118533359177 L 378.8618278503418 140.2044627688945 L 379.4012260437012 139.45587802158005 L 379.79389572143555 138.62092471347458 L 380.0264701843262 137.72802996860153 L 380.09101486206055 136.80760836825974 L 379.9853324890137 135.8909976504863 L 379.7130241394043 135.00941348300583 L 379.2833366394043 134.1928775332988 L 378.7109489440918 133.46919512973435 L 378.01533126831055 132.86301303134567 L 377.22016525268555 132.39497256503708 L 357.63508224487305 123.18415713534958 L 340.46784591674805 126.58074069247849 L 326.1184501647949 119.8322589419902 z" style="fill:none; stroke:rgb(43%, 84%, 43%); stroke-width:1.0;"/>
<path d="M 421.6096611022949 163.3922946475566 L 420.6869926452637 163.39954447970993 L 419.7813835144043 163.5762069247783 L 418.92365646362305 163.91627001987106 L 418.14301681518555 164.40814852939255 L 417.4660453796387 165.03509402499802 L 416.9158134460449 165.7757575534404 L 416.5110282897949 166.60491633639938 L 416.2655143737793 167.4943339847148 L 416.1876029968262 168.41372180209763 L 416.2799491882324 169.33177256808884 L 416.5394096374512 170.21722102389938 L 416.9571647644043 171.0399177096904 L 417.51899337768555 171.77184272037155 L 418.2056999206543 172.3880746387065 L 418.9939994812012 172.86762595401413 L 419.8569450378418 173.19416690097458 L 438.4860649108887 178.33673167453415 L 457.7041435241699 169.50139308200485 L 466.7059440612793 150.3607242129863 L 461.2546806335449 129.92347216830856 L 443.9160270690918 117.80863070712692 L 426.02045822143555 119.43083071933395 L 409.14997482299805 111.4966876529277 L 408.2823600769043 111.18273043857224 L 407.3718070983887 111.03353762851364 L 406.4493522644043 111.05419802890427 L 405.5463981628418 111.24400973544724 L 404.6937065124512 111.59650302158005 L 403.9202995300293 112.09967684970505 L 403.25251388549805 112.73640322909958 L 402.7131156921387 113.48498416171677 L 402.3204154968262 114.31993746982224 L 402.0878715515137 115.21282839999802 L 402.0233268737793 116.13325381503708 L 402.1290092468262 117.04986453281052 L 402.40131759643555 117.93144870029099 L 402.8309745788574 118.74798464999802 L 403.4033622741699 119.4716632388652 L 404.0990104675293 120.07784915195114 L 404.8941459655762 120.54588961825974 L 424.2204704284668 129.63500094638474 L 441.1819267272949 128.09747195468552 L 452.5336112976074 136.0291240237773 L 456.1025810241699 149.40949893222458 L 450.20905685424805 161.9409949801982 L 437.62690353393555 167.72553706393845 L 422.5179252624512 163.5547053836406 z" fill="rgb(63%, 60%, 70%)" style="stroke:none;"/>
<path d="M 421.6096611022949 163.3922946475566 L 420.6869926452637 163.39954447970993 L 419.7813835144043 163.5762069247783 L 418.92365646362305 163.91627001987106 L 418.14301681518555 164.40814852939255 L 417.4660453796387 165.03509402499802 L 416.9158134460449 165.7757575534404 L 416.5110282897949 166.60491633639938 L 416.2655143737793 167.4943339847148 L 416.1876029968262 168.41372180209763 L 416.2799491882324 169.33177256808884 L 416.5394096374512 170.21722102389938 L 416.9571647644043 171.0399177096904 L 417.51899337768555 171.77184272037155 L 418.2056999206543 172.3880746387065 L 418.9939994812012 172.86762595401413 L 419.8569450378418 173.19416690097458 L 438.4860649108887 178.33673167453415 L 457.7041435241699 169.50139308200485 L 466.7059440612793 150.3607242129863 L 461.2546806335449 129.92347216830856 L 443.9160270690918 117.80863070712692 L 426.02045822143555 119.43083071933395 L 409.14997482299805 111.4966876529277 L 408.2823600769043 111.18273043857224 L 407.3718070983887 111.03353762851364 L 406.4493522644043 111.05419802890427 L 405.5463981628418 111.24400973544724 L 404.6937065124512 111.59650302158005 L 403.9202995300293 112.09967684970505 L 403.25251388549805 112.73640322909958 L 402.7131156921387 113.48498416171677 L 402.3204154968262 114.31993746982224 L 402.0878715515137 115.21282839999802 L 402.0233268737793 116.13325381503708 L 402.1290092468262 117.04986453281052 L 402.40131759643555 117.93144870029099 L 402.8309745788574 118.74798464999802 L 403.4033622741699 119.4716632388652 L 404.0990104675293 120.07784915195114 L 404.8941459655762 120.54588961825974 L 424.2204704284668 129.63500094638474 L 441.1819267272949 128.09747195468552 L 452.5336112976074 136.0291240237773 L 456.1025810241699 149.40949893222458 L 450.20905685424805 161.9409949801982 L 437.62690353393555 167.72553706393845 L 422.5179252624512 163.5547053836406 z" style="fill:none; stroke:rgb(43%, 84%, 43%); stroke-width:1.0;"/>
<line x1="182.2345415260002" y1="184.16678974782306" x2="182.2345415260002" y2="174.16678974782306" stroke="rgb(35%, 35%, 35%)" stroke-width="1.0" />
<line x1="182.2345415260002" y1="164.16678974782306" x2="182.2345415260002" y2="154.16678974782306" stroke="rgb(35%, 35%, 35%)" stroke-width="1.0" />
<line x1="182.2345415260002" y1="144.16678974782306" x2="182.2345415260002" y2="134.16678974782306" stroke="rgb(35%, 35%, 35%)" stroke-width="1.0" />
<line x1="182.2345415260002" y1="124.16678974782306" x2="182.2345415260002" y2="114.16678974782306" stroke="rgb(35%, 35%, 35%)" stroke-width="1.0" />
<line x1="182.2345415260002" y1="104.16678974782306" x2="182.2345415260002" y2="94.16678974782306" stroke="rgb(35%, 35%, 35%)" stroke-width="1.0" />
<line x1="179.20905080245987" y1="85.18603531156711" x2="172.30201549522738" y2="76.09818347096783" stroke="rgb(35%, 35%, 35%)" stroke-width="1.0" />
<line x1="164.45903052385327" y1="70.77886668200338" x2="154.82404202818574" y2="68.10174197658634" stroke="rgb(35%, 35%, 35%)" stroke-width="1.0" />
<line x1="145.18905353251822" y1="65.42461727116924" x2="135.5540650368507" y2="62.7474925657522" stroke="rgb(35%, 35%, 35%)" stroke-width="1.0" />
<line x1="125.91907654118316" y1="60.07036786033515" x2="116.28408804551563" y2="57.39324315491808" stroke="rgb(35%, 35%, 35%)" stroke-width="1.0" />
<line x1="106.4731510027054" y1="55.79869437034725" x2="98.9828572762152" y2="55.4147080820546" stroke="rgb(35%, 35%, 35%)" stroke-width="1.0" />
<line x1="89.06029332829087" y1="55.99762847431634" x2="79.2020510223951" y2="57.675442122564476" stroke="rgb(35%, 35%, 35%)" stroke-width="1.0" />
<line x1="71.42576460867109" y1="62.62453750414298" x2="67.15499766201306" y2="68.78984784897466" stroke="rgb(35%, 35%, 35%)" stroke-width="1.0" />
<line x1="65.2550021217695" y1="77.80950374214959" x2="67.14934156283466" y2="87.62843841359049" stroke="rgb(35%, 35%, 35%)" stroke-width="1.0" />
<line x1="70.0913266244434" y1="97.12274072507697" x2="73.083575509646" y2="104.00005265595115" stroke="rgb(35%, 35%, 35%)" stroke-width="1.0" />
<line x1="72.81922917488652" y1="113.0454020103999" x2="69.43045735886227" y2="119.7362314331591" stroke="rgb(35%, 35%, 35%)" stroke-width="1.0" />
<line x1="65.93903333690409" y1="129.04252020922445" x2="63.47450864465898" y2="138.7340690039896" stroke="rgb(35%, 35%, 35%)" stroke-width="1.0" />
<line x1="61.00998395241386" y1="148.42561779875476" x2="58.54545926016873" y2="158.11716659351993" stroke="rgb(35%, 35%, 35%)" stroke-width="1.0" />
<line x1="56.08093456792359" y1="167.80871538828507" x2="53.61640987567846" y2="177.50026418305026" stroke="rgb(35%, 35%, 35%)" stroke-width="1.0" />
<line x1="53.08515332165575" y1="187.2966537825509" x2="54.13666524579702" y2="194.72259943881824" stroke="rgb(35%, 35%, 35%)" stroke-width="1.0" />
<line x1="51.83756736876016" y1="203.67313688698462" x2="47.33739801593994" y2="209.673038720547" stroke="rgb(35%, 35%, 35%)" stroke-width="1.0" />
<line x1="39.38838516850988" y1="214.3859111366661" x2="31.964998555855026" y2="215.45533968290155" stroke="rgb(35%, 35%, 35%)" stroke-width="1.0" />
<line x1="23.008939173206244" y1="213.17784720350818" x2="16.998195368817424" y2="208.69216942479414" stroke="rgb(35%, 35%, 35%)" stroke-width="1.0" />
<line x1="12.266154768034124" y1="200.75455243908849" x2="11.17881582714445" y2="193.33376809751974" stroke="rgb(35%, 35%, 35%)" stroke-width="1.0" />
<line x1="13.434689646720141" y1="184.37223893284153" x2="17.905849730565578" y2="178.35068815907283" stroke="rgb(35%, 35%, 35%)" stroke-width="1.0" />
<line x1="22.118876292691695" y1="169.4905589332536" x2="24.58340098493683" y2="159.79901013848843" stroke="rgb(35%, 35%, 35%)" stroke-width="1.0" />
<line x1="27.047925677181965" y1="150.1074613437233" x2="29.5124503694271" y2="140.41591254895812" stroke="rgb(35%, 35%, 35%)" stroke-width="1.0" />
<line x1="31.97697506167222" y1="130.72436375419295" x2="34.44149975391733" y2="121.0328149594278" stroke="rgb(35%, 35%, 35%)" stroke-width="1.0" />
<line x1="35.81982252893825" y1="111.18917438225307" x2="36.038913172285824" y2="103.69237511256489" stroke="rgb(35%, 35%, 35%)" stroke-width="1.0" />
<line x1="35.23780388065161" y1="93.7850415970523" x2="33.34346443958644" y2="83.96610692561134" stroke="rgb(35%, 35%, 35%)" stroke-width="1.0" />
<line x1="28.224447692523185" y1="76.30061121789845" x2="21.9666771527272" y2="72.16656865990984" stroke="rgb(35%, 35%, 35%)" stroke-width="1.0" />
<line x1="15.592789646153218" y1="64.92155179113436" x2="12.289728926088234" y2="58.188069045959764" stroke="rgb(35%, 35%, 35%)" stroke-width="1.0" />
<line x1="10.461745719985352" y1="48.71309206585545" x2="11.022831630896" y2="41.23410934087349" stroke="rgb(35%, 35%, 35%)" stroke-width="1.0" />
<line x1="14.244054165612582" y1="32.13793230009779" x2="18.514802056776816" y2="25.972649463916127" stroke="rgb(35%, 35%, 35%)" stroke-width="1.0" />
<line x1="25.898326155079296" y1="19.759736840589795" x2="32.70286441136876" y2="16.605650741782" stroke="rgb(35%, 35%, 35%)" stroke-width="1.0" />
<line x1="42.215772975815696" y1="14.98661336736069" x2="49.680597566196695" y2="15.712143404536562" stroke="rgb(35%, 35%, 35%)" stroke-width="1.0" />
<line x1="58.70368678440974" y1="19.132753340712952" x2="64.77349602134836" y2="23.53813820780161" stroke="rgb(35%, 35%, 35%)" stroke-width="1.0" />
<line x1="73.74915666558866" y1="25.636154628403375" x2="83.60739897148443" y2="23.958340980155214" stroke="rgb(35%, 35%, 35%)" stroke-width="1.0" />
<line x1="93.16413781979543" y1="21.225983743276203" x2="100.10556436284014" y2="18.385808124143807" stroke="rgb(35%, 35%, 35%)" stroke-width="1.0" />
<line x1="109.14291549594158" y1="18.849103562789196" x2="115.75751565254902" y2="22.38422233988973" stroke="rgb(35%, 35%, 35%)" stroke-width="1.0" />
<line x1="124.98474333812109" y1="26.0795305439986" x2="134.61973183378862" y2="28.756655249415672" stroke="rgb(35%, 35%, 35%)" stroke-width="1.0" />
<line x1="144.25472032945615" y1="31.433779954832715" x2="153.88970882512365" y2="34.11090466024979" stroke="rgb(35%, 35%, 35%)" stroke-width="1.0" />
<line x1="163.52469732079118" y1="36.78802936566683" x2="173.15968581645873" y2="39.46515407108393" stroke="rgb(35%, 35%, 35%)" stroke-width="1.0" />
<line x1="182.48673001402594" y1="38.644096260231464" x2="189.25105493862605" y2="35.40466601488998" stroke="rgb(35%, 35%, 35%)" stroke-width="1.0" />
<line x1="198.71476835150688" y1="33.92051930041163" x2="206.14601354622795" y2="34.93372947403557" stroke="rgb(35%, 35%, 35%)" stroke-width="1.0" />
<line x1="214.8669659485887" y1="38.89725722428474" x2="220.5171493574088" y2="43.82933867603455" stroke="rgb(35%, 35%, 35%)" stroke-width="1.0" />
<line x1="229.28393829662218" y1="47.11739297720109" x2="239.28393829662218" y2="47.11739297720109" stroke="rgb(35%, 35%, 35%)" stroke-width="1.0" />
<line x1="249.16364354508482" y1="46.02722019817645" x2="256.48326470959455" y2="44.391946889643066" stroke="rgb(35%, 35%, 35%)" stroke-width="1.0" />
<line x1="265.31475797996023" y1="46.36500303284143" x2="271.2424912691565" y2="50.95988614753489" stroke="rgb(35%, 35%, 35%)" stroke-width="1.0" />
<line x1="279.7188811987037" y1="56.15101957356984" x2="288.7680850139919" y2="60.406828581193764" stroke="rgb(35%, 35%, 35%)" stroke-width="1.0" />
<line x1="297.81728882928013" y1="64.66263758881766" x2="306.8664926445684" y2="68.91844659644158" stroke="rgb(35%, 35%, 35%)" stroke-width="1.0" />
<line x1="315.91569645985663" y1="73.17425560406548" x2="324.9649002751449" y2="77.4300646116894" stroke="rgb(35%, 35%, 35%)" stroke-width="1.0" />
<line x1="334.39442002828474" y1="78.58751513465646" x2="341.75180371024715" y2="77.13183279548727" stroke="rgb(35%, 35%, 35%)" stroke-width="1.0" />
<line x1="351.1813230410127" y1="78.28928421655618" x2="357.96823164656206" y2="81.48114531881245" stroke="rgb(35%, 35%, 35%)" stroke-width="1.0" />
<line x1="364.87352426634766" y1="88.00590297228516" x2="368.44456432382054" y2="94.60118754719932" stroke="rgb(35%, 35%, 35%)" stroke-width="1.0" />
<line x1="375.3498565212317" y1="101.12594609877377" x2="384.39905864702234" y2="105.38175869880499" stroke="rgb(35%, 35%, 35%)" stroke-width="1.0" />
<line x1="393.4482607728131" y1="109.6375712988362" x2="402.4974628986038" y2="113.89338389886743" stroke="rgb(35%, 35%, 35%)" stroke-width="1.0" />
<line x1="411.5466650243946" y1="118.14919649889865" x2="420.5958671501853" y2="122.40500909892987" stroke="rgb(35%, 35%, 35%)" stroke-width="1.0" />
<line x1="430.1000512252146" y1="124.08152529574491" x2="437.56940160861393" y2="123.40444232871977" stroke="rgb(35%, 35%, 35%)" stroke-width="1.0" />
<line x1="446.64760826123296" y1="125.81684066981047" x2="452.7955238569504" y2="130.11250945617644" stroke="rgb(35%, 35%, 35%)" stroke-width="1.0" />
<line x1="458.18275385607865" y1="137.80739442739247" x2="460.1156571484885" y2="145.05401580265524" stroke="rgb(35%, 35%, 35%)" stroke-width="1.0" />
<line x1="459.27635720711595" y1="154.40971339247537" x2="456.08450807052566" y2="161.19659305720137" stroke="rgb(35%, 35%, 35%)" stroke-width="1.0" />
<line x1="449.41370303917455" y1="167.8097513055314" x2="442.59937696047274" y2="170.94257696096568" stroke="rgb(35%, 35%, 35%)" stroke-width="1.0" />
<line x1="433.23674745923574" y1="171.70064727849652" x2="426.00717466442086" y2="169.70492342518003" stroke="rgb(35%, 35%, 35%)" stroke-width="1.0" />
<line x1="418.359335226325" y1="164.25111249035103" x2="414.1171859311735" y2="158.0661463746905" stroke="rgb(35%, 35%, 35%)" stroke-width="1.0" />
<line x1="406.7644762000838" y1="151.81491600774973" x2="397.7152740742931" y2="147.5591034077185" stroke="rgb(35%, 35%, 35%)" stroke-width="1.0" />
<line x1="388.66607194850235" y1="143.3032908076873" x2="379.6168698227117" y2="139.04747820765607" stroke="rgb(35%, 35%, 35%)" stroke-width="1.0" />
<line x1="370.5676676969209" y1="134.79166560762485" x2="361.5184655711302" y2="130.53585300759363" stroke="rgb(35%, 35%, 35%)" stroke-width="1.0" />
<line x1="352.0889464059015" y1="129.37839939030027" x2="344.7315692524015" y2="130.83407841438367" stroke="rgb(35%, 35%, 35%)" stroke-width="1.0" />
<line x1="335.30204966479835" y1="129.67662569519212" x2="328.5151474368936" y2="126.48476759232135" stroke="rgb(35%, 35%, 35%)" stroke-width="1.0" />
<line x1="321.60985365344874" y1="119.96001056891627" x2="318.03881520618626" y2="113.36473313667939" stroke="rgb(35%, 35%, 35%)" stroke-width="1.0" />
<line x1="311.1335210003671" y1="106.83997701137618" x2="302.08431718507893" y2="102.58416800375228" stroke="rgb(35%, 35%, 35%)" stroke-width="1.0" />
<line x1="293.0351133697907" y1="98.32835899612834" x2="283.9859095545025" y2="94.07254998850445" stroke="rgb(35%, 35%, 35%)" stroke-width="1.0" />
<line x1="274.93670573921423" y1="89.81674098088055" x2="265.887501923926" y2="85.56093197325663" stroke="rgb(35%, 35%, 35%)" stroke-width="1.0" />
<line x1="256.48319666780765" y1="82.34284618594651" x2="249.1636416450964" y2="80.70757426069926" stroke="rgb(35%, 35%, 35%)" stroke-width="1.0" />
<line x1="239.28393829662218" y1="79.61739297720109" x2="229.28393829662218" y2="79.61739297720109" stroke="rgb(35%, 35%, 35%)" stroke-width="1.0" />
<line x1="220.74840439068944" y1="83.15292688313383" x2="218.27007543193295" y2="85.63125584189032" stroke="rgb(35%, 35%, 35%)" stroke-width="1.0" />
<line x1="214.7345415260002" y1="94.16678974782306" x2="214.7345415260002" y2="104.16678974782306" stroke="rgb(35%, 35%, 35%)" stroke-width="1.0" />
<line x1="214.7345415260002" y1="114.16678974782306" x2="214.7345415260002" y2="124.16678974782306" stroke="rgb(35%, 35%, 35%)" stroke-width="1.0" />
<line x1="214.7345415260002" y1="134.16678974782306" x2="214.7345415260002" y2="144.16678974782306" stroke="rgb(35%, 35%, 35%)" stroke-width="1.0" />
<line x1="214.7345415260002" y1="154.16678974782306" x2="214.7345415260002" y2="164.16678974782306" stroke="rgb(35%, 35%, 35%)" stroke-width="1.0" />
<line x1="214.7345415260002" y1="174.16678974782306" x2="214.7345415260002" y2="184.16678974782306" stroke="rgb(35%, 35%, 35%)" stroke-width="1.0" />
<line x1="219.7345415260002" y1="189.16678974782306" x2="227.2345415260002" y2="189.16678974782306" stroke="rgb(35%, 35%, 35%)" stroke-width="1.0" />
<line x1="187.2345415260002" y1="187.91678974782306" x2="209.7345415260002" y2="187.91678974782306" stroke="rgb(0%, 0%, 100%)" stroke-width="1.0" />
<line x1="187.2345415260002" y1="190.41678974782306" x2="209.7345415260002" y2="190.41678974782306" stroke="rgb(0%, 0%, 100%)" stroke-width="1.0" />
<line x1="187.2345415260002" y1="167.91678974782306" x2="209.7345415260002" y2="167.91678974782306" stroke="rgb(0%, 0%, 100%)" stroke-width="1.0" />
<line x1="187.2345415260002" y1="170.41678974782306" x2="209.7345415260002" y2="170.41678974782306" stroke="rgb(0%, 0%, 100%)" stroke-width="1.0" />
<line x1="187.2345415260002" y1="147.91678974782306" x2="209.7345415260002" y2="147.91678974782306" stroke="rgb(0%, 0%, 100%)" stroke-width="1.0" />
<line x1="187.2345415260002" y1="150.41678974782306" x2="209.7345415260002" y2="150.41678974782306" stroke="rgb(0%, 0%, 100%)" stroke-width="1.0" />
<line x1="187.2345415260002" y1="129.16678974782306" x2="209.7345415260002" y2="129.16678974782306" stroke="rgb(0%, 0%, 100%)" stroke-width="1.0" />
<line x1="187.2345415260002" y1="107.91678974782306" x2="209.7345415260002" y2="107.91678974782306" stroke="rgb(0%, 0%, 100%)" stroke-width="1.0" />
<line x1="187.2345415260002" y1="110.41678974782306" x2="209.7345415260002" y2="110.41678974782306" stroke="rgb(0%, 0%, 100%)" stroke-width="1.0" />
<line x1="187.2345415260002" y1="89.16678974782306" x2="209.7345415260002" y2="89.16678974782306" stroke="rgb(0%, 0%, 100%)" stroke-width="1.0" />
<line x1="169.4107135624371" y1="66.965294198701" x2="175.43424414962553" y2="45.28657008344908" stroke="rgb(0%, 0%, 100%)" stroke-width="1.0" />
<line x1="171.819460686354" y1="67.63457537505528" x2="177.84299127354242" y2="45.95585125980335" stroke="rgb(0%, 0%, 100%)" stroke-width="1.0" />
<line x1="150.14073657110205" y1="61.61104478786689" x2="156.16426715829044" y2="39.932320672614935" stroke="rgb(0%, 0%, 100%)" stroke-width="1.0" />
<line x1="152.54948369501895" y1="62.28032596422116" x2="158.57301428220734" y2="40.60160184896921" stroke="rgb(0%, 0%, 100%)" stroke-width="1.0" />
<line x1="130.870759579767" y1="56.25679537703277" x2="136.89429016695541" y2="34.57807126178082" stroke="rgb(0%, 0%, 100%)" stroke-width="1.0" />
<line x1="133.2795067036839" y1="56.92607655338705" x2="139.3030372908723" y2="35.247352438135096" stroke="rgb(0%, 0%, 100%)" stroke-width="1.0" />
<line x1="111.60078258843197" y1="50.90254596619866" x2="117.62431317562036" y2="29.223821850946706" stroke="rgb(0%, 0%, 100%)" stroke-width="1.0" />
<line x1="114.00952971234884" y1="51.571827142552934" x2="120.03306029953725" y2="29.89310302730098" stroke="rgb(0%, 0%, 100%)" stroke-width="1.0" />
<line x1="93.15050765711466" y1="50.229600497244434" x2="89.37542694855635" y2="28.04855530897902" stroke="rgb(0%, 0%, 100%)" stroke-width="1.0" />
<circle cx="91.2629673028355" cy="39.13907790311171" r="2.75" stroke="none" stroke-width="1.0" fill="rgb(100%, 100%, 100%)"/>
<circle cx="91.2629673028355" cy="39.13907790311171" r="2.75" stroke="rgb(0%, 0%, 100%)" stroke-width="1.0" fill="none"/>
<line x1="73.43402304532317" y1="53.58522779374067" x2="69.65894233676487" y2="31.404182605475285" stroke="rgb(0%, 0%, 100%)" stroke-width="1.0" />
<line x1="59.635157495649594" y1="75.0745729608918" x2="37.54255448490747" y2="79.33683670328841" stroke="rgb(0%, 0%, 100%)" stroke-width="1.0" />
<line x1="59.161572635383294" y1="72.61983929303156" x2="37.068969624641184" y2="76.88210303542817" stroke="rgb(0%, 0%, 100%)" stroke-width="1.0" />
<line x1="63.423836377779935" y1="94.71244230377366" x2="41.33123336703781" y2="98.97470604617028" stroke="rgb(0%, 0%, 100%)" stroke-width="1.0" />
<line x1="62.950251517513635" y1="92.25770863591342" x2="40.857648506771525" y2="96.51997237831003" stroke="rgb(0%, 0%, 100%)" stroke-width="1.0" />
<line x1="62.01745569911341" y1="124.17592706506493" x2="40.211470910891826" y2="118.63074650751342" stroke="rgb(0%, 0%, 100%)" stroke-width="1.0" />
<line x1="62.6335868721747" y1="121.75303986637364" x2="40.8276020839531" y2="116.20785930882214" stroke="rgb(0%, 0%, 100%)" stroke-width="1.0" />
<line x1="57.396471901153845" y1="142.34758105524963" x2="35.59048711293225" y2="136.8024004976981" stroke="rgb(0%, 0%, 100%)" stroke-width="1.0" />
<line x1="52.467422516663575" y1="161.73067864477994" x2="30.66143772844198" y2="156.1854980872284" stroke="rgb(0%, 0%, 100%)" stroke-width="1.0" />
<line x1="47.23030754564267" y1="182.32521983365592" x2="25.424322757421074" y2="176.7800392761044" stroke="rgb(0%, 0%, 100%)" stroke-width="1.0" />
<line x1="47.84643871870394" y1="179.90233263496464" x2="26.04045393048235" y2="174.3571520774131" stroke="rgb(0%, 0%, 100%)" stroke-width="1.0" />
<line x1="224.28393829662218" y1="52.11739297720109" x2="224.28393829662218" y2="74.61739297720109" stroke="rgb(0%, 0%, 100%)" stroke-width="1.0" />
<line x1="245.53393829662218" y1="52.11739297720109" x2="245.53393829662218" y2="74.61739297720109" stroke="rgb(0%, 0%, 100%)" stroke-width="1.0" />
<line x1="243.03393829662218" y1="52.11739297720109" x2="243.03393829662218" y2="74.61739297720109" stroke="rgb(0%, 0%, 100%)" stroke-width="1.0" />
<line x1="274.1975252641586" y1="59.079693103355" x2="264.6219549970049" y2="79.44040168775356" stroke="rgb(0%, 0%, 100%)" stroke-width="1.0" />
<line x1="271.93522431033654" y1="58.01574085144904" x2="262.3596540431828" y2="78.37644943584755" stroke="rgb(0%, 0%, 100%)" stroke-width="1.0" />
<line x1="292.29593289473513" y1="67.59131111860282" x2="282.7203626275813" y2="87.95201970300135" stroke="rgb(0%, 0%, 100%)" stroke-width="1.0" />
<line x1="290.03363194091304" y1="66.52735886669686" x2="280.45806167375923" y2="86.8880674510954" stroke="rgb(0%, 0%, 100%)" stroke-width="1.0" />
<line x1="309.26319004840053" y1="75.57095300789766" x2="299.6876197812468" y2="95.9316615922962" stroke="rgb(0%, 0%, 100%)" stroke-width="1.0" />
<line x1="327.36159767897703" y1="84.08257102314545" x2="317.7860274118232" y2="104.44327960754403" stroke="rgb(0%, 0%, 100%)" stroke-width="1.0" />
<circle cx="322.57381254540013" cy="94.26292531534475" r="2.75" stroke="none" stroke-width="1.0" fill="rgb(100%, 100%, 100%)"/>
<circle cx="322.57381254540013" cy="94.26292531534475" r="2.75" stroke="rgb(0%, 0%, 100%)" stroke-width="1.0" fill="none"/>
<line x1="369.8284994240445" y1="104.05461743665744" x2="360.2529210739743" y2="124.41532221968656" stroke="rgb(0%, 0%, 100%)" stroke-width="1.0" />
<line x1="367.56619889259684" y1="102.99066428664962" x2="357.99062054252664" y2="123.35136906967875" stroke="rgb(0%, 0%, 100%)" stroke-width="1.0" />
<line x1="386.79575340990215" y1="112.03426606171597" x2="377.2201750598319" y2="132.3949708447451" stroke="rgb(0%, 0%, 100%)" stroke-width="1.0" />
<line x1="406.0253079272074" y1="121.07786783678232" x2="396.4497295771372" y2="141.43857261981145" stroke="rgb(0%, 0%, 100%)" stroke-width="1.0" />
<line x1="403.76300739575976" y1="120.0139146867745" x2="394.18742904568956" y2="140.37461946980363" stroke="rgb(0%, 0%, 100%)" stroke-width="1.0" />
<line x1="424.1237121787889" y1="129.58949303684474" x2="414.5481338287186" y2="149.9501978198739" stroke="rgb(0%, 0%, 100%)" stroke-width="1.0" />
<line x1="421.86141164734124" y1="128.52553988683695" x2="412.285833297271" y2="148.88624466986607" stroke="rgb(0%, 0%, 100%)" stroke-width="1.0" />
<circle cx="182.2345415260002" cy="189.16678974782306" r="5.0" stroke="none" stroke-width="1.0" fill="rgb(94%, 94%, 94%)"/>
<circle cx="182.2345415260002" cy="189.16678974782306" r="5.0" stroke="rgb(35%, 35%, 35%)" stroke-width="1.0" fill="none"/>
<text x="182.2345415260002" y="192.16678974782306" text-anchor="middle" font-family="Verdana" font-size="7.5" fill="rgb(0%, 0%, 0%)" >G</text>
<circle cx="182.2345415260002" cy="169.16678974782306" r="5.0" stroke="none" stroke-width="1.0" fill="rgb(94%, 94%, 94%)"/>
<circle cx="182.2345415260002" cy="169.16678974782306" r="5.0" stroke="rgb(35%, 35%, 35%)" stroke-width="1.0" fill="none"/>
<text x="182.2345415260002" y="172.16678974782306" text-anchor="middle" font-family="Verdana" font-size="7.5" fill="rgb(0%, 0%, 0%)" >C</text>
<circle cx="182.2345415260002" cy="149.16678974782306" r="5.0" stroke="none" stroke-width="1.0" fill="rgb(94%, 94%, 94%)"/>
<circle cx="182.2345415260002" cy="149.16678974782306" r="5.0" stroke="rgb(35%, 35%, 35%)" stroke-width="1.0" fill="none"/>
<text x="182.2345415260002" y="152.16678974782306" text-anchor="middle" font-family="Verdana" font-size="7.5" fill="rgb(0%, 0%, 0%)" >G</text>
<circle cx="182.2345415260002" cy="129.16678974782306" r="5.0" stroke="none" stroke-width="1.0" fill="rgb(94%, 94%, 94%)"/>
<circle cx="182.2345415260002" cy="129.16678974782306" r="5.0" stroke="rgb(35%, 35%, 35%)" stroke-width="1.0" fill="none"/>
<text x="182.2345415260002" y="132.16678974782306" text-anchor="middle" font-family="Verdana" font-size="7.5" fill="rgb(0%, 0%, 0%)" >A</text>
<circle cx="182.2345415260002" cy="109.16678974782306" r="5.0" stroke="none" stroke-width="1.0" fill="rgb(94%, 94%, 94%)"/>
<circle cx="182.2345415260002" cy="109.16678974782306" r="5.0" stroke="rgb(35%, 35%, 35%)" stroke-width="1.0" fill="none"/>
<text x="182.2345415260002" y="112.16678974782306" text-anchor="middle" font-family="Verdana" font-size="7.5" fill="rgb(0%, 0%, 0%)" >C</text>
<circle cx="182.2345415260002" cy="89.16678974782306" r="5.0" stroke="none" stroke-width="1.0" fill="rgb(94%, 94%, 94%)"/>
<circle cx="182.2345415260002" cy="89.16678974782306" r="5.0" stroke="rgb(35%, 35%, 35%)" stroke-width="1.0" fill="none"/>
<text x="182.2345415260002" y="92.16678974782306" text-anchor="middle" font-family="Verdana" font-size="7.5" fill="rgb(0%, 0%, 0%)" >U</text>
<circle cx="169.27652477168704" cy="72.1174290347119" r="5.0" stroke="none" stroke-width="1.0" fill="rgb(94%, 94%, 94%)"/>
<circle cx="169.27652477168704" cy="72.1174290347119" r="5.0" stroke="rgb(35%, 35%, 35%)" stroke-width="1.0" fill="none"/>
<text x="169.27652477168704" y="75.1174290347119" text-anchor="middle" font-family="Verdana" font-size="7.5" fill="rgb(0%, 0%, 0%)" >C</text>
<circle cx="150.00654778035198" cy="66.76317962387779" r="5.0" stroke="none" stroke-width="1.0" fill="rgb(94%, 94%, 94%)"/>
<circle cx="150.00654778035198" cy="66.76317962387779" r="5.0" stroke="rgb(35%, 35%, 35%)" stroke-width="1.0" fill="none"/>
<text x="150.00654778035198" y="69.76317962387779" text-anchor="middle" font-family="Verdana" font-size="7.5" fill="rgb(0%, 0%, 0%)" >G</text>
<circle cx="130.73657078901692" cy="61.408930213043675" r="5.0" stroke="none" stroke-width="1.0" fill="rgb(94%, 94%, 94%)"/>
<circle cx="130.73657078901692" cy="61.408930213043675" r="5.0" stroke="rgb(35%, 35%, 35%)" stroke-width="1.0" fill="none"/>
<text x="130.73657078901692" y="64.40893021304367" text-anchor="middle" font-family="Verdana" font-size="7.5" fill="rgb(0%, 0%, 0%)" >G</text>
<circle cx="111.46659379768187" cy="56.05468080220956" r="5.0" stroke="none" stroke-width="1.0" fill="rgb(94%, 94%, 94%)"/>
<circle cx="111.46659379768187" cy="56.05468080220956" r="5.0" stroke="rgb(35%, 35%, 35%)" stroke-width="1.0" fill="none"/>
<text x="111.46659379768187" y="59.05468080220956" text-anchor="middle" font-family="Verdana" font-size="7.5" fill="rgb(0%, 0%, 0%)" >G</text>
<circle cx="93.98941448123873" cy="55.15872165019229" r="5.0" stroke="none" stroke-width="1.0" fill="rgb(94%, 94%, 94%)"/>
<circle cx="93.98941448123873" cy="55.15872165019229" r="5.0" stroke="rgb(35%, 35%, 35%)" stroke-width="1.0" fill="none"/>
<text x="93.98941448123873" y="58.15872165019229" text-anchor="middle" font-family="Verdana" font-size="7.5" fill="rgb(0%, 0%, 0%)" >G</text>
<circle cx="74.27292986944724" cy="58.51434894668853" r="5.0" stroke="none" stroke-width="1.0" fill="rgb(94%, 94%, 94%)"/>
<circle cx="74.27292986944724" cy="58.51434894668853" r="5.0" stroke="rgb(35%, 35%, 35%)" stroke-width="1.0" fill="none"/>
<text x="74.27292986944724" y="61.51434894668853" text-anchor="middle" font-family="Verdana" font-size="7.5" fill="rgb(0%, 0%, 0%)" >U</text>
<circle cx="64.30783240123691" cy="72.90003640642911" r="5.0" stroke="none" stroke-width="1.0" fill="rgb(94%, 94%, 94%)"/>
<circle cx="64.30783240123691" cy="72.90003640642911" r="5.0" stroke="rgb(35%, 35%, 35%)" stroke-width="1.0" fill="none"/>
<text x="64.30783240123691" y="75.90003640642911" text-anchor="middle" font-family="Verdana" font-size="7.5" fill="rgb(0%, 0%, 0%)" >G</text>
<circle cx="68.09651128336725" cy="92.53790574931097" r="5.0" stroke="none" stroke-width="1.0" fill="rgb(94%, 94%, 94%)"/>
<circle cx="68.09651128336725" cy="92.53790574931097" r="5.0" stroke="rgb(35%, 35%, 35%)" stroke-width="1.0" fill="none"/>
<text x="68.09651128336725" y="95.53790574931097" text-anchor="middle" font-family="Verdana" font-size="7.5" fill="rgb(0%, 0%, 0%)" >C</text>
<circle cx="75.07839085072214" cy="108.58488763171715" r="5.0" stroke="none" stroke-width="1.0" fill="rgb(94%, 94%, 94%)"/>
<circle cx="75.07839085072214" cy="108.58488763171715" r="5.0" stroke="rgb(35%, 35%, 35%)" stroke-width="1.0" fill="none"/>
<text x="75.07839085072214" y="111.58488763171715" text-anchor="middle" font-family="Verdana" font-size="7.5" fill="rgb(0%, 0%, 0%)" >C</text>
<circle cx="67.17129568302664" cy="124.19674581184185" r="5.0" stroke="none" stroke-width="1.0" fill="rgb(94%, 94%, 94%)"/>
<circle cx="67.17129568302664" cy="124.19674581184185" r="5.0" stroke="rgb(35%, 35%, 35%)" stroke-width="1.0" fill="none"/>
<text x="67.17129568302664" y="127.19674581184185" text-anchor="middle" font-family="Verdana" font-size="7.5" fill="rgb(0%, 0%, 0%)" >C</text>
<circle cx="62.24224629853643" cy="143.5798434013722" r="5.0" stroke="none" stroke-width="1.0" fill="rgb(94%, 94%, 94%)"/>
<circle cx="62.24224629853643" cy="143.5798434013722" r="5.0" stroke="rgb(35%, 35%, 35%)" stroke-width="1.0" fill="none"/>
<text x="62.24224629853643" y="146.5798434013722" text-anchor="middle" font-family="Verdana" font-size="7.5" fill="rgb(0%, 0%, 0%)" >U</text>
<circle cx="57.31319691404616" cy="162.9629409909025" r="5.0" stroke="none" stroke-width="1.0" fill="rgb(94%, 94%, 94%)"/>
<circle cx="57.31319691404616" cy="162.9629409909025" r="5.0" stroke="rgb(35%, 35%, 35%)" stroke-width="1.0" fill="none"/>
<text x="57.31319691404616" y="165.9629409909025" text-anchor="middle" font-family="Verdana" font-size="7.5" fill="rgb(0%, 0%, 0%)" >U</text>
<circle cx="52.38414752955589" cy="182.34603858043283" r="5.0" stroke="none" stroke-width="1.0" fill="rgb(94%, 94%, 94%)"/>
<circle cx="52.38414752955589" cy="182.34603858043283" r="5.0" stroke="rgb(35%, 35%, 35%)" stroke-width="1.0" fill="none"/>
<text x="52.38414752955589" y="185.34603858043283" text-anchor="middle" font-family="Verdana" font-size="7.5" fill="rgb(0%, 0%, 0%)" >C</text>
<circle cx="54.83767103789688" cy="199.6732146409363" r="5.0" stroke="none" stroke-width="1.0" fill="rgb(94%, 94%, 94%)"/>
<circle cx="54.83767103789688" cy="199.6732146409363" r="5.0" stroke="rgb(35%, 35%, 35%)" stroke-width="1.0" fill="none"/>
<text x="54.83767103789688" y="202.6732146409363" text-anchor="middle" font-family="Verdana" font-size="7.5" fill="rgb(0%, 0%, 0%)" >U</text>
<circle cx="44.33729434680322" cy="213.67296096659533" r="5.0" stroke="none" stroke-width="1.0" fill="rgb(94%, 94%, 94%)"/>
<circle cx="44.33729434680322" cy="213.67296096659533" r="5.0" stroke="rgb(35%, 35%, 35%)" stroke-width="1.0" fill="none"/>
<text x="44.33729434680322" y="216.67296096659533" text-anchor="middle" font-family="Verdana" font-size="7.5" fill="rgb(0%, 0%, 0%)" >G</text>
<circle cx="27.016089377561684" cy="216.16828985297232" r="5.0" stroke="none" stroke-width="1.0" fill="rgb(94%, 94%, 94%)"/>
<circle cx="27.016089377561684" cy="216.16828985297232" r="5.0" stroke="rgb(35%, 35%, 35%)" stroke-width="1.0" fill="none"/>
<text x="27.016089377561684" y="219.16828985297232" text-anchor="middle" font-family="Verdana" font-size="7.5" fill="rgb(0%, 0%, 0%)" >C</text>
<circle cx="12.99104516446198" cy="205.70172677532997" r="5.0" stroke="none" stroke-width="1.0" fill="rgb(94%, 94%, 94%)"/>
<circle cx="12.99104516446198" cy="205.70172677532997" r="5.0" stroke="rgb(35%, 35%, 35%)" stroke-width="1.0" fill="none"/>
<text x="12.99104516446198" y="208.70172677532997" text-anchor="middle" font-family="Verdana" font-size="7.5" fill="rgb(0%, 0%, 0%)" >G</text>
<circle cx="10.453925430716595" cy="188.38659376127822" r="5.0" stroke="none" stroke-width="1.0" fill="rgb(94%, 94%, 94%)"/>
<circle cx="10.453925430716595" cy="188.38659376127822" r="5.0" stroke="rgb(35%, 35%, 35%)" stroke-width="1.0" fill="none"/>
<text x="10.453925430716595" y="191.38659376127822" text-anchor="middle" font-family="Verdana" font-size="7.5" fill="rgb(0%, 0%, 0%)" >U</text>
<circle cx="20.886613946569128" cy="174.3363333306362" r="5.0" stroke="none" stroke-width="1.0" fill="rgb(94%, 94%, 94%)"/>
<circle cx="20.886613946569128" cy="174.3363333306362" r="5.0" stroke="rgb(35%, 35%, 35%)" stroke-width="1.0" fill="none"/>
<text x="20.886613946569128" y="177.3363333306362" text-anchor="middle" font-family="Verdana" font-size="7.5" fill="rgb(0%, 0%, 0%)" >G</text>
<circle cx="25.815663331059397" cy="154.95323574110586" r="5.0" stroke="none" stroke-width="1.0" fill="rgb(94%, 94%, 94%)"/>
<circle cx="25.815663331059397" cy="154.95323574110586" r="5.0" stroke="rgb(35%, 35%, 35%)" stroke-width="1.0" fill="none"/>
<text x="25.815663331059397" y="157.95323574110586" text-anchor="middle" font-family="Verdana" font-size="7.5" fill="rgb(0%, 0%, 0%)" >A</text>
<circle cx="30.744712715549667" cy="135.57013815157555" r="5.0" stroke="none" stroke-width="1.0" fill="rgb(94%, 94%, 94%)"/>
<circle cx="30.744712715549667" cy="135.57013815157555" r="5.0" stroke="rgb(35%, 35%, 35%)" stroke-width="1.0" fill="none"/>
<text x="30.744712715549667" y="138.57013815157555" text-anchor="middle" font-family="Verdana" font-size="7.5" fill="rgb(0%, 0%, 0%)" >A</text>
<circle cx="35.67376210003988" cy="116.18704056204521" r="5.0" stroke="none" stroke-width="1.0" fill="rgb(94%, 94%, 94%)"/>
<circle cx="35.67376210003988" cy="116.18704056204521" r="5.0" stroke="rgb(35%, 35%, 35%)" stroke-width="1.0" fill="none"/>
<text x="35.67376210003988" y="119.18704056204521" text-anchor="middle" font-family="Verdana" font-size="7.5" fill="rgb(0%, 0%, 0%)" >G</text>
<circle cx="36.1849736011842" cy="98.69450893277275" r="5.0" stroke="none" stroke-width="1.0" fill="rgb(94%, 94%, 94%)"/>
<circle cx="36.1849736011842" cy="98.69450893277275" r="5.0" stroke="rgb(35%, 35%, 35%)" stroke-width="1.0" fill="none"/>
<text x="36.1849736011842" y="101.69450893277275" text-anchor="middle" font-family="Verdana" font-size="7.5" fill="rgb(0%, 0%, 0%)" >G</text>
<circle cx="32.396294719053856" cy="79.05663958989086" r="5.0" stroke="none" stroke-width="1.0" fill="rgb(94%, 94%, 94%)"/>
<circle cx="32.396294719053856" cy="79.05663958989086" r="5.0" stroke="rgb(35%, 35%, 35%)" stroke-width="1.0" fill="none"/>
<text x="32.396294719053856" y="82.05663958989086" text-anchor="middle" font-family="Verdana" font-size="7.5" fill="rgb(0%, 0%, 0%)" >C</text>
<circle cx="17.79483012619653" cy="69.41054028791743" r="5.0" stroke="none" stroke-width="1.0" fill="rgb(94%, 94%, 94%)"/>
<circle cx="17.79483012619653" cy="69.41054028791743" r="5.0" stroke="rgb(35%, 35%, 35%)" stroke-width="1.0" fill="none"/>
<text x="17.79483012619653" y="72.41054028791743" text-anchor="middle" font-family="Verdana" font-size="7.5" fill="rgb(0%, 0%, 0%)" >U</text>
<circle cx="10.087688446044922" cy="53.6990805491767" r="5.0" stroke="none" stroke-width="1.0" fill="rgb(94%, 94%, 94%)"/>
<circle cx="10.087688446044922" cy="53.6990805491767" r="5.0" stroke="rgb(35%, 35%, 35%)" stroke-width="1.0" fill="none"/>
<text x="10.087688446044922" y="56.6990805491767" text-anchor="middle" font-family="Verdana" font-size="7.5" fill="rgb(0%, 0%, 0%)" >G</text>
<circle cx="11.39688890483643" cy="36.24812085755224" r="5.0" stroke="none" stroke-width="1.0" fill="rgb(94%, 94%, 94%)"/>
<circle cx="11.39688890483643" cy="36.24812085755224" r="5.0" stroke="rgb(35%, 35%, 35%)" stroke-width="1.0" fill="none"/>
<text x="11.39688890483643" y="39.24812085755224" text-anchor="middle" font-family="Verdana" font-size="7.5" fill="rgb(0%, 0%, 0%)" >A</text>
<circle cx="21.361967317552967" cy="21.862460906461678" r="5.0" stroke="none" stroke-width="1.0" fill="rgb(94%, 94%, 94%)"/>
<circle cx="21.361967317552967" cy="21.862460906461678" r="5.0" stroke="rgb(35%, 35%, 35%)" stroke-width="1.0" fill="none"/>
<text x="21.361967317552967" y="24.862460906461678" text-anchor="middle" font-family="Verdana" font-size="7.5" fill="rgb(0%, 0%, 0%)" >G</text>
<circle cx="37.23922324889509" cy="14.502926675910118" r="5.0" stroke="none" stroke-width="1.0" fill="rgb(94%, 94%, 94%)"/>
<circle cx="37.23922324889509" cy="14.502926675910118" r="5.0" stroke="rgb(35%, 35%, 35%)" stroke-width="1.0" fill="none"/>
<text x="37.23922324889509" y="17.502926675910118" text-anchor="middle" font-family="Verdana" font-size="7.5" fill="rgb(0%, 0%, 0%)" >A</text>
<circle cx="54.657147293117305" cy="16.195830095987134" r="5.0" stroke="none" stroke-width="1.0" fill="rgb(94%, 94%, 94%)"/>
<circle cx="54.657147293117305" cy="16.195830095987134" r="5.0" stroke="rgb(35%, 35%, 35%)" stroke-width="1.0" fill="none"/>
<text x="54.657147293117305" y="19.195830095987134" text-anchor="middle" font-family="Verdana" font-size="7.5" fill="rgb(0%, 0%, 0%)" >A</text>
<circle cx="68.8200355126408" cy="26.475061452527427" r="5.0" stroke="none" stroke-width="1.0" fill="rgb(94%, 94%, 94%)"/>
<circle cx="68.8200355126408" cy="26.475061452527427" r="5.0" stroke="rgb(35%, 35%, 35%)" stroke-width="1.0" fill="none"/>
<text x="68.8200355126408" y="29.475061452527427" text-anchor="middle" font-family="Verdana" font-size="7.5" fill="rgb(0%, 0%, 0%)" >A</text>
<circle cx="88.53652012443229" cy="23.11943415603116" r="5.0" stroke="none" stroke-width="1.0" fill="rgb(94%, 94%, 94%)"/>
<circle cx="88.53652012443229" cy="23.11943415603116" r="5.0" stroke="rgb(35%, 35%, 35%)" stroke-width="1.0" fill="none"/>
<text x="88.53652012443229" y="26.11943415603116" text-anchor="middle" font-family="Verdana" font-size="7.5" fill="rgb(0%, 0%, 0%)" >U</text>
<circle cx="104.73318205820328" cy="16.49235771138885" r="5.0" stroke="none" stroke-width="1.0" fill="rgb(94%, 94%, 94%)"/>
<circle cx="104.73318205820328" cy="16.49235771138885" r="5.0" stroke="rgb(35%, 35%, 35%)" stroke-width="1.0" fill="none"/>
<text x="104.73318205820328" y="19.49235771138885" text-anchor="middle" font-family="Verdana" font-size="7.5" fill="rgb(0%, 0%, 0%)" >A</text>
<circle cx="120.16724909028733" cy="24.74096819129008" r="5.0" stroke="none" stroke-width="1.0" fill="rgb(94%, 94%, 94%)"/>
<circle cx="120.16724909028733" cy="24.74096819129008" r="5.0" stroke="rgb(35%, 35%, 35%)" stroke-width="1.0" fill="none"/>
<text x="120.16724909028733" y="27.74096819129008" text-anchor="middle" font-family="Verdana" font-size="7.5" fill="rgb(0%, 0%, 0%)" >C</text>
<circle cx="139.43722608162238" cy="30.095217602124194" r="5.0" stroke="none" stroke-width="1.0" fill="rgb(94%, 94%, 94%)"/>
<circle cx="139.43722608162238" cy="30.095217602124194" r="5.0" stroke="rgb(35%, 35%, 35%)" stroke-width="1.0" fill="none"/>
<text x="139.43722608162238" y="33.095217602124194" text-anchor="middle" font-family="Verdana" font-size="7.5" fill="rgb(0%, 0%, 0%)" >C</text>
<circle cx="158.7072030729574" cy="35.44946701295831" r="5.0" stroke="none" stroke-width="1.0" fill="rgb(94%, 94%, 94%)"/>
<circle cx="158.7072030729574" cy="35.44946701295831" r="5.0" stroke="rgb(35%, 35%, 35%)" stroke-width="1.0" fill="none"/>
<text x="158.7072030729574" y="38.44946701295831" text-anchor="middle" font-family="Verdana" font-size="7.5" fill="rgb(0%, 0%, 0%)" >C</text>
<circle cx="177.9771800642925" cy="40.80371642379245" r="5.0" stroke="none" stroke-width="1.0" fill="rgb(94%, 94%, 94%)"/>
<circle cx="177.9771800642925" cy="40.80371642379245" r="5.0" stroke="rgb(35%, 35%, 35%)" stroke-width="1.0" fill="none"/>
<text x="177.9771800642925" y="43.80371642379245" text-anchor="middle" font-family="Verdana" font-size="7.5" fill="rgb(0%, 0%, 0%)" >G</text>
<circle cx="193.7606048883595" cy="33.245045851328996" r="5.0" stroke="none" stroke-width="1.0" fill="rgb(94%, 94%, 94%)"/>
<circle cx="193.7606048883595" cy="33.245045851328996" r="5.0" stroke="rgb(35%, 35%, 35%)" stroke-width="1.0" fill="none"/>
<text x="193.7606048883595" y="36.245045851328996" text-anchor="middle" font-family="Verdana" font-size="7.5" fill="rgb(0%, 0%, 0%)" >U</text>
<circle cx="211.10017700937533" cy="35.609202923118204" r="5.0" stroke="none" stroke-width="1.0" fill="rgb(94%, 94%, 94%)"/>
<circle cx="211.10017700937533" cy="35.609202923118204" r="5.0" stroke="rgb(35%, 35%, 35%)" stroke-width="1.0" fill="none"/>
<text x="211.10017700937533" y="38.609202923118204" text-anchor="middle" font-family="Verdana" font-size="7.5" fill="rgb(0%, 0%, 0%)" >A</text>
<circle cx="224.28393829662218" cy="47.11739297720109" r="5.0" stroke="none" stroke-width="1.0" fill="rgb(94%, 94%, 94%)"/>
<circle cx="224.28393829662218" cy="47.11739297720109" r="5.0" stroke="rgb(35%, 35%, 35%)" stroke-width="1.0" fill="none"/>
<text x="224.28393829662218" y="50.11739297720109" text-anchor="middle" font-family="Verdana" font-size="7.5" fill="rgb(0%, 0%, 0%)" >U</text>
<circle cx="244.28393829662218" cy="47.11739297720109" r="5.0" stroke="none" stroke-width="1.0" fill="rgb(94%, 94%, 94%)"/>
<circle cx="244.28393829662218" cy="47.11739297720109" r="5.0" stroke="rgb(35%, 35%, 35%)" stroke-width="1.0" fill="none"/>
<text x="244.28393829662218" y="50.11739297720109" text-anchor="middle" font-family="Verdana" font-size="7.5" fill="rgb(0%, 0%, 0%)" >C</text>
<circle cx="261.3629699580572" cy="43.301774110618425" r="5.0" stroke="none" stroke-width="1.0" fill="rgb(94%, 94%, 94%)"/>
<circle cx="261.3629699580572" cy="43.301774110618425" r="5.0" stroke="rgb(35%, 35%, 35%)" stroke-width="1.0" fill="none"/>
<text x="261.3629699580572" y="46.301774110618425" text-anchor="middle" font-family="Verdana" font-size="7.5" fill="rgb(0%, 0%, 0%)" >A</text>
<circle cx="275.19427929105956" cy="54.02311506975789" r="5.0" stroke="none" stroke-width="1.0" fill="rgb(94%, 94%, 94%)"/>
<circle cx="275.19427929105956" cy="54.02311506975789" r="5.0" stroke="rgb(35%, 35%, 35%)" stroke-width="1.0" fill="none"/>
<text x="275.19427929105956" y="57.02311506975789" text-anchor="middle" font-family="Verdana" font-size="7.5" fill="rgb(0%, 0%, 0%)" >C</text>
<circle cx="293.292686921636" cy="62.53473308500571" r="5.0" stroke="none" stroke-width="1.0" fill="rgb(94%, 94%, 94%)"/>
<circle cx="293.292686921636" cy="62.53473308500571" r="5.0" stroke="rgb(35%, 35%, 35%)" stroke-width="1.0" fill="none"/>
<text x="293.292686921636" y="65.53473308500571" text-anchor="middle" font-family="Verdana" font-size="7.5" fill="rgb(0%, 0%, 0%)" >C</text>
<circle cx="311.3910945522125" cy="71.04635110025353" r="5.0" stroke="none" stroke-width="1.0" fill="rgb(94%, 94%, 94%)"/>
<circle cx="311.3910945522125" cy="71.04635110025353" r="5.0" stroke="rgb(35%, 35%, 35%)" stroke-width="1.0" fill="none"/>
<text x="311.3910945522125" y="74.04635110025353" text-anchor="middle" font-family="Verdana" font-size="7.5" fill="rgb(0%, 0%, 0%)" >U</text>
<circle cx="329.489502182789" cy="79.55796911550135" r="5.0" stroke="none" stroke-width="1.0" fill="rgb(94%, 94%, 94%)"/>
<circle cx="329.489502182789" cy="79.55796911550135" r="5.0" stroke="rgb(35%, 35%, 35%)" stroke-width="1.0" fill="none"/>
<text x="329.489502182789" y="82.55796911550135" text-anchor="middle" font-family="Verdana" font-size="7.5" fill="rgb(0%, 0%, 0%)" >G</text>
<circle cx="346.6567215557429" cy="76.16137881464235" r="5.0" stroke="none" stroke-width="1.0" fill="rgb(94%, 94%, 94%)"/>
<circle cx="346.6567215557429" cy="76.16137881464235" r="5.0" stroke="rgb(35%, 35%, 35%)" stroke-width="1.0" fill="none"/>
<text x="346.6567215557429" y="79.16137881464235" text-anchor="middle" font-family="Verdana" font-size="7.5" fill="rgb(0%, 0%, 0%)" >A</text>
<circle cx="362.4928331318319" cy="83.60905072072629" r="5.0" stroke="none" stroke-width="1.0" fill="rgb(94%, 94%, 94%)"/>
<circle cx="362.4928331318319" cy="83.60905072072629" r="5.0" stroke="rgb(35%, 35%, 35%)" stroke-width="1.0" fill="none"/>
<text x="362.4928331318319" y="86.60905072072629" text-anchor="middle" font-family="Verdana" font-size="7.5" fill="rgb(0%, 0%, 0%)" >U</text>
<circle cx="370.8252554583363" cy="98.99803979875816" r="5.0" stroke="none" stroke-width="1.0" fill="rgb(94%, 94%, 94%)"/>
<circle cx="370.8252554583363" cy="98.99803979875816" r="5.0" stroke="rgb(35%, 35%, 35%)" stroke-width="1.0" fill="none"/>
<text x="370.8252554583363" y="101.99803979875816" text-anchor="middle" font-family="Verdana" font-size="7.5" fill="rgb(0%, 0%, 0%)" >C</text>
<circle cx="388.92365970991773" cy="107.5096649988206" r="5.0" stroke="none" stroke-width="1.0" fill="rgb(94%, 94%, 94%)"/>
<circle cx="388.92365970991773" cy="107.5096649988206" r="5.0" stroke="rgb(35%, 35%, 35%)" stroke-width="1.0" fill="none"/>
<text x="388.92365970991773" y="110.5096649988206" text-anchor="middle" font-family="Verdana" font-size="7.5" fill="rgb(0%, 0%, 0%)" >U</text>
<circle cx="407.0220639614992" cy="116.02129019888304" r="5.0" stroke="none" stroke-width="1.0" fill="rgb(94%, 94%, 94%)"/>
<circle cx="407.0220639614992" cy="116.02129019888304" r="5.0" stroke="rgb(35%, 35%, 35%)" stroke-width="1.0" fill="none"/>
<text x="407.0220639614992" y="119.02129019888304" text-anchor="middle" font-family="Verdana" font-size="7.5" fill="rgb(0%, 0%, 0%)" >G</text>
<circle cx="425.1204682130807" cy="124.53291539894548" r="5.0" stroke="none" stroke-width="1.0" fill="rgb(94%, 94%, 94%)"/>
<circle cx="425.1204682130807" cy="124.53291539894548" r="5.0" stroke="rgb(35%, 35%, 35%)" stroke-width="1.0" fill="none"/>
<text x="425.1204682130807" y="127.53291539894548" text-anchor="middle" font-family="Verdana" font-size="7.5" fill="rgb(0%, 0%, 0%)" >G</text>
<circle cx="442.54898462074783" cy="122.9530522255192" r="5.0" stroke="none" stroke-width="1.0" fill="rgb(94%, 94%, 94%)"/>
<circle cx="442.54898462074783" cy="122.9530522255192" r="5.0" stroke="rgb(35%, 35%, 35%)" stroke-width="1.0" fill="none"/>
<text x="442.54898462074783" y="125.9530522255192" text-anchor="middle" font-family="Verdana" font-size="7.5" fill="rgb(0%, 0%, 0%)" >A</text>
<circle cx="456.89414749743554" cy="132.9762979004677" r="5.0" stroke="none" stroke-width="1.0" fill="rgb(94%, 94%, 94%)"/>
<circle cx="456.89414749743554" cy="132.9762979004677" r="5.0" stroke="rgb(35%, 35%, 35%)" stroke-width="1.0" fill="none"/>
<text x="456.89414749743554" y="135.9762979004677" text-anchor="middle" font-family="Verdana" font-size="7.5" fill="rgb(0%, 0%, 0%)" >U</text>
<circle cx="461.4042635071316" cy="149.88511232958" r="5.0" stroke="none" stroke-width="1.0" fill="rgb(94%, 94%, 94%)"/>
<circle cx="461.4042635071316" cy="149.88511232958" r="5.0" stroke="rgb(35%, 35%, 35%)" stroke-width="1.0" fill="none"/>
<text x="461.4042635071316" y="152.88511232958" text-anchor="middle" font-family="Verdana" font-size="7.5" fill="rgb(0%, 0%, 0%)" >A</text>
<circle cx="453.95660177051" cy="165.72119412009673" r="5.0" stroke="none" stroke-width="1.0" fill="rgb(94%, 94%, 94%)"/>
<circle cx="453.95660177051" cy="165.72119412009673" r="5.0" stroke="rgb(35%, 35%, 35%)" stroke-width="1.0" fill="none"/>
<text x="453.95660177051" y="168.72119412009673" text-anchor="middle" font-family="Verdana" font-size="7.5" fill="rgb(0%, 0%, 0%)" >A</text>
<circle cx="438.05647822913727" cy="173.03113414640035" r="5.0" stroke="none" stroke-width="1.0" fill="rgb(94%, 94%, 94%)"/>
<circle cx="438.05647822913727" cy="173.03113414640035" r="5.0" stroke="rgb(35%, 35%, 35%)" stroke-width="1.0" fill="none"/>
<text x="438.05647822913727" y="176.03113414640035" text-anchor="middle" font-family="Verdana" font-size="7.5" fill="rgb(0%, 0%, 0%)" >U</text>
<circle cx="421.18744389451933" cy="168.3744365572762" r="5.0" stroke="none" stroke-width="1.0" fill="rgb(94%, 94%, 94%)"/>
<circle cx="421.18744389451933" cy="168.3744365572762" r="5.0" stroke="rgb(35%, 35%, 35%)" stroke-width="1.0" fill="none"/>
<text x="421.18744389451933" y="171.3744365572762" text-anchor="middle" font-family="Verdana" font-size="7.5" fill="rgb(0%, 0%, 0%)" >G</text>
<circle cx="411.28907726297916" cy="153.94282230776534" r="5.0" stroke="none" stroke-width="1.0" fill="rgb(94%, 94%, 94%)"/>
<circle cx="411.28907726297916" cy="153.94282230776534" r="5.0" stroke="rgb(35%, 35%, 35%)" stroke-width="1.0" fill="none"/>
<text x="411.28907726297916" y="156.94282230776534" text-anchor="middle" font-family="Verdana" font-size="7.5" fill="rgb(0%, 0%, 0%)" >C</text>
<circle cx="393.19067301139773" cy="145.4311971077029" r="5.0" stroke="none" stroke-width="1.0" fill="rgb(94%, 94%, 94%)"/>
<circle cx="393.19067301139773" cy="145.4311971077029" r="5.0" stroke="rgb(35%, 35%, 35%)" stroke-width="1.0" fill="none"/>
<text x="393.19067301139773" y="148.4311971077029" text-anchor="middle" font-family="Verdana" font-size="7.5" fill="rgb(0%, 0%, 0%)" >C</text>
<circle cx="375.0922687598163" cy="136.91957190764046" r="5.0" stroke="none" stroke-width="1.0" fill="rgb(94%, 94%, 94%)"/>
<circle cx="375.0922687598163" cy="136.91957190764046" r="5.0" stroke="rgb(35%, 35%, 35%)" stroke-width="1.0" fill="none"/>
<text x="375.0922687598163" y="139.91957190764046" text-anchor="middle" font-family="Verdana" font-size="7.5" fill="rgb(0%, 0%, 0%)" >A</text>
<circle cx="356.9938645082348" cy="128.40794670757802" r="5.0" stroke="none" stroke-width="1.0" fill="rgb(94%, 94%, 94%)"/>
<circle cx="356.9938645082348" cy="128.40794670757802" r="5.0" stroke="rgb(35%, 35%, 35%)" stroke-width="1.0" fill="none"/>
<text x="356.9938645082348" y="131.40794670757802" text-anchor="middle" font-family="Verdana" font-size="7.5" fill="rgb(0%, 0%, 0%)" >G</text>
<circle cx="339.8266511500682" cy="131.80453109710592" r="5.0" stroke="none" stroke-width="1.0" fill="rgb(94%, 94%, 94%)"/>
<circle cx="339.8266511500682" cy="131.80453109710592" r="5.0" stroke="rgb(35%, 35%, 35%)" stroke-width="1.0" fill="none"/>
<text x="339.8266511500682" y="134.80453109710592" text-anchor="middle" font-family="Verdana" font-size="7.5" fill="rgb(0%, 0%, 0%)" >C</text>
<circle cx="323.99054595162374" cy="124.35686219040753" r="5.0" stroke="none" stroke-width="1.0" fill="rgb(94%, 94%, 94%)"/>
<circle cx="323.99054595162374" cy="124.35686219040753" r="5.0" stroke="rgb(35%, 35%, 35%)" stroke-width="1.0" fill="none"/>
<text x="323.99054595162374" y="127.35686219040753" text-anchor="middle" font-family="Verdana" font-size="7.5" fill="rgb(0%, 0%, 0%)" >G</text>
<circle cx="315.65812290801125" cy="108.96788151518814" r="5.0" stroke="none" stroke-width="1.0" fill="rgb(94%, 94%, 94%)"/>
<circle cx="315.65812290801125" cy="108.96788151518814" r="5.0" stroke="rgb(35%, 35%, 35%)" stroke-width="1.0" fill="none"/>
<text x="315.65812290801125" y="111.96788151518814" text-anchor="middle" font-family="Verdana" font-size="7.5" fill="rgb(0%, 0%, 0%)" >U</text>
<circle cx="297.5597152774348" cy="100.45626349994032" r="5.0" stroke="none" stroke-width="1.0" fill="rgb(94%, 94%, 94%)"/>
<circle cx="297.5597152774348" cy="100.45626349994032" r="5.0" stroke="rgb(35%, 35%, 35%)" stroke-width="1.0" fill="none"/>
<text x="297.5597152774348" y="103.45626349994032" text-anchor="middle" font-family="Verdana" font-size="7.5" fill="rgb(0%, 0%, 0%)" >A</text>
<circle cx="279.46130764685836" cy="91.9446454846925" r="5.0" stroke="none" stroke-width="1.0" fill="rgb(94%, 94%, 94%)"/>
<circle cx="279.46130764685836" cy="91.9446454846925" r="5.0" stroke="rgb(35%, 35%, 35%)" stroke-width="1.0" fill="none"/>
<text x="279.46130764685836" y="94.9446454846925" text-anchor="middle" font-family="Verdana" font-size="7.5" fill="rgb(0%, 0%, 0%)" >G</text>
<circle cx="261.36290001628186" cy="83.43302746944468" r="5.0" stroke="none" stroke-width="1.0" fill="rgb(94%, 94%, 94%)"/>
<circle cx="261.36290001628186" cy="83.43302746944468" r="5.0" stroke="rgb(35%, 35%, 35%)" stroke-width="1.0" fill="none"/>
<text x="261.36290001628186" y="86.43302746944468" text-anchor="middle" font-family="Verdana" font-size="7.5" fill="rgb(0%, 0%, 0%)" >G</text>
<circle cx="244.28393829662218" cy="79.61739297720109" r="5.0" stroke="none" stroke-width="1.0" fill="rgb(94%, 94%, 94%)"/>
<circle cx="244.28393829662218" cy="79.61739297720109" r="5.0" stroke="rgb(35%, 35%, 35%)" stroke-width="1.0" fill="none"/>
<text x="244.28393829662218" y="82.61739297720109" text-anchor="middle" font-family="Verdana" font-size="7.5" fill="rgb(0%, 0%, 0%)" >G</text>
<circle cx="224.28393829662218" cy="79.61739297720109" r="5.0" stroke="none" stroke-width="1.0" fill="rgb(94%, 94%, 94%)"/>
<circle cx="224.28393829662218" cy="79.61739297720109" r="5.0" stroke="rgb(35%, 35%, 35%)" stroke-width="1.0" fill="none"/>
<text x="224.28393829662218" y="82.61739297720109" text-anchor="middle" font-family="Verdana" font-size="7.5" fill="rgb(0%, 0%, 0%)" >A</text>
<circle cx="214.7345415260002" cy="89.16678974782306" r="5.0" stroke="none" stroke-width="1.0" fill="rgb(94%, 94%, 94%)"/>
<circle cx="214.7345415260002" cy="89.16678974782306" r="5.0" stroke="rgb(35%, 35%, 35%)" stroke-width="1.0" fill="none"/>
<text x="214.7345415260002" y="92.16678974782306" text-anchor="middle" font-family="Verdana" font-size="7.5" fill="rgb(0%, 0%, 0%)" >A</text>
<circle cx="214.7345415260002" cy="109.16678974782306" r="5.0" stroke="none" stroke-width="1.0" fill="rgb(94%, 94%, 94%)"/>
<circle cx="214.7345415260002" cy="109.16678974782306" r="5.0" stroke="rgb(35%, 35%, 35%)" stroke-width="1.0" fill="none"/>
<text x="214.7345415260002" y="112.16678974782306" text-anchor="middle" font-family="Verdana" font-size="7.5" fill="rgb(0%, 0%, 0%)" >G</text>
<circle cx="214.7345415260002" cy="129.16678974782306" r="5.0" stroke="none" stroke-width="1.0" fill="rgb(94%, 94%, 94%)"/>
<circle cx="214.7345415260002" cy="129.16678974782306" r="5.0" stroke="rgb(35%, 35%, 35%)" stroke-width="1.0" fill="none"/>
<text x="214.7345415260002" y="132.16678974782306" text-anchor="middle" font-family="Verdana" font-size="7.5" fill="rgb(0%, 0%, 0%)" >U</text>
<circle cx="214.7345415260002" cy="149.16678974782306" r="5.0" stroke="none" stroke-width="1.0" fill="rgb(94%, 94%, 94%)"/>
<circle cx="214.7345415260002" cy="149.16678974782306" r="5.0" stroke="rgb(35%, 35%, 35%)" stroke-width="1.0" fill="none"/>
<text x="214.7345415260002" y="152.16678974782306" text-anchor="middle" font-family="Verdana" font-size="7.5" fill="rgb(0%, 0%, 0%)" >C</text>
<circle cx="214.7345415260002" cy="169.16678974782306" r="5.0" stroke="none" stroke-width="1.0" fill="rgb(94%, 94%, 94%)"/>
<circle cx="214.7345415260002" cy="169.16678974782306" r="5.0" stroke="rgb(35%, 35%, 35%)" stroke-width="1.0" fill="none"/>
<text x="214.7345415260002" y="172.16678974782306" text-anchor="middle" font-family="Verdana" font-size="7.5" fill="rgb(0%, 0%, 0%)" >G</text>
<circle cx="214.7345415260002" cy="189.16678974782306" r="5.0" stroke="none" stroke-width="1.0" fill="rgb(94%, 94%, 94%)"/>
<circle cx="214.7345415260002" cy="189.16678974782306" r="5.0" stroke="rgb(35%, 35%, 35%)" stroke-width="1.0" fill="none"/>
<text x="214.7345415260002" y="192.16678974782306" text-anchor="middle" font-family="Verdana" font-size="7.5" fill="rgb(0%, 0%, 0%)" >C</text>
<circle cx="232.2345415260002" cy="189.16678974782306" r="5.0" stroke="none" stroke-width="1.0" fill="rgb(94%, 94%, 94%)"/>
<circle cx="232.2345415260002" cy="189.16678974782306" r="5.0" stroke="rgb(35%, 35%, 35%)" stroke-width="1.0" fill="none"/>
<text x="232.2345415260002" y="192.16678974782306" text-anchor="middle" font-family="Verdana" font-size="7.5" fill="rgb(0%, 0%, 0%)" >A</text>
<line x1="182.2345415260002" y1="196.66678974782306" x2="182.2345415260002" y2="201.66678974782306" stroke="rgb(25%, 25%, 25%)" stroke-width="1.0" />
<text x="182.2345415260002" y="212.16678974782306" text-anchor="middle" font-family="Verdana" font-size="7.5" fill="rgb(25%, 25%, 25%)" >1</text>
<line x1="109.45875026861907" y1="63.28092217396019" x2="108.12018791591053" y2="68.09841642179398" stroke="rgb(25%, 25%, 25%)" stroke-width="1.0" />
<text x="106.11234438684774" y="78.32465779354462" text-anchor="middle" font-family="Verdana" font-size="7.5" fill="rgb(25%, 25%, 25%)" >10</text>
<line x1="62.10185107892593" y1="201.5391429170271" x2="66.9446377729453" y2="202.78309510108767" stroke="rgb(25%, 25%, 25%)" stroke-width="1.0" />
<text x="74.20881781397433" y="207.64902337717848" text-anchor="middle" font-family="Verdana" font-size="7.5" fill="rgb(25%, 25%, 25%)" >20</text>
<line x1="25.662811544560142" y1="82.35969943476348" x2="21.17382276156433" y2="84.56173933134525" stroke="rgb(25%, 25%, 25%)" stroke-width="1.0" />
<text x="14.440339587070614" y="90.8647991762179" text-anchor="middle" font-family="Verdana" font-size="7.5" fill="rgb(25%, 25%, 25%)" >30</text>
<line x1="121.37041921174162" y1="17.338105119556303" x2="122.1725326260445" y2="12.402863071733776" stroke="rgb(25%, 25%, 25%)" stroke-width="1.0" />
<text x="123.37570274749879" y="8.0" text-anchor="middle" font-family="Verdana" font-size="7.5" fill="rgb(25%, 25%, 25%)" >40</text>
<line x1="296.48454367735394" y1="55.74783022353952" x2="298.61244818116586" y2="51.2232283158954" stroke="rgb(25%, 25%, 25%)" stroke-width="1.0" />
<text x="301.8043049368838" y="47.43632545442924" text-anchor="middle" font-family="Verdana" font-size="7.5" fill="rgb(25%, 25%, 25%)" >50</text>
<line x1="463.03808285374663" y1="128.67489599673095" x2="467.13403975795404" y2="125.80729472757311" stroke="rgb(25%, 25%, 25%)" stroke-width="1.0" />
<text x="473.2779751142652" y="124.50589282383635" text-anchor="middle" font-family="Verdana" font-size="7.5" fill="rgb(25%, 25%, 25%)" >60</text>
<line x1="318.83957997818214" y1="129.80824270734513" x2="315.4056026625544" y2="133.4424963853035" stroke="rgb(25%, 25%, 25%)" stroke-width="1.0" />
<text x="310.2546366891128" y="141.8938769022411" text-anchor="middle" font-family="Verdana" font-size="7.5" fill="rgb(25%, 25%, 25%)" >70</text>
<line x1="222.2345415260002" y1="149.16678974782306" x2="227.2345415260002" y2="149.16678974782306" stroke="rgb(25%, 25%, 25%)" stroke-width="1.0" />
<text x="234.7345415260002" y="152.16678974782306" text-anchor="middle" font-family="Verdana" font-size="7.5" fill="rgb(25%, 25%, 25%)" >80</text>
<line x1="232.2345415260002" y1="196.66678974782306" x2="232.2345415260002" y2="201.66678974782306" stroke="rgb(25%, 25%, 25%)" stroke-width="1.0" />
<text x="232.2345415260002" y="212.16678974782306" text-anchor="middle" font-family="Verdana" font-size="7.5" fill="rgb(25%, 25%, 25%)" >83</text>
<text x="103.7785919103687" y="37.51323250222239" text-anchor="middle" font-family="Verdana" font-size="6.0" fill="rgb(0%, 0%, 0%)" >460</text>
<text x="39.233483783902216" y="47.28650457685409" text-anchor="middle" font-family="Verdana" font-size="6.0" fill="rgb(0%, 0%, 0%)" >651</text>
<text x="56.44098670366803" y="110.4402177375376" text-anchor="middle" font-family="Verdana" font-size="6.0" fill="rgb(0%, 0%, 0%)" >460</text>
<text x="31.84382669050933" y="199.58359398688302" text-anchor="middle" font-family="Verdana" font-size="6.0" fill="rgb(0%, 0%, 0%)" >397</text>
<text x="257.2976051717286" y="63.89854052084464" text-anchor="middle" font-family="Verdana" font-size="6.0" fill="rgb(0%, 0%, 0%)" >204</text>
<text x="343.2416871058298" y="106.38295749498847" text-anchor="middle" font-family="Verdana" font-size="6.0" fill="rgb(0%, 0%, 0%)" >492</text>
<text x="438.8071831244427" y="151.32712062325638" text-anchor="middle" font-family="Verdana" font-size="6.0" fill="rgb(0%, 0%, 0%)" >320</text>
</svg>
