<?xml version="1.0" encoding="UTF-8"?>
<!DOCTYPE svg PUBLIC "-//W3C//DTD SVG 1.1//EN" 
"http://www.w3.org/Graphics/SVG/1.1/DTD/svg11.dtd">

<svg width="100%" height="100%" version="1.1"
xmlns="http://www.w3.org/2000/svg">
<path d="M 24.793540954589844 194.59190368652344 L 24.22146987915039 193.8679656982422 L 23.526119232177734 193.261474609375 L 22.73116683959961 192.7930908203125 L 21.86368179321289 192.47874450683594 L 20.953205108642578 192.3291473388672 L 20.030742645263672 192.34939575195312 L 19.127708435058594 192.53880310058594 L 18.274856567382812 192.89093017578125 L 17.501224517822266 193.3937530517578 L 16.833162307739258 194.03018188476562 L 16.29341697692871 194.77853393554688 L 15.900371551513672 195.61331176757812 L 15.667407989501953 196.506103515625 L 15.602458953857422 197.42649841308594 L 15.707740783691406 198.34315490722656 L 15.979663848876953 199.224853515625 L 22.279632568359375 214.48385620117188 L 22.279632568359375 233.49227905273438 L 22.364765167236328 234.41102600097656 L 22.617271423339844 235.29849243164062 L 23.028545379638672 236.1244354248047 L 23.58458709716797 236.8607635498047 L 24.266460418701172 237.48236083984375 L 25.050941467285156 237.9680938720703 L 25.91131591796875 238.30140686035156 L 26.81829071044922 238.470947265625 L 27.74097442626953 238.470947265625 L 28.647945404052734 238.30140686035156 L 29.508323669433594 237.9680938720703 L 30.292804718017578 237.48236083984375 L 30.97467803955078 236.8607635498047 L 31.530719757080078 236.1244354248047 L 31.941993713378906 235.29849243164062 L 32.194496154785156 234.41102600097656 L 32.279632568359375 233.49227905273438 L 32.279632568359375 212.50070190429688 L 25.22284698486328 195.40863037109375 z" fill="rgb(58%, 91%, 70%)" style="stroke:none;"/>
<path d="M 24.793540954589844 194.59190368652344 L 24.22146987915039 193.8679656982422 L 23.526119232177734 193.261474609375 L 22.73116683959961 192.7930908203125 L 21.86368179321289 192.47874450683594 L 20.953205108642578 192.3291473388672 L 20.030742645263672 192.34939575195312 L 19.127708435058594 192.53880310058594 L 18.274856567382812 192.89093017578125 L 17.501224517822266 193.3937530517578 L 16.833162307739258 194.03018188476562 L 16.29341697692871 194.77853393554688 L 15.900371551513672 195.61331176757812 L 15.667407989501953 196.506103515625 L 15.602458953857422 197.42649841308594 L 15.707740783691406 198.34315490722656 L 15.979663848876953 199.224853515625 L 22.279632568359375 214.48385620117188 L 22.279632568359375 233.49227905273438 L 22.364765167236328 234.41102600097656 L 22.617271423339844 235.29849243164062 L 23.028545379638672 236.1244354248047 L 23.58458709716797 236.8607635498047 L 24.266460418701172 237.48236083984375 L 25.050941467285156 237.9680938720703 L 25.91131591796875 238.30140686035156 L 26.81829071044922 238.470947265625 L 27.74097442626953 238.470947265625 L 28.647945404052734 238.30140686035156 L 29.508323669433594 237.9680938720703 L 30.292804718017578 237.48236083984375 L 30.97467803955078 236.8607635498047 L 31.530719757080078 236.1244354248047 L 31.941993713378906 235.29849243164062 L 32.194496154785156 234.41102600097656 L 32.279632568359375 233.49227905273438 L 32.279632568359375 212.50070190429688 L 25.22284698486328 195.40863037109375 z" style="fill:none; stroke:rgb(43%, 84%, 43%); stroke-width:1.0;"/>
<path d="M 62.265724182128906 200.0415802001953 L 62.837791442871094 200.76551818847656 L 63.53314208984375 201.37200927734375 L 64.3281021118164 201.84039306640625 L 65.19558715820312 202.1547393798828 L 66.10606384277344 202.30433654785156 L 67.02851867675781 202.28408813476562 L 67.93155670166016 202.0946807861328 L 68.78440856933594 201.7425537109375 L 69.55803680419922 201.23973083496094 L 70.22610473632812 200.60330200195312 L 70.7658462524414 199.85496520996094 L 71.15888977050781 199.02017211914062 L 71.39186096191406 198.12738037109375 L 71.45680236816406 197.2069854736328 L 71.35152435302734 196.2903289794922 L 71.07959747314453 195.40863037109375 L 64.77963256835938 180.14962768554688 L 64.77963256835938 161.14120483398438 L 64.69449615478516 160.2224578857422 L 64.4419937133789 159.33499145507812 L 64.03071594238281 158.50904846191406 L 63.47467803955078 157.77273559570312 L 62.792808532714844 157.151123046875 L 62.008323669433594 156.66539001464844 L 61.14794921875 156.3320770263672 L 60.24097442626953 156.16253662109375 L 59.31829071044922 156.16253662109375 L 58.41131591796875 156.3320770263672 L 57.550941467285156 156.66539001464844 L 56.766456604003906 157.151123046875 L 56.08458709716797 157.77273559570312 L 55.52854919433594 158.50904846191406 L 55.117271423339844 159.33499145507812 L 54.864768981933594 160.2224578857422 L 54.779632568359375 161.14120483398438 L 54.779632568359375 182.13278198242188 L 61.83641815185547 199.224853515625 z" fill="rgb(58%, 91%, 70%)" style="stroke:none;"/>
<path d="M 62.265724182128906 200.0415802001953 L 62.837791442871094 200.76551818847656 L 63.53314208984375 201.37200927734375 L 64.3281021118164 201.84039306640625 L 65.19558715820312 202.1547393798828 L 66.10606384277344 202.30433654785156 L 67.02851867675781 202.28408813476562 L 67.93155670166016 202.0946807861328 L 68.78440856933594 201.7425537109375 L 69.55803680419922 201.23973083496094 L 70.22610473632812 200.60330200195312 L 70.7658462524414 199.85496520996094 L 71.15888977050781 199.02017211914062 L 71.39186096191406 198.12738037109375 L 71.45680236816406 197.2069854736328 L 71.35152435302734 196.2903289794922 L 71.07959747314453 195.40863037109375 L 64.77963256835938 180.14962768554688 L 64.77963256835938 161.14120483398438 L 64.69449615478516 160.2224578857422 L 64.4419937133789 159.33499145507812 L 64.03071594238281 158.50904846191406 L 63.47467803955078 157.77273559570312 L 62.792808532714844 157.151123046875 L 62.008323669433594 156.66539001464844 L 61.14794921875 156.3320770263672 L 60.24097442626953 156.16253662109375 L 59.31829071044922 156.16253662109375 L 58.41131591796875 156.3320770263672 L 57.550941467285156 156.66539001464844 L 56.766456604003906 157.151123046875 L 56.08458709716797 157.77273559570312 L 55.52854919433594 158.50904846191406 L 55.117271423339844 159.33499145507812 L 54.864768981933594 160.2224578857422 L 54.779632568359375 161.14120483398438 L 54.779632568359375 182.13278198242188 L 61.83641815185547 199.224853515625 z" style="fill:none; stroke:rgb(43%, 84%, 43%); stroke-width:1.0;"/>
<path d="M 60.080543518066406 68.2919921875 L 61.003211975097656 68.2855224609375 L 61.908966064453125 68.109619140625 L 62.76698303222656 67.77029418945312 L 63.54804229736328 67.279052734375 L 64.22553253173828 66.65267944335938 L 64.77639770507812 65.9124755859375 L 65.18186950683594 65.08367919921875 L 65.42813873291016 64.1944580078125 L 65.50682830810547 63.275146484375 L 65.41524505615234 62.35699462890625 L 65.15652465820312 61.471343994140625 L 64.73946380615234 60.648284912109375 L 64.17826843261719 59.9158935546875 L 63.49205017089844 59.299102783203125 L 62.704185485839844 58.818878173828125 L 61.84149169921875 58.491607666015625 L 43.771907806396484 53.487152099609375 L 24.334415435791016 58.608154296875 L 10.121026992797852 72.82156372070312 L 5.0 92.259033203125 L 10.365058898925781 111.63058471679688 L 22.279632568359375 123.24920654296875 L 22.279632568359375 141.14120483398438 L 22.364765167236328 142.05995178222656 L 22.617271423339844 142.94741821289062 L 23.028545379638672 143.7733612060547 L 23.58458709716797 144.5096893310547 L 24.266460418701172 145.13128662109375 L 25.050941467285156 145.6170196533203 L 25.91131591796875 145.95033264160156 L 26.81829071044922 146.119873046875 L 27.74097442626953 146.119873046875 L 28.647945404052734 145.95033264160156 L 29.508323669433594 145.6170196533203 L 30.292804718017578 145.13128662109375 L 30.97467803955078 144.5096893310547 L 31.530719757080078 143.7733612060547 L 31.941993713378906 142.94741821289062 L 32.194496154785156 142.05995178222656 L 32.279632568359375 141.14120483398438 L 32.279632568359375 119.033203125 L 19.28110122680664 106.35757446289062 L 15.3583984375 92.19390869140625 L 19.102676391601562 77.9820556640625 L 29.494903564453125 67.58981323242188 L 43.7067756652832 63.84552001953125 L 59.17240905761719 68.12881469726562 z" fill="rgb(41%, 91%, 98%)" style="stroke:none;"/>
<path d="M 60.080543518066406 68.2919921875 L 61.003211975097656 68.2855224609375 L 61.908966064453125 68.109619140625 L 62.76698303222656 67.77029418945312 L 63.54804229736328 67.279052734375 L 64.22553253173828 66.65267944335938 L 64.77639770507812 65.9124755859375 L 65.18186950683594 65.08367919921875 L 65.42813873291016 64.1944580078125 L 65.50682830810547 63.275146484375 L 65.41524505615234 62.35699462890625 L 65.15652465820312 61.471343994140625 L 64.73946380615234 60.648284912109375 L 64.17826843261719 59.9158935546875 L 63.49205017089844 59.299102783203125 L 62.704185485839844 58.818878173828125 L 61.84149169921875 58.491607666015625 L 43.771907806396484 53.487152099609375 L 24.334415435791016 58.608154296875 L 10.121026992797852 72.82156372070312 L 5.0 92.259033203125 L 10.365058898925781 111.63058471679688 L 22.279632568359375 123.24920654296875 L 22.279632568359375 141.14120483398438 L 22.364765167236328 142.05995178222656 L 22.617271423339844 142.94741821289062 L 23.028545379638672 143.7733612060547 L 23.58458709716797 144.5096893310547 L 24.266460418701172 145.13128662109375 L 25.050941467285156 145.6170196533203 L 25.91131591796875 145.95033264160156 L 26.81829071044922 146.119873046875 L 27.74097442626953 146.119873046875 L 28.647945404052734 145.95033264160156 L 29.508323669433594 145.6170196533203 L 30.292804718017578 145.13128662109375 L 30.97467803955078 144.5096893310547 L 31.530719757080078 143.7733612060547 L 31.941993713378906 142.94741821289062 L 32.194496154785156 142.05995178222656 L 32.279632568359375 141.14120483398438 L 32.279632568359375 119.033203125 L 19.28110122680664 106.35757446289062 L 15.3583984375 92.19390869140625 L 19.102676391601562 77.9820556640625 L 29.494903564453125 67.58981323242188 L 43.7067756652832 63.84552001953125 L 59.17240905761719 68.12881469726562 z" style="fill:none; stroke:rgb(43%, 84%, 43%); stroke-width:1.0;"/>
<path d="M 71.73532104492188 103.35189819335938 L 70.84786224365234 103.60440063476562 L 70.02191162109375 104.01568603515625 L 69.28559112548828 104.57171630859375 L 68.66398620605469 105.25360107421875 L 68.17825317382812 106.0380859375 L 67.84494018554688 106.89846801757812 L 67.67539978027344 107.805419921875 L 67.67539978027344 108.72811889648438 L 67.84494018554688 109.63507080078125 L 68.17825317382812 110.49545288085938 L 68.66398620605469 111.27993774414062 L 69.28559112548828 111.96182250976562 L 70.02191162109375 112.51785278320312 L 70.84786224365234 112.92913818359375 L 71.73532104492188 113.181640625 L 72.65406799316406 113.26675415039062 L 92.65406799316406 113.26675415039062 L 93.57281494140625 113.181640625 L 94.46028137207031 112.92913818359375 L 95.2862319946289 112.51785278320312 L 96.02254486083984 111.96182250976562 L 96.64415740966797 111.27993774414062 L 97.1298828125 110.49545288085938 L 97.46319580078125 109.63507080078125 L 97.63274383544922 108.72811889648438 L 97.63274383544922 107.805419921875 L 97.46319580078125 106.89846801757812 L 97.1298828125 106.0380859375 L 96.64415740966797 105.25360107421875 L 96.02254486083984 104.57171630859375 L 95.2862319946289 104.01568603515625 L 94.46028137207031 103.60440063476562 L 93.57281494140625 103.35189819335938 L 92.65406799316406 103.26675415039062 L 72.65406799316406 103.26675415039062 z" fill="rgb(41%, 91%, 98%)" style="stroke:none;"/>
<path d="M 71.73532104492188 103.35189819335938 L 70.84786224365234 103.60440063476562 L 70.02191162109375 104.01568603515625 L 69.28559112548828 104.57171630859375 L 68.66398620605469 105.25360107421875 L 68.17825317382812 106.0380859375 L 67.84494018554688 106.89846801757812 L 67.67539978027344 107.805419921875 L 67.67539978027344 108.72811889648438 L 67.84494018554688 109.63507080078125 L 68.17825317382812 110.49545288085938 L 68.66398620605469 111.27993774414062 L 69.28559112548828 111.96182250976562 L 70.02191162109375 112.51785278320312 L 70.84786224365234 112.92913818359375 L 71.73532104492188 113.181640625 L 72.65406799316406 113.26675415039062 L 92.65406799316406 113.26675415039062 L 93.57281494140625 113.181640625 L 94.46028137207031 112.92913818359375 L 95.2862319946289 112.51785278320312 L 96.02254486083984 111.96182250976562 L 96.64415740966797 111.27993774414062 L 97.1298828125 110.49545288085938 L 97.46319580078125 109.63507080078125 L 97.63274383544922 108.72811889648438 L 97.63274383544922 107.805419921875 L 97.46319580078125 106.89846801757812 L 97.1298828125 106.0380859375 L 96.64415740966797 105.25360107421875 L 96.02254486083984 104.57171630859375 L 95.2862319946289 104.01568603515625 L 94.46028137207031 103.60440063476562 L 93.57281494140625 103.35189819335938 L 92.65406799316406 103.26675415039062 L 72.65406799316406 103.26675415039062 z" style="fill:none; stroke:rgb(43%, 84%, 43%); stroke-width:1.0;"/>
<path d="M 153.57281494140625 80.681640625 L 154.4602813720703 80.42913818359375 L 155.28622436523438 80.01785278320312 L 156.02255249023438 79.46182250976562 L 156.64414978027344 78.77993774414062 L 157.1298828125 77.99545288085938 L 157.46319580078125 77.13507080078125 L 157.6327362060547 76.22811889648438 L 157.6327362060547 75.305419921875 L 157.46319580078125 74.39846801757812 L 157.1298828125 73.5380859375 L 156.64414978027344 72.75360107421875 L 156.02255249023438 72.07171630859375 L 155.28622436523438 71.51568603515625 L 154.4602813720703 71.10440063476562 L 153.57281494140625 70.85189819335938 L 152.65406799316406 70.76675415039062 L 132.65406799316406 70.76675415039062 L 131.73532104492188 70.85189819335938 L 130.8478546142578 71.10440063476562 L 130.02191162109375 71.51568603515625 L 129.2855987548828 72.07171630859375 L 128.6639862060547 72.75360107421875 L 128.17825317382812 73.5380859375 L 127.84494018554688 74.39846801757812 L 127.67539978027344 75.305419921875 L 127.67539978027344 76.22811889648438 L 127.84494018554688 77.13507080078125 L 128.17825317382812 77.99545288085938 L 128.6639862060547 78.77993774414062 L 129.2855987548828 79.46182250976562 L 130.02191162109375 80.01785278320312 L 130.8478546142578 80.42913818359375 L 131.73532104492188 80.681640625 L 132.65406799316406 80.76675415039062 L 152.65406799316406 80.76675415039062 z" fill="rgb(54%, 58%, 56%)" style="stroke:none;"/>
<path d="M 153.57281494140625 80.681640625 L 154.4602813720703 80.42913818359375 L 155.28622436523438 80.01785278320312 L 156.02255249023438 79.46182250976562 L 156.64414978027344 78.77993774414062 L 157.1298828125 77.99545288085938 L 157.46319580078125 77.13507080078125 L 157.6327362060547 76.22811889648438 L 157.6327362060547 75.305419921875 L 157.46319580078125 74.39846801757812 L 157.1298828125 73.5380859375 L 156.64414978027344 72.75360107421875 L 156.02255249023438 72.07171630859375 L 155.28622436523438 71.51568603515625 L 154.4602813720703 71.10440063476562 L 153.57281494140625 70.85189819335938 L 152.65406799316406 70.76675415039062 L 132.65406799316406 70.76675415039062 L 131.73532104492188 70.85189819335938 L 130.8478546142578 71.10440063476562 L 130.02191162109375 71.51568603515625 L 129.2855987548828 72.07171630859375 L 128.6639862060547 72.75360107421875 L 128.17825317382812 73.5380859375 L 127.84494018554688 74.39846801757812 L 127.67539978027344 75.305419921875 L 127.67539978027344 76.22811889648438 L 127.84494018554688 77.13507080078125 L 128.17825317382812 77.99545288085938 L 128.6639862060547 78.77993774414062 L 129.2855987548828 79.46182250976562 L 130.02191162109375 80.01785278320312 L 130.8478546142578 80.42913818359375 L 131.73532104492188 80.681640625 L 132.65406799316406 80.76675415039062 L 152.65406799316406 80.76675415039062 z" style="fill:none; stroke:rgb(43%, 84%, 43%); stroke-width:1.0;"/>
<path d="M 165.99583435058594 108.7607421875 L 165.44911193847656 109.5040283203125 L 165.04827880859375 110.3350830078125 L 164.80697631835938 111.22564697265625 L 164.73342895507812 112.14541625976562 L 164.83013916015625 113.06301879882812 L 165.0937957763672 113.94720458984375 L 165.51544189453125 114.76791381835938 L 166.08071899414062 115.49716186523438 L 166.77037048339844 116.11013793945312 L 167.5609130859375 116.5859375 L 168.4254150390625 116.90838623046875 L 169.33445739746094 117.06649780273438 L 170.25706481933594 117.05487060546875 L 171.16183471679688 116.8739013671875 L 172.0179443359375 116.52978515625 L 172.79623413085938 116.03421020507812 L 186.1914825439453 105.6510009765625 L 203.79067993164062 97.37429809570312 L 204.58584594726562 96.90625 L 205.28147888183594 96.30007934570312 L 205.85386657714844 95.576416015625 L 206.28353881835938 94.7598876953125 L 206.5558624267578 93.8782958984375 L 206.66156005859375 92.961669921875 L 206.59703063964844 92.041259765625 L 206.3644561767578 91.14837646484375 L 205.97178649902344 90.31341552734375 L 205.43238830566406 89.5648193359375 L 204.7646026611328 88.9281005859375 L 203.9912109375 88.4249267578125 L 203.1385040283203 88.07241821289062 L 202.23556518554688 87.88259887695312 L 201.3131103515625 87.8619384765625 L 200.40257263183594 88.0111083984375 L 199.53494262695312 88.3250732421875 L 180.93719482421875 97.07135009765625 L 166.66983032226562 108.13058471679688 z" fill="rgb(54%, 58%, 56%)" style="stroke:none;"/>
<path d="M 165.99583435058594 108.7607421875 L 165.44911193847656 109.5040283203125 L 165.04827880859375 110.3350830078125 L 164.80697631835938 111.22564697265625 L 164.73342895507812 112.14541625976562 L 164.83013916015625 113.06301879882812 L 165.0937957763672 113.94720458984375 L 165.51544189453125 114.76791381835938 L 166.08071899414062 115.49716186523438 L 166.77037048339844 116.11013793945312 L 167.5609130859375 116.5859375 L 168.4254150390625 116.90838623046875 L 169.33445739746094 117.06649780273438 L 170.25706481933594 117.05487060546875 L 171.16183471679688 116.8739013671875 L 172.0179443359375 116.52978515625 L 172.79623413085938 116.03421020507812 L 186.1914825439453 105.6510009765625 L 203.79067993164062 97.37429809570312 L 204.58584594726562 96.90625 L 205.28147888183594 96.30007934570312 L 205.85386657714844 95.576416015625 L 206.28353881835938 94.7598876953125 L 206.5558624267578 93.8782958984375 L 206.66156005859375 92.961669921875 L 206.59703063964844 92.041259765625 L 206.3644561767578 91.14837646484375 L 205.97178649902344 90.31341552734375 L 205.43238830566406 89.5648193359375 L 204.7646026611328 88.9281005859375 L 203.9912109375 88.4249267578125 L 203.1385040283203 88.07241821289062 L 202.23556518554688 87.88259887695312 L 201.3131103515625 87.8619384765625 L 200.40257263183594 88.0111083984375 L 199.53494262695312 88.3250732421875 L 180.93719482421875 97.07135009765625 L 166.66983032226562 108.13058471679688 z" style="fill:none; stroke:rgb(43%, 84%, 43%); stroke-width:1.0;"/>
<path d="M 287.91705322265625 56.881072998046875 L 287.3341979980469 57.596343994140625 L 286.8927001953125 58.40655517578125 L 286.60760498046875 59.284088134765625 L 286.48858642578125 60.19903564453125 L 286.53973388671875 61.12030029296875 L 286.7593078613281 62.016510009765625 L 287.1398010253906 62.857086181640625 L 287.66827392578125 63.613433837890625 L 288.32672119140625 64.25979614257812 L 289.09271240234375 64.774169921875 L 289.940185546875 65.13900756835938 L 290.8403015136719 65.34194946289062 L 291.7623291015625 65.37600708007812 L 292.6749572753906 65.24008178710938 L 293.54705810546875 64.93878173828125 L 294.34893798828125 64.48236083984375 L 310.19091796875 53.413421630859375 L 315.642333984375 32.976226806640625 L 306.64068603515625 13.835479736328125 L 287.42266845703125 5.0 L 267.033447265625 10.628265380859375 L 256.8697204589844 25.446563720703125 L 239.99916076660156 33.380584716796875 L 239.20399475097656 33.848602294921875 L 238.5083770751953 34.454803466796875 L 237.93597412109375 35.178466796875 L 237.5063018798828 35.9949951171875 L 237.23399353027344 36.8765869140625 L 237.1282958984375 37.793182373046875 L 237.1928253173828 38.713623046875 L 237.42538452148438 39.60650634765625 L 237.81805419921875 40.44146728515625 L 238.3574676513672 41.1900634765625 L 239.02523803710938 41.8267822265625 L 239.79864501953125 42.3299560546875 L 240.65133666992188 42.682464599609375 L 241.55429077148438 42.872283935546875 L 242.47674560546875 42.8929443359375 L 243.38729858398438 42.7437744140625 L 244.25491333007812 42.4298095703125 L 263.581298828125 33.340850830078125 L 273.2145080566406 19.296051025390625 L 286.56341552734375 15.611175537109375 L 299.14556884765625 21.39581298828125 L 305.03900146484375 33.9273681640625 L 301.46990966796875 47.307708740234375 L 288.6214294433594 56.285064697265625 z" fill="rgb(69%, 85%, 59%)" style="stroke:none;"/>
<path d="M 287.91705322265625 56.881072998046875 L 287.3341979980469 57.596343994140625 L 286.8927001953125 58.40655517578125 L 286.60760498046875 59.284088134765625 L 286.48858642578125 60.19903564453125 L 286.53973388671875 61.12030029296875 L 286.7593078613281 62.016510009765625 L 287.1398010253906 62.857086181640625 L 287.66827392578125 63.613433837890625 L 288.32672119140625 64.25979614257812 L 289.09271240234375 64.774169921875 L 289.940185546875 65.13900756835938 L 290.8403015136719 65.34194946289062 L 291.7623291015625 65.37600708007812 L 292.6749572753906 65.24008178710938 L 293.54705810546875 64.93878173828125 L 294.34893798828125 64.48236083984375 L 310.19091796875 53.413421630859375 L 315.642333984375 32.976226806640625 L 306.64068603515625 13.835479736328125 L 287.42266845703125 5.0 L 267.033447265625 10.628265380859375 L 256.8697204589844 25.446563720703125 L 239.99916076660156 33.380584716796875 L 239.20399475097656 33.848602294921875 L 238.5083770751953 34.454803466796875 L 237.93597412109375 35.178466796875 L 237.5063018798828 35.9949951171875 L 237.23399353027344 36.8765869140625 L 237.1282958984375 37.793182373046875 L 237.1928253173828 38.713623046875 L 237.42538452148438 39.60650634765625 L 237.81805419921875 40.44146728515625 L 238.3574676513672 41.1900634765625 L 239.02523803710938 41.8267822265625 L 239.79864501953125 42.3299560546875 L 240.65133666992188 42.682464599609375 L 241.55429077148438 42.872283935546875 L 242.47674560546875 42.8929443359375 L 243.38729858398438 42.7437744140625 L 244.25491333007812 42.4298095703125 L 263.581298828125 33.340850830078125 L 273.2145080566406 19.296051025390625 L 286.56341552734375 15.611175537109375 L 299.14556884765625 21.39581298828125 L 305.03900146484375 33.9273681640625 L 301.46990966796875 47.307708740234375 L 288.6214294433594 56.285064697265625 z" style="fill:none; stroke:rgb(43%, 84%, 43%); stroke-width:1.0;"/>
<line x1="27.279632236046467" y1="348.4922790527344" x2="27.279632236046467" y2="338.4922790527344" stroke="rgb(35%, 35%, 35%)" stroke-width="1.0" />
<line x1="27.279632236046467" y1="328.4922790527344" x2="27.279632236046467" y2="318.4922790527344" stroke="rgb(35%, 35%, 35%)" stroke-width="1.0" />
<line x1="27.279632236046467" y1="308.4922790527344" x2="27.279632236046467" y2="298.4922790527344" stroke="rgb(35%, 35%, 35%)" stroke-width="1.0" />
<line x1="27.279632236046467" y1="288.4922790527344" x2="27.279632236046467" y2="278.4922790527344" stroke="rgb(35%, 35%, 35%)" stroke-width="1.0" />
<line x1="27.279632236046467" y1="268.4922790527344" x2="27.279632236046467" y2="258.4922790527344" stroke="rgb(35%, 35%, 35%)" stroke-width="1.0" />
<line x1="27.279632236046467" y1="248.4922790527344" x2="27.279632236046467" y2="238.4922790527344" stroke="rgb(35%, 35%, 35%)" stroke-width="1.0" />
<line x1="27.279632236046467" y1="228.4922790527344" x2="27.279632236046467" y2="218.4922790527344" stroke="rgb(35%, 35%, 35%)" stroke-width="1.0" />
<line x1="25.371520429159837" y1="208.87068740781166" x2="22.50936689144384" y2="201.93833426757436" stroke="rgb(35%, 35%, 35%)" stroke-width="1.0" />
<line x1="22.50936689144384" y1="192.69515097772887" x2="25.371520429159837" y2="185.76279783749158" stroke="rgb(35%, 35%, 35%)" stroke-width="1.0" />
<line x1="27.279632236046467" y1="176.14120619256883" x2="27.279632236046467" y2="166.14120619256883" stroke="rgb(35%, 35%, 35%)" stroke-width="1.0" />
<line x1="27.279632236046467" y1="156.14120619256883" x2="27.279632236046467" y2="146.14120619256883" stroke="rgb(35%, 35%, 35%)" stroke-width="1.0" />
<line x1="27.27963223604646" y1="136.14120619256883" x2="27.279632236046446" y2="126.1412061925688" stroke="rgb(35%, 35%, 35%)" stroke-width="1.0" />
<line x1="23.69991654110285" y1="117.6504132248644" x2="18.402795986289306" y2="112.48487697628894" stroke="rgb(35%, 35%, 35%)" stroke-width="1.0" />
<line x1="13.488539719057218" y1="104.17547409898242" x2="11.5137397910385" y2="97.04508728255558" stroke="rgb(35%, 35%, 35%)" stroke-width="1.0" />
<line x1="11.453037482221728" y1="87.39146588604723" x2="13.338012553978192" y2="80.23680866949024" stroke="rgb(35%, 35%, 35%)" stroke-width="1.0" />
<line x1="18.14738472338265" y1="71.86626327665124" x2="23.37912682843598" y2="66.63452117159795" stroke="rgb(35%, 35%, 35%)" stroke-width="1.0" />
<line x1="31.74967222127495" y1="61.82514900219343" x2="38.90432943783202" y2="59.94017393043697" stroke="rgb(35%, 35%, 35%)" stroke-width="1.0" />
<line x1="48.55795083434039" y1="60.00087623925373" x2="55.688337650767195" y2="61.97567616727241" stroke="rgb(35%, 35%, 35%)" stroke-width="1.0" />
<line x1="63.997740528073734" y1="66.88993243450454" x2="69.16327677664921" y2="72.18705298931809" stroke="rgb(35%, 35%, 35%)" stroke-width="1.0" />
<line x1="77.65406974435362" y1="75.7667686842617" x2="87.65406974435362" y2="75.7667686842617" stroke="rgb(35%, 35%, 35%)" stroke-width="1.0" />
<line x1="97.65406974435362" y1="75.7667686842617" x2="107.65406974435362" y2="75.7667686842617" stroke="rgb(35%, 35%, 35%)" stroke-width="1.0" />
<line x1="117.65406974435362" y1="75.7667686842617" x2="127.65406974435362" y2="75.7667686842617" stroke="rgb(35%, 35%, 35%)" stroke-width="1.0" />
<line x1="137.65406974435362" y1="75.7667686842617" x2="147.65406974435362" y2="75.7667686842617" stroke="rgb(35%, 35%, 35%)" stroke-width="1.0" />
<line x1="157.53377689278986" y1="74.67660440971389" x2="164.85346419907322" y2="73.04132971813152" stroke="rgb(35%, 35%, 35%)" stroke-width="1.0" />
<line x1="174.25778808930932" y1="69.82329248219139" x2="183.30702157290904" y2="65.56754655940688" stroke="rgb(35%, 35%, 35%)" stroke-width="1.0" />
<line x1="192.35625505650876" y1="61.31180063662225" x2="201.40548854010848" y2="57.056054713837625" stroke="rgb(35%, 35%, 35%)" stroke-width="1.0" />
<line x1="210.4547220237082" y1="52.800308791053" x2="219.50395550730792" y2="48.544562868268486" stroke="rgb(35%, 35%, 35%)" stroke-width="1.0" />
<line x1="228.55318899090764" y1="44.28881694548386" x2="237.6024224745074" y2="40.03307102269923" stroke="rgb(35%, 35%, 35%)" stroke-width="1.0" />
<line x1="246.65165595810714" y1="35.777325099914606" x2="255.7008894417068" y2="31.521579177130093" stroke="rgb(35%, 35%, 35%)" stroke-width="1.0" />
<line x1="263.05364523346515" y1="25.270402987244836" x2="267.29584010111563" y2="19.085468129131584" stroke="rgb(35%, 35%, 35%)" stroke-width="1.0" />
<line x1="274.94371972425574" y1="13.63171354593726" x2="282.1733072239432" y2="11.636042962252418" stroke="rgb(35%, 35%, 35%)" stroke-width="1.0" />
<line x1="291.5359311392453" y1="12.394182266317046" x2="298.3502341341993" y2="15.527058131586216" stroke="rgb(35%, 35%, 35%)" stroke-width="1.0" />
<line x1="305.02099043771204" y1="22.140265532152057" x2="308.21278956652895" y2="28.927168715158814" stroke="rgb(35%, 35%, 35%)" stroke-width="1.0" />
<line x1="309.05202057240064" y1="38.282872488929" x2="307.119063884847" y2="45.529479621806104" stroke="rgb(35%, 35%, 35%)" stroke-width="1.0" />
<line x1="301.73177718773326" y1="53.22432489814895" x2="295.58382994045627" y2="57.51994838478305" stroke="rgb(35%, 35%, 35%)" stroke-width="1.0" />
<line x1="286.5056055128369" y1="59.93227983496348" x2="279.0362601185829" y2="59.25514183162892" stroke="rgb(35%, 35%, 35%)" stroke-width="1.0" />
<line x1="269.53206369075673" y1="60.93158799882917" x2="260.48283020715706" y2="65.18733392161369" stroke="rgb(35%, 35%, 35%)" stroke-width="1.0" />
<line x1="251.43359672355734" y1="69.44307984439831" x2="242.38436323995757" y2="73.69882576718294" stroke="rgb(35%, 35%, 35%)" stroke-width="1.0" />
<line x1="233.33512975635784" y1="77.95457168996757" x2="224.28589627275812" y2="82.21031761275208" stroke="rgb(35%, 35%, 35%)" stroke-width="1.0" />
<line x1="215.2366627891584" y1="86.4660635355367" x2="206.18742930555868" y2="90.72180945832133" stroke="rgb(35%, 35%, 35%)" stroke-width="1.0" />
<line x1="197.13819582195896" y1="94.9775553811059" x2="188.0889623383592" y2="99.23330130389053" stroke="rgb(35%, 35%, 35%)" stroke-width="1.0" />
<line x1="179.61254155868906" y1="104.42438252563204" x2="173.68483550188358" y2="109.01919491615604" stroke="rgb(35%, 35%, 35%)" stroke-width="1.0" />
<line x1="164.85332811553909" y1="110.99222189300713" x2="157.53377309282783" y2="109.35694996775987" stroke="rgb(35%, 35%, 35%)" stroke-width="1.0" />
<line x1="147.65406974435362" y1="108.2667686842617" x2="137.65406974435362" y2="108.2667686842617" stroke="rgb(35%, 35%, 35%)" stroke-width="1.0" />
<line x1="127.65406974435362" y1="108.2667686842617" x2="117.65406974435362" y2="108.2667686842617" stroke="rgb(35%, 35%, 35%)" stroke-width="1.0" />
<line x1="107.65406974435362" y1="108.2667686842617" x2="97.65406974435362" y2="108.2667686842617" stroke="rgb(35%, 35%, 35%)" stroke-width="1.0" />
<line x1="87.65406974435362" y1="108.2667686842617" x2="77.65406974435362" y2="108.2667686842617" stroke="rgb(35%, 35%, 35%)" stroke-width="1.0" />
<line x1="69.11853583842087" y1="111.80230259019442" x2="63.315166141979205" y2="117.60567228663609" stroke="rgb(35%, 35%, 35%)" stroke-width="1.0" />
<line x1="59.77963223604645" y1="126.1412061925688" x2="59.77963223604645" y2="136.14120619256883" stroke="rgb(35%, 35%, 35%)" stroke-width="1.0" />
<line x1="59.77963223604645" y1="146.14120619256883" x2="59.77963223604645" y2="156.14120619256883" stroke="rgb(35%, 35%, 35%)" stroke-width="1.0" />
<line x1="59.77963223604645" y1="166.14120619256883" x2="59.77963223604647" y2="176.14120619256883" stroke="rgb(35%, 35%, 35%)" stroke-width="1.0" />
<line x1="61.687744042933105" y1="185.76279783749158" x2="64.54989758064909" y2="192.69515097772887" stroke="rgb(35%, 35%, 35%)" stroke-width="1.0" />
<line x1="64.54989758064909" y1="201.93833426757436" x2="61.687744042933105" y2="208.87068740781166" stroke="rgb(35%, 35%, 35%)" stroke-width="1.0" />
<line x1="59.77963223604647" y1="218.4922790527344" x2="59.77963223604647" y2="228.4922790527344" stroke="rgb(35%, 35%, 35%)" stroke-width="1.0" />
<line x1="59.77963223604647" y1="238.4922790527344" x2="59.77963223604647" y2="248.4922790527344" stroke="rgb(35%, 35%, 35%)" stroke-width="1.0" />
<line x1="59.77963223604647" y1="258.4922790527344" x2="59.77963223604647" y2="268.4922790527344" stroke="rgb(35%, 35%, 35%)" stroke-width="1.0" />
<line x1="59.77963223604647" y1="278.4922790527344" x2="59.77963223604647" y2="288.4922790527344" stroke="rgb(35%, 35%, 35%)" stroke-width="1.0" />
<line x1="59.77963223604647" y1="298.4922790527344" x2="59.77963223604647" y2="308.4922790527344" stroke="rgb(35%, 35%, 35%)" stroke-width="1.0" />
<line x1="59.77963223604647" y1="318.4922790527344" x2="59.77963223604647" y2="328.4922790527344" stroke="rgb(35%, 35%, 35%)" stroke-width="1.0" />
<line x1="59.77963223604647" y1="338.4922790527344" x2="59.77963223604647" y2="348.4922790527344" stroke="rgb(35%, 35%, 35%)" stroke-width="1.0" />
<line x1="32.27963223604647" y1="352.2422790527344" x2="54.77963223604647" y2="352.2422790527344" stroke="rgb(0%, 0%, 100%)" stroke-width="1.0" />
<line x1="32.27963223604647" y1="354.7422790527344" x2="54.77963223604647" y2="354.7422790527344" stroke="rgb(0%, 0%, 100%)" stroke-width="1.0" />
<line x1="32.27963223604647" y1="332.2422790527344" x2="54.77963223604647" y2="332.2422790527344" stroke="rgb(0%, 0%, 100%)" stroke-width="1.0" />
<line x1="32.27963223604647" y1="334.7422790527344" x2="54.77963223604647" y2="334.7422790527344" stroke="rgb(0%, 0%, 100%)" stroke-width="1.0" />
<line x1="32.27963223604647" y1="313.4922790527344" x2="54.77963223604647" y2="313.4922790527344" stroke="rgb(0%, 0%, 100%)" stroke-width="1.0" />
<line x1="32.27963223604647" y1="293.4922790527344" x2="54.77963223604647" y2="293.4922790527344" stroke="rgb(0%, 0%, 100%)" stroke-width="1.0" />
<circle cx="43.52963223604647" cy="293.4922790527344" r="2.75" stroke="none" stroke-width="1.0" fill="rgb(100%, 100%, 100%)"/>
<circle cx="43.52963223604647" cy="293.4922790527344" r="2.75" stroke="rgb(0%, 0%, 100%)" stroke-width="1.0" fill="none"/>
<line x1="32.27963223604647" y1="272.2422790527344" x2="54.77963223604647" y2="272.2422790527344" stroke="rgb(0%, 0%, 100%)" stroke-width="1.0" />
<line x1="32.27963223604647" y1="274.7422790527344" x2="54.77963223604647" y2="274.7422790527344" stroke="rgb(0%, 0%, 100%)" stroke-width="1.0" />
<line x1="32.27963223604647" y1="253.4922790527344" x2="54.77963223604647" y2="253.4922790527344" stroke="rgb(0%, 0%, 100%)" stroke-width="1.0" />
<line x1="32.27963223604647" y1="233.4922790527344" x2="54.77963223604647" y2="233.4922790527344" stroke="rgb(0%, 0%, 100%)" stroke-width="1.0" />
<line x1="32.27963223604647" y1="212.2422790527344" x2="54.77963223604647" y2="212.2422790527344" stroke="rgb(0%, 0%, 100%)" stroke-width="1.0" />
<line x1="32.27963223604647" y1="214.7422790527344" x2="54.77963223604647" y2="214.7422790527344" stroke="rgb(0%, 0%, 100%)" stroke-width="1.0" />
<line x1="32.27963223604647" y1="179.89120619256883" x2="54.77963223604647" y2="179.89120619256883" stroke="rgb(0%, 0%, 100%)" stroke-width="1.0" />
<line x1="32.27963223604647" y1="182.39120619256883" x2="54.77963223604647" y2="182.39120619256883" stroke="rgb(0%, 0%, 100%)" stroke-width="1.0" />
<line x1="32.27963223604647" y1="159.89120619256883" x2="54.77963223604645" y2="159.89120619256883" stroke="rgb(0%, 0%, 100%)" stroke-width="1.0" />
<line x1="32.27963223604647" y1="162.39120619256883" x2="54.77963223604645" y2="162.39120619256883" stroke="rgb(0%, 0%, 100%)" stroke-width="1.0" />
<line x1="32.27963223604647" y1="141.14120619256883" x2="54.77963223604645" y2="141.14120619256883" stroke="rgb(0%, 0%, 100%)" stroke-width="1.0" />
<circle cx="43.52963223604646" cy="141.14120619256883" r="2.75" stroke="none" stroke-width="1.0" fill="rgb(100%, 100%, 100%)"/>
<circle cx="43.52963223604646" cy="141.14120619256883" r="2.75" stroke="rgb(0%, 0%, 100%)" stroke-width="1.0" fill="none"/>
<line x1="32.27963223604644" y1="121.1412061925688" x2="54.77963223604645" y2="121.1412061925688" stroke="rgb(0%, 0%, 100%)" stroke-width="1.0" />
<line x1="72.65406974435362" y1="80.7667686842617" x2="72.65406974435362" y2="103.2667686842617" stroke="rgb(0%, 0%, 100%)" stroke-width="1.0" />
<line x1="92.65406974435362" y1="80.7667686842617" x2="92.65406974435362" y2="103.2667686842617" stroke="rgb(0%, 0%, 100%)" stroke-width="1.0" />
<line x1="113.90406974435362" y1="80.7667686842617" x2="113.90406974435362" y2="103.2667686842617" stroke="rgb(0%, 0%, 100%)" stroke-width="1.0" />
<line x1="111.40406974435362" y1="80.7667686842617" x2="111.40406974435362" y2="103.2667686842617" stroke="rgb(0%, 0%, 100%)" stroke-width="1.0" />
<line x1="133.90406974435362" y1="80.7667686842617" x2="133.90406974435362" y2="103.2667686842617" stroke="rgb(0%, 0%, 100%)" stroke-width="1.0" />
<line x1="131.40406974435362" y1="80.7667686842617" x2="131.40406974435362" y2="103.2667686842617" stroke="rgb(0%, 0%, 100%)" stroke-width="1.0" />
<line x1="153.90406974435362" y1="80.7667686842617" x2="153.90406974435362" y2="103.2667686842617" stroke="rgb(0%, 0%, 100%)" stroke-width="1.0" />
<line x1="151.40406974435362" y1="80.7667686842617" x2="151.40406974435362" y2="103.2667686842617" stroke="rgb(0%, 0%, 100%)" stroke-width="1.0" />
<line x1="171.86104430890174" y1="76.4757821853836" x2="181.43647263516706" y2="96.8365575234829" stroke="rgb(0%, 0%, 100%)" stroke-width="1.0" />
<circle cx="176.6487584720344" cy="86.65616985443324" r="2.75" stroke="none" stroke-width="1.0" fill="rgb(100%, 100%, 100%)"/>
<circle cx="176.6487584720344" cy="86.65616985443324" r="2.75" stroke="rgb(0%, 0%, 100%)" stroke-width="1.0" fill="none"/>
<line x1="191.09066546155114" y1="67.43232209946632" x2="200.6660937878165" y2="87.79309743756573" stroke="rgb(0%, 0%, 100%)" stroke-width="1.0" />
<line x1="188.82835709065122" y1="68.49625858016248" x2="198.40378541691658" y2="88.85703391826189" stroke="rgb(0%, 0%, 100%)" stroke-width="1.0" />
<line x1="209.18913242875058" y1="58.920830253897066" x2="218.76456075501594" y2="79.28160559199648" stroke="rgb(0%, 0%, 100%)" stroke-width="1.0" />
<line x1="206.92682405785067" y1="59.98476673459322" x2="216.50225238411602" y2="80.34554207269264" stroke="rgb(0%, 0%, 100%)" stroke-width="1.0" />
<line x1="226.15644521050007" y1="50.941306648676004" x2="235.73187353676542" y2="71.30208198677542" stroke="rgb(0%, 0%, 100%)" stroke-width="1.0" />
<line x1="244.25491217769957" y1="42.42981480310675" x2="253.83034050396486" y2="62.79059014120617" stroke="rgb(0%, 0%, 100%)" stroke-width="1.0" />
<line x1="263.484533330349" y1="33.38635471718953" x2="273.0599616566143" y2="53.74713005528895" stroke="rgb(0%, 0%, 100%)" stroke-width="1.0" />
<line x1="261.222224959449" y1="34.45029119788569" x2="270.7976532857143" y2="54.811066535985105" stroke="rgb(0%, 0%, 100%)" stroke-width="1.0" />
<circle cx="27.279632236046467" cy="353.4922790527344" r="5.0" stroke="none" stroke-width="1.0" fill="rgb(94%, 94%, 94%)"/>
<circle cx="27.279632236046467" cy="353.4922790527344" r="5.0" stroke="rgb(35%, 35%, 35%)" stroke-width="1.0" fill="none"/>
<text x="27.279632236046467" y="356.4922790527344" text-anchor="middle" font-family="Verdana" font-size="7.5" fill="rgb(0%, 0%, 0%)" >G</text>
<circle cx="27.279632236046467" cy="333.4922790527344" r="5.0" stroke="none" stroke-width="1.0" fill="rgb(94%, 94%, 94%)"/>
<circle cx="27.279632236046467" cy="333.4922790527344" r="5.0" stroke="rgb(35%, 35%, 35%)" stroke-width="1.0" fill="none"/>
<text x="27.279632236046467" y="336.4922790527344" text-anchor="middle" font-family="Verdana" font-size="7.5" fill="rgb(0%, 0%, 0%)" >G</text>
<circle cx="27.279632236046467" cy="313.4922790527344" r="5.0" stroke="none" stroke-width="1.0" fill="rgb(94%, 94%, 94%)"/>
<circle cx="27.279632236046467" cy="313.4922790527344" r="5.0" stroke="rgb(35%, 35%, 35%)" stroke-width="1.0" fill="none"/>
<text x="27.279632236046467" y="316.4922790527344" text-anchor="middle" font-family="Verdana" font-size="7.5" fill="rgb(0%, 0%, 0%)" >U</text>
<circle cx="27.279632236046467" cy="293.4922790527344" r="5.0" stroke="none" stroke-width="1.0" fill="rgb(94%, 94%, 94%)"/>
<circle cx="27.279632236046467" cy="293.4922790527344" r="5.0" stroke="rgb(35%, 35%, 35%)" stroke-width="1.0" fill="none"/>
<text x="27.279632236046467" y="296.4922790527344" text-anchor="middle" font-family="Verdana" font-size="7.5" fill="rgb(0%, 0%, 0%)" >U</text>
<circle cx="27.279632236046467" cy="273.4922790527344" r="5.0" stroke="none" stroke-width="1.0" fill="rgb(94%, 94%, 94%)"/>
<circle cx="27.279632236046467" cy="273.4922790527344" r="5.0" stroke="rgb(35%, 35%, 35%)" stroke-width="1.0" fill="none"/>
<text x="27.279632236046467" y="276.4922790527344" text-anchor="middle" font-family="Verdana" font-size="7.5" fill="rgb(0%, 0%, 0%)" >C</text>
<circle cx="27.279632236046467" cy="253.4922790527344" r="5.0" stroke="none" stroke-width="1.0" fill="rgb(94%, 94%, 94%)"/>
<circle cx="27.279632236046467" cy="253.4922790527344" r="5.0" stroke="rgb(35%, 35%, 35%)" stroke-width="1.0" fill="none"/>
<text x="27.279632236046467" y="256.4922790527344" text-anchor="middle" font-family="Verdana" font-size="7.5" fill="rgb(0%, 0%, 0%)" >A</text>
<circle cx="27.279632236046467" cy="233.4922790527344" r="5.0" stroke="none" stroke-width="1.0" fill="rgb(94%, 94%, 94%)"/>
<circle cx="27.279632236046467" cy="233.4922790527344" r="5.0" stroke="rgb(35%, 35%, 35%)" stroke-width="1.0" fill="none"/>
<text x="27.279632236046467" y="236.4922790527344" text-anchor="middle" font-family="Verdana" font-size="7.5" fill="rgb(0%, 0%, 0%)" >U</text>
<circle cx="27.279632236046467" cy="213.4922790527344" r="5.0" stroke="none" stroke-width="1.0" fill="rgb(94%, 94%, 94%)"/>
<circle cx="27.279632236046467" cy="213.4922790527344" r="5.0" stroke="rgb(35%, 35%, 35%)" stroke-width="1.0" fill="none"/>
<text x="27.279632236046467" y="216.4922790527344" text-anchor="middle" font-family="Verdana" font-size="7.5" fill="rgb(0%, 0%, 0%)" >G</text>
<circle cx="20.60125508455721" cy="197.31674262265162" r="5.0" stroke="none" stroke-width="1.0" fill="rgb(94%, 94%, 94%)"/>
<circle cx="20.60125508455721" cy="197.31674262265162" r="5.0" stroke="rgb(35%, 35%, 35%)" stroke-width="1.0" fill="none"/>
<text x="20.60125508455721" y="200.31674262265162" text-anchor="middle" font-family="Verdana" font-size="7.5" fill="rgb(0%, 0%, 0%)" >U</text>
<circle cx="27.279632236046467" cy="181.14120619256883" r="5.0" stroke="none" stroke-width="1.0" fill="rgb(94%, 94%, 94%)"/>
<circle cx="27.279632236046467" cy="181.14120619256883" r="5.0" stroke="rgb(35%, 35%, 35%)" stroke-width="1.0" fill="none"/>
<text x="27.279632236046467" y="184.14120619256883" text-anchor="middle" font-family="Verdana" font-size="7.5" fill="rgb(0%, 0%, 0%)" >C</text>
<circle cx="27.279632236046467" cy="161.14120619256883" r="5.0" stroke="none" stroke-width="1.0" fill="rgb(94%, 94%, 94%)"/>
<circle cx="27.279632236046467" cy="161.14120619256883" r="5.0" stroke="rgb(35%, 35%, 35%)" stroke-width="1.0" fill="none"/>
<text x="27.279632236046467" y="164.14120619256883" text-anchor="middle" font-family="Verdana" font-size="7.5" fill="rgb(0%, 0%, 0%)" >C</text>
<circle cx="27.279632236046467" cy="141.14120619256883" r="5.0" stroke="none" stroke-width="1.0" fill="rgb(94%, 94%, 94%)"/>
<circle cx="27.279632236046467" cy="141.14120619256883" r="5.0" stroke="rgb(35%, 35%, 35%)" stroke-width="1.0" fill="none"/>
<text x="27.279632236046467" y="144.14120619256883" text-anchor="middle" font-family="Verdana" font-size="7.5" fill="rgb(0%, 0%, 0%)" >U</text>
<circle cx="27.27963223604644" cy="121.1412061925688" r="5.0" stroke="none" stroke-width="1.0" fill="rgb(94%, 94%, 94%)"/>
<circle cx="27.27963223604644" cy="121.1412061925688" r="5.0" stroke="rgb(35%, 35%, 35%)" stroke-width="1.0" fill="none"/>
<text x="27.27963223604644" y="124.1412061925688" text-anchor="middle" font-family="Verdana" font-size="7.5" fill="rgb(0%, 0%, 0%)" >A</text>
<circle cx="14.823080291345718" cy="108.99408400858454" r="5.0" stroke="none" stroke-width="1.0" fill="rgb(94%, 94%, 94%)"/>
<circle cx="14.823080291345718" cy="108.99408400858454" r="5.0" stroke="rgb(35%, 35%, 35%)" stroke-width="1.0" fill="none"/>
<text x="14.823080291345718" y="111.99408400858454" text-anchor="middle" font-family="Verdana" font-size="7.5" fill="rgb(0%, 0%, 0%)" >C</text>
<circle cx="10.17919921875" cy="92.22647737295347" r="5.0" stroke="none" stroke-width="1.0" fill="rgb(94%, 94%, 94%)"/>
<circle cx="10.17919921875" cy="92.22647737295347" r="5.0" stroke="rgb(35%, 35%, 35%)" stroke-width="1.0" fill="none"/>
<text x="10.17919921875" y="95.22647737295347" text-anchor="middle" font-family="Verdana" font-size="7.5" fill="rgb(0%, 0%, 0%)" >U</text>
<circle cx="14.61185081744992" cy="75.401797182584" r="5.0" stroke="none" stroke-width="1.0" fill="rgb(94%, 94%, 94%)"/>
<circle cx="14.61185081744992" cy="75.401797182584" r="5.0" stroke="rgb(35%, 35%, 35%)" stroke-width="1.0" fill="none"/>
<text x="14.61185081744992" y="78.401797182584" text-anchor="middle" font-family="Verdana" font-size="7.5" fill="rgb(0%, 0%, 0%)" >G</text>
<circle cx="26.91466073436871" cy="63.09898726566519" r="5.0" stroke="none" stroke-width="1.0" fill="rgb(94%, 94%, 94%)"/>
<circle cx="26.91466073436871" cy="63.09898726566519" r="5.0" stroke="rgb(35%, 35%, 35%)" stroke-width="1.0" fill="none"/>
<text x="26.91466073436871" y="66.09898726566519" text-anchor="middle" font-family="Verdana" font-size="7.5" fill="rgb(0%, 0%, 0%)" >U</text>
<circle cx="43.73934092473826" cy="58.66633566696521" r="5.0" stroke="none" stroke-width="1.0" fill="rgb(94%, 94%, 94%)"/>
<circle cx="43.73934092473826" cy="58.66633566696521" r="5.0" stroke="rgb(35%, 35%, 35%)" stroke-width="1.0" fill="none"/>
<text x="43.73934092473826" y="61.66633566696521" text-anchor="middle" font-family="Verdana" font-size="7.5" fill="rgb(0%, 0%, 0%)" >U</text>
<circle cx="60.506947560369326" cy="63.31021673956093" r="5.0" stroke="none" stroke-width="1.0" fill="rgb(94%, 94%, 94%)"/>
<circle cx="60.506947560369326" cy="63.31021673956093" r="5.0" stroke="rgb(35%, 35%, 35%)" stroke-width="1.0" fill="none"/>
<text x="60.506947560369326" y="66.31021673956093" text-anchor="middle" font-family="Verdana" font-size="7.5" fill="rgb(0%, 0%, 0%)" >C</text>
<circle cx="72.65406974435362" cy="75.7667686842617" r="5.0" stroke="none" stroke-width="1.0" fill="rgb(94%, 94%, 94%)"/>
<circle cx="72.65406974435362" cy="75.7667686842617" r="5.0" stroke="rgb(35%, 35%, 35%)" stroke-width="1.0" fill="none"/>
<text x="72.65406974435362" y="78.7667686842617" text-anchor="middle" font-family="Verdana" font-size="7.5" fill="rgb(0%, 0%, 0%)" >A</text>
<circle cx="92.65406974435362" cy="75.7667686842617" r="5.0" stroke="none" stroke-width="1.0" fill="rgb(94%, 94%, 94%)"/>
<circle cx="92.65406974435362" cy="75.7667686842617" r="5.0" stroke="rgb(35%, 35%, 35%)" stroke-width="1.0" fill="none"/>
<text x="92.65406974435362" y="78.7667686842617" text-anchor="middle" font-family="Verdana" font-size="7.5" fill="rgb(0%, 0%, 0%)" >A</text>
<circle cx="112.65406974435362" cy="75.7667686842617" r="5.0" stroke="none" stroke-width="1.0" fill="rgb(94%, 94%, 94%)"/>
<circle cx="112.65406974435362" cy="75.7667686842617" r="5.0" stroke="rgb(35%, 35%, 35%)" stroke-width="1.0" fill="none"/>
<text x="112.65406974435362" y="78.7667686842617" text-anchor="middle" font-family="Verdana" font-size="7.5" fill="rgb(0%, 0%, 0%)" >G</text>
<circle cx="132.65406974435362" cy="75.7667686842617" r="5.0" stroke="none" stroke-width="1.0" fill="rgb(94%, 94%, 94%)"/>
<circle cx="132.65406974435362" cy="75.7667686842617" r="5.0" stroke="rgb(35%, 35%, 35%)" stroke-width="1.0" fill="none"/>
<text x="132.65406974435362" y="78.7667686842617" text-anchor="middle" font-family="Verdana" font-size="7.5" fill="rgb(0%, 0%, 0%)" >C</text>
<circle cx="152.65406974435362" cy="75.7667686842617" r="5.0" stroke="none" stroke-width="1.0" fill="rgb(94%, 94%, 94%)"/>
<circle cx="152.65406974435362" cy="75.7667686842617" r="5.0" stroke="rgb(35%, 35%, 35%)" stroke-width="1.0" fill="none"/>
<text x="152.65406974435362" y="78.7667686842617" text-anchor="middle" font-family="Verdana" font-size="7.5" fill="rgb(0%, 0%, 0%)" >C</text>
<circle cx="169.73317134750945" cy="71.9511654435837" r="5.0" stroke="none" stroke-width="1.0" fill="rgb(94%, 94%, 94%)"/>
<circle cx="169.73317134750945" cy="71.9511654435837" r="5.0" stroke="rgb(35%, 35%, 35%)" stroke-width="1.0" fill="none"/>
<text x="169.73317134750945" y="74.9511654435837" text-anchor="middle" font-family="Verdana" font-size="7.5" fill="rgb(0%, 0%, 0%)" >U</text>
<circle cx="187.8316383147089" cy="63.439673598014565" r="5.0" stroke="none" stroke-width="1.0" fill="rgb(94%, 94%, 94%)"/>
<circle cx="187.8316383147089" cy="63.439673598014565" r="5.0" stroke="rgb(35%, 35%, 35%)" stroke-width="1.0" fill="none"/>
<text x="187.8316383147089" y="66.43967359801456" text-anchor="middle" font-family="Verdana" font-size="7.5" fill="rgb(0%, 0%, 0%)" >C</text>
<circle cx="205.93010528190834" cy="54.92818175244531" r="5.0" stroke="none" stroke-width="1.0" fill="rgb(94%, 94%, 94%)"/>
<circle cx="205.93010528190834" cy="54.92818175244531" r="5.0" stroke="rgb(35%, 35%, 35%)" stroke-width="1.0" fill="none"/>
<text x="205.93010528190834" y="57.92818175244531" text-anchor="middle" font-family="Verdana" font-size="7.5" fill="rgb(0%, 0%, 0%)" >C</text>
<circle cx="224.02857224910778" cy="46.41668990687617" r="5.0" stroke="none" stroke-width="1.0" fill="rgb(94%, 94%, 94%)"/>
<circle cx="224.02857224910778" cy="46.41668990687617" r="5.0" stroke="rgb(35%, 35%, 35%)" stroke-width="1.0" fill="none"/>
<text x="224.02857224910778" y="49.41668990687617" text-anchor="middle" font-family="Verdana" font-size="7.5" fill="rgb(0%, 0%, 0%)" >A</text>
<circle cx="242.12703921630725" cy="37.90519806130692" r="5.0" stroke="none" stroke-width="1.0" fill="rgb(94%, 94%, 94%)"/>
<circle cx="242.12703921630725" cy="37.90519806130692" r="5.0" stroke="rgb(35%, 35%, 35%)" stroke-width="1.0" fill="none"/>
<text x="242.12703921630725" y="40.90519806130692" text-anchor="middle" font-family="Verdana" font-size="7.5" fill="rgb(0%, 0%, 0%)" >A</text>
<circle cx="260.2255061835067" cy="29.39370621573778" r="5.0" stroke="none" stroke-width="1.0" fill="rgb(94%, 94%, 94%)"/>
<circle cx="260.2255061835067" cy="29.39370621573778" r="5.0" stroke="rgb(35%, 35%, 35%)" stroke-width="1.0" fill="none"/>
<text x="260.2255061835067" y="32.39370621573778" text-anchor="middle" font-family="Verdana" font-size="7.5" fill="rgb(0%, 0%, 0%)" >G</text>
<circle cx="270.1239791510741" cy="14.96216490063864" r="5.0" stroke="none" stroke-width="1.0" fill="rgb(94%, 94%, 94%)"/>
<circle cx="270.1239791510741" cy="14.96216490063864" r="5.0" stroke="rgb(35%, 35%, 35%)" stroke-width="1.0" fill="none"/>
<text x="270.1239791510741" y="17.96216490063864" text-anchor="middle" font-family="Verdana" font-size="7.5" fill="rgb(0%, 0%, 0%)" >C</text>
<circle cx="286.99304779712486" cy="10.305591607551037" r="5.0" stroke="none" stroke-width="1.0" fill="rgb(94%, 94%, 94%)"/>
<circle cx="286.99304779712486" cy="10.305591607551037" r="5.0" stroke="rgb(35%, 35%, 35%)" stroke-width="1.0" fill="none"/>
<text x="286.99304779712486" y="13.305591607551037" text-anchor="middle" font-family="Verdana" font-size="7.5" fill="rgb(0%, 0%, 0%)" >U</text>
<circle cx="302.89311747631973" cy="17.615648790352225" r="5.0" stroke="none" stroke-width="1.0" fill="rgb(94%, 94%, 94%)"/>
<circle cx="302.89311747631973" cy="17.615648790352225" r="5.0" stroke="rgb(35%, 35%, 35%)" stroke-width="1.0" fill="none"/>
<text x="302.89311747631973" y="20.615648790352225" text-anchor="middle" font-family="Verdana" font-size="7.5" fill="rgb(0%, 0%, 0%)" >G</text>
<circle cx="310.34066252792127" cy="33.451785456958646" r="5.0" stroke="none" stroke-width="1.0" fill="rgb(94%, 94%, 94%)"/>
<circle cx="310.34066252792127" cy="33.451785456958646" r="5.0" stroke="rgb(35%, 35%, 35%)" stroke-width="1.0" fill="none"/>
<text x="310.34066252792127" y="36.451785456958646" text-anchor="middle" font-family="Verdana" font-size="7.5" fill="rgb(0%, 0%, 0%)" >U</text>
<circle cx="305.83042192932635" cy="50.36056665377646" r="5.0" stroke="none" stroke-width="1.0" fill="rgb(94%, 94%, 94%)"/>
<circle cx="305.83042192932635" cy="50.36056665377646" r="5.0" stroke="rgb(35%, 35%, 35%)" stroke-width="1.0" fill="none"/>
<text x="305.83042192932635" y="53.36056665377646" text-anchor="middle" font-family="Verdana" font-size="7.5" fill="rgb(0%, 0%, 0%)" >G</text>
<circle cx="291.4851851988632" cy="60.38370662915554" r="5.0" stroke="none" stroke-width="1.0" fill="rgb(94%, 94%, 94%)"/>
<circle cx="291.4851851988632" cy="60.38370662915554" r="5.0" stroke="rgb(35%, 35%, 35%)" stroke-width="1.0" fill="none"/>
<text x="291.4851851988632" y="63.38370662915554" text-anchor="middle" font-family="Verdana" font-size="7.5" fill="rgb(0%, 0%, 0%)" >C</text>
<circle cx="274.0566804325566" cy="58.80371503743686" r="5.0" stroke="none" stroke-width="1.0" fill="rgb(94%, 94%, 94%)"/>
<circle cx="274.0566804325566" cy="58.80371503743686" r="5.0" stroke="rgb(35%, 35%, 35%)" stroke-width="1.0" fill="none"/>
<text x="274.0566804325566" y="61.80371503743686" text-anchor="middle" font-family="Verdana" font-size="7.5" fill="rgb(0%, 0%, 0%)" >C</text>
<circle cx="255.95821346535718" cy="67.315206883006" r="5.0" stroke="none" stroke-width="1.0" fill="rgb(94%, 94%, 94%)"/>
<circle cx="255.95821346535718" cy="67.315206883006" r="5.0" stroke="rgb(35%, 35%, 35%)" stroke-width="1.0" fill="none"/>
<text x="255.95821346535718" y="70.315206883006" text-anchor="middle" font-family="Verdana" font-size="7.5" fill="rgb(0%, 0%, 0%)" >U</text>
<circle cx="237.8597464981577" cy="75.82669872857525" r="5.0" stroke="none" stroke-width="1.0" fill="rgb(94%, 94%, 94%)"/>
<circle cx="237.8597464981577" cy="75.82669872857525" r="5.0" stroke="rgb(35%, 35%, 35%)" stroke-width="1.0" fill="none"/>
<text x="237.8597464981577" y="78.82669872857525" text-anchor="middle" font-family="Verdana" font-size="7.5" fill="rgb(0%, 0%, 0%)" >U</text>
<circle cx="219.76127953095826" cy="84.33819057414439" r="5.0" stroke="none" stroke-width="1.0" fill="rgb(94%, 94%, 94%)"/>
<circle cx="219.76127953095826" cy="84.33819057414439" r="5.0" stroke="rgb(35%, 35%, 35%)" stroke-width="1.0" fill="none"/>
<text x="219.76127953095826" y="87.33819057414439" text-anchor="middle" font-family="Verdana" font-size="7.5" fill="rgb(0%, 0%, 0%)" >G</text>
<circle cx="201.66281256375882" cy="92.84968241971364" r="5.0" stroke="none" stroke-width="1.0" fill="rgb(94%, 94%, 94%)"/>
<circle cx="201.66281256375882" cy="92.84968241971364" r="5.0" stroke="rgb(35%, 35%, 35%)" stroke-width="1.0" fill="none"/>
<text x="201.66281256375882" y="95.84968241971364" text-anchor="middle" font-family="Verdana" font-size="7.5" fill="rgb(0%, 0%, 0%)" >G</text>
<circle cx="183.56434559655935" cy="101.36117426528278" r="5.0" stroke="none" stroke-width="1.0" fill="rgb(94%, 94%, 94%)"/>
<circle cx="183.56434559655935" cy="101.36117426528278" r="5.0" stroke="rgb(35%, 35%, 35%)" stroke-width="1.0" fill="none"/>
<text x="183.56434559655935" y="104.36117426528278" text-anchor="middle" font-family="Verdana" font-size="7.5" fill="rgb(0%, 0%, 0%)" >G</text>
<circle cx="169.7330314640133" cy="112.0824031765053" r="5.0" stroke="none" stroke-width="1.0" fill="rgb(94%, 94%, 94%)"/>
<circle cx="169.7330314640133" cy="112.0824031765053" r="5.0" stroke="rgb(35%, 35%, 35%)" stroke-width="1.0" fill="none"/>
<text x="169.7330314640133" y="115.0824031765053" text-anchor="middle" font-family="Verdana" font-size="7.5" fill="rgb(0%, 0%, 0%)" >U</text>
<circle cx="152.65406974435362" cy="108.2667686842617" r="5.0" stroke="none" stroke-width="1.0" fill="rgb(94%, 94%, 94%)"/>
<circle cx="152.65406974435362" cy="108.2667686842617" r="5.0" stroke="rgb(35%, 35%, 35%)" stroke-width="1.0" fill="none"/>
<text x="152.65406974435362" y="111.2667686842617" text-anchor="middle" font-family="Verdana" font-size="7.5" fill="rgb(0%, 0%, 0%)" >G</text>
<circle cx="132.65406974435362" cy="108.2667686842617" r="5.0" stroke="none" stroke-width="1.0" fill="rgb(94%, 94%, 94%)"/>
<circle cx="132.65406974435362" cy="108.2667686842617" r="5.0" stroke="rgb(35%, 35%, 35%)" stroke-width="1.0" fill="none"/>
<text x="132.65406974435362" y="111.2667686842617" text-anchor="middle" font-family="Verdana" font-size="7.5" fill="rgb(0%, 0%, 0%)" >G</text>
<circle cx="112.65406974435362" cy="108.2667686842617" r="5.0" stroke="none" stroke-width="1.0" fill="rgb(94%, 94%, 94%)"/>
<circle cx="112.65406974435362" cy="108.2667686842617" r="5.0" stroke="rgb(35%, 35%, 35%)" stroke-width="1.0" fill="none"/>
<text x="112.65406974435362" y="111.2667686842617" text-anchor="middle" font-family="Verdana" font-size="7.5" fill="rgb(0%, 0%, 0%)" >C</text>
<circle cx="92.65406974435362" cy="108.2667686842617" r="5.0" stroke="none" stroke-width="1.0" fill="rgb(94%, 94%, 94%)"/>
<circle cx="92.65406974435362" cy="108.2667686842617" r="5.0" stroke="rgb(35%, 35%, 35%)" stroke-width="1.0" fill="none"/>
<text x="92.65406974435362" y="111.2667686842617" text-anchor="middle" font-family="Verdana" font-size="7.5" fill="rgb(0%, 0%, 0%)" >U</text>
<circle cx="72.65406974435362" cy="108.2667686842617" r="5.0" stroke="none" stroke-width="1.0" fill="rgb(94%, 94%, 94%)"/>
<circle cx="72.65406974435362" cy="108.2667686842617" r="5.0" stroke="rgb(35%, 35%, 35%)" stroke-width="1.0" fill="none"/>
<text x="72.65406974435362" y="111.2667686842617" text-anchor="middle" font-family="Verdana" font-size="7.5" fill="rgb(0%, 0%, 0%)" >U</text>
<circle cx="59.77963223604645" cy="121.1412061925688" r="5.0" stroke="none" stroke-width="1.0" fill="rgb(94%, 94%, 94%)"/>
<circle cx="59.77963223604645" cy="121.1412061925688" r="5.0" stroke="rgb(35%, 35%, 35%)" stroke-width="1.0" fill="none"/>
<text x="59.77963223604645" y="124.1412061925688" text-anchor="middle" font-family="Verdana" font-size="7.5" fill="rgb(0%, 0%, 0%)" >U</text>
<circle cx="59.77963223604645" cy="141.14120619256883" r="5.0" stroke="none" stroke-width="1.0" fill="rgb(94%, 94%, 94%)"/>
<circle cx="59.77963223604645" cy="141.14120619256883" r="5.0" stroke="rgb(35%, 35%, 35%)" stroke-width="1.0" fill="none"/>
<text x="59.77963223604645" y="144.14120619256883" text-anchor="middle" font-family="Verdana" font-size="7.5" fill="rgb(0%, 0%, 0%)" >G</text>
<circle cx="59.77963223604645" cy="161.14120619256883" r="5.0" stroke="none" stroke-width="1.0" fill="rgb(94%, 94%, 94%)"/>
<circle cx="59.77963223604645" cy="161.14120619256883" r="5.0" stroke="rgb(35%, 35%, 35%)" stroke-width="1.0" fill="none"/>
<text x="59.77963223604645" y="164.14120619256883" text-anchor="middle" font-family="Verdana" font-size="7.5" fill="rgb(0%, 0%, 0%)" >G</text>
<circle cx="59.77963223604647" cy="181.14120619256883" r="5.0" stroke="none" stroke-width="1.0" fill="rgb(94%, 94%, 94%)"/>
<circle cx="59.77963223604647" cy="181.14120619256883" r="5.0" stroke="rgb(35%, 35%, 35%)" stroke-width="1.0" fill="none"/>
<text x="59.77963223604647" y="184.14120619256883" text-anchor="middle" font-family="Verdana" font-size="7.5" fill="rgb(0%, 0%, 0%)" >G</text>
<circle cx="66.45800938753572" cy="197.31674262265162" r="5.0" stroke="none" stroke-width="1.0" fill="rgb(94%, 94%, 94%)"/>
<circle cx="66.45800938753572" cy="197.31674262265162" r="5.0" stroke="rgb(35%, 35%, 35%)" stroke-width="1.0" fill="none"/>
<text x="66.45800938753572" y="200.31674262265162" text-anchor="middle" font-family="Verdana" font-size="7.5" fill="rgb(0%, 0%, 0%)" >G</text>
<circle cx="59.77963223604647" cy="213.4922790527344" r="5.0" stroke="none" stroke-width="1.0" fill="rgb(94%, 94%, 94%)"/>
<circle cx="59.77963223604647" cy="213.4922790527344" r="5.0" stroke="rgb(35%, 35%, 35%)" stroke-width="1.0" fill="none"/>
<text x="59.77963223604647" y="216.4922790527344" text-anchor="middle" font-family="Verdana" font-size="7.5" fill="rgb(0%, 0%, 0%)" >C</text>
<circle cx="59.77963223604647" cy="233.4922790527344" r="5.0" stroke="none" stroke-width="1.0" fill="rgb(94%, 94%, 94%)"/>
<circle cx="59.77963223604647" cy="233.4922790527344" r="5.0" stroke="rgb(35%, 35%, 35%)" stroke-width="1.0" fill="none"/>
<text x="59.77963223604647" y="236.4922790527344" text-anchor="middle" font-family="Verdana" font-size="7.5" fill="rgb(0%, 0%, 0%)" >A</text>
<circle cx="59.77963223604647" cy="253.4922790527344" r="5.0" stroke="none" stroke-width="1.0" fill="rgb(94%, 94%, 94%)"/>
<circle cx="59.77963223604647" cy="253.4922790527344" r="5.0" stroke="rgb(35%, 35%, 35%)" stroke-width="1.0" fill="none"/>
<text x="59.77963223604647" y="256.4922790527344" text-anchor="middle" font-family="Verdana" font-size="7.5" fill="rgb(0%, 0%, 0%)" >U</text>
<circle cx="59.77963223604647" cy="273.4922790527344" r="5.0" stroke="none" stroke-width="1.0" fill="rgb(94%, 94%, 94%)"/>
<circle cx="59.77963223604647" cy="273.4922790527344" r="5.0" stroke="rgb(35%, 35%, 35%)" stroke-width="1.0" fill="none"/>
<text x="59.77963223604647" y="276.4922790527344" text-anchor="middle" font-family="Verdana" font-size="7.5" fill="rgb(0%, 0%, 0%)" >G</text>
<circle cx="59.77963223604647" cy="293.4922790527344" r="5.0" stroke="none" stroke-width="1.0" fill="rgb(94%, 94%, 94%)"/>
<circle cx="59.77963223604647" cy="293.4922790527344" r="5.0" stroke="rgb(35%, 35%, 35%)" stroke-width="1.0" fill="none"/>
<text x="59.77963223604647" y="296.4922790527344" text-anchor="middle" font-family="Verdana" font-size="7.5" fill="rgb(0%, 0%, 0%)" >G</text>
<circle cx="59.77963223604647" cy="313.4922790527344" r="5.0" stroke="none" stroke-width="1.0" fill="rgb(94%, 94%, 94%)"/>
<circle cx="59.77963223604647" cy="313.4922790527344" r="5.0" stroke="rgb(35%, 35%, 35%)" stroke-width="1.0" fill="none"/>
<text x="59.77963223604647" y="316.4922790527344" text-anchor="middle" font-family="Verdana" font-size="7.5" fill="rgb(0%, 0%, 0%)" >A</text>
<circle cx="59.77963223604647" cy="333.4922790527344" r="5.0" stroke="none" stroke-width="1.0" fill="rgb(94%, 94%, 94%)"/>
<circle cx="59.77963223604647" cy="333.4922790527344" r="5.0" stroke="rgb(35%, 35%, 35%)" stroke-width="1.0" fill="none"/>
<text x="59.77963223604647" y="336.4922790527344" text-anchor="middle" font-family="Verdana" font-size="7.5" fill="rgb(0%, 0%, 0%)" >C</text>
<circle cx="59.77963223604647" cy="353.4922790527344" r="5.0" stroke="none" stroke-width="1.0" fill="rgb(94%, 94%, 94%)"/>
<circle cx="59.77963223604647" cy="353.4922790527344" r="5.0" stroke="rgb(35%, 35%, 35%)" stroke-width="1.0" fill="none"/>
<text x="59.77963223604647" y="356.4922790527344" text-anchor="middle" font-family="Verdana" font-size="7.5" fill="rgb(0%, 0%, 0%)" >C</text>
<line x1="27.279632236046467" y1="360.9922790527344" x2="27.279632236046467" y2="365.9922790527344" stroke="rgb(25%, 25%, 25%)" stroke-width="1.0" />
<text x="27.279632236046467" y="376.4922790527344" text-anchor="middle" font-family="Verdana" font-size="7.5" fill="rgb(25%, 25%, 25%)" >1</text>
<line x1="19.779632236046467" y1="181.14120619256883" x2="14.779632236046467" y2="181.14120619256883" stroke="rgb(25%, 25%, 25%)" stroke-width="1.0" />
<text x="7.279632236046467" y="184.14120619256883" text-anchor="middle" font-family="Verdana" font-size="7.5" fill="rgb(25%, 25%, 25%)" >10</text>
<line x1="74.63314635552383" y1="68.5325959072872" x2="75.95253076297065" y2="63.70981405597087" stroke="rgb(25%, 25%, 25%)" stroke-width="1.0" />
<text x="77.93160737414087" y="59.47564127899636" text-anchor="middle" font-family="Verdana" font-size="7.5" fill="rgb(25%, 25%, 25%)" >20</text>
<line x1="256.4370313081873" y1="22.920881629896314" x2="253.91138139130766" y2="18.605665239335394" stroke="rgb(25%, 25%, 25%)" stroke-width="1.0" />
<text x="250.12290651598823" y="15.132840653493929" text-anchor="middle" font-family="Verdana" font-size="7.5" fill="rgb(25%, 25%, 25%)" >30</text>
<line x1="222.9530889730467" y1="91.1251156868442" x2="225.08096193443902" y2="95.64973242864403" stroke="rgb(25%, 25%, 25%)" stroke-width="1.0" />
<text x="228.2727713765275" y="105.43665754134383" text-anchor="middle" font-family="Verdana" font-size="7.5" fill="rgb(25%, 25%, 25%)" >40</text>
<line x1="67.27963223604645" y1="141.14120619256883" x2="72.27963223604645" y2="141.14120619256883" stroke="rgb(25%, 25%, 25%)" stroke-width="1.0" />
<text x="79.77963223604645" y="144.14120619256883" text-anchor="middle" font-family="Verdana" font-size="7.5" fill="rgb(25%, 25%, 25%)" >50</text>
<line x1="67.27963223604647" y1="333.4922790527344" x2="72.27963223604647" y2="333.4922790527344" stroke="rgb(25%, 25%, 25%)" stroke-width="1.0" />
<text x="79.77963223604647" y="336.4922790527344" text-anchor="middle" font-family="Verdana" font-size="7.5" fill="rgb(25%, 25%, 25%)" >60</text>
<line x1="59.77963223604647" y1="360.9922790527344" x2="59.77963223604647" y2="365.9922790527344" stroke="rgb(25%, 25%, 25%)" stroke-width="1.0" />
<text x="59.77963223604647" y="376.4922790527344" text-anchor="middle" font-family="Verdana" font-size="7.5" fill="rgb(25%, 25%, 25%)" >61</text>
<text x="43.52963223604647" y="199.71674262265162" text-anchor="middle" font-family="Verdana" font-size="6.0" fill="rgb(0%, 0%, 0%)" >592</text>
<text x="40.31424835078221" y="91.20138479899745" text-anchor="middle" font-family="Verdana" font-size="6.0" fill="rgb(0%, 0%, 0%)" >557</text>
<text x="165.6677375793579" y="96.28565605077901" text-anchor="middle" font-family="Verdana" font-size="6.0" fill="rgb(0%, 0%, 0%)" >622</text>
<text x="287.7435750870866" y="36.809610661450925" text-anchor="middle" font-family="Verdana" font-size="6.0" fill="rgb(0%, 0%, 0%)" >226</text>
</svg>
