<?xml version="1.0" encoding="UTF-8"?>
<!DOCTYPE svg PUBLIC "-//W3C//DTD SVG 1.1//EN" 
"http://www.w3.org/Graphics/SVG/1.1/DTD/svg11.dtd">

<svg width="100%" height="100%" version="1.1"
xmlns="http://www.w3.org/2000/svg">
<path d="M 60.080543518066406 61.57863457377778 L 61.003211975097656 61.57216484721528 L 61.908966064453125 61.39626152690278 L 62.76698303222656 61.0569365757309 L 63.54804229736328 60.56569512065278 L 64.22553253173828 59.93932182963715 L 64.77639770507812 59.19911797221528 L 65.18186950683594 58.37032158549653 L 65.42813873291016 57.48110039409028 L 65.50682830810547 56.56178887065278 L 65.41524505615234 55.64363701518403 L 65.15652465820312 54.7579863804184 L 64.73946380615234 53.93492729838715 L 64.17826843261719 53.20253594096528 L 63.49205017089844 52.58571465190278 L 62.704185485839844 52.1055205601059 L 61.84149169921875 51.7782500522934 L 43.771907806396484 46.77376396830903 L 24.334415435791016 51.89479668315278 L 10.121026992797852 66.1082061069809 L 5.0 85.54567558940278 L 10.365058898925781 104.91722710307465 L 22.279632568359375 116.53584892924653 L 22.279632568359375 134.42784722026215 L 22.364765167236328 135.34659416850434 L 22.617271423339844 136.2340605991684 L 23.028545379638672 137.06000359233246 L 23.58458709716797 137.79633171733246 L 24.266460418701172 138.41792900737153 L 25.050941467285156 138.9036620395981 L 25.91131591796875 139.23697502787934 L 26.81829071044922 139.40651543315278 L 27.74097442626953 139.40651543315278 L 28.647945404052734 139.23697502787934 L 29.508323669433594 138.9036620395981 L 30.292804718017578 138.41792900737153 L 30.97467803955078 137.79633171733246 L 31.530719757080078 137.06000359233246 L 31.941993713378906 136.2340605991684 L 32.194496154785156 135.34659416850434 L 32.279632568359375 134.42784722026215 L 32.279632568359375 112.31984551127778 L 19.28110122680664 99.6442168491684 L 15.3583984375 85.48055107768403 L 19.102676391601562 71.26866753276215 L 29.494903564453125 60.87645561869965 L 43.7067756652832 57.13216240580903 L 59.17240905761719 61.4154570835434 z" fill="rgb(49%, 56%, 69%)" style="stroke:none;"/>
<path d="M 60.080543518066406 61.57863457377778 L 61.003211975097656 61.57216484721528 L 61.908966064453125 61.39626152690278 L 62.76698303222656 61.0569365757309 L 63.54804229736328 60.56569512065278 L 64.22553253173828 59.93932182963715 L 64.77639770507812 59.19911797221528 L 65.18186950683594 58.37032158549653 L 65.42813873291016 57.48110039409028 L 65.50682830810547 56.56178887065278 L 65.41524505615234 55.64363701518403 L 65.15652465820312 54.7579863804184 L 64.73946380615234 53.93492729838715 L 64.17826843261719 53.20253594096528 L 63.49205017089844 52.58571465190278 L 62.704185485839844 52.1055205601059 L 61.84149169921875 51.7782500522934 L 43.771907806396484 46.77376396830903 L 24.334415435791016 51.89479668315278 L 10.121026992797852 66.1082061069809 L 5.0 85.54567558940278 L 10.365058898925781 104.91722710307465 L 22.279632568359375 116.53584892924653 L 22.279632568359375 134.42784722026215 L 22.364765167236328 135.34659416850434 L 22.617271423339844 136.2340605991684 L 23.028545379638672 137.06000359233246 L 23.58458709716797 137.79633171733246 L 24.266460418701172 138.41792900737153 L 25.050941467285156 138.9036620395981 L 25.91131591796875 139.23697502787934 L 26.81829071044922 139.40651543315278 L 27.74097442626953 139.40651543315278 L 28.647945404052734 139.23697502787934 L 29.508323669433594 138.9036620395981 L 30.292804718017578 138.41792900737153 L 30.97467803955078 137.79633171733246 L 31.530719757080078 137.06000359233246 L 31.941993713378906 136.2340605991684 L 32.194496154785156 135.34659416850434 L 32.279632568359375 134.42784722026215 L 32.279632568359375 112.31984551127778 L 19.28110122680664 99.6442168491684 L 15.3583984375 85.48055107768403 L 19.102676391601562 71.26866753276215 L 29.494903564453125 60.87645561869965 L 43.7067756652832 57.13216240580903 L 59.17240905761719 61.4154570835434 z" style="fill:none; stroke:rgb(43%, 84%, 43%); stroke-width:1.0;"/>
<path d="M 71.73532104492188 96.63854057963715 L 70.84786224365234 96.8910430210434 L 70.02191162109375 97.30232842143403 L 69.28559112548828 97.85835869487153 L 68.66398620605469 98.54024346049653 L 68.17825317382812 99.32472832377778 L 67.84494018554688 100.18507988627778 L 67.67539978027344 101.09206230815278 L 67.67539978027344 102.01476128276215 L 67.84494018554688 102.92171318705903 L 68.17825317382812 103.78209526713715 L 68.66398620605469 104.5665801304184 L 69.28559112548828 105.2484648960434 L 70.02191162109375 105.8044951694809 L 70.84786224365234 106.21578056987153 L 71.73532104492188 106.46828301127778 L 72.65406799316406 106.5533965366684 L 92.65406799316406 106.5533965366684 L 93.57281494140625 106.46828301127778 L 94.46028137207031 106.21578056987153 L 95.2862319946289 105.8044951694809 L 96.02254486083984 105.2484648960434 L 96.64415740966797 104.5665801304184 L 97.1298828125 103.78209526713715 L 97.46319580078125 102.92171318705903 L 97.63274383544922 102.01476128276215 L 97.63274383544922 101.09206230815278 L 97.46319580078125 100.18507988627778 L 97.1298828125 99.32472832377778 L 96.64415740966797 98.54024346049653 L 96.02254486083984 97.85835869487153 L 95.2862319946289 97.30232842143403 L 94.46028137207031 96.8910430210434 L 93.57281494140625 96.63854057963715 L 92.65406799316406 96.5533965366684 L 72.65406799316406 96.5533965366684 z" fill="rgb(49%, 56%, 69%)" style="stroke:none;"/>
<path d="M 71.73532104492188 96.63854057963715 L 70.84786224365234 96.8910430210434 L 70.02191162109375 97.30232842143403 L 69.28559112548828 97.85835869487153 L 68.66398620605469 98.54024346049653 L 68.17825317382812 99.32472832377778 L 67.84494018554688 100.18507988627778 L 67.67539978027344 101.09206230815278 L 67.67539978027344 102.01476128276215 L 67.84494018554688 102.92171318705903 L 68.17825317382812 103.78209526713715 L 68.66398620605469 104.5665801304184 L 69.28559112548828 105.2484648960434 L 70.02191162109375 105.8044951694809 L 70.84786224365234 106.21578056987153 L 71.73532104492188 106.46828301127778 L 72.65406799316406 106.5533965366684 L 92.65406799316406 106.5533965366684 L 93.57281494140625 106.46828301127778 L 94.46028137207031 106.21578056987153 L 95.2862319946289 105.8044951694809 L 96.02254486083984 105.2484648960434 L 96.64415740966797 104.5665801304184 L 97.1298828125 103.78209526713715 L 97.46319580078125 102.92171318705903 L 97.63274383544922 102.01476128276215 L 97.63274383544922 101.09206230815278 L 97.46319580078125 100.18507988627778 L 97.1298828125 99.32472832377778 L 96.64415740966797 98.54024346049653 L 96.02254486083984 97.85835869487153 L 95.2862319946289 97.30232842143403 L 94.46028137207031 96.8910430210434 L 93.57281494140625 96.63854057963715 L 92.65406799316406 96.5533965366684 L 72.65406799316406 96.5533965366684 z" style="fill:none; stroke:rgb(43%, 84%, 43%); stroke-width:1.0;"/>
<path d="M 171.04702758789062 64.0431426304184 L 171.68727111816406 63.37874443705903 L 172.1945343017578 62.60802300151215 L 172.55152893066406 61.75719292338715 L 172.74610900878906 60.85524590190278 L 172.7716522216797 59.93294365580903 L 172.62728881835938 59.02159722026215 L 172.3179168701172 58.15233452494965 L 171.8540802001953 57.35469658549653 L 171.2515869140625 56.65590508159028 L 170.53094482421875 56.07967217143403 L 169.71669006347656 55.64571221049653 L 168.83656311035156 55.36873467143403 L 167.9205322265625 55.25820000346528 L 166.99977111816406 55.31786186869965 L 166.1056671142578 55.5457061069809 L 165.26864624023438 55.93395073588715 L 151.30596923828125 64.0533965366684 L 132.65406799316406 64.0533965366684 L 131.73532104492188 64.13854057963715 L 130.8478546142578 64.3910430210434 L 130.02191162109375 64.80232842143403 L 129.2855987548828 65.35835869487153 L 128.6639862060547 66.04024346049653 L 128.17825317382812 66.82472832377778 L 127.84494018554688 67.68507988627778 L 127.67539978027344 68.59206230815278 L 127.67539978027344 69.51476128276215 L 127.84494018554688 70.42171318705903 L 128.17825317382812 71.28209526713715 L 128.6639862060547 72.0665801304184 L 129.2855987548828 72.7484648960434 L 130.02191162109375 73.3044951694809 L 130.8478546142578 73.71578056987153 L 131.73532104492188 73.96828301127778 L 132.65406799316406 74.0533965366684 L 154.00216674804688 74.0533965366684 L 170.29559326171875 64.57860405619965 z" fill="rgb(99%, 72%, 74%)" style="stroke:none;"/>
<path d="M 171.04702758789062 64.0431426304184 L 171.68727111816406 63.37874443705903 L 172.1945343017578 62.60802300151215 L 172.55152893066406 61.75719292338715 L 172.74610900878906 60.85524590190278 L 172.7716522216797 59.93294365580903 L 172.62728881835938 59.02159722026215 L 172.3179168701172 58.15233452494965 L 171.8540802001953 57.35469658549653 L 171.2515869140625 56.65590508159028 L 170.53094482421875 56.07967217143403 L 169.71669006347656 55.64571221049653 L 168.83656311035156 55.36873467143403 L 167.9205322265625 55.25820000346528 L 166.99977111816406 55.31786186869965 L 166.1056671142578 55.5457061069809 L 165.26864624023438 55.93395073588715 L 151.30596923828125 64.0533965366684 L 132.65406799316406 64.0533965366684 L 131.73532104492188 64.13854057963715 L 130.8478546142578 64.3910430210434 L 130.02191162109375 64.80232842143403 L 129.2855987548828 65.35835869487153 L 128.6639862060547 66.04024346049653 L 128.17825317382812 66.82472832377778 L 127.84494018554688 67.68507988627778 L 127.67539978027344 68.59206230815278 L 127.67539978027344 69.51476128276215 L 127.84494018554688 70.42171318705903 L 128.17825317382812 71.28209526713715 L 128.6639862060547 72.0665801304184 L 129.2855987548828 72.7484648960434 L 130.02191162109375 73.3044951694809 L 130.8478546142578 73.71578056987153 L 131.73532104492188 73.96828301127778 L 132.65406799316406 74.0533965366684 L 154.00216674804688 74.0533965366684 L 170.29559326171875 64.57860405619965 z" style="fill:none; stroke:rgb(43%, 84%, 43%); stroke-width:1.0;"/>
<path d="M 166.0190887451172 105.67171318705903 L 165.1893768310547 106.0753691929184 L 164.4479522705078 106.62459404643403 L 163.82008361816406 107.30068047221528 L 163.32713317871094 108.08064873393403 L 162.98590087890625 108.9379180210434 L 162.80799865722656 109.84328301127778 L 162.7994842529297 110.76595146830903 L 162.9606475830078 111.67442925151215 L 163.2860107421875 112.53786308940278 L 163.7644805908203 113.32677300151215 L 164.37977600097656 114.01436455424653 L 165.11093139648438 114.57716973002778 L 165.93304443359375 114.99605400737153 L 166.81814575195312 115.25673515971528 L 167.73606872558594 115.35033257182465 L 168.6555633544922 115.27367241557465 L 187.6899871826172 111.89699394877778 L 199.17787170410156 98.0609648960434 L 216.69163513183594 91.6451934116684 L 217.5250244140625 91.24922783549653 L 218.271484375 90.70686943705903 L 218.9055633544922 90.03658135112153 L 219.4056854248047 89.26119072612153 L 219.75482177734375 88.40712578471528 L 219.94107055664062 87.50343926127778 L 219.95809936523438 86.58089287455903 L 219.80531311035156 85.6709502476059 L 219.48794555664062 84.80458672221528 L 219.0167694091797 84.0112822788559 L 218.40785217285156 83.3180449741684 L 217.68191528320312 82.74849541362153 L 216.8636932373047 82.3220732944809 L 215.98104858398438 82.05321343119965 L 215.06402587890625 81.95116264994965 L 214.14385986328125 82.01930840190278 L 213.25189208984375 82.25539238627778 L 193.20648193359375 89.59859306987153 L 182.3363494873047 102.6906035679184 L 166.90884399414062 105.4274199741684 z" fill="rgb(99%, 72%, 74%)" style="stroke:none;"/>
<path d="M 166.0190887451172 105.67171318705903 L 165.1893768310547 106.0753691929184 L 164.4479522705078 106.62459404643403 L 163.82008361816406 107.30068047221528 L 163.32713317871094 108.08064873393403 L 162.98590087890625 108.9379180210434 L 162.80799865722656 109.84328301127778 L 162.7994842529297 110.76595146830903 L 162.9606475830078 111.67442925151215 L 163.2860107421875 112.53786308940278 L 163.7644805908203 113.32677300151215 L 164.37977600097656 114.01436455424653 L 165.11093139648438 114.57716973002778 L 165.93304443359375 114.99605400737153 L 166.81814575195312 115.25673515971528 L 167.73606872558594 115.35033257182465 L 168.6555633544922 115.27367241557465 L 187.6899871826172 111.89699394877778 L 199.17787170410156 98.0609648960434 L 216.69163513183594 91.6451934116684 L 217.5250244140625 91.24922783549653 L 218.271484375 90.70686943705903 L 218.9055633544922 90.03658135112153 L 219.4056854248047 89.26119072612153 L 219.75482177734375 88.40712578471528 L 219.94107055664062 87.50343926127778 L 219.95809936523438 86.58089287455903 L 219.80531311035156 85.6709502476059 L 219.48794555664062 84.80458672221528 L 219.0167694091797 84.0112822788559 L 218.40785217285156 83.3180449741684 L 217.68191528320312 82.74849541362153 L 216.8636932373047 82.3220732944809 L 215.98104858398438 82.05321343119965 L 215.06402587890625 81.95116264994965 L 214.14385986328125 82.01930840190278 L 213.25189208984375 82.25539238627778 L 193.20648193359375 89.59859306987153 L 182.3363494873047 102.6906035679184 L 166.90884399414062 105.4274199741684 z" style="fill:none; stroke:rgb(43%, 84%, 43%); stroke-width:1.0;"/>
<path d="M 220.6844940185547 47.59786064799653 L 221.16746520996094 46.8116973179184 L 221.49777221679688 45.95015556987153 L 221.6641387939453 45.04259331401215 L 221.66090393066406 44.1199248569809 L 221.48818969726562 43.21352226909028 L 221.15187072753906 42.35433037455903 L 220.6634063720703 41.57155449565278 L 220.03941345214844 40.89186699565278 L 219.3011474609375 40.33840019877778 L 218.47377014160156 39.93001396830903 L 217.58543395996094 39.68062431987153 L 216.6663818359375 39.59871514018403 L 215.74794006347656 39.6870635288559 L 214.8613739013672 39.94264824565278 L 214.036865234375 40.35683281596528 L 213.302490234375 40.91542656596528 L 201.1416778564453 52.0796416538559 L 183.2931671142578 58.61806328471528 L 182.4597625732422 59.01402886088715 L 181.7133026123047 59.55638725932465 L 181.0792236328125 60.22667534526215 L 180.5791015625 61.00203545268403 L 180.22996520996094 61.8561309116684 L 180.04371643066406 62.7598174351059 L 180.0266876220703 63.68233330424653 L 180.17947387695312 64.59230644877778 L 180.49685668945312 65.4586699741684 L 180.968017578125 66.25197441752778 L 181.57693481445312 66.94521172221528 L 182.30287170410156 67.51473076518403 L 183.12109375 67.94118340190278 L 184.0037384033203 68.2100127476059 L 184.92076110839844 68.31209404643403 L 185.84092712402344 68.24391777690278 L 186.73289489746094 68.00783379252778 L 206.4435577392578 60.7872832554184 L 220.06527709960938 48.2819121616684 z" fill="rgb(67%, 74%, 58%)" style="stroke:none;"/>
<path d="M 220.6844940185547 47.59786064799653 L 221.16746520996094 46.8116973179184 L 221.49777221679688 45.95015556987153 L 221.6641387939453 45.04259331401215 L 221.66090393066406 44.1199248569809 L 221.48818969726562 43.21352226909028 L 221.15187072753906 42.35433037455903 L 220.6634063720703 41.57155449565278 L 220.03941345214844 40.89186699565278 L 219.3011474609375 40.33840019877778 L 218.47377014160156 39.93001396830903 L 217.58543395996094 39.68062431987153 L 216.6663818359375 39.59871514018403 L 215.74794006347656 39.6870635288559 L 214.8613739013672 39.94264824565278 L 214.036865234375 40.35683281596528 L 213.302490234375 40.91542656596528 L 201.1416778564453 52.0796416538559 L 183.2931671142578 58.61806328471528 L 182.4597625732422 59.01402886088715 L 181.7133026123047 59.55638725932465 L 181.0792236328125 60.22667534526215 L 180.5791015625 61.00203545268403 L 180.22996520996094 61.8561309116684 L 180.04371643066406 62.7598174351059 L 180.0266876220703 63.68233330424653 L 180.17947387695312 64.59230644877778 L 180.49685668945312 65.4586699741684 L 180.968017578125 66.25197441752778 L 181.57693481445312 66.94521172221528 L 182.30287170410156 67.51473076518403 L 183.12109375 67.94118340190278 L 184.0037384033203 68.2100127476059 L 184.92076110839844 68.31209404643403 L 185.84092712402344 68.24391777690278 L 186.73289489746094 68.00783379252778 L 206.4435577392578 60.7872832554184 L 220.06527709960938 48.2819121616684 z" style="fill:none; stroke:rgb(43%, 84%, 43%); stroke-width:1.0;"/>
<path d="M 228.4568634033203 84.6580107944809 L 227.97389221191406 85.44417412455903 L 227.64358520507812 86.3057158726059 L 227.4772186279297 87.21327812846528 L 227.48045349121094 88.13594658549653 L 227.65316772460938 89.04231865580903 L 227.98948669433594 89.9015410679184 L 228.47796630859375 90.68431694682465 L 229.10195922851562 91.36400444682465 L 229.8402099609375 91.91747124369965 L 230.6676025390625 92.32582695659028 L 231.55593872070312 92.5752471226059 L 232.4749755859375 92.6571563022934 L 233.3934326171875 92.56880791362153 L 234.27999877929688 92.31319267924653 L 235.10450744628906 91.89903862651215 L 235.8388671875 91.34041435893403 L 247.56515502929688 80.57506401713715 L 263.2999572753906 78.51778252299653 L 264.1999206542969 78.3142607944809 L 265.0471496582031 77.94884331401215 L 265.8128356933594 77.43395073588715 L 266.4708251953125 76.78713066752778 L 266.9988098144531 76.0304473179184 L 267.37872314453125 75.18959648784028 L 267.5976867675781 74.2932647007309 L 267.6482238769531 73.37196953471528 L 267.5285949707031 72.4570830601059 L 267.2428894042969 71.57973320659028 L 266.80084228515625 70.7698272007309 L 266.217529296875 70.05495293315278 L 265.51275634765625 69.4594023960434 L 264.7105712890625 69.00353081401215 L 263.8382568359375 68.7028105991684 L 262.9255676269531 68.56749565776215 L 262.0035400390625 68.60219414409028 L 243.13238525390625 71.06954033549653 L 229.07608032226562 83.97395928080903 z" fill="rgb(67%, 74%, 58%)" style="stroke:none;"/>
<path d="M 228.4568634033203 84.6580107944809 L 227.97389221191406 85.44417412455903 L 227.64358520507812 86.3057158726059 L 227.4772186279297 87.21327812846528 L 227.48045349121094 88.13594658549653 L 227.65316772460938 89.04231865580903 L 227.98948669433594 89.9015410679184 L 228.47796630859375 90.68431694682465 L 229.10195922851562 91.36400444682465 L 229.8402099609375 91.91747124369965 L 230.6676025390625 92.32582695659028 L 231.55593872070312 92.5752471226059 L 232.4749755859375 92.6571563022934 L 233.3934326171875 92.56880791362153 L 234.27999877929688 92.31319267924653 L 235.10450744628906 91.89903862651215 L 235.8388671875 91.34041435893403 L 247.56515502929688 80.57506401713715 L 263.2999572753906 78.51778252299653 L 264.1999206542969 78.3142607944809 L 265.0471496582031 77.94884331401215 L 265.8128356933594 77.43395073588715 L 266.4708251953125 76.78713066752778 L 266.9988098144531 76.0304473179184 L 267.37872314453125 75.18959648784028 L 267.5976867675781 74.2932647007309 L 267.6482238769531 73.37196953471528 L 267.5285949707031 72.4570830601059 L 267.2428894042969 71.57973320659028 L 266.80084228515625 70.7698272007309 L 266.217529296875 70.05495293315278 L 265.51275634765625 69.4594023960434 L 264.7105712890625 69.00353081401215 L 263.8382568359375 68.7028105991684 L 262.9255676269531 68.56749565776215 L 262.0035400390625 68.60219414409028 L 243.13238525390625 71.06954033549653 L 229.07608032226562 83.97395928080903 z" style="fill:none; stroke:rgb(43%, 84%, 43%); stroke-width:1.0;"/>
<path d="M 234.88900756835938 50.25350029643403 L 235.7859344482422 50.0370391147934 L 236.62783813476562 49.65944512065278 L 237.38600158691406 49.1335967319809 L 238.03465270996094 48.47740776713715 L 238.55166625976562 47.7131865757309 L 238.91946411132812 46.86696465190278 L 239.12550354003906 45.9675811069809 L 239.1627655029297 45.04564507182465 L 239.02999877929688 44.13255913432465 L 238.73170471191406 43.25942070659028 L 238.27806091308594 42.4559844272934 L 237.68450927734375 41.7495635288559 L 236.97125244140625 41.1642363804184 L 236.16258239746094 40.71993096049653 L 235.28604125976562 40.43178398784028 L 234.37149047851562 40.30959160502778 L 216.88583374023438 39.60274346049653 L 215.9644012451172 39.65071709330903 L 215.06747436523438 39.86714775737153 L 214.22557067871094 40.24474175151215 L 213.4674072265625 40.77059014018403 L 212.81875610351562 41.42677910502778 L 212.30174255371094 42.19100029643403 L 211.93394470214844 43.03722222026215 L 211.7279052734375 43.93660576518403 L 211.69064331054688 44.85854180034028 L 211.8234100341797 45.77162773784028 L 212.1217041015625 46.64476616557465 L 212.57534790039062 47.44823296244965 L 213.1688995361328 48.15465386088715 L 213.8821563720703 48.73998100932465 L 214.69082641601562 49.18428642924653 L 215.56736755371094 49.47240288432465 L 216.48191833496094 49.59459526713715 L 233.9675750732422 50.3014434116684 z" fill="rgb(72%, 75%, 55%)" style="stroke:none;"/>
<path d="M 234.88900756835938 50.25350029643403 L 235.7859344482422 50.0370391147934 L 236.62783813476562 49.65944512065278 L 237.38600158691406 49.1335967319809 L 238.03465270996094 48.47740776713715 L 238.55166625976562 47.7131865757309 L 238.91946411132812 46.86696465190278 L 239.12550354003906 45.9675811069809 L 239.1627655029297 45.04564507182465 L 239.02999877929688 44.13255913432465 L 238.73170471191406 43.25942070659028 L 238.27806091308594 42.4559844272934 L 237.68450927734375 41.7495635288559 L 236.97125244140625 41.1642363804184 L 236.16258239746094 40.71993096049653 L 235.28604125976562 40.43178398784028 L 234.37149047851562 40.30959160502778 L 216.88583374023438 39.60274346049653 L 215.9644012451172 39.65071709330903 L 215.06747436523438 39.86714775737153 L 214.22557067871094 40.24474175151215 L 213.4674072265625 40.77059014018403 L 212.81875610351562 41.42677910502778 L 212.30174255371094 42.19100029643403 L 211.93394470214844 43.03722222026215 L 211.7279052734375 43.93660576518403 L 211.69064331054688 44.85854180034028 L 211.8234100341797 45.77162773784028 L 212.1217041015625 46.64476616557465 L 212.57534790039062 47.44823296244965 L 213.1688995361328 48.15465386088715 L 213.8821563720703 48.73998100932465 L 214.69082641601562 49.18428642924653 L 215.56736755371094 49.47240288432465 L 216.48191833496094 49.59459526713715 L 233.9675750732422 50.3014434116684 z" style="fill:none; stroke:rgb(43%, 84%, 43%); stroke-width:1.0;"/>
<path d="M 258.0074157714844 71.70787651713715 L 257.7461853027344 72.5928252476059 L 257.6519775390625 73.5106719272934 L 257.7280578613281 74.4302275913559 L 257.9718017578125 75.3201201694809 L 258.3749084472656 76.15010674174653 L 258.9236755371094 76.89186699565278 L 259.599365234375 77.52016289409028 L 260.3790283203125 78.0136016147934 L 261.236083984375 78.3553984897934 L 262.1413269042969 78.5338652866684 L 263.06396484375 78.54295952494965 L 263.9725646972656 78.3823760288559 L 264.836181640625 78.0575469272934 L 265.62542724609375 77.57958061869965 L 266.3133850097656 76.96474297221528 L 266.8766784667969 76.2339385288559 L 275.9120178222656 61.9578154819809 L 289.66162109375 48.2081816929184 L 290.2510986328125 47.4983428257309 L 290.7000732421875 46.69225151713715 L 290.9932861328125 45.81740410502778 L 291.1207580566406 44.90358574565278 L 291.0781555175781 43.98189385112153 L 290.8669128417969 43.08370049174653 L 290.49420166015625 42.23964531596528 L 289.9727783203125 41.47841484721528 L 289.3203430175781 40.8259795444809 L 288.5591125488281 40.30455620463715 L 287.7150573730469 39.93184502299653 L 286.8168640136719 39.72060234721528 L 285.8951721191406 39.67799980815278 L 284.9813537597656 39.8054717319809 L 284.10650634765625 40.0986846226059 L 283.3004150390625 40.5476592319809 L 282.590576171875 41.1371367710434 L 268.055908203125 55.67177422221528 L 258.42681884765625 70.8860381382309 z" fill="rgb(72%, 75%, 55%)" style="stroke:none;"/>
<path d="M 258.0074157714844 71.70787651713715 L 257.7461853027344 72.5928252476059 L 257.6519775390625 73.5106719272934 L 257.7280578613281 74.4302275913559 L 257.9718017578125 75.3201201694809 L 258.3749084472656 76.15010674174653 L 258.9236755371094 76.89186699565278 L 259.599365234375 77.52016289409028 L 260.3790283203125 78.0136016147934 L 261.236083984375 78.3553984897934 L 262.1413269042969 78.5338652866684 L 263.06396484375 78.54295952494965 L 263.9725646972656 78.3823760288559 L 264.836181640625 78.0575469272934 L 265.62542724609375 77.57958061869965 L 266.3133850097656 76.96474297221528 L 266.8766784667969 76.2339385288559 L 275.9120178222656 61.9578154819809 L 289.66162109375 48.2081816929184 L 290.2510986328125 47.4983428257309 L 290.7000732421875 46.69225151713715 L 290.9932861328125 45.81740410502778 L 291.1207580566406 44.90358574565278 L 291.0781555175781 43.98189385112153 L 290.8669128417969 43.08370049174653 L 290.49420166015625 42.23964531596528 L 289.9727783203125 41.47841484721528 L 289.3203430175781 40.8259795444809 L 288.5591125488281 40.30455620463715 L 287.7150573730469 39.93184502299653 L 286.8168640136719 39.72060234721528 L 285.8951721191406 39.67799980815278 L 284.9813537597656 39.8054717319809 L 284.10650634765625 40.0986846226059 L 283.3004150390625 40.5476592319809 L 282.590576171875 41.1371367710434 L 268.055908203125 55.67177422221528 L 258.42681884765625 70.8860381382309 z" style="fill:none; stroke:rgb(43%, 84%, 43%); stroke-width:1.0;"/>
<line x1="27.27963223604644" y1="349.42784722026215" x2="27.27963223604644" y2="339.42784722026215" stroke="rgb(35%, 35%, 35%)" stroke-width="1.0" />
<line x1="27.27963223604644" y1="329.42784722026215" x2="27.27963223604644" y2="319.42784722026215" stroke="rgb(35%, 35%, 35%)" stroke-width="1.0" />
<line x1="27.27963223604644" y1="309.42784722026215" x2="27.27963223604644" y2="299.42784722026215" stroke="rgb(35%, 35%, 35%)" stroke-width="1.0" />
<line x1="27.27963223604644" y1="289.42784722026215" x2="27.27963223604644" y2="279.42784722026215" stroke="rgb(35%, 35%, 35%)" stroke-width="1.0" />
<line x1="27.27963223604644" y1="269.42784722026215" x2="27.27963223604644" y2="259.42784722026215" stroke="rgb(35%, 35%, 35%)" stroke-width="1.0" />
<line x1="27.27963223604644" y1="249.42784722026212" x2="27.27963223604644" y2="239.42784722026212" stroke="rgb(35%, 35%, 35%)" stroke-width="1.0" />
<line x1="27.27963223604644" y1="229.42784722026212" x2="27.27963223604644" y2="219.42784722026212" stroke="rgb(35%, 35%, 35%)" stroke-width="1.0" />
<line x1="27.27963223604644" y1="209.42784722026212" x2="27.27963223604644" y2="199.42784722026212" stroke="rgb(35%, 35%, 35%)" stroke-width="1.0" />
<line x1="27.27963223604644" y1="189.42784722026212" x2="27.27963223604644" y2="179.42784722026212" stroke="rgb(35%, 35%, 35%)" stroke-width="1.0" />
<line x1="27.27963223604644" y1="169.42784722026212" x2="27.27963223604644" y2="159.42784722026212" stroke="rgb(35%, 35%, 35%)" stroke-width="1.0" />
<line x1="27.27963223604644" y1="149.42784722026212" x2="27.27963223604644" y2="139.42784722026212" stroke="rgb(35%, 35%, 35%)" stroke-width="1.0" />
<line x1="27.27963223604644" y1="129.42784722026212" x2="27.27963223604644" y2="119.42784722026215" stroke="rgb(35%, 35%, 35%)" stroke-width="1.0" />
<line x1="23.69991654110285" y1="110.93705425255774" x2="18.402795986289306" y2="105.7715180039823" stroke="rgb(35%, 35%, 35%)" stroke-width="1.0" />
<line x1="13.488539719057211" y1="97.46211512667577" x2="11.513739791038507" y2="90.33172831024905" stroke="rgb(35%, 35%, 35%)" stroke-width="1.0" />
<line x1="11.453037482221713" y1="80.67810691374069" x2="13.338012553978206" y2="73.52344969718348" stroke="rgb(35%, 35%, 35%)" stroke-width="1.0" />
<line x1="18.147384723382665" y1="65.15290430434453" x2="23.379126828435936" y2="59.921162199291246" stroke="rgb(35%, 35%, 35%)" stroke-width="1.0" />
<line x1="31.74967222127492" y1="55.11179002988678" x2="38.90432943783202" y2="53.22681495813032" stroke="rgb(35%, 35%, 35%)" stroke-width="1.0" />
<line x1="48.55795083434039" y1="53.28751726694708" x2="55.688337650767195" y2="55.26231719496576" stroke="rgb(35%, 35%, 35%)" stroke-width="1.0" />
<line x1="63.997740528073734" y1="60.176573462197894" x2="69.16327677664921" y2="65.47369401701144" stroke="rgb(35%, 35%, 35%)" stroke-width="1.0" />
<line x1="77.65406974435362" y1="69.05340971195506" x2="87.65406974435362" y2="69.05340971195506" stroke="rgb(35%, 35%, 35%)" stroke-width="1.0" />
<line x1="97.65406974435362" y1="69.05340971195506" x2="107.65406974435362" y2="69.05340971195506" stroke="rgb(35%, 35%, 35%)" stroke-width="1.0" />
<line x1="117.65406974435362" y1="69.05340971195506" x2="127.65406974435362" y2="69.05340971195506" stroke="rgb(35%, 35%, 35%)" stroke-width="1.0" />
<line x1="137.65406974435362" y1="69.05340971195506" x2="147.65406974435362" y2="69.05340971195506" stroke="rgb(35%, 35%, 35%)" stroke-width="1.0" />
<line x1="156.9763881360441" y1="66.5399332905709" x2="163.45980207456736" y2="62.769755671106225" stroke="rgb(35%, 35%, 35%)" stroke-width="1.0" />
<line x1="172.7052577304553" y1="61.1296173731717" x2="180.08989113028161" y2="62.439611697861494" stroke="rgb(35%, 35%, 35%)" stroke-width="1.0" />
<line x1="189.7079246990878" y1="61.593081021381636" x2="199.0977173083054" y2="58.15334342152266" stroke="rgb(35%, 35%, 35%)" stroke-width="1.0" />
<line x1="207.47584896456905" y1="53.05208772501959" x2="213.00064727714204" y2="47.98005761107294" stroke="rgb(35%, 35%, 35%)" stroke-width="1.0" />
<line x1="221.67980225938652" y1="44.80062874154868" x2="229.17360749027694" y2="45.10356278201158" stroke="rgb(35%, 35%, 35%)" stroke-width="1.0" />
<line x1="238.38368368704081" y1="42.61463165568239" x2="244.78883400736896" y2="38.52471490672383" stroke="rgb(35%, 35%, 35%)" stroke-width="1.0" />
<line x1="252.53852447947594" y1="32.29829184741254" x2="259.6095922913414" y2="25.227224035547124" stroke="rgb(35%, 35%, 35%)" stroke-width="1.0" />
<line x1="266.8655029104332" y1="18.351211554292547" x2="272.44608481523557" y2="13.34047857532181" stroke="rgb(35%, 35%, 35%)" stroke-width="1.0" />
<line x1="280.97213014454314" y1="11.38041629654441" x2="288.1806548148804" y2="13.451046987877987" stroke="rgb(35%, 35%, 35%)" stroke-width="1.0" />
<line x1="294.36673972757336" y1="19.63713190057092" x2="296.43737041890694" y2="26.84565657090809" stroke="rgb(35%, 35%, 35%)" stroke-width="1.0" />
<line x1="294.47730814012954" y1="35.37170190021567" x2="289.46657516115874" y2="40.95228380501811" stroke="rgb(35%, 35%, 35%)" stroke-width="1.0" />
<line x1="282.5905626799042" y1="48.208194424109934" x2="275.5194948680387" y2="55.27926223597535" stroke="rgb(35%, 35%, 35%)" stroke-width="1.0" />
<line x1="269.3100102591049" y1="63.039720713769725" x2="265.3256975454757" y2="69.33505767226313" stroke="rgb(35%, 35%, 35%)" stroke-width="1.0" />
<line x1="257.69394407927376" y1="74.2082042440586" x2="250.30658403598028" y2="75.1740856092955" stroke="rgb(35%, 35%, 35%)" stroke-width="1.0" />
<line x1="241.6655518465102" y1="79.20370096012249" x2="236.1407077071063" y2="84.27579098646225" stroke="rgb(35%, 35%, 35%)" stroke-width="1.0" />
<line x1="227.4615590041567" y1="87.45521755569678" x2="219.9676800891361" y2="87.15226738320882" stroke="rgb(35%, 35%, 35%)" stroke-width="1.0" />
<line x1="210.276864507847" y1="88.67016940147971" x2="200.88707189862942" y2="92.10990700133868" stroke="rgb(35%, 35%, 35%)" stroke-width="1.0" />
<line x1="192.99817227145908" y1="97.67663722006995" x2="188.2071672876167" y2="103.44692934827259" stroke="rgb(35%, 35%, 35%)" stroke-width="1.0" />
<line x1="180.09003073899655" y1="108.16715165380907" x2="172.7053308999087" y2="109.47719298391115" stroke="rgb(35%, 35%, 35%)" stroke-width="1.0" />
<line x1="163.4598754082797" y1="107.83708411101992" x2="156.97639200992404" y2="104.06687947158099" stroke="rgb(35%, 35%, 35%)" stroke-width="1.0" />
<line x1="147.65406974435362" y1="101.55340971195506" x2="137.65406974435362" y2="101.55340971195506" stroke="rgb(35%, 35%, 35%)" stroke-width="1.0" />
<line x1="127.65406974435362" y1="101.55340971195506" x2="117.65406974435362" y2="101.55340971195506" stroke="rgb(35%, 35%, 35%)" stroke-width="1.0" />
<line x1="107.65406974435362" y1="101.55340971195506" x2="97.65406974435362" y2="101.55340971195506" stroke="rgb(35%, 35%, 35%)" stroke-width="1.0" />
<line x1="87.65406974435362" y1="101.55340971195506" x2="77.65406974435362" y2="101.55340971195506" stroke="rgb(35%, 35%, 35%)" stroke-width="1.0" />
<line x1="69.11853583842087" y1="105.08894361788776" x2="63.31516614197919" y2="110.89231331432944" stroke="rgb(35%, 35%, 35%)" stroke-width="1.0" />
<line x1="59.77963223604644" y1="119.42784722026215" x2="59.77963223604644" y2="129.42784722026212" stroke="rgb(35%, 35%, 35%)" stroke-width="1.0" />
<line x1="59.77963223604644" y1="139.42784722026212" x2="59.77963223604644" y2="149.42784722026212" stroke="rgb(35%, 35%, 35%)" stroke-width="1.0" />
<line x1="59.77963223604644" y1="159.42784722026212" x2="59.77963223604644" y2="169.42784722026212" stroke="rgb(35%, 35%, 35%)" stroke-width="1.0" />
<line x1="59.77963223604644" y1="179.42784722026212" x2="59.77963223604644" y2="189.42784722026212" stroke="rgb(35%, 35%, 35%)" stroke-width="1.0" />
<line x1="59.77963223604644" y1="199.42784722026212" x2="59.77963223604644" y2="209.42784722026212" stroke="rgb(35%, 35%, 35%)" stroke-width="1.0" />
<line x1="59.77963223604644" y1="219.42784722026212" x2="59.77963223604644" y2="229.42784722026212" stroke="rgb(35%, 35%, 35%)" stroke-width="1.0" />
<line x1="59.77963223604644" y1="239.42784722026212" x2="59.77963223604644" y2="249.42784722026212" stroke="rgb(35%, 35%, 35%)" stroke-width="1.0" />
<line x1="59.77963223604644" y1="259.42784722026215" x2="59.77963223604644" y2="269.42784722026215" stroke="rgb(35%, 35%, 35%)" stroke-width="1.0" />
<line x1="59.77963223604644" y1="279.42784722026215" x2="59.77963223604644" y2="289.42784722026215" stroke="rgb(35%, 35%, 35%)" stroke-width="1.0" />
<line x1="59.77963223604644" y1="299.42784722026215" x2="59.77963223604644" y2="309.42784722026215" stroke="rgb(35%, 35%, 35%)" stroke-width="1.0" />
<line x1="59.77963223604644" y1="319.42784722026215" x2="59.77963223604644" y2="329.42784722026215" stroke="rgb(35%, 35%, 35%)" stroke-width="1.0" />
<line x1="59.77963223604644" y1="339.42784722026215" x2="59.77963223604644" y2="349.42784722026215" stroke="rgb(35%, 35%, 35%)" stroke-width="1.0" />
<line x1="32.27963223604644" y1="353.17784722026215" x2="54.77963223604644" y2="353.17784722026215" stroke="rgb(0%, 0%, 100%)" stroke-width="1.0" />
<line x1="32.27963223604644" y1="355.67784722026215" x2="54.77963223604644" y2="355.67784722026215" stroke="rgb(0%, 0%, 100%)" stroke-width="1.0" />
<line x1="32.27963223604644" y1="333.17784722026215" x2="54.77963223604644" y2="333.17784722026215" stroke="rgb(0%, 0%, 100%)" stroke-width="1.0" />
<line x1="32.27963223604644" y1="335.67784722026215" x2="54.77963223604644" y2="335.67784722026215" stroke="rgb(0%, 0%, 100%)" stroke-width="1.0" />
<line x1="32.27963223604644" y1="314.42784722026215" x2="54.77963223604644" y2="314.42784722026215" stroke="rgb(0%, 0%, 100%)" stroke-width="1.0" />
<line x1="32.27963223604644" y1="294.42784722026215" x2="54.77963223604644" y2="294.42784722026215" stroke="rgb(0%, 0%, 100%)" stroke-width="1.0" />
<circle cx="43.52963223604644" cy="294.42784722026215" r="2.75" stroke="none" stroke-width="1.0" fill="rgb(100%, 100%, 100%)"/>
<circle cx="43.52963223604644" cy="294.42784722026215" r="2.75" stroke="rgb(0%, 0%, 100%)" stroke-width="1.0" fill="none"/>
<line x1="32.27963223604644" y1="273.17784722026215" x2="54.77963223604644" y2="273.17784722026215" stroke="rgb(0%, 0%, 100%)" stroke-width="1.0" />
<line x1="32.27963223604644" y1="275.67784722026215" x2="54.77963223604644" y2="275.67784722026215" stroke="rgb(0%, 0%, 100%)" stroke-width="1.0" />
<line x1="32.27963223604644" y1="254.42784722026212" x2="54.77963223604644" y2="254.42784722026212" stroke="rgb(0%, 0%, 100%)" stroke-width="1.0" />
<line x1="32.27963223604644" y1="234.42784722026212" x2="54.77963223604644" y2="234.42784722026212" stroke="rgb(0%, 0%, 100%)" stroke-width="1.0" />
<line x1="32.27963223604644" y1="213.17784722026212" x2="54.77963223604644" y2="213.17784722026212" stroke="rgb(0%, 0%, 100%)" stroke-width="1.0" />
<line x1="32.27963223604644" y1="215.67784722026212" x2="54.77963223604644" y2="215.67784722026212" stroke="rgb(0%, 0%, 100%)" stroke-width="1.0" />
<line x1="32.27963223604644" y1="194.42784722026212" x2="54.77963223604644" y2="194.42784722026212" stroke="rgb(0%, 0%, 100%)" stroke-width="1.0" />
<circle cx="43.52963223604644" cy="194.42784722026212" r="2.75" stroke="none" stroke-width="1.0" fill="rgb(100%, 100%, 100%)"/>
<circle cx="43.52963223604644" cy="194.42784722026212" r="2.75" stroke="rgb(0%, 0%, 100%)" stroke-width="1.0" fill="none"/>
<line x1="32.27963223604644" y1="173.17784722026212" x2="54.77963223604644" y2="173.17784722026212" stroke="rgb(0%, 0%, 100%)" stroke-width="1.0" />
<line x1="32.27963223604644" y1="175.67784722026212" x2="54.77963223604644" y2="175.67784722026212" stroke="rgb(0%, 0%, 100%)" stroke-width="1.0" />
<line x1="32.27963223604644" y1="153.17784722026212" x2="54.77963223604644" y2="153.17784722026212" stroke="rgb(0%, 0%, 100%)" stroke-width="1.0" />
<line x1="32.27963223604644" y1="155.67784722026212" x2="54.77963223604644" y2="155.67784722026212" stroke="rgb(0%, 0%, 100%)" stroke-width="1.0" />
<line x1="32.27963223604644" y1="134.42784722026212" x2="54.77963223604644" y2="134.42784722026212" stroke="rgb(0%, 0%, 100%)" stroke-width="1.0" />
<circle cx="43.52963223604644" cy="134.42784722026212" r="2.75" stroke="none" stroke-width="1.0" fill="rgb(100%, 100%, 100%)"/>
<circle cx="43.52963223604644" cy="134.42784722026212" r="2.75" stroke="rgb(0%, 0%, 100%)" stroke-width="1.0" fill="none"/>
<line x1="32.27963223604644" y1="114.42784722026215" x2="54.77963223604644" y2="114.42784722026215" stroke="rgb(0%, 0%, 100%)" stroke-width="1.0" />
<line x1="72.65406974435362" y1="74.05340971195506" x2="72.65406974435362" y2="96.55340971195506" stroke="rgb(0%, 0%, 100%)" stroke-width="1.0" />
<line x1="92.65406974435362" y1="74.05340971195506" x2="92.65406974435362" y2="96.55340971195506" stroke="rgb(0%, 0%, 100%)" stroke-width="1.0" />
<line x1="113.90406974435362" y1="74.05340971195506" x2="113.90406974435362" y2="96.55340971195506" stroke="rgb(0%, 0%, 100%)" stroke-width="1.0" />
<line x1="111.40406974435362" y1="74.05340971195506" x2="111.40406974435362" y2="96.55340971195506" stroke="rgb(0%, 0%, 100%)" stroke-width="1.0" />
<line x1="133.90406974435362" y1="74.05340971195506" x2="133.90406974435362" y2="96.55340971195506" stroke="rgb(0%, 0%, 100%)" stroke-width="1.0" />
<line x1="131.40406974435362" y1="74.05340971195506" x2="131.40406974435362" y2="96.55340971195506" stroke="rgb(0%, 0%, 100%)" stroke-width="1.0" />
<line x1="153.90406974435362" y1="74.05340971195506" x2="153.90406974435362" y2="96.55340971195506" stroke="rgb(0%, 0%, 100%)" stroke-width="1.0" />
<line x1="151.40406974435362" y1="74.05340971195506" x2="151.40406974435362" y2="96.55340971195506" stroke="rgb(0%, 0%, 100%)" stroke-width="1.0" />
<line x1="187.90662127056072" y1="67.57787892593757" x2="195.64603087024335" y2="88.70491229667704" stroke="rgb(0%, 0%, 100%)" stroke-width="1.0" />
<line x1="185.55917311825635" y1="68.43781332590225" x2="193.29858271793898" y2="89.56484669664172" stroke="rgb(0%, 0%, 100%)" stroke-width="1.0" />
<line x1="206.68620648899582" y1="60.698403726219624" x2="214.42561608867845" y2="81.82543709695909" stroke="rgb(0%, 0%, 100%)" stroke-width="1.0" />
<line x1="204.33875833669146" y1="61.55833812618431" x2="212.0781679363741" y2="82.68537149692378" stroke="rgb(0%, 0%, 100%)" stroke-width="1.0" />
<line x1="235.88941237500697" y1="50.00041108600993" x2="243.628896018639" y2="71.12741733228034" stroke="rgb(0%, 0%, 100%)" stroke-width="1.0" />
<line x1="253.4224079559591" y1="38.48547618279491" x2="269.33231053265644" y2="54.39537875949219" stroke="rgb(0%, 0%, 100%)" stroke-width="1.0" />
<line x1="251.65464100299278" y1="40.25324313576124" x2="267.5645435796901" y2="56.163145712458515" stroke="rgb(0%, 0%, 100%)" stroke-width="1.0" />
<line x1="267.56454357969" y1="24.34334055906396" x2="283.4744461563874" y2="40.25324313576124" stroke="rgb(0%, 0%, 100%)" stroke-width="1.0" />
<line x1="265.79677662672367" y1="26.111107512030287" x2="281.70667920342106" y2="42.021010088727564" stroke="rgb(0%, 0%, 100%)" stroke-width="1.0" />
<circle cx="27.27963223604644" cy="354.42784722026215" r="5.0" stroke="none" stroke-width="1.0" fill="rgb(94%, 94%, 94%)"/>
<circle cx="27.27963223604644" cy="354.42784722026215" r="5.0" stroke="rgb(35%, 35%, 35%)" stroke-width="1.0" fill="none"/>
<text x="27.27963223604644" y="357.42784722026215" text-anchor="middle" font-family="Verdana" font-size="7.5" fill="rgb(0%, 0%, 0%)" >G</text>
<circle cx="27.27963223604644" cy="334.42784722026215" r="5.0" stroke="none" stroke-width="1.0" fill="rgb(94%, 94%, 94%)"/>
<circle cx="27.27963223604644" cy="334.42784722026215" r="5.0" stroke="rgb(35%, 35%, 35%)" stroke-width="1.0" fill="none"/>
<text x="27.27963223604644" y="337.42784722026215" text-anchor="middle" font-family="Verdana" font-size="7.5" fill="rgb(0%, 0%, 0%)" >G</text>
<circle cx="27.27963223604644" cy="314.42784722026215" r="5.0" stroke="none" stroke-width="1.0" fill="rgb(94%, 94%, 94%)"/>
<circle cx="27.27963223604644" cy="314.42784722026215" r="5.0" stroke="rgb(35%, 35%, 35%)" stroke-width="1.0" fill="none"/>
<text x="27.27963223604644" y="317.42784722026215" text-anchor="middle" font-family="Verdana" font-size="7.5" fill="rgb(0%, 0%, 0%)" >U</text>
<circle cx="27.27963223604644" cy="294.42784722026215" r="5.0" stroke="none" stroke-width="1.0" fill="rgb(94%, 94%, 94%)"/>
<circle cx="27.27963223604644" cy="294.42784722026215" r="5.0" stroke="rgb(35%, 35%, 35%)" stroke-width="1.0" fill="none"/>
<text x="27.27963223604644" y="297.42784722026215" text-anchor="middle" font-family="Verdana" font-size="7.5" fill="rgb(0%, 0%, 0%)" >U</text>
<circle cx="27.27963223604644" cy="274.42784722026215" r="5.0" stroke="none" stroke-width="1.0" fill="rgb(94%, 94%, 94%)"/>
<circle cx="27.27963223604644" cy="274.42784722026215" r="5.0" stroke="rgb(35%, 35%, 35%)" stroke-width="1.0" fill="none"/>
<text x="27.27963223604644" y="277.42784722026215" text-anchor="middle" font-family="Verdana" font-size="7.5" fill="rgb(0%, 0%, 0%)" >C</text>
<circle cx="27.27963223604644" cy="254.42784722026212" r="5.0" stroke="none" stroke-width="1.0" fill="rgb(94%, 94%, 94%)"/>
<circle cx="27.27963223604644" cy="254.42784722026212" r="5.0" stroke="rgb(35%, 35%, 35%)" stroke-width="1.0" fill="none"/>
<text x="27.27963223604644" y="257.42784722026215" text-anchor="middle" font-family="Verdana" font-size="7.5" fill="rgb(0%, 0%, 0%)" >A</text>
<circle cx="27.27963223604644" cy="234.42784722026212" r="5.0" stroke="none" stroke-width="1.0" fill="rgb(94%, 94%, 94%)"/>
<circle cx="27.27963223604644" cy="234.42784722026212" r="5.0" stroke="rgb(35%, 35%, 35%)" stroke-width="1.0" fill="none"/>
<text x="27.27963223604644" y="237.42784722026212" text-anchor="middle" font-family="Verdana" font-size="7.5" fill="rgb(0%, 0%, 0%)" >U</text>
<circle cx="27.27963223604644" cy="214.42784722026212" r="5.0" stroke="none" stroke-width="1.0" fill="rgb(94%, 94%, 94%)"/>
<circle cx="27.27963223604644" cy="214.42784722026212" r="5.0" stroke="rgb(35%, 35%, 35%)" stroke-width="1.0" fill="none"/>
<text x="27.27963223604644" y="217.42784722026212" text-anchor="middle" font-family="Verdana" font-size="7.5" fill="rgb(0%, 0%, 0%)" >G</text>
<circle cx="27.27963223604644" cy="194.42784722026212" r="5.0" stroke="none" stroke-width="1.0" fill="rgb(94%, 94%, 94%)"/>
<circle cx="27.27963223604644" cy="194.42784722026212" r="5.0" stroke="rgb(35%, 35%, 35%)" stroke-width="1.0" fill="none"/>
<text x="27.27963223604644" y="197.42784722026212" text-anchor="middle" font-family="Verdana" font-size="7.5" fill="rgb(0%, 0%, 0%)" >U</text>
<circle cx="27.27963223604644" cy="174.42784722026212" r="5.0" stroke="none" stroke-width="1.0" fill="rgb(94%, 94%, 94%)"/>
<circle cx="27.27963223604644" cy="174.42784722026212" r="5.0" stroke="rgb(35%, 35%, 35%)" stroke-width="1.0" fill="none"/>
<text x="27.27963223604644" y="177.42784722026212" text-anchor="middle" font-family="Verdana" font-size="7.5" fill="rgb(0%, 0%, 0%)" >C</text>
<circle cx="27.27963223604644" cy="154.42784722026212" r="5.0" stroke="none" stroke-width="1.0" fill="rgb(94%, 94%, 94%)"/>
<circle cx="27.27963223604644" cy="154.42784722026212" r="5.0" stroke="rgb(35%, 35%, 35%)" stroke-width="1.0" fill="none"/>
<text x="27.27963223604644" y="157.42784722026212" text-anchor="middle" font-family="Verdana" font-size="7.5" fill="rgb(0%, 0%, 0%)" >C</text>
<circle cx="27.27963223604644" cy="134.42784722026212" r="5.0" stroke="none" stroke-width="1.0" fill="rgb(94%, 94%, 94%)"/>
<circle cx="27.27963223604644" cy="134.42784722026212" r="5.0" stroke="rgb(35%, 35%, 35%)" stroke-width="1.0" fill="none"/>
<text x="27.27963223604644" y="137.42784722026212" text-anchor="middle" font-family="Verdana" font-size="7.5" fill="rgb(0%, 0%, 0%)" >U</text>
<circle cx="27.27963223604644" cy="114.42784722026215" r="5.0" stroke="none" stroke-width="1.0" fill="rgb(94%, 94%, 94%)"/>
<circle cx="27.27963223604644" cy="114.42784722026215" r="5.0" stroke="rgb(35%, 35%, 35%)" stroke-width="1.0" fill="none"/>
<text x="27.27963223604644" y="117.42784722026215" text-anchor="middle" font-family="Verdana" font-size="7.5" fill="rgb(0%, 0%, 0%)" >A</text>
<circle cx="14.823080291345718" cy="102.28072503627789" r="5.0" stroke="none" stroke-width="1.0" fill="rgb(94%, 94%, 94%)"/>
<circle cx="14.823080291345718" cy="102.28072503627789" r="5.0" stroke="rgb(35%, 35%, 35%)" stroke-width="1.0" fill="none"/>
<text x="14.823080291345718" y="105.28072503627789" text-anchor="middle" font-family="Verdana" font-size="7.5" fill="rgb(0%, 0%, 0%)" >C</text>
<circle cx="10.17919921875" cy="85.51311840064693" r="5.0" stroke="none" stroke-width="1.0" fill="rgb(94%, 94%, 94%)"/>
<circle cx="10.17919921875" cy="85.51311840064693" r="5.0" stroke="rgb(35%, 35%, 35%)" stroke-width="1.0" fill="none"/>
<text x="10.17919921875" y="88.51311840064693" text-anchor="middle" font-family="Verdana" font-size="7.5" fill="rgb(0%, 0%, 0%)" >U</text>
<circle cx="14.61185081744992" cy="68.68843821027724" r="5.0" stroke="none" stroke-width="1.0" fill="rgb(94%, 94%, 94%)"/>
<circle cx="14.61185081744992" cy="68.68843821027724" r="5.0" stroke="rgb(35%, 35%, 35%)" stroke-width="1.0" fill="none"/>
<text x="14.61185081744992" y="71.68843821027724" text-anchor="middle" font-family="Verdana" font-size="7.5" fill="rgb(0%, 0%, 0%)" >G</text>
<circle cx="26.91466073436868" cy="56.385628293358536" r="5.0" stroke="none" stroke-width="1.0" fill="rgb(94%, 94%, 94%)"/>
<circle cx="26.91466073436868" cy="56.385628293358536" r="5.0" stroke="rgb(35%, 35%, 35%)" stroke-width="1.0" fill="none"/>
<text x="26.91466073436868" y="59.385628293358536" text-anchor="middle" font-family="Verdana" font-size="7.5" fill="rgb(0%, 0%, 0%)" >U</text>
<circle cx="43.73934092473826" cy="51.95297669465856" r="5.0" stroke="none" stroke-width="1.0" fill="rgb(94%, 94%, 94%)"/>
<circle cx="43.73934092473826" cy="51.95297669465856" r="5.0" stroke="rgb(35%, 35%, 35%)" stroke-width="1.0" fill="none"/>
<text x="43.73934092473826" y="54.95297669465856" text-anchor="middle" font-family="Verdana" font-size="7.5" fill="rgb(0%, 0%, 0%)" >U</text>
<circle cx="60.506947560369326" cy="56.59685776725428" r="5.0" stroke="none" stroke-width="1.0" fill="rgb(94%, 94%, 94%)"/>
<circle cx="60.506947560369326" cy="56.59685776725428" r="5.0" stroke="rgb(35%, 35%, 35%)" stroke-width="1.0" fill="none"/>
<text x="60.506947560369326" y="59.59685776725428" text-anchor="middle" font-family="Verdana" font-size="7.5" fill="rgb(0%, 0%, 0%)" >C</text>
<circle cx="72.65406974435362" cy="69.05340971195506" r="5.0" stroke="none" stroke-width="1.0" fill="rgb(94%, 94%, 94%)"/>
<circle cx="72.65406974435362" cy="69.05340971195506" r="5.0" stroke="rgb(35%, 35%, 35%)" stroke-width="1.0" fill="none"/>
<text x="72.65406974435362" y="72.05340971195506" text-anchor="middle" font-family="Verdana" font-size="7.5" fill="rgb(0%, 0%, 0%)" >A</text>
<circle cx="92.65406974435362" cy="69.05340971195506" r="5.0" stroke="none" stroke-width="1.0" fill="rgb(94%, 94%, 94%)"/>
<circle cx="92.65406974435362" cy="69.05340971195506" r="5.0" stroke="rgb(35%, 35%, 35%)" stroke-width="1.0" fill="none"/>
<text x="92.65406974435362" y="72.05340971195506" text-anchor="middle" font-family="Verdana" font-size="7.5" fill="rgb(0%, 0%, 0%)" >A</text>
<circle cx="112.65406974435362" cy="69.05340971195506" r="5.0" stroke="none" stroke-width="1.0" fill="rgb(94%, 94%, 94%)"/>
<circle cx="112.65406974435362" cy="69.05340971195506" r="5.0" stroke="rgb(35%, 35%, 35%)" stroke-width="1.0" fill="none"/>
<text x="112.65406974435362" y="72.05340971195506" text-anchor="middle" font-family="Verdana" font-size="7.5" fill="rgb(0%, 0%, 0%)" >G</text>
<circle cx="132.65406974435362" cy="69.05340971195506" r="5.0" stroke="none" stroke-width="1.0" fill="rgb(94%, 94%, 94%)"/>
<circle cx="132.65406974435362" cy="69.05340971195506" r="5.0" stroke="rgb(35%, 35%, 35%)" stroke-width="1.0" fill="none"/>
<text x="132.65406974435362" y="72.05340971195506" text-anchor="middle" font-family="Verdana" font-size="7.5" fill="rgb(0%, 0%, 0%)" >C</text>
<circle cx="152.65406974435362" cy="69.05340971195506" r="5.0" stroke="none" stroke-width="1.0" fill="rgb(94%, 94%, 94%)"/>
<circle cx="152.65406974435362" cy="69.05340971195506" r="5.0" stroke="rgb(35%, 35%, 35%)" stroke-width="1.0" fill="none"/>
<text x="152.65406974435362" y="72.05340971195506" text-anchor="middle" font-family="Verdana" font-size="7.5" fill="rgb(0%, 0%, 0%)" >C</text>
<circle cx="167.78212046625785" cy="60.25627924972207" r="5.0" stroke="none" stroke-width="1.0" fill="rgb(94%, 94%, 94%)"/>
<circle cx="167.78212046625785" cy="60.25627924972207" r="5.0" stroke="rgb(35%, 35%, 35%)" stroke-width="1.0" fill="none"/>
<text x="167.78212046625785" y="63.25627924972207" text-anchor="middle" font-family="Verdana" font-size="7.5" fill="rgb(0%, 0%, 0%)" >U</text>
<circle cx="185.01302839447905" cy="63.31294982131112" r="5.0" stroke="none" stroke-width="1.0" fill="rgb(94%, 94%, 94%)"/>
<circle cx="185.01302839447905" cy="63.31294982131112" r="5.0" stroke="rgb(35%, 35%, 35%)" stroke-width="1.0" fill="none"/>
<text x="185.01302839447905" y="66.31294982131112" text-anchor="middle" font-family="Verdana" font-size="7.5" fill="rgb(0%, 0%, 0%)" >C</text>
<circle cx="203.79261361291415" cy="56.43347462159318" r="5.0" stroke="none" stroke-width="1.0" fill="rgb(94%, 94%, 94%)"/>
<circle cx="203.79261361291415" cy="56.43347462159318" r="5.0" stroke="rgb(35%, 35%, 35%)" stroke-width="1.0" fill="none"/>
<text x="203.79261361291415" y="59.43347462159318" text-anchor="middle" font-family="Verdana" font-size="7.5" fill="rgb(0%, 0%, 0%)" >C</text>
<circle cx="216.68388262879694" cy="44.59867071449935" r="5.0" stroke="none" stroke-width="1.0" fill="rgb(94%, 94%, 94%)"/>
<circle cx="216.68388262879694" cy="44.59867071449935" r="5.0" stroke="rgb(35%, 35%, 35%)" stroke-width="1.0" fill="none"/>
<text x="216.68388262879694" y="47.59867071449935" text-anchor="middle" font-family="Verdana" font-size="7.5" fill="rgb(0%, 0%, 0%)" >A</text>
<circle cx="234.16952712086652" cy="45.30552080906091" r="5.0" stroke="none" stroke-width="1.0" fill="rgb(94%, 94%, 94%)"/>
<circle cx="234.16952712086652" cy="45.30552080906091" r="5.0" stroke="rgb(35%, 35%, 35%)" stroke-width="1.0" fill="none"/>
<text x="234.16952712086652" y="48.30552080906091" text-anchor="middle" font-family="Verdana" font-size="7.5" fill="rgb(0%, 0%, 0%)" >A</text>
<circle cx="249.00299057354323" cy="35.83382575334531" r="5.0" stroke="none" stroke-width="1.0" fill="rgb(94%, 94%, 94%)"/>
<circle cx="249.00299057354323" cy="35.83382575334531" r="5.0" stroke="rgb(35%, 35%, 35%)" stroke-width="1.0" fill="none"/>
<text x="249.00299057354323" y="38.83382575334531" text-anchor="middle" font-family="Verdana" font-size="7.5" fill="rgb(0%, 0%, 0%)" >G</text>
<circle cx="263.1451261972741" cy="21.691690129614358" r="5.0" stroke="none" stroke-width="1.0" fill="rgb(94%, 94%, 94%)"/>
<circle cx="263.1451261972741" cy="21.691690129614358" r="5.0" stroke="rgb(35%, 35%, 35%)" stroke-width="1.0" fill="none"/>
<text x="263.1451261972741" y="24.691690129614358" text-anchor="middle" font-family="Verdana" font-size="7.5" fill="rgb(0%, 0%, 0%)" >C</text>
<circle cx="276.1664615283946" cy="10.0" r="5.0" stroke="none" stroke-width="1.0" fill="rgb(94%, 94%, 94%)"/>
<circle cx="276.1664615283946" cy="10.0" r="5.0" stroke="rgb(35%, 35%, 35%)" stroke-width="1.0" fill="none"/>
<text x="276.1664615283946" y="13.0" text-anchor="middle" font-family="Verdana" font-size="7.5" fill="rgb(0%, 0%, 0%)" >U</text>
<circle cx="292.98632343102895" cy="14.831463284422398" r="5.0" stroke="none" stroke-width="1.0" fill="rgb(94%, 94%, 94%)"/>
<circle cx="292.98632343102895" cy="14.831463284422398" r="5.0" stroke="rgb(35%, 35%, 35%)" stroke-width="1.0" fill="none"/>
<text x="292.98632343102895" y="17.831463284422398" text-anchor="middle" font-family="Verdana" font-size="7.5" fill="rgb(0%, 0%, 0%)" >G</text>
<circle cx="297.81778671545135" cy="31.651325187056614" r="5.0" stroke="none" stroke-width="1.0" fill="rgb(94%, 94%, 94%)"/>
<circle cx="297.81778671545135" cy="31.651325187056614" r="5.0" stroke="rgb(35%, 35%, 35%)" stroke-width="1.0" fill="none"/>
<text x="297.81778671545135" y="34.651325187056614" text-anchor="middle" font-family="Verdana" font-size="7.5" fill="rgb(0%, 0%, 0%)" >U</text>
<circle cx="286.12609658583693" cy="44.67266051817717" r="5.0" stroke="none" stroke-width="1.0" fill="rgb(94%, 94%, 94%)"/>
<circle cx="286.12609658583693" cy="44.67266051817717" r="5.0" stroke="rgb(35%, 35%, 35%)" stroke-width="1.0" fill="none"/>
<text x="286.12609658583693" y="47.67266051817717" text-anchor="middle" font-family="Verdana" font-size="7.5" fill="rgb(0%, 0%, 0%)" >G</text>
<circle cx="271.983960962106" cy="58.81479614190812" r="5.0" stroke="none" stroke-width="1.0" fill="rgb(94%, 94%, 94%)"/>
<circle cx="271.983960962106" cy="58.81479614190812" r="5.0" stroke="rgb(35%, 35%, 35%)" stroke-width="1.0" fill="none"/>
<text x="271.983960962106" y="61.81479614190812" text-anchor="middle" font-family="Verdana" font-size="7.5" fill="rgb(0%, 0%, 0%)" >C</text>
<circle cx="262.6517468424746" cy="73.55998224412474" r="5.0" stroke="none" stroke-width="1.0" fill="rgb(94%, 94%, 94%)"/>
<circle cx="262.6517468424746" cy="73.55998224412474" r="5.0" stroke="rgb(35%, 35%, 35%)" stroke-width="1.0" fill="none"/>
<text x="262.6517468424746" y="76.55998224412474" text-anchor="middle" font-family="Verdana" font-size="7.5" fill="rgb(0%, 0%, 0%)" >C</text>
<circle cx="245.34878127277943" cy="75.82230760922937" r="5.0" stroke="none" stroke-width="1.0" fill="rgb(94%, 94%, 94%)"/>
<circle cx="245.34878127277943" cy="75.82230760922937" r="5.0" stroke="rgb(35%, 35%, 35%)" stroke-width="1.0" fill="none"/>
<text x="245.34878127277943" y="78.82230760922937" text-anchor="middle" font-family="Verdana" font-size="7.5" fill="rgb(0%, 0%, 0%)" >U</text>
<circle cx="232.45747828083705" cy="87.65718433735537" r="5.0" stroke="none" stroke-width="1.0" fill="rgb(94%, 94%, 94%)"/>
<circle cx="232.45747828083705" cy="87.65718433735537" r="5.0" stroke="rgb(35%, 35%, 35%)" stroke-width="1.0" fill="none"/>
<text x="232.45747828083705" y="90.65718433735537" text-anchor="middle" font-family="Verdana" font-size="7.5" fill="rgb(0%, 0%, 0%)" >U</text>
<circle cx="214.97176081245576" cy="86.95030060155023" r="5.0" stroke="none" stroke-width="1.0" fill="rgb(94%, 94%, 94%)"/>
<circle cx="214.97176081245576" cy="86.95030060155023" r="5.0" stroke="rgb(35%, 35%, 35%)" stroke-width="1.0" fill="none"/>
<text x="214.97176081245576" y="89.95030060155023" text-anchor="middle" font-family="Verdana" font-size="7.5" fill="rgb(0%, 0%, 0%)" >G</text>
<circle cx="196.19217559402065" cy="93.82977580126817" r="5.0" stroke="none" stroke-width="1.0" fill="rgb(94%, 94%, 94%)"/>
<circle cx="196.19217559402065" cy="93.82977580126817" r="5.0" stroke="rgb(35%, 35%, 35%)" stroke-width="1.0" fill="none"/>
<text x="196.19217559402065" y="96.82977580126817" text-anchor="middle" font-family="Verdana" font-size="7.5" fill="rgb(0%, 0%, 0%)" >G</text>
<circle cx="185.01316396505513" cy="107.29379076707437" r="5.0" stroke="none" stroke-width="1.0" fill="rgb(94%, 94%, 94%)"/>
<circle cx="185.01316396505513" cy="107.29379076707437" r="5.0" stroke="rgb(35%, 35%, 35%)" stroke-width="1.0" fill="none"/>
<text x="185.01316396505513" y="110.29379076707437" text-anchor="middle" font-family="Verdana" font-size="7.5" fill="rgb(0%, 0%, 0%)" >G</text>
<circle cx="167.7821976738501" cy="110.35055387064585" r="5.0" stroke="none" stroke-width="1.0" fill="rgb(94%, 94%, 94%)"/>
<circle cx="167.7821976738501" cy="110.35055387064585" r="5.0" stroke="rgb(35%, 35%, 35%)" stroke-width="1.0" fill="none"/>
<text x="167.7821976738501" y="113.35055387064585" text-anchor="middle" font-family="Verdana" font-size="7.5" fill="rgb(0%, 0%, 0%)" >U</text>
<circle cx="152.65406974435362" cy="101.55340971195506" r="5.0" stroke="none" stroke-width="1.0" fill="rgb(94%, 94%, 94%)"/>
<circle cx="152.65406974435362" cy="101.55340971195506" r="5.0" stroke="rgb(35%, 35%, 35%)" stroke-width="1.0" fill="none"/>
<text x="152.65406974435362" y="104.55340971195506" text-anchor="middle" font-family="Verdana" font-size="7.5" fill="rgb(0%, 0%, 0%)" >G</text>
<circle cx="132.65406974435362" cy="101.55340971195506" r="5.0" stroke="none" stroke-width="1.0" fill="rgb(94%, 94%, 94%)"/>
<circle cx="132.65406974435362" cy="101.55340971195506" r="5.0" stroke="rgb(35%, 35%, 35%)" stroke-width="1.0" fill="none"/>
<text x="132.65406974435362" y="104.55340971195506" text-anchor="middle" font-family="Verdana" font-size="7.5" fill="rgb(0%, 0%, 0%)" >G</text>
<circle cx="112.65406974435362" cy="101.55340971195506" r="5.0" stroke="none" stroke-width="1.0" fill="rgb(94%, 94%, 94%)"/>
<circle cx="112.65406974435362" cy="101.55340971195506" r="5.0" stroke="rgb(35%, 35%, 35%)" stroke-width="1.0" fill="none"/>
<text x="112.65406974435362" y="104.55340971195506" text-anchor="middle" font-family="Verdana" font-size="7.5" fill="rgb(0%, 0%, 0%)" >C</text>
<circle cx="92.65406974435362" cy="101.55340971195506" r="5.0" stroke="none" stroke-width="1.0" fill="rgb(94%, 94%, 94%)"/>
<circle cx="92.65406974435362" cy="101.55340971195506" r="5.0" stroke="rgb(35%, 35%, 35%)" stroke-width="1.0" fill="none"/>
<text x="92.65406974435362" y="104.55340971195506" text-anchor="middle" font-family="Verdana" font-size="7.5" fill="rgb(0%, 0%, 0%)" >U</text>
<circle cx="72.65406974435362" cy="101.55340971195506" r="5.0" stroke="none" stroke-width="1.0" fill="rgb(94%, 94%, 94%)"/>
<circle cx="72.65406974435362" cy="101.55340971195506" r="5.0" stroke="rgb(35%, 35%, 35%)" stroke-width="1.0" fill="none"/>
<text x="72.65406974435362" y="104.55340971195506" text-anchor="middle" font-family="Verdana" font-size="7.5" fill="rgb(0%, 0%, 0%)" >U</text>
<circle cx="59.77963223604644" cy="114.42784722026215" r="5.0" stroke="none" stroke-width="1.0" fill="rgb(94%, 94%, 94%)"/>
<circle cx="59.77963223604644" cy="114.42784722026215" r="5.0" stroke="rgb(35%, 35%, 35%)" stroke-width="1.0" fill="none"/>
<text x="59.77963223604644" y="117.42784722026215" text-anchor="middle" font-family="Verdana" font-size="7.5" fill="rgb(0%, 0%, 0%)" >U</text>
<circle cx="59.77963223604644" cy="134.42784722026212" r="5.0" stroke="none" stroke-width="1.0" fill="rgb(94%, 94%, 94%)"/>
<circle cx="59.77963223604644" cy="134.42784722026212" r="5.0" stroke="rgb(35%, 35%, 35%)" stroke-width="1.0" fill="none"/>
<text x="59.77963223604644" y="137.42784722026212" text-anchor="middle" font-family="Verdana" font-size="7.5" fill="rgb(0%, 0%, 0%)" >G</text>
<circle cx="59.77963223604644" cy="154.42784722026212" r="5.0" stroke="none" stroke-width="1.0" fill="rgb(94%, 94%, 94%)"/>
<circle cx="59.77963223604644" cy="154.42784722026212" r="5.0" stroke="rgb(35%, 35%, 35%)" stroke-width="1.0" fill="none"/>
<text x="59.77963223604644" y="157.42784722026212" text-anchor="middle" font-family="Verdana" font-size="7.5" fill="rgb(0%, 0%, 0%)" >G</text>
<circle cx="59.77963223604644" cy="174.42784722026212" r="5.0" stroke="none" stroke-width="1.0" fill="rgb(94%, 94%, 94%)"/>
<circle cx="59.77963223604644" cy="174.42784722026212" r="5.0" stroke="rgb(35%, 35%, 35%)" stroke-width="1.0" fill="none"/>
<text x="59.77963223604644" y="177.42784722026212" text-anchor="middle" font-family="Verdana" font-size="7.5" fill="rgb(0%, 0%, 0%)" >G</text>
<circle cx="59.77963223604644" cy="194.42784722026212" r="5.0" stroke="none" stroke-width="1.0" fill="rgb(94%, 94%, 94%)"/>
<circle cx="59.77963223604644" cy="194.42784722026212" r="5.0" stroke="rgb(35%, 35%, 35%)" stroke-width="1.0" fill="none"/>
<text x="59.77963223604644" y="197.42784722026212" text-anchor="middle" font-family="Verdana" font-size="7.5" fill="rgb(0%, 0%, 0%)" >G</text>
<circle cx="59.77963223604644" cy="214.42784722026212" r="5.0" stroke="none" stroke-width="1.0" fill="rgb(94%, 94%, 94%)"/>
<circle cx="59.77963223604644" cy="214.42784722026212" r="5.0" stroke="rgb(35%, 35%, 35%)" stroke-width="1.0" fill="none"/>
<text x="59.77963223604644" y="217.42784722026212" text-anchor="middle" font-family="Verdana" font-size="7.5" fill="rgb(0%, 0%, 0%)" >C</text>
<circle cx="59.77963223604644" cy="234.42784722026212" r="5.0" stroke="none" stroke-width="1.0" fill="rgb(94%, 94%, 94%)"/>
<circle cx="59.77963223604644" cy="234.42784722026212" r="5.0" stroke="rgb(35%, 35%, 35%)" stroke-width="1.0" fill="none"/>
<text x="59.77963223604644" y="237.42784722026212" text-anchor="middle" font-family="Verdana" font-size="7.5" fill="rgb(0%, 0%, 0%)" >A</text>
<circle cx="59.77963223604644" cy="254.42784722026212" r="5.0" stroke="none" stroke-width="1.0" fill="rgb(94%, 94%, 94%)"/>
<circle cx="59.77963223604644" cy="254.42784722026212" r="5.0" stroke="rgb(35%, 35%, 35%)" stroke-width="1.0" fill="none"/>
<text x="59.77963223604644" y="257.42784722026215" text-anchor="middle" font-family="Verdana" font-size="7.5" fill="rgb(0%, 0%, 0%)" >U</text>
<circle cx="59.77963223604644" cy="274.42784722026215" r="5.0" stroke="none" stroke-width="1.0" fill="rgb(94%, 94%, 94%)"/>
<circle cx="59.77963223604644" cy="274.42784722026215" r="5.0" stroke="rgb(35%, 35%, 35%)" stroke-width="1.0" fill="none"/>
<text x="59.77963223604644" y="277.42784722026215" text-anchor="middle" font-family="Verdana" font-size="7.5" fill="rgb(0%, 0%, 0%)" >G</text>
<circle cx="59.77963223604644" cy="294.42784722026215" r="5.0" stroke="none" stroke-width="1.0" fill="rgb(94%, 94%, 94%)"/>
<circle cx="59.77963223604644" cy="294.42784722026215" r="5.0" stroke="rgb(35%, 35%, 35%)" stroke-width="1.0" fill="none"/>
<text x="59.77963223604644" y="297.42784722026215" text-anchor="middle" font-family="Verdana" font-size="7.5" fill="rgb(0%, 0%, 0%)" >G</text>
<circle cx="59.77963223604644" cy="314.42784722026215" r="5.0" stroke="none" stroke-width="1.0" fill="rgb(94%, 94%, 94%)"/>
<circle cx="59.77963223604644" cy="314.42784722026215" r="5.0" stroke="rgb(35%, 35%, 35%)" stroke-width="1.0" fill="none"/>
<text x="59.77963223604644" y="317.42784722026215" text-anchor="middle" font-family="Verdana" font-size="7.5" fill="rgb(0%, 0%, 0%)" >A</text>
<circle cx="59.77963223604644" cy="334.42784722026215" r="5.0" stroke="none" stroke-width="1.0" fill="rgb(94%, 94%, 94%)"/>
<circle cx="59.77963223604644" cy="334.42784722026215" r="5.0" stroke="rgb(35%, 35%, 35%)" stroke-width="1.0" fill="none"/>
<text x="59.77963223604644" y="337.42784722026215" text-anchor="middle" font-family="Verdana" font-size="7.5" fill="rgb(0%, 0%, 0%)" >C</text>
<circle cx="59.77963223604644" cy="354.42784722026215" r="5.0" stroke="none" stroke-width="1.0" fill="rgb(94%, 94%, 94%)"/>
<circle cx="59.77963223604644" cy="354.42784722026215" r="5.0" stroke="rgb(35%, 35%, 35%)" stroke-width="1.0" fill="none"/>
<text x="59.77963223604644" y="357.42784722026215" text-anchor="middle" font-family="Verdana" font-size="7.5" fill="rgb(0%, 0%, 0%)" >C</text>
<line x1="27.27963223604644" y1="361.92784722026215" x2="27.27963223604644" y2="366.92784722026215" stroke="rgb(25%, 25%, 25%)" stroke-width="1.0" />
<text x="27.27963223604644" y="377.42784722026215" text-anchor="middle" font-family="Verdana" font-size="7.5" fill="rgb(25%, 25%, 25%)" >1</text>
<line x1="19.77963223604644" y1="174.42784722026212" x2="14.779632236046439" y2="174.42784722026212" stroke="rgb(25%, 25%, 25%)" stroke-width="1.0" />
<text x="7.279632236046439" y="177.42784722026212" text-anchor="middle" font-family="Verdana" font-size="7.5" fill="rgb(25%, 25%, 25%)" >10</text>
<line x1="74.63314635552383" y1="61.81923693498055" x2="75.95253076297065" y2="56.996455083664216" stroke="rgb(25%, 25%, 25%)" stroke-width="1.0" />
<text x="77.93160737414087" y="52.76228230668971" text-anchor="middle" font-family="Verdana" font-size="7.5" fill="rgb(25%, 25%, 25%)" >20</text>
<line x1="248.0605183586622" y1="28.393278318903583" x2="247.43220354874148" y2="23.4329133626091" stroke="rgb(25%, 25%, 25%)" stroke-width="1.0" />
<text x="246.48973133386045" y="18.992365928167374" text-anchor="middle" font-family="Verdana" font-size="7.5" fill="rgb(25%, 25%, 25%)" >30</text>
<line x1="220.29980060600212" y1="92.2287465810395" x2="223.85182713503303" y2="95.74771056736569" stroke="rgb(25%, 25%, 25%)" stroke-width="1.0" />
<text x="229.1798669285794" y="104.0261565468549" text-anchor="middle" font-family="Verdana" font-size="7.5" fill="rgb(25%, 25%, 25%)" >40</text>
<line x1="67.27963223604644" y1="134.42784722026212" x2="72.27963223604644" y2="134.42784722026212" stroke="rgb(25%, 25%, 25%)" stroke-width="1.0" />
<text x="79.77963223604644" y="137.42784722026212" text-anchor="middle" font-family="Verdana" font-size="7.5" fill="rgb(25%, 25%, 25%)" >50</text>
<line x1="67.27963223604644" y1="334.42784722026215" x2="72.27963223604644" y2="334.42784722026215" stroke="rgb(25%, 25%, 25%)" stroke-width="1.0" />
<text x="79.77963223604644" y="337.42784722026215" text-anchor="middle" font-family="Verdana" font-size="7.5" fill="rgb(25%, 25%, 25%)" >60</text>
<line x1="59.77963223604644" y1="361.92784722026215" x2="59.77963223604644" y2="366.92784722026215" stroke="rgb(25%, 25%, 25%)" stroke-width="1.0" />
<text x="59.77963223604644" y="377.42784722026215" text-anchor="middle" font-family="Verdana" font-size="7.5" fill="rgb(25%, 25%, 25%)" >61</text>
<text x="40.3142483507822" y="84.4880258266908" text-anchor="middle" font-family="Verdana" font-size="6.0" fill="rgb(0%, 0%, 0%)" >247</text>
<text x="172.44154651176714" y="88.92145270484733" text-anchor="middle" font-family="Verdana" font-size="6.0" fill="rgb(0%, 0%, 0%)" >259</text>
<text x="224.570673954775" y="68.52790978221472" text-anchor="middle" font-family="Verdana" font-size="6.0" fill="rgb(0%, 0%, 0%)" >206</text>
<text x="252.6314013543539" y="60.267286511533676" text-anchor="middle" font-family="Verdana" font-size="6.0" fill="rgb(0%, 0%, 0%)" >245</text>
</svg>
