<?xml version="1.0" encoding="UTF-8"?>
<!DOCTYPE svg PUBLIC "-//W3C//DTD SVG 1.1//EN" 
"http://www.w3.org/Graphics/SVG/1.1/DTD/svg11.dtd">

<svg width="100%" height="100%" version="1.1"
xmlns="http://www.w3.org/2000/svg">
<path d="M 170.86782836914062 55.143951416015625 L 171.50807189941406 54.47955322265625 L 172.0153350830078 53.708831787109375 L 172.37232971191406 52.858001708984375 L 172.56690979003906 51.9560546875 L 172.5924530029297 51.03375244140625 L 172.44808959960938 50.122406005859375 L 172.1387176513672 49.253143310546875 L 171.6748809814453 48.45550537109375 L 171.0723876953125 47.7567138671875 L 170.35174560546875 47.18048095703125 L 169.53749084472656 46.74652099609375 L 168.65736389160156 46.46954345703125 L 167.7413330078125 46.3590087890625 L 166.82057189941406 46.418670654296875 L 165.9264678955078 46.646514892578125 L 165.08944702148438 47.034759521484375 L 151.12677001953125 55.154205322265625 L 132.47486877441406 55.154205322265625 L 131.55612182617188 55.239349365234375 L 130.6686553955078 55.491851806640625 L 129.84271240234375 55.90313720703125 L 129.1063995361328 56.45916748046875 L 128.4847869873047 57.14105224609375 L 127.99905395507812 57.925537109375 L 127.66574096679688 58.785888671875 L 127.49620056152344 59.69287109375 L 127.49620056152344 60.615570068359375 L 127.66574096679688 61.52252197265625 L 127.99905395507812 62.382904052734375 L 128.4847869873047 63.167388916015625 L 129.1063995361328 63.849273681640625 L 129.84271240234375 64.40530395507812 L 130.6686553955078 64.81658935546875 L 131.55612182617188 65.069091796875 L 132.47486877441406 65.15420532226562 L 153.82296752929688 65.15420532226562 L 170.11639404296875 55.679412841796875 z" fill="rgb(63%, 64%, 74%)" style="stroke:none;"/>
<path d="M 170.86782836914062 55.143951416015625 L 171.50807189941406 54.47955322265625 L 172.0153350830078 53.708831787109375 L 172.37232971191406 52.858001708984375 L 172.56690979003906 51.9560546875 L 172.5924530029297 51.03375244140625 L 172.44808959960938 50.122406005859375 L 172.1387176513672 49.253143310546875 L 171.6748809814453 48.45550537109375 L 171.0723876953125 47.7567138671875 L 170.35174560546875 47.18048095703125 L 169.53749084472656 46.74652099609375 L 168.65736389160156 46.46954345703125 L 167.7413330078125 46.3590087890625 L 166.82057189941406 46.418670654296875 L 165.9264678955078 46.646514892578125 L 165.08944702148438 47.034759521484375 L 151.12677001953125 55.154205322265625 L 132.47486877441406 55.154205322265625 L 131.55612182617188 55.239349365234375 L 130.6686553955078 55.491851806640625 L 129.84271240234375 55.90313720703125 L 129.1063995361328 56.45916748046875 L 128.4847869873047 57.14105224609375 L 127.99905395507812 57.925537109375 L 127.66574096679688 58.785888671875 L 127.49620056152344 59.69287109375 L 127.49620056152344 60.615570068359375 L 127.66574096679688 61.52252197265625 L 127.99905395507812 62.382904052734375 L 128.4847869873047 63.167388916015625 L 129.1063995361328 63.849273681640625 L 129.84271240234375 64.40530395507812 L 130.6686553955078 64.81658935546875 L 131.55612182617188 65.069091796875 L 132.47486877441406 65.15420532226562 L 153.82296752929688 65.15420532226562 L 170.11639404296875 55.679412841796875 z" style="fill:none; stroke:rgb(43%, 84%, 43%); stroke-width:1.0;"/>
<path d="M 165.8398895263672 96.77252197265625 L 165.0101776123047 97.17617797851562 L 164.2687530517578 97.72540283203125 L 163.64088439941406 98.4014892578125 L 163.14793395996094 99.18145751953125 L 162.80670166015625 100.03872680664062 L 162.62879943847656 100.944091796875 L 162.6202850341797 101.86676025390625 L 162.7814483642578 102.77523803710938 L 163.1068115234375 103.638671875 L 163.5852813720703 104.42758178710938 L 164.20057678222656 105.11517333984375 L 164.93173217773438 105.677978515625 L 165.75384521484375 106.09686279296875 L 166.63894653320312 106.3575439453125 L 167.55686950683594 106.45114135742188 L 168.4763641357422 106.37448120117188 L 187.5107879638672 102.997802734375 L 198.99867248535156 89.16177368164062 L 216.51243591308594 82.74600219726562 L 217.3458251953125 82.35003662109375 L 218.09228515625 81.80767822265625 L 218.7263641357422 81.13739013671875 L 219.2264862060547 80.36199951171875 L 219.57562255859375 79.5079345703125 L 219.76187133789062 78.604248046875 L 219.77890014648438 77.68170166015625 L 219.62611389160156 76.77175903320312 L 219.30874633789062 75.9053955078125 L 218.8375701904297 75.11209106445312 L 218.22865295410156 74.41885375976562 L 217.50271606445312 73.84930419921875 L 216.6844940185547 73.42288208007812 L 215.80184936523438 73.15402221679688 L 214.88482666015625 73.05197143554688 L 213.96466064453125 73.1201171875 L 213.07269287109375 73.356201171875 L 193.02728271484375 80.69940185546875 L 182.1571502685547 93.79141235351562 L 166.72964477539062 96.52822875976562 z" fill="rgb(63%, 64%, 74%)" style="stroke:none;"/>
<path d="M 165.8398895263672 96.77252197265625 L 165.0101776123047 97.17617797851562 L 164.2687530517578 97.72540283203125 L 163.64088439941406 98.4014892578125 L 163.14793395996094 99.18145751953125 L 162.80670166015625 100.03872680664062 L 162.62879943847656 100.944091796875 L 162.6202850341797 101.86676025390625 L 162.7814483642578 102.77523803710938 L 163.1068115234375 103.638671875 L 163.5852813720703 104.42758178710938 L 164.20057678222656 105.11517333984375 L 164.93173217773438 105.677978515625 L 165.75384521484375 106.09686279296875 L 166.63894653320312 106.3575439453125 L 167.55686950683594 106.45114135742188 L 168.4763641357422 106.37448120117188 L 187.5107879638672 102.997802734375 L 198.99867248535156 89.16177368164062 L 216.51243591308594 82.74600219726562 L 217.3458251953125 82.35003662109375 L 218.09228515625 81.80767822265625 L 218.7263641357422 81.13739013671875 L 219.2264862060547 80.36199951171875 L 219.57562255859375 79.5079345703125 L 219.76187133789062 78.604248046875 L 219.77890014648438 77.68170166015625 L 219.62611389160156 76.77175903320312 L 219.30874633789062 75.9053955078125 L 218.8375701904297 75.11209106445312 L 218.22865295410156 74.41885375976562 L 217.50271606445312 73.84930419921875 L 216.6844940185547 73.42288208007812 L 215.80184936523438 73.15402221679688 L 214.88482666015625 73.05197143554688 L 213.96466064453125 73.1201171875 L 213.07269287109375 73.356201171875 L 193.02728271484375 80.69940185546875 L 182.1571502685547 93.79141235351562 L 166.72964477539062 96.52822875976562 z" style="fill:none; stroke:rgb(43%, 84%, 43%); stroke-width:1.0;"/>
<path d="M 285.10736083984375 56.721923828125 L 284.4635925292969 57.382904052734375 L 283.9522399902344 58.15093994140625 L 283.5907287597656 58.999847412109375 L 283.3913879394531 59.9007568359375 L 283.3609313964844 60.82293701171875 L 283.50048828125 61.735015869140625 L 283.80523681640625 62.60589599609375 L 284.2648010253906 63.405975341796875 L 284.86358642578125 64.10797119140625 L 285.5811767578125 64.68801879882812 L 286.3930969238281 65.12631225585938 L 287.2717590332031 65.407958984375 L 288.18719482421875 65.52334594726562 L 289.1082458496094 65.46856689453125 L 290.0035705566406 65.24545288085938 L 290.8426208496094 64.86166381835938 L 307.6004638671875 55.23541259765625 L 314.8359069824219 35.359649658203125 L 307.56024169921875 15.498565673828125 L 289.1978454589844 5.0 L 268.39117431640625 8.80517578125 L 256.9581604003906 22.667694091796875 L 239.4527130126953 29.0804443359375 L 238.6193084716797 29.476409912109375 L 237.87286376953125 30.018768310546875 L 237.23878479003906 30.689056396484375 L 236.73866271972656 31.46441650390625 L 236.3895263671875 32.318511962890625 L 236.20327758789062 33.222198486328125 L 236.18624877929688 34.14471435546875 L 236.33901977539062 35.0546875 L 236.65640258789062 35.921051025390625 L 237.12757873535156 36.71435546875 L 237.7364959716797 37.4075927734375 L 238.46243286132812 37.97711181640625 L 239.28065490722656 38.403564453125 L 240.16329956054688 38.672393798828125 L 241.080322265625 38.77447509765625 L 242.00048828125 38.706329345703125 L 242.8924560546875 38.47021484375 L 262.9461669921875 31.123992919921875 L 273.7823791503906 17.985076904296875 L 287.4046325683594 15.493804931640625 L 299.42657470703125 22.367279052734375 L 304.1899719238281 35.37042236328125 L 299.4529113769531 48.3831787109375 L 285.8616027832031 56.190460205078125 z" fill="rgb(96%, 88%, 96%)" style="stroke:none;"/>
<path d="M 285.10736083984375 56.721923828125 L 284.4635925292969 57.382904052734375 L 283.9522399902344 58.15093994140625 L 283.5907287597656 58.999847412109375 L 283.3913879394531 59.9007568359375 L 283.3609313964844 60.82293701171875 L 283.50048828125 61.735015869140625 L 283.80523681640625 62.60589599609375 L 284.2648010253906 63.405975341796875 L 284.86358642578125 64.10797119140625 L 285.5811767578125 64.68801879882812 L 286.3930969238281 65.12631225585938 L 287.2717590332031 65.407958984375 L 288.18719482421875 65.52334594726562 L 289.1082458496094 65.46856689453125 L 290.0035705566406 65.24545288085938 L 290.8426208496094 64.86166381835938 L 307.6004638671875 55.23541259765625 L 314.8359069824219 35.359649658203125 L 307.56024169921875 15.498565673828125 L 289.1978454589844 5.0 L 268.39117431640625 8.80517578125 L 256.9581604003906 22.667694091796875 L 239.4527130126953 29.0804443359375 L 238.6193084716797 29.476409912109375 L 237.87286376953125 30.018768310546875 L 237.23878479003906 30.689056396484375 L 236.73866271972656 31.46441650390625 L 236.3895263671875 32.318511962890625 L 236.20327758789062 33.222198486328125 L 236.18624877929688 34.14471435546875 L 236.33901977539062 35.0546875 L 236.65640258789062 35.921051025390625 L 237.12757873535156 36.71435546875 L 237.7364959716797 37.4075927734375 L 238.46243286132812 37.97711181640625 L 239.28065490722656 38.403564453125 L 240.16329956054688 38.672393798828125 L 241.080322265625 38.77447509765625 L 242.00048828125 38.706329345703125 L 242.8924560546875 38.47021484375 L 262.9461669921875 31.123992919921875 L 273.7823791503906 17.985076904296875 L 287.4046325683594 15.493804931640625 L 299.42657470703125 22.367279052734375 L 304.1899719238281 35.37042236328125 L 299.4529113769531 48.3831787109375 L 285.8616027832031 56.190460205078125 z" style="fill:none; stroke:rgb(43%, 84%, 43%); stroke-width:1.0;"/>
<line x1="27.10043301729644" y1="340.5286560058594" x2="27.10043301729644" y2="330.5286560058594" stroke="rgb(35%, 35%, 35%)" stroke-width="1.0" />
<line x1="27.10043301729644" y1="320.5286560058594" x2="27.10043301729644" y2="310.5286560058594" stroke="rgb(35%, 35%, 35%)" stroke-width="1.0" />
<line x1="27.10043301729644" y1="300.5286560058594" x2="27.10043301729644" y2="290.5286560058594" stroke="rgb(35%, 35%, 35%)" stroke-width="1.0" />
<line x1="27.10043301729644" y1="280.5286560058594" x2="27.10043301729644" y2="270.5286560058594" stroke="rgb(35%, 35%, 35%)" stroke-width="1.0" />
<line x1="27.10043301729644" y1="260.5286560058594" x2="27.10043301729644" y2="250.52865600585938" stroke="rgb(35%, 35%, 35%)" stroke-width="1.0" />
<line x1="27.10043301729644" y1="240.52865600585938" x2="27.10043301729644" y2="230.52865600585938" stroke="rgb(35%, 35%, 35%)" stroke-width="1.0" />
<line x1="27.10043301729644" y1="220.52865600585938" x2="27.10043301729644" y2="210.52865600585938" stroke="rgb(35%, 35%, 35%)" stroke-width="1.0" />
<line x1="27.10043301729644" y1="200.52865600585938" x2="27.10043301729644" y2="190.52865600585938" stroke="rgb(35%, 35%, 35%)" stroke-width="1.0" />
<line x1="27.10043301729644" y1="180.52865600585938" x2="27.10043301729644" y2="170.52865600585938" stroke="rgb(35%, 35%, 35%)" stroke-width="1.0" />
<line x1="27.10043301729644" y1="160.52865600585938" x2="27.10043301729644" y2="150.52865600585938" stroke="rgb(35%, 35%, 35%)" stroke-width="1.0" />
<line x1="27.10043301729644" y1="140.52865600585938" x2="27.10043301729644" y2="130.52865600585938" stroke="rgb(35%, 35%, 35%)" stroke-width="1.0" />
<line x1="27.10043301729644" y1="120.52865600585938" x2="27.10043301729644" y2="110.52865600585938" stroke="rgb(35%, 35%, 35%)" stroke-width="1.0" />
<line x1="23.52071732235285" y1="102.03786303815497" x2="18.223596767539306" y2="96.87232678957952" stroke="rgb(35%, 35%, 35%)" stroke-width="1.0" />
<line x1="13.309340500307215" y1="88.56292391227299" x2="11.334540572288503" y2="81.43253709584621" stroke="rgb(35%, 35%, 35%)" stroke-width="1.0" />
<line x1="11.273838263471717" y1="71.77891569933786" x2="13.158813335228203" y2="64.6242584827807" stroke="rgb(35%, 35%, 35%)" stroke-width="1.0" />
<line x1="17.968185504632658" y1="56.2537130899417" x2="23.199927609685943" y2="51.02197098488841" stroke="rgb(35%, 35%, 35%)" stroke-width="1.0" />
<line x1="31.570473002524928" y1="46.212598815484" x2="38.72513021908201" y2="44.327623743727486" stroke="rgb(35%, 35%, 35%)" stroke-width="1.0" />
<line x1="48.37875161559039" y1="44.3883260525443" x2="55.509138432017195" y2="46.363125980562984" stroke="rgb(35%, 35%, 35%)" stroke-width="1.0" />
<line x1="63.818541309323734" y1="51.27738224779506" x2="68.98407755789921" y2="56.57450280260866" stroke="rgb(35%, 35%, 35%)" stroke-width="1.0" />
<line x1="77.47487052560362" y1="60.15421849755222" x2="87.47487052560362" y2="60.15421849755222" stroke="rgb(35%, 35%, 35%)" stroke-width="1.0" />
<line x1="97.47487052560362" y1="60.15421849755222" x2="107.47487052560362" y2="60.15421849755222" stroke="rgb(35%, 35%, 35%)" stroke-width="1.0" />
<line x1="117.47487052560362" y1="60.15421849755222" x2="127.47487052560362" y2="60.15421849755222" stroke="rgb(35%, 35%, 35%)" stroke-width="1.0" />
<line x1="137.47487052560362" y1="60.15421849755222" x2="147.47487052560362" y2="60.15421849755222" stroke="rgb(35%, 35%, 35%)" stroke-width="1.0" />
<line x1="156.7971889172941" y1="57.64074207616807" x2="163.28060285581736" y2="53.87056445670339" stroke="rgb(35%, 35%, 35%)" stroke-width="1.0" />
<line x1="172.5260585117053" y1="52.230426158768864" x2="179.91069191153161" y2="53.54042048345866" stroke="rgb(35%, 35%, 35%)" stroke-width="1.0" />
<line x1="189.52872548033784" y1="52.6938898069788" x2="198.91851808955536" y2="49.25415220711989" stroke="rgb(35%, 35%, 35%)" stroke-width="1.0" />
<line x1="208.30831069877294" y1="45.814414607260915" x2="217.69810330799046" y2="42.374677007402" stroke="rgb(35%, 35%, 35%)" stroke-width="1.0" />
<line x1="227.08789591720804" y1="38.93493940754303" x2="236.47768852642554" y2="35.49520180768411" stroke="rgb(35%, 35%, 35%)" stroke-width="1.0" />
<line x1="245.86748113564312" y1="32.05546420782514" x2="255.2572737448607" y2="28.615726607966224" stroke="rgb(35%, 35%, 35%)" stroke-width="1.0" />
<line x1="263.13348860634585" y1="23.03849961366666" x2="267.9054510225999" y2="17.25248101776816" stroke="rgb(35%, 35%, 35%)" stroke-width="1.0" />
<line x1="276.0051951033992" y1="12.495628317787862" x2="283.3828095508973" y2="11.146390918998861" stroke="rgb(35%, 35%, 35%)" stroke-width="1.0" />
<line x1="292.64186175963073" y1="12.728621616369708" x2="299.15278074890756" y2="16.451197392535903" stroke="rgb(35%, 35%, 35%)" stroke-width="1.0" />
<line x1="305.2132762336475" y1="23.62781890012576" x2="307.79307109776494" y2="30.67014060204309" stroke="rgb(35%, 35%, 35%)" stroke-width="1.0" />
<line x1="307.802577486081" y1="40.063404753142834" x2="305.2370421583626" y2="47.110933751057814" stroke="rgb(35%, 35%, 35%)" stroke-width="1.0" />
<line x1="299.1910851742083" y1="54.29980751052176" x2="292.6877143289464" y2="58.03555430911803" stroke="rgb(35%, 35%, 35%)" stroke-width="1.0" />
<line x1="283.43188365510366" y1="59.636522866244206" x2="276.0515533503129" y2="58.3022211438406" stroke="rgb(35%, 35%, 35%)" stroke-width="1.0" />
<line x1="266.4364209444023" y1="59.13255258792327" x2="257.0466283351847" y2="62.57229018778219" stroke="rgb(35%, 35%, 35%)" stroke-width="1.0" />
<line x1="247.65683572596714" y1="66.01202778764116" x2="238.26704311674965" y2="69.45176538750007" stroke="rgb(35%, 35%, 35%)" stroke-width="1.0" />
<line x1="228.87725050753207" y1="72.89150298735905" x2="219.48745789831455" y2="76.33124058721796" stroke="rgb(35%, 35%, 35%)" stroke-width="1.0" />
<line x1="210.09766528909697" y1="79.77097818707693" x2="200.70787267987944" y2="83.21071578693585" stroke="rgb(35%, 35%, 35%)" stroke-width="1.0" />
<line x1="192.81897305270908" y1="88.77744600566712" x2="188.0279680688667" y2="94.54773813386981" stroke="rgb(35%, 35%, 35%)" stroke-width="1.0" />
<line x1="179.91083152024655" y1="99.2679604394063" x2="172.5261316811587" y2="100.57800176950838" stroke="rgb(35%, 35%, 35%)" stroke-width="1.0" />
<line x1="163.2806761895297" y1="98.93789289661714" x2="156.79719279117404" y2="95.16768825717816" stroke="rgb(35%, 35%, 35%)" stroke-width="1.0" />
<line x1="147.47487052560362" y1="92.65421849755222" x2="137.47487052560362" y2="92.65421849755222" stroke="rgb(35%, 35%, 35%)" stroke-width="1.0" />
<line x1="127.47487052560362" y1="92.65421849755222" x2="117.47487052560362" y2="92.65421849755222" stroke="rgb(35%, 35%, 35%)" stroke-width="1.0" />
<line x1="107.47487052560362" y1="92.65421849755222" x2="97.47487052560362" y2="92.65421849755222" stroke="rgb(35%, 35%, 35%)" stroke-width="1.0" />
<line x1="87.47487052560362" y1="92.65421849755222" x2="77.47487052560362" y2="92.65421849755222" stroke="rgb(35%, 35%, 35%)" stroke-width="1.0" />
<line x1="68.93933661967088" y1="96.18975240348493" x2="63.13596692322918" y2="101.99312209992667" stroke="rgb(35%, 35%, 35%)" stroke-width="1.0" />
<line x1="59.60043301729644" y1="110.52865600585938" x2="59.60043301729644" y2="120.52865600585938" stroke="rgb(35%, 35%, 35%)" stroke-width="1.0" />
<line x1="59.60043301729644" y1="130.52865600585938" x2="59.60043301729644" y2="140.52865600585938" stroke="rgb(35%, 35%, 35%)" stroke-width="1.0" />
<line x1="59.60043301729644" y1="150.52865600585938" x2="59.60043301729644" y2="160.52865600585938" stroke="rgb(35%, 35%, 35%)" stroke-width="1.0" />
<line x1="59.60043301729644" y1="170.52865600585938" x2="59.60043301729644" y2="180.52865600585938" stroke="rgb(35%, 35%, 35%)" stroke-width="1.0" />
<line x1="59.60043301729644" y1="190.52865600585938" x2="59.60043301729644" y2="200.52865600585938" stroke="rgb(35%, 35%, 35%)" stroke-width="1.0" />
<line x1="59.60043301729644" y1="210.52865600585938" x2="59.60043301729644" y2="220.52865600585938" stroke="rgb(35%, 35%, 35%)" stroke-width="1.0" />
<line x1="59.60043301729644" y1="230.52865600585938" x2="59.60043301729644" y2="240.52865600585938" stroke="rgb(35%, 35%, 35%)" stroke-width="1.0" />
<line x1="59.60043301729644" y1="250.52865600585938" x2="59.60043301729644" y2="260.5286560058594" stroke="rgb(35%, 35%, 35%)" stroke-width="1.0" />
<line x1="59.60043301729644" y1="270.5286560058594" x2="59.60043301729644" y2="280.5286560058594" stroke="rgb(35%, 35%, 35%)" stroke-width="1.0" />
<line x1="59.60043301729644" y1="290.5286560058594" x2="59.60043301729644" y2="300.5286560058594" stroke="rgb(35%, 35%, 35%)" stroke-width="1.0" />
<line x1="59.60043301729644" y1="310.5286560058594" x2="59.60043301729644" y2="320.5286560058594" stroke="rgb(35%, 35%, 35%)" stroke-width="1.0" />
<line x1="59.60043301729644" y1="330.5286560058594" x2="59.60043301729644" y2="340.5286560058594" stroke="rgb(35%, 35%, 35%)" stroke-width="1.0" />
<line x1="32.10043301729644" y1="344.2786560058594" x2="54.60043301729644" y2="344.2786560058594" stroke="rgb(0%, 0%, 100%)" stroke-width="1.0" />
<line x1="32.10043301729644" y1="346.7786560058594" x2="54.60043301729644" y2="346.7786560058594" stroke="rgb(0%, 0%, 100%)" stroke-width="1.0" />
<line x1="32.10043301729644" y1="324.2786560058594" x2="54.60043301729644" y2="324.2786560058594" stroke="rgb(0%, 0%, 100%)" stroke-width="1.0" />
<line x1="32.10043301729644" y1="326.7786560058594" x2="54.60043301729644" y2="326.7786560058594" stroke="rgb(0%, 0%, 100%)" stroke-width="1.0" />
<line x1="32.10043301729644" y1="305.5286560058594" x2="54.60043301729644" y2="305.5286560058594" stroke="rgb(0%, 0%, 100%)" stroke-width="1.0" />
<line x1="32.10043301729644" y1="285.5286560058594" x2="54.60043301729644" y2="285.5286560058594" stroke="rgb(0%, 0%, 100%)" stroke-width="1.0" />
<circle cx="43.35043301729644" cy="285.5286560058594" r="2.75" stroke="none" stroke-width="1.0" fill="rgb(100%, 100%, 100%)"/>
<circle cx="43.35043301729644" cy="285.5286560058594" r="2.75" stroke="rgb(0%, 0%, 100%)" stroke-width="1.0" fill="none"/>
<line x1="32.10043301729644" y1="264.2786560058594" x2="54.60043301729644" y2="264.2786560058594" stroke="rgb(0%, 0%, 100%)" stroke-width="1.0" />
<line x1="32.10043301729644" y1="266.7786560058594" x2="54.60043301729644" y2="266.7786560058594" stroke="rgb(0%, 0%, 100%)" stroke-width="1.0" />
<line x1="32.10043301729644" y1="245.52865600585938" x2="54.60043301729644" y2="245.52865600585938" stroke="rgb(0%, 0%, 100%)" stroke-width="1.0" />
<line x1="32.10043301729644" y1="225.52865600585938" x2="54.60043301729644" y2="225.52865600585938" stroke="rgb(0%, 0%, 100%)" stroke-width="1.0" />
<line x1="32.10043301729644" y1="204.27865600585938" x2="54.60043301729644" y2="204.27865600585938" stroke="rgb(0%, 0%, 100%)" stroke-width="1.0" />
<line x1="32.10043301729644" y1="206.77865600585938" x2="54.60043301729644" y2="206.77865600585938" stroke="rgb(0%, 0%, 100%)" stroke-width="1.0" />
<line x1="32.10043301729644" y1="185.52865600585938" x2="54.60043301729644" y2="185.52865600585938" stroke="rgb(0%, 0%, 100%)" stroke-width="1.0" />
<circle cx="43.35043301729644" cy="185.52865600585938" r="2.75" stroke="none" stroke-width="1.0" fill="rgb(100%, 100%, 100%)"/>
<circle cx="43.35043301729644" cy="185.52865600585938" r="2.75" stroke="rgb(0%, 0%, 100%)" stroke-width="1.0" fill="none"/>
<line x1="32.10043301729644" y1="164.27865600585938" x2="54.60043301729644" y2="164.27865600585938" stroke="rgb(0%, 0%, 100%)" stroke-width="1.0" />
<line x1="32.10043301729644" y1="166.77865600585938" x2="54.60043301729644" y2="166.77865600585938" stroke="rgb(0%, 0%, 100%)" stroke-width="1.0" />
<line x1="32.10043301729644" y1="144.27865600585938" x2="54.60043301729644" y2="144.27865600585938" stroke="rgb(0%, 0%, 100%)" stroke-width="1.0" />
<line x1="32.10043301729644" y1="146.77865600585938" x2="54.60043301729644" y2="146.77865600585938" stroke="rgb(0%, 0%, 100%)" stroke-width="1.0" />
<line x1="32.10043301729644" y1="125.52865600585938" x2="54.60043301729644" y2="125.52865600585938" stroke="rgb(0%, 0%, 100%)" stroke-width="1.0" />
<circle cx="43.35043301729644" cy="125.52865600585938" r="2.75" stroke="none" stroke-width="1.0" fill="rgb(100%, 100%, 100%)"/>
<circle cx="43.35043301729644" cy="125.52865600585938" r="2.75" stroke="rgb(0%, 0%, 100%)" stroke-width="1.0" fill="none"/>
<line x1="32.10043301729644" y1="105.52865600585938" x2="54.60043301729644" y2="105.52865600585938" stroke="rgb(0%, 0%, 100%)" stroke-width="1.0" />
<line x1="72.47487052560362" y1="65.15421849755222" x2="72.47487052560362" y2="87.65421849755222" stroke="rgb(0%, 0%, 100%)" stroke-width="1.0" />
<line x1="92.47487052560362" y1="65.15421849755222" x2="92.47487052560362" y2="87.65421849755222" stroke="rgb(0%, 0%, 100%)" stroke-width="1.0" />
<line x1="113.72487052560362" y1="65.15421849755222" x2="113.72487052560362" y2="87.65421849755222" stroke="rgb(0%, 0%, 100%)" stroke-width="1.0" />
<line x1="111.22487052560362" y1="65.15421849755222" x2="111.22487052560362" y2="87.65421849755222" stroke="rgb(0%, 0%, 100%)" stroke-width="1.0" />
<line x1="133.72487052560362" y1="65.15421849755222" x2="133.72487052560362" y2="87.65421849755222" stroke="rgb(0%, 0%, 100%)" stroke-width="1.0" />
<line x1="131.22487052560362" y1="65.15421849755222" x2="131.22487052560362" y2="87.65421849755222" stroke="rgb(0%, 0%, 100%)" stroke-width="1.0" />
<line x1="153.72487052560362" y1="65.15421849755222" x2="153.72487052560362" y2="87.65421849755222" stroke="rgb(0%, 0%, 100%)" stroke-width="1.0" />
<line x1="151.22487052560362" y1="65.15421849755222" x2="151.22487052560362" y2="87.65421849755222" stroke="rgb(0%, 0%, 100%)" stroke-width="1.0" />
<line x1="187.72742205181072" y1="58.678687711534735" x2="195.46683165149335" y2="79.8057210822742" stroke="rgb(0%, 0%, 100%)" stroke-width="1.0" />
<line x1="185.37997389950635" y1="59.53862211149942" x2="193.11938349918898" y2="80.66565548223889" stroke="rgb(0%, 0%, 100%)" stroke-width="1.0" />
<line x1="206.50700727024582" y1="51.79921251181685" x2="214.24641686992845" y2="72.92624588255632" stroke="rgb(0%, 0%, 100%)" stroke-width="1.0" />
<line x1="204.15955911794146" y1="52.659146911781534" x2="211.8989687176241" y2="73.786180282521" stroke="rgb(0%, 0%, 100%)" stroke-width="1.0" />
<line x1="224.11286841252874" y1="45.3497045120813" x2="231.85227801221137" y2="66.47673788282077" stroke="rgb(0%, 0%, 100%)" stroke-width="1.0" />
<line x1="242.89245363096381" y1="38.470229312363415" x2="250.63186323064645" y2="59.59726268310288" stroke="rgb(0%, 0%, 100%)" stroke-width="1.0" />
<line x1="262.8457629255512" y1="31.160786912663184" x2="270.5851725252338" y2="52.28782028340265" stroke="rgb(0%, 0%, 100%)" stroke-width="1.0" />
<line x1="260.49831477324676" y1="32.02072131262787" x2="268.2377243729294" y2="53.14775468336734" stroke="rgb(0%, 0%, 100%)" stroke-width="1.0" />
<circle cx="27.10043301729644" cy="345.5286560058594" r="5.0" stroke="none" stroke-width="1.0" fill="rgb(94%, 94%, 94%)"/>
<circle cx="27.10043301729644" cy="345.5286560058594" r="5.0" stroke="rgb(35%, 35%, 35%)" stroke-width="1.0" fill="none"/>
<text x="27.10043301729644" y="348.5286560058594" text-anchor="middle" font-family="Verdana" font-size="7.5" fill="rgb(0%, 0%, 0%)" >G</text>
<circle cx="27.10043301729644" cy="325.5286560058594" r="5.0" stroke="none" stroke-width="1.0" fill="rgb(94%, 94%, 94%)"/>
<circle cx="27.10043301729644" cy="325.5286560058594" r="5.0" stroke="rgb(35%, 35%, 35%)" stroke-width="1.0" fill="none"/>
<text x="27.10043301729644" y="328.5286560058594" text-anchor="middle" font-family="Verdana" font-size="7.5" fill="rgb(0%, 0%, 0%)" >G</text>
<circle cx="27.10043301729644" cy="305.5286560058594" r="5.0" stroke="none" stroke-width="1.0" fill="rgb(94%, 94%, 94%)"/>
<circle cx="27.10043301729644" cy="305.5286560058594" r="5.0" stroke="rgb(35%, 35%, 35%)" stroke-width="1.0" fill="none"/>
<text x="27.10043301729644" y="308.5286560058594" text-anchor="middle" font-family="Verdana" font-size="7.5" fill="rgb(0%, 0%, 0%)" >U</text>
<circle cx="27.10043301729644" cy="285.5286560058594" r="5.0" stroke="none" stroke-width="1.0" fill="rgb(94%, 94%, 94%)"/>
<circle cx="27.10043301729644" cy="285.5286560058594" r="5.0" stroke="rgb(35%, 35%, 35%)" stroke-width="1.0" fill="none"/>
<text x="27.10043301729644" y="288.5286560058594" text-anchor="middle" font-family="Verdana" font-size="7.5" fill="rgb(0%, 0%, 0%)" >U</text>
<circle cx="27.10043301729644" cy="265.5286560058594" r="5.0" stroke="none" stroke-width="1.0" fill="rgb(94%, 94%, 94%)"/>
<circle cx="27.10043301729644" cy="265.5286560058594" r="5.0" stroke="rgb(35%, 35%, 35%)" stroke-width="1.0" fill="none"/>
<text x="27.10043301729644" y="268.5286560058594" text-anchor="middle" font-family="Verdana" font-size="7.5" fill="rgb(0%, 0%, 0%)" >C</text>
<circle cx="27.10043301729644" cy="245.52865600585938" r="5.0" stroke="none" stroke-width="1.0" fill="rgb(94%, 94%, 94%)"/>
<circle cx="27.10043301729644" cy="245.52865600585938" r="5.0" stroke="rgb(35%, 35%, 35%)" stroke-width="1.0" fill="none"/>
<text x="27.10043301729644" y="248.52865600585938" text-anchor="middle" font-family="Verdana" font-size="7.5" fill="rgb(0%, 0%, 0%)" >A</text>
<circle cx="27.10043301729644" cy="225.52865600585938" r="5.0" stroke="none" stroke-width="1.0" fill="rgb(94%, 94%, 94%)"/>
<circle cx="27.10043301729644" cy="225.52865600585938" r="5.0" stroke="rgb(35%, 35%, 35%)" stroke-width="1.0" fill="none"/>
<text x="27.10043301729644" y="228.52865600585938" text-anchor="middle" font-family="Verdana" font-size="7.5" fill="rgb(0%, 0%, 0%)" >U</text>
<circle cx="27.10043301729644" cy="205.52865600585938" r="5.0" stroke="none" stroke-width="1.0" fill="rgb(94%, 94%, 94%)"/>
<circle cx="27.10043301729644" cy="205.52865600585938" r="5.0" stroke="rgb(35%, 35%, 35%)" stroke-width="1.0" fill="none"/>
<text x="27.10043301729644" y="208.52865600585938" text-anchor="middle" font-family="Verdana" font-size="7.5" fill="rgb(0%, 0%, 0%)" >G</text>
<circle cx="27.10043301729644" cy="185.52865600585938" r="5.0" stroke="none" stroke-width="1.0" fill="rgb(94%, 94%, 94%)"/>
<circle cx="27.10043301729644" cy="185.52865600585938" r="5.0" stroke="rgb(35%, 35%, 35%)" stroke-width="1.0" fill="none"/>
<text x="27.10043301729644" y="188.52865600585938" text-anchor="middle" font-family="Verdana" font-size="7.5" fill="rgb(0%, 0%, 0%)" >U</text>
<circle cx="27.10043301729644" cy="165.52865600585938" r="5.0" stroke="none" stroke-width="1.0" fill="rgb(94%, 94%, 94%)"/>
<circle cx="27.10043301729644" cy="165.52865600585938" r="5.0" stroke="rgb(35%, 35%, 35%)" stroke-width="1.0" fill="none"/>
<text x="27.10043301729644" y="168.52865600585938" text-anchor="middle" font-family="Verdana" font-size="7.5" fill="rgb(0%, 0%, 0%)" >C</text>
<circle cx="27.10043301729644" cy="145.52865600585938" r="5.0" stroke="none" stroke-width="1.0" fill="rgb(94%, 94%, 94%)"/>
<circle cx="27.10043301729644" cy="145.52865600585938" r="5.0" stroke="rgb(35%, 35%, 35%)" stroke-width="1.0" fill="none"/>
<text x="27.10043301729644" y="148.52865600585938" text-anchor="middle" font-family="Verdana" font-size="7.5" fill="rgb(0%, 0%, 0%)" >C</text>
<circle cx="27.10043301729644" cy="125.52865600585938" r="5.0" stroke="none" stroke-width="1.0" fill="rgb(94%, 94%, 94%)"/>
<circle cx="27.10043301729644" cy="125.52865600585938" r="5.0" stroke="rgb(35%, 35%, 35%)" stroke-width="1.0" fill="none"/>
<text x="27.10043301729644" y="128.52865600585938" text-anchor="middle" font-family="Verdana" font-size="7.5" fill="rgb(0%, 0%, 0%)" >U</text>
<circle cx="27.10043301729644" cy="105.52865600585938" r="5.0" stroke="none" stroke-width="1.0" fill="rgb(94%, 94%, 94%)"/>
<circle cx="27.10043301729644" cy="105.52865600585938" r="5.0" stroke="rgb(35%, 35%, 35%)" stroke-width="1.0" fill="none"/>
<text x="27.10043301729644" y="108.52865600585938" text-anchor="middle" font-family="Verdana" font-size="7.5" fill="rgb(0%, 0%, 0%)" >A</text>
<circle cx="14.643881072595718" cy="93.38153382187511" r="5.0" stroke="none" stroke-width="1.0" fill="rgb(94%, 94%, 94%)"/>
<circle cx="14.643881072595718" cy="93.38153382187511" r="5.0" stroke="rgb(35%, 35%, 35%)" stroke-width="1.0" fill="none"/>
<text x="14.643881072595718" y="96.38153382187511" text-anchor="middle" font-family="Verdana" font-size="7.5" fill="rgb(0%, 0%, 0%)" >C</text>
<circle cx="10.0" cy="76.6139271862441" r="5.0" stroke="none" stroke-width="1.0" fill="rgb(94%, 94%, 94%)"/>
<circle cx="10.0" cy="76.6139271862441" r="5.0" stroke="rgb(35%, 35%, 35%)" stroke-width="1.0" fill="none"/>
<text x="10.0" y="79.6139271862441" text-anchor="middle" font-family="Verdana" font-size="7.5" fill="rgb(0%, 0%, 0%)" >U</text>
<circle cx="14.43265159869992" cy="59.789246995874464" r="5.0" stroke="none" stroke-width="1.0" fill="rgb(94%, 94%, 94%)"/>
<circle cx="14.43265159869992" cy="59.789246995874464" r="5.0" stroke="rgb(35%, 35%, 35%)" stroke-width="1.0" fill="none"/>
<text x="14.43265159869992" y="62.789246995874464" text-anchor="middle" font-family="Verdana" font-size="7.5" fill="rgb(0%, 0%, 0%)" >G</text>
<circle cx="26.73546151561868" cy="47.4864370789557" r="5.0" stroke="none" stroke-width="1.0" fill="rgb(94%, 94%, 94%)"/>
<circle cx="26.73546151561868" cy="47.4864370789557" r="5.0" stroke="rgb(35%, 35%, 35%)" stroke-width="1.0" fill="none"/>
<text x="26.73546151561868" y="50.4864370789557" text-anchor="middle" font-family="Verdana" font-size="7.5" fill="rgb(0%, 0%, 0%)" >U</text>
<circle cx="43.56014170598826" cy="43.05378548025578" r="5.0" stroke="none" stroke-width="1.0" fill="rgb(94%, 94%, 94%)"/>
<circle cx="43.56014170598826" cy="43.05378548025578" r="5.0" stroke="rgb(35%, 35%, 35%)" stroke-width="1.0" fill="none"/>
<text x="43.56014170598826" y="46.05378548025578" text-anchor="middle" font-family="Verdana" font-size="7.5" fill="rgb(0%, 0%, 0%)" >U</text>
<circle cx="60.327748341619326" cy="47.6976665528515" r="5.0" stroke="none" stroke-width="1.0" fill="rgb(94%, 94%, 94%)"/>
<circle cx="60.327748341619326" cy="47.6976665528515" r="5.0" stroke="rgb(35%, 35%, 35%)" stroke-width="1.0" fill="none"/>
<text x="60.327748341619326" y="50.6976665528515" text-anchor="middle" font-family="Verdana" font-size="7.5" fill="rgb(0%, 0%, 0%)" >C</text>
<circle cx="72.47487052560362" cy="60.15421849755222" r="5.0" stroke="none" stroke-width="1.0" fill="rgb(94%, 94%, 94%)"/>
<circle cx="72.47487052560362" cy="60.15421849755222" r="5.0" stroke="rgb(35%, 35%, 35%)" stroke-width="1.0" fill="none"/>
<text x="72.47487052560362" y="63.15421849755222" text-anchor="middle" font-family="Verdana" font-size="7.5" fill="rgb(0%, 0%, 0%)" >A</text>
<circle cx="92.47487052560362" cy="60.15421849755222" r="5.0" stroke="none" stroke-width="1.0" fill="rgb(94%, 94%, 94%)"/>
<circle cx="92.47487052560362" cy="60.15421849755222" r="5.0" stroke="rgb(35%, 35%, 35%)" stroke-width="1.0" fill="none"/>
<text x="92.47487052560362" y="63.15421849755222" text-anchor="middle" font-family="Verdana" font-size="7.5" fill="rgb(0%, 0%, 0%)" >A</text>
<circle cx="112.47487052560362" cy="60.15421849755222" r="5.0" stroke="none" stroke-width="1.0" fill="rgb(94%, 94%, 94%)"/>
<circle cx="112.47487052560362" cy="60.15421849755222" r="5.0" stroke="rgb(35%, 35%, 35%)" stroke-width="1.0" fill="none"/>
<text x="112.47487052560362" y="63.15421849755222" text-anchor="middle" font-family="Verdana" font-size="7.5" fill="rgb(0%, 0%, 0%)" >G</text>
<circle cx="132.47487052560362" cy="60.15421849755222" r="5.0" stroke="none" stroke-width="1.0" fill="rgb(94%, 94%, 94%)"/>
<circle cx="132.47487052560362" cy="60.15421849755222" r="5.0" stroke="rgb(35%, 35%, 35%)" stroke-width="1.0" fill="none"/>
<text x="132.47487052560362" y="63.15421849755222" text-anchor="middle" font-family="Verdana" font-size="7.5" fill="rgb(0%, 0%, 0%)" >C</text>
<circle cx="152.47487052560362" cy="60.15421849755222" r="5.0" stroke="none" stroke-width="1.0" fill="rgb(94%, 94%, 94%)"/>
<circle cx="152.47487052560362" cy="60.15421849755222" r="5.0" stroke="rgb(35%, 35%, 35%)" stroke-width="1.0" fill="none"/>
<text x="152.47487052560362" y="63.15421849755222" text-anchor="middle" font-family="Verdana" font-size="7.5" fill="rgb(0%, 0%, 0%)" >C</text>
<circle cx="167.60292124750785" cy="51.35708803531924" r="5.0" stroke="none" stroke-width="1.0" fill="rgb(94%, 94%, 94%)"/>
<circle cx="167.60292124750785" cy="51.35708803531924" r="5.0" stroke="rgb(35%, 35%, 35%)" stroke-width="1.0" fill="none"/>
<text x="167.60292124750785" y="54.35708803531924" text-anchor="middle" font-family="Verdana" font-size="7.5" fill="rgb(0%, 0%, 0%)" >U</text>
<circle cx="184.83382917572905" cy="54.41375860690829" r="5.0" stroke="none" stroke-width="1.0" fill="rgb(94%, 94%, 94%)"/>
<circle cx="184.83382917572905" cy="54.41375860690829" r="5.0" stroke="rgb(35%, 35%, 35%)" stroke-width="1.0" fill="none"/>
<text x="184.83382917572905" y="57.41375860690829" text-anchor="middle" font-family="Verdana" font-size="7.5" fill="rgb(0%, 0%, 0%)" >C</text>
<circle cx="203.61341439416415" cy="47.5342834071904" r="5.0" stroke="none" stroke-width="1.0" fill="rgb(94%, 94%, 94%)"/>
<circle cx="203.61341439416415" cy="47.5342834071904" r="5.0" stroke="rgb(35%, 35%, 35%)" stroke-width="1.0" fill="none"/>
<text x="203.61341439416415" y="50.5342834071904" text-anchor="middle" font-family="Verdana" font-size="7.5" fill="rgb(0%, 0%, 0%)" >C</text>
<circle cx="222.39299961259925" cy="40.65480820747251" r="5.0" stroke="none" stroke-width="1.0" fill="rgb(94%, 94%, 94%)"/>
<circle cx="222.39299961259925" cy="40.65480820747251" r="5.0" stroke="rgb(35%, 35%, 35%)" stroke-width="1.0" fill="none"/>
<text x="222.39299961259925" y="43.65480820747251" text-anchor="middle" font-family="Verdana" font-size="7.5" fill="rgb(0%, 0%, 0%)" >A</text>
<circle cx="241.17258483103433" cy="33.775333007754625" r="5.0" stroke="none" stroke-width="1.0" fill="rgb(94%, 94%, 94%)"/>
<circle cx="241.17258483103433" cy="33.775333007754625" r="5.0" stroke="rgb(35%, 35%, 35%)" stroke-width="1.0" fill="none"/>
<text x="241.17258483103433" y="36.775333007754625" text-anchor="middle" font-family="Verdana" font-size="7.5" fill="rgb(0%, 0%, 0%)" >A</text>
<circle cx="259.9521700494695" cy="26.895857808036737" r="5.0" stroke="none" stroke-width="1.0" fill="rgb(94%, 94%, 94%)"/>
<circle cx="259.9521700494695" cy="26.895857808036737" r="5.0" stroke="rgb(35%, 35%, 35%)" stroke-width="1.0" fill="none"/>
<text x="259.9521700494695" y="29.895857808036737" text-anchor="middle" font-family="Verdana" font-size="7.5" fill="rgb(0%, 0%, 0%)" >G</text>
<circle cx="271.08676957947625" cy="13.395122823398083" r="5.0" stroke="none" stroke-width="1.0" fill="rgb(94%, 94%, 94%)"/>
<circle cx="271.08676957947625" cy="13.395122823398083" r="5.0" stroke="rgb(35%, 35%, 35%)" stroke-width="1.0" fill="none"/>
<text x="271.08676957947625" y="16.395122823398083" text-anchor="middle" font-family="Verdana" font-size="7.5" fill="rgb(0%, 0%, 0%)" >C</text>
<circle cx="288.3012350748203" cy="10.24689641338864" r="5.0" stroke="none" stroke-width="1.0" fill="rgb(94%, 94%, 94%)"/>
<circle cx="288.3012350748203" cy="10.24689641338864" r="5.0" stroke="rgb(35%, 35%, 35%)" stroke-width="1.0" fill="none"/>
<text x="288.3012350748203" y="13.24689641338864" text-anchor="middle" font-family="Verdana" font-size="7.5" fill="rgb(0%, 0%, 0%)" >U</text>
<circle cx="303.493407433718" cy="18.93292259551697" r="5.0" stroke="none" stroke-width="1.0" fill="rgb(94%, 94%, 94%)"/>
<circle cx="303.493407433718" cy="18.93292259551697" r="5.0" stroke="rgb(35%, 35%, 35%)" stroke-width="1.0" fill="none"/>
<text x="303.493407433718" y="21.93292259551697" text-anchor="middle" font-family="Verdana" font-size="7.5" fill="rgb(0%, 0%, 0%)" >G</text>
<circle cx="309.5129398976944" cy="35.36503690665188" r="5.0" stroke="none" stroke-width="1.0" fill="rgb(94%, 94%, 94%)"/>
<circle cx="309.5129398976944" cy="35.36503690665188" r="5.0" stroke="rgb(35%, 35%, 35%)" stroke-width="1.0" fill="none"/>
<text x="309.5129398976944" y="38.36503690665188" text-anchor="middle" font-family="Verdana" font-size="7.5" fill="rgb(0%, 0%, 0%)" >U</text>
<circle cx="303.5266797467492" cy="51.80930159754877" r="5.0" stroke="none" stroke-width="1.0" fill="rgb(94%, 94%, 94%)"/>
<circle cx="303.5266797467492" cy="51.80930159754877" r="5.0" stroke="rgb(35%, 35%, 35%)" stroke-width="1.0" fill="none"/>
<text x="303.5266797467492" y="54.80930159754877" text-anchor="middle" font-family="Verdana" font-size="7.5" fill="rgb(0%, 0%, 0%)" >G</text>
<circle cx="288.35211975640544" cy="60.52606022209102" r="5.0" stroke="none" stroke-width="1.0" fill="rgb(94%, 94%, 94%)"/>
<circle cx="288.35211975640544" cy="60.52606022209102" r="5.0" stroke="rgb(35%, 35%, 35%)" stroke-width="1.0" fill="none"/>
<text x="288.35211975640544" y="63.52606022209102" text-anchor="middle" font-family="Verdana" font-size="7.5" fill="rgb(0%, 0%, 0%)" >C</text>
<circle cx="271.1313172490111" cy="57.412683787993785" r="5.0" stroke="none" stroke-width="1.0" fill="rgb(94%, 94%, 94%)"/>
<circle cx="271.1313172490111" cy="57.412683787993785" r="5.0" stroke="rgb(35%, 35%, 35%)" stroke-width="1.0" fill="none"/>
<text x="271.1313172490111" y="60.412683787993785" text-anchor="middle" font-family="Verdana" font-size="7.5" fill="rgb(0%, 0%, 0%)" >C</text>
<circle cx="252.35173203057593" cy="64.29215898771167" r="5.0" stroke="none" stroke-width="1.0" fill="rgb(94%, 94%, 94%)"/>
<circle cx="252.35173203057593" cy="64.29215898771167" r="5.0" stroke="rgb(35%, 35%, 35%)" stroke-width="1.0" fill="none"/>
<text x="252.35173203057593" y="67.29215898771167" text-anchor="middle" font-family="Verdana" font-size="7.5" fill="rgb(0%, 0%, 0%)" >U</text>
<circle cx="233.57214681214086" cy="71.17163418742956" r="5.0" stroke="none" stroke-width="1.0" fill="rgb(94%, 94%, 94%)"/>
<circle cx="233.57214681214086" cy="71.17163418742956" r="5.0" stroke="rgb(35%, 35%, 35%)" stroke-width="1.0" fill="none"/>
<text x="233.57214681214086" y="74.17163418742956" text-anchor="middle" font-family="Verdana" font-size="7.5" fill="rgb(0%, 0%, 0%)" >U</text>
<circle cx="214.79256159370576" cy="78.05110938714745" r="5.0" stroke="none" stroke-width="1.0" fill="rgb(94%, 94%, 94%)"/>
<circle cx="214.79256159370576" cy="78.05110938714745" r="5.0" stroke="rgb(35%, 35%, 35%)" stroke-width="1.0" fill="none"/>
<text x="214.79256159370576" y="81.05110938714745" text-anchor="middle" font-family="Verdana" font-size="7.5" fill="rgb(0%, 0%, 0%)" >G</text>
<circle cx="196.01297637527065" cy="84.93058458686534" r="5.0" stroke="none" stroke-width="1.0" fill="rgb(94%, 94%, 94%)"/>
<circle cx="196.01297637527065" cy="84.93058458686534" r="5.0" stroke="rgb(35%, 35%, 35%)" stroke-width="1.0" fill="none"/>
<text x="196.01297637527065" y="87.93058458686534" text-anchor="middle" font-family="Verdana" font-size="7.5" fill="rgb(0%, 0%, 0%)" >G</text>
<circle cx="184.83396474630513" cy="98.3945995526716" r="5.0" stroke="none" stroke-width="1.0" fill="rgb(94%, 94%, 94%)"/>
<circle cx="184.83396474630513" cy="98.3945995526716" r="5.0" stroke="rgb(35%, 35%, 35%)" stroke-width="1.0" fill="none"/>
<text x="184.83396474630513" y="101.3945995526716" text-anchor="middle" font-family="Verdana" font-size="7.5" fill="rgb(0%, 0%, 0%)" >G</text>
<circle cx="167.6029984551001" cy="101.45136265624308" r="5.0" stroke="none" stroke-width="1.0" fill="rgb(94%, 94%, 94%)"/>
<circle cx="167.6029984551001" cy="101.45136265624308" r="5.0" stroke="rgb(35%, 35%, 35%)" stroke-width="1.0" fill="none"/>
<text x="167.6029984551001" y="104.45136265624308" text-anchor="middle" font-family="Verdana" font-size="7.5" fill="rgb(0%, 0%, 0%)" >U</text>
<circle cx="152.47487052560362" cy="92.65421849755222" r="5.0" stroke="none" stroke-width="1.0" fill="rgb(94%, 94%, 94%)"/>
<circle cx="152.47487052560362" cy="92.65421849755222" r="5.0" stroke="rgb(35%, 35%, 35%)" stroke-width="1.0" fill="none"/>
<text x="152.47487052560362" y="95.65421849755222" text-anchor="middle" font-family="Verdana" font-size="7.5" fill="rgb(0%, 0%, 0%)" >G</text>
<circle cx="132.47487052560362" cy="92.65421849755222" r="5.0" stroke="none" stroke-width="1.0" fill="rgb(94%, 94%, 94%)"/>
<circle cx="132.47487052560362" cy="92.65421849755222" r="5.0" stroke="rgb(35%, 35%, 35%)" stroke-width="1.0" fill="none"/>
<text x="132.47487052560362" y="95.65421849755222" text-anchor="middle" font-family="Verdana" font-size="7.5" fill="rgb(0%, 0%, 0%)" >G</text>
<circle cx="112.47487052560362" cy="92.65421849755222" r="5.0" stroke="none" stroke-width="1.0" fill="rgb(94%, 94%, 94%)"/>
<circle cx="112.47487052560362" cy="92.65421849755222" r="5.0" stroke="rgb(35%, 35%, 35%)" stroke-width="1.0" fill="none"/>
<text x="112.47487052560362" y="95.65421849755222" text-anchor="middle" font-family="Verdana" font-size="7.5" fill="rgb(0%, 0%, 0%)" >C</text>
<circle cx="92.47487052560362" cy="92.65421849755222" r="5.0" stroke="none" stroke-width="1.0" fill="rgb(94%, 94%, 94%)"/>
<circle cx="92.47487052560362" cy="92.65421849755222" r="5.0" stroke="rgb(35%, 35%, 35%)" stroke-width="1.0" fill="none"/>
<text x="92.47487052560362" y="95.65421849755222" text-anchor="middle" font-family="Verdana" font-size="7.5" fill="rgb(0%, 0%, 0%)" >U</text>
<circle cx="72.47487052560362" cy="92.65421849755222" r="5.0" stroke="none" stroke-width="1.0" fill="rgb(94%, 94%, 94%)"/>
<circle cx="72.47487052560362" cy="92.65421849755222" r="5.0" stroke="rgb(35%, 35%, 35%)" stroke-width="1.0" fill="none"/>
<text x="72.47487052560362" y="95.65421849755222" text-anchor="middle" font-family="Verdana" font-size="7.5" fill="rgb(0%, 0%, 0%)" >U</text>
<circle cx="59.60043301729644" cy="105.52865600585938" r="5.0" stroke="none" stroke-width="1.0" fill="rgb(94%, 94%, 94%)"/>
<circle cx="59.60043301729644" cy="105.52865600585938" r="5.0" stroke="rgb(35%, 35%, 35%)" stroke-width="1.0" fill="none"/>
<text x="59.60043301729644" y="108.52865600585938" text-anchor="middle" font-family="Verdana" font-size="7.5" fill="rgb(0%, 0%, 0%)" >U</text>
<circle cx="59.60043301729644" cy="125.52865600585938" r="5.0" stroke="none" stroke-width="1.0" fill="rgb(94%, 94%, 94%)"/>
<circle cx="59.60043301729644" cy="125.52865600585938" r="5.0" stroke="rgb(35%, 35%, 35%)" stroke-width="1.0" fill="none"/>
<text x="59.60043301729644" y="128.52865600585938" text-anchor="middle" font-family="Verdana" font-size="7.5" fill="rgb(0%, 0%, 0%)" >G</text>
<circle cx="59.60043301729644" cy="145.52865600585938" r="5.0" stroke="none" stroke-width="1.0" fill="rgb(94%, 94%, 94%)"/>
<circle cx="59.60043301729644" cy="145.52865600585938" r="5.0" stroke="rgb(35%, 35%, 35%)" stroke-width="1.0" fill="none"/>
<text x="59.60043301729644" y="148.52865600585938" text-anchor="middle" font-family="Verdana" font-size="7.5" fill="rgb(0%, 0%, 0%)" >G</text>
<circle cx="59.60043301729644" cy="165.52865600585938" r="5.0" stroke="none" stroke-width="1.0" fill="rgb(94%, 94%, 94%)"/>
<circle cx="59.60043301729644" cy="165.52865600585938" r="5.0" stroke="rgb(35%, 35%, 35%)" stroke-width="1.0" fill="none"/>
<text x="59.60043301729644" y="168.52865600585938" text-anchor="middle" font-family="Verdana" font-size="7.5" fill="rgb(0%, 0%, 0%)" >G</text>
<circle cx="59.60043301729644" cy="185.52865600585938" r="5.0" stroke="none" stroke-width="1.0" fill="rgb(94%, 94%, 94%)"/>
<circle cx="59.60043301729644" cy="185.52865600585938" r="5.0" stroke="rgb(35%, 35%, 35%)" stroke-width="1.0" fill="none"/>
<text x="59.60043301729644" y="188.52865600585938" text-anchor="middle" font-family="Verdana" font-size="7.5" fill="rgb(0%, 0%, 0%)" >G</text>
<circle cx="59.60043301729644" cy="205.52865600585938" r="5.0" stroke="none" stroke-width="1.0" fill="rgb(94%, 94%, 94%)"/>
<circle cx="59.60043301729644" cy="205.52865600585938" r="5.0" stroke="rgb(35%, 35%, 35%)" stroke-width="1.0" fill="none"/>
<text x="59.60043301729644" y="208.52865600585938" text-anchor="middle" font-family="Verdana" font-size="7.5" fill="rgb(0%, 0%, 0%)" >C</text>
<circle cx="59.60043301729644" cy="225.52865600585938" r="5.0" stroke="none" stroke-width="1.0" fill="rgb(94%, 94%, 94%)"/>
<circle cx="59.60043301729644" cy="225.52865600585938" r="5.0" stroke="rgb(35%, 35%, 35%)" stroke-width="1.0" fill="none"/>
<text x="59.60043301729644" y="228.52865600585938" text-anchor="middle" font-family="Verdana" font-size="7.5" fill="rgb(0%, 0%, 0%)" >A</text>
<circle cx="59.60043301729644" cy="245.52865600585938" r="5.0" stroke="none" stroke-width="1.0" fill="rgb(94%, 94%, 94%)"/>
<circle cx="59.60043301729644" cy="245.52865600585938" r="5.0" stroke="rgb(35%, 35%, 35%)" stroke-width="1.0" fill="none"/>
<text x="59.60043301729644" y="248.52865600585938" text-anchor="middle" font-family="Verdana" font-size="7.5" fill="rgb(0%, 0%, 0%)" >U</text>
<circle cx="59.60043301729644" cy="265.5286560058594" r="5.0" stroke="none" stroke-width="1.0" fill="rgb(94%, 94%, 94%)"/>
<circle cx="59.60043301729644" cy="265.5286560058594" r="5.0" stroke="rgb(35%, 35%, 35%)" stroke-width="1.0" fill="none"/>
<text x="59.60043301729644" y="268.5286560058594" text-anchor="middle" font-family="Verdana" font-size="7.5" fill="rgb(0%, 0%, 0%)" >G</text>
<circle cx="59.60043301729644" cy="285.5286560058594" r="5.0" stroke="none" stroke-width="1.0" fill="rgb(94%, 94%, 94%)"/>
<circle cx="59.60043301729644" cy="285.5286560058594" r="5.0" stroke="rgb(35%, 35%, 35%)" stroke-width="1.0" fill="none"/>
<text x="59.60043301729644" y="288.5286560058594" text-anchor="middle" font-family="Verdana" font-size="7.5" fill="rgb(0%, 0%, 0%)" >G</text>
<circle cx="59.60043301729644" cy="305.5286560058594" r="5.0" stroke="none" stroke-width="1.0" fill="rgb(94%, 94%, 94%)"/>
<circle cx="59.60043301729644" cy="305.5286560058594" r="5.0" stroke="rgb(35%, 35%, 35%)" stroke-width="1.0" fill="none"/>
<text x="59.60043301729644" y="308.5286560058594" text-anchor="middle" font-family="Verdana" font-size="7.5" fill="rgb(0%, 0%, 0%)" >A</text>
<circle cx="59.60043301729644" cy="325.5286560058594" r="5.0" stroke="none" stroke-width="1.0" fill="rgb(94%, 94%, 94%)"/>
<circle cx="59.60043301729644" cy="325.5286560058594" r="5.0" stroke="rgb(35%, 35%, 35%)" stroke-width="1.0" fill="none"/>
<text x="59.60043301729644" y="328.5286560058594" text-anchor="middle" font-family="Verdana" font-size="7.5" fill="rgb(0%, 0%, 0%)" >C</text>
<circle cx="59.60043301729644" cy="345.5286560058594" r="5.0" stroke="none" stroke-width="1.0" fill="rgb(94%, 94%, 94%)"/>
<circle cx="59.60043301729644" cy="345.5286560058594" r="5.0" stroke="rgb(35%, 35%, 35%)" stroke-width="1.0" fill="none"/>
<text x="59.60043301729644" y="348.5286560058594" text-anchor="middle" font-family="Verdana" font-size="7.5" fill="rgb(0%, 0%, 0%)" >C</text>
<line x1="27.10043301729644" y1="353.0286560058594" x2="27.10043301729644" y2="358.0286560058594" stroke="rgb(25%, 25%, 25%)" stroke-width="1.0" />
<text x="27.10043301729644" y="368.5286560058594" text-anchor="middle" font-family="Verdana" font-size="7.5" fill="rgb(25%, 25%, 25%)" >1</text>
<line x1="19.60043301729644" y1="165.52865600585938" x2="14.600433017296439" y2="165.52865600585938" stroke="rgb(25%, 25%, 25%)" stroke-width="1.0" />
<text x="7.100433017296439" y="168.52865600585938" text-anchor="middle" font-family="Verdana" font-size="7.5" fill="rgb(25%, 25%, 25%)" >10</text>
<line x1="74.45394713677383" y1="52.92004572057772" x2="75.77333154422065" y2="48.09726386926138" stroke="rgb(25%, 25%, 25%)" stroke-width="1.0" />
<text x="77.75240815539087" y="43.86309109228688" text-anchor="middle" font-family="Verdana" font-size="7.5" fill="rgb(25%, 25%, 25%)" >20</text>
<line x1="256.7502876004078" y1="20.11367904436571" x2="254.61569930103326" y2="15.592226535251655" stroke="rgb(25%, 25%, 25%)" stroke-width="1.0" />
<text x="251.41381685197155" y="11.810047771580628" text-anchor="middle" font-family="Verdana" font-size="7.5" fill="rgb(25%, 25%, 25%)" >30</text>
<line x1="217.37236479359998" y1="85.0934538440606" x2="219.09223359352944" y2="89.7883501486694" stroke="rgb(25%, 25%, 25%)" stroke-width="1.0" />
<text x="221.67203679342367" y="99.83069460558255" text-anchor="middle" font-family="Verdana" font-size="7.5" fill="rgb(25%, 25%, 25%)" >40</text>
<line x1="67.10043301729644" y1="125.52865600585938" x2="72.10043301729644" y2="125.52865600585938" stroke="rgb(25%, 25%, 25%)" stroke-width="1.0" />
<text x="79.60043301729644" y="128.52865600585938" text-anchor="middle" font-family="Verdana" font-size="7.5" fill="rgb(25%, 25%, 25%)" >50</text>
<line x1="67.10043301729644" y1="325.5286560058594" x2="72.10043301729644" y2="325.5286560058594" stroke="rgb(25%, 25%, 25%)" stroke-width="1.0" />
<text x="79.60043301729644" y="328.5286560058594" text-anchor="middle" font-family="Verdana" font-size="7.5" fill="rgb(25%, 25%, 25%)" >60</text>
<line x1="59.60043301729644" y1="353.0286560058594" x2="59.60043301729644" y2="358.0286560058594" stroke="rgb(25%, 25%, 25%)" stroke-width="1.0" />
<text x="59.60043301729644" y="368.5286560058594" text-anchor="middle" font-family="Verdana" font-size="7.5" fill="rgb(25%, 25%, 25%)" >61</text>
<text x="172.26234729301714" y="80.02226149044455" text-anchor="middle" font-family="Verdana" font-size="6.0" fill="rgb(0%, 0%, 0%)" >111</text>
<text x="286.91957984841804" y="36.722985269328284" text-anchor="middle" font-family="Verdana" font-size="6.0" fill="rgb(0%, 0%, 0%)" >128</text>
</svg>
